<?xml version="1.0"?>
<svg xmlns="http://www.w3.org/2000/svg" xmlns:svg="http://www.w3.org/2000/svg" viewBox="0 0 1024 1024" preserveAspectRatio="xMidYMid" version="1.0"><path fill="#1a1a1a" d="M164.11 268.95c10 24.62 24.17 61.7 36.06 112.35.4-59.37 13.24-131.65 46.32-192.67a2.62 2.62 0 0 1 4.75.34c11.12 29.82 22.07 57.06 21.64 107.9a203 203 0 0 1 23.33-36.79c1.38-38.44-5.04-71.17-9.37-89.65-34.4 8.12-78.33-18.35-85.67-68.73-1.37-9.32.2-18.1 3.76-24.35 2.52-4.5 6.1-7.72 10.31-9.13 5.08-1.7 11.33-.84 18.06 4.18-1.72-13.18 5.22-23.11 14.42-26.86 10.32-4.2 23.9-.88 31.84 14.88 6.82-9.13 14.07-13.1 20.75-13.33 7.77-.27 15.08 4.45 20.58 12.95 10.09 15.68 14.1 44.59 3.35 74.9-4.38 12.38-11.35 21.47-19.83 27.54a317 317 0 0 1 15.53 74.26c13.99-10.57 28.95-16.65 44.02-17.38-19.54-41.2-15.81-75.9-15.24-91.27a2.7 2.7 0 0 1 1.8-2.38 2.6 2.6 0 0 1 2.87.81c20.32 24.63 51.36 48.13 79 78.19 27.42 29.88 51.52 66.16 58.8 116.14q3.61-.89 7.22-1.4c1.7-34.61 1.66-45.88.9-64.9-32.94-6.82-64.64-38.89-65.07-84.32-.08-9.9 2.9-18.77 7.66-24.66 3.38-4.2 7.65-6.94 12.37-7.7 5.8-.93 12.47 1.12 19.07 7.7-.03-7.08 2.2-12.94 5.76-17.32a24.65 24.65 0 0 1 31.24-5.94 24.65 24.65 0 0 1 31.23 5.94c3.53 4.38 5.8 10.24 5.77 17.31 6.59-6.57 13.24-8.62 19.05-7.69 4.7.76 9 3.5 12.39 7.7 4.75 5.9 7.74 14.76 7.65 24.66-.46 45.43-32.16 77.5-65.06 84.32-.8 19.02-.8 30.29.89 64.9q3.6.51 7.22 1.4c7.28-49.98 31.35-86.26 58.81-116.14 27.63-30.06 58.67-53.56 78.99-78.19a2.6 2.6 0 0 1 2.87-.81 2.6 2.6 0 0 1 1.77 2.38c.6 15.36 4.33 50.07-15.22 91.27 15.05.73 30.01 6.8 44.03 17.38a320 320 0 0 1 15.5-74.26c-8.45-6.07-15.41-15.16-19.8-27.53-10.75-30.32-6.76-59.23 3.35-74.91 5.5-8.5 12.81-13.22 20.58-12.95 6.68.23 13.93 4.2 20.75 13.33 7.94-15.76 21.53-19.09 31.84-14.88 9.2 3.75 16.14 13.68 14.42 26.86 6.73-5.02 12.98-5.89 18.05-4.18 4.22 1.41 7.77 4.63 10.32 9.13 3.53 6.25 5.1 15.03 3.75 24.35-7.33 50.38-51.26 76.85-85.66 68.73-4.33 18.48-10.75 51.21-9.37 89.65 8.51 10.55 16.36 22.9 23.3 36.78-.4-50.83 10.55-78.07 21.67-107.9a2.6 2.6 0 0 1 2.26-1.7 2.6 2.6 0 0 1 2.5 1.37c33.07 61.02 45.9 133.3 46.3 192.67 11.88-50.65 26.06-87.73 36.06-112.35-10.97-7.28-19.31-19.14-22.58-35.79-6.16-31.56 2.03-59.57 14.36-73.6 6.68-7.6 14.58-11.2 22.24-9.79 6.56 1.21 13.15 6.21 18.57 16.24 10.15-14.43 24.1-15.72 33.68-10.05 8.54 5.06 13.96 15.9 10.32 28.68 7.39-3.97 13.7-3.9 18.48-1.48 3.96 2.02 7 5.73 8.86 10.54 2.58 6.7 2.83 15.63.11 24.65-12.98 43.22-51.67 63.63-83.17 58.6-10.4 26.29-28.66 80.18-37.43 169.6a1405 1405 0 0 0-3.2 37.1c19.37-29.73 43.33-59.52 58.05-100.3a2.7 2.7 0 0 1 2.59-1.72c1.11.04 2.12.8 2.43 1.9 7.68 27.1 21.21 58.78-8.05 152.08a166 166 0 0 1-17.54 38.31c39.06-2.74 47.63 56.64 7.8 77.58.37 17.38.6 49.95-1.87 86.61-1.72 25.54-4.76 53.05-9.92 78.8-.25 1.3-1.63 8.59-4.27 18.58-3.55 13.5-9.46 31.92-18.08 47.3a87 87 0 0 1-11.18 16c-6.25 13.54-14.33 25.76-24.3 32.32-24.05 15.8-60.47 26.68-102.32 33.9-62.31 10.74-136.68 13.44-199.8 12.58-63.1.86-137.51-1.84-199.78-12.58-41.88-7.22-78.3-18.1-102.32-33.9-10-6.56-18.1-18.78-24.31-32.31a89 89 0 0 1-11.2-16c-8.6-15.4-14.5-33.8-18.06-47.3-2.67-10-4.01-17.29-4.27-18.58-5.16-25.76-8.2-53.27-9.92-78.8a991 991 0 0 1-1.86-86.62c-39.84-20.94-31.27-80.32 7.8-77.58a165 165 0 0 1-17.54-38.3c-29.3-93.3-15.74-125-8.06-152.08a2.6 2.6 0 0 1 2.44-1.91 2.7 2.7 0 0 1 2.58 1.73c14.73 40.77 38.69 70.56 58.06 100.28q-1.33-17.65-3.2-37.09c-8.78-89.42-27.03-143.31-37.44-169.6-31.5 5.03-70.19-15.38-83.2-58.6-2.7-9.02-2.44-17.95.14-24.65 1.86-4.81 4.9-8.52 8.86-10.54 4.78-2.43 11.1-2.49 18.49 1.48-3.65-12.77 1.77-23.62 10.31-28.68 9.57-5.67 23.5-4.38 33.68 10.05 5.41-10.03 12-15.03 18.57-16.24 7.65-1.4 15.56 2.18 22.24 9.8 12.3 14.02 20.52 42.03 14.33 73.6-3.23 16.64-11.58 28.5-22.56 35.78zm-19.97 2.52.23-.05a47 47 0 0 0 15.13-5.77c10.72-6.44 18.89-17.52 22.01-33.49 5.82-29.62-1.57-55.97-13.13-69.14-5.24-5.98-11.31-9.2-17.33-8.09-6.2 1.15-12.04 6.75-16.85 17.53a2.62 2.62 0 0 1-4.67.22c-8.32-14.75-20.59-17.19-29.01-12.2-8.4 4.98-12.47 17-4.67 30.22a2.6 2.6 0 0 1-.57 3.34 2.6 2.6 0 0 1-3.39 0c-8.48-7.2-15.42-8.76-20.46-6.2-2.87 1.47-4.99 4.24-6.34 7.75-2.23 5.78-2.34 13.47 0 21.25 12.33 41 49.67 60.36 79.05 54.63zm44.6 206.7c2.54-21 7.05-40.21 13.18-56.91q-.56-5.47-.92-11.21a732 732 0 0 0-41.47-138.4q-.46.24-.98.48a53 53 0 0 1-10.08 3.73c10.54 26.82 28.68 80.97 37.46 170.18q1.61 16.71 2.8 32.13zM153.37 575l1.14.3q13.45 3.54 25.85 6.6c-21.17-60.1-44.65-61.26-58.49-183.07-6.77 24.67-11.92 58.94 12 135.2a159 159 0 0 0 19.5 40.97zm-25.91-173.6c14.04 120.03 37.8 119.64 58.98 181.98 7.97 1.91 15.62 3.69 23.08 5.33 4.04-36.04-6.54-63.4-22.16-89.64q-1.15-1.94-2.35-3.87c-17.8-28.92-41.07-56.95-57.55-93.8zm14.96 246.13 1.12.52c5.61 2.57 57.63 12.76 126.5 19.15q9.9.91 20.21 1.7a1222 1222 0 0 0 42.9 2.58c15.54.66 30.39 1.3 44.8 1.88 24.54 1 47.81 1.85 71.05 2.34l5.7.11q55.65 1.04 111.24 0l5.7-.11c23.27-.5 46.55-1.33 71.08-2.34 14.42-.58 29.23-1.22 44.77-1.88 14.7-.61 29.09-1.5 42.93-2.57q10.32-.8 20.2-1.71c68.87-6.4 120.87-16.58 126.51-19.15l1.12-.52c38.46-18.73 29.55-77.8-10.75-67.16-64.4 17-109.36 25.2-158.72 29.58-25.3 2.24-51.76 3.48-82.57 4.37q-9.64.29-19.92.52c-27.71.66-59.04 1.17-95.9 1.95h-.11c-37.75-.8-69.68-1.31-97.85-2q-9.23-.21-18-.47c-30.78-.89-57.23-2.13-82.54-4.37-49.35-4.38-94.32-12.59-158.72-29.58-40.3-10.64-49.21 48.43-10.75 67.16zm3.18 88.22a876 876 0 0 0 57.27 9.19c-2.07-50.79.86-76.44 1.17-80.26-30.7-4.43-52.6-8.83-60.22-11.02a990 990 0 0 0 1.78 82.09zm13.7 96.82a868 868 0 0 0 51.76 8.72q-1.23-8.1-2.18-16.98a1258 1258 0 0 1-5.79-74.05 900 900 0 0 1-57.14-9.08c1.74 24.33 4.7 50.3 9.57 74.7.26 1.2 1.46 7.67 3.78 16.69zm28.63 62.87q.1.06.14.14a44 44 0 0 0 9.06 7.76c10.29 6.46 22.79 12.08 36.98 16.94-4.99-10.32-15.68-35.05-22.16-73.57a886 886 0 0 1-51.1-8.48c3.52 12.62 8.91 28.5 16.45 41.99a86 86 0 0 0 10.63 15.22zm638.13 12.5c-62.68 39.15-205.58 47.72-315.72 46.3-110.15 1.42-253.05-7.15-315.73-46.3 4.67 7.87 10.12 14.59 16.48 18.77 23.59 15.48 59.3 26.04 100.34 33.11 62.02 10.7 136.05 13.36 198.88 12.51h.06c62.82.85 136.85-1.8 198.87-12.5 41.01-7.08 76.75-17.64 100.31-33.12 6.37-4.18 11.84-10.9 16.5-18.76zm33.76-69.7a889 889 0 0 1-51.1 8.47c-6.48 38.52-17.17 63.25-22.15 73.57 14.18-4.86 26.65-10.48 36.94-16.94a44 44 0 0 0 9.08-7.76q.05-.08.15-.14a84 84 0 0 0 10.6-15.22c7.57-13.49 12.96-29.37 16.48-41.99zm14.88-97.06a895 895 0 0 1-57.12 9.08c-.98 20.7-2.75 45.3-5.79 74.05a424 424 0 0 1-2.18 16.98 858 858 0 0 0 51.73-8.72 242 242 0 0 0 3.78-16.7c4.9-24.38 7.86-50.36 9.58-74.7zm2.15-87.52c-7.65 2.2-29.52 6.59-60.22 11.02.32 3.82 3.24 29.47 1.18 80.26a882 882 0 0 0 57.26-9.2 993 993 0 0 0 1.78-82.08zM835.63 495.2q-.86 1.4-1.69 2.83c-15.96 26.55-26.88 54.16-22.78 90.68q11.12-2.45 23.01-5.32c21.26-62.75 45.11-61.33 59.18-182.32-16.47 37.02-39.86 65.12-57.72 94.13zm63.25-96.1c-13.87 122.2-37.4 122.43-58.64 182.8q12.43-3.05 25.92-6.6l1.14-.3a160 160 0 0 0 19.5-40.97c23.84-75.97 18.8-110.27 12.08-134.92zm-36.77-126.97-1-.5a730 730 0 0 0-40.78 135.09 216 216 0 0 1 8.77 32.1c.4.61.54 1.36.37 2.05q2.24 11.96 3.47 24.97.82-9.66 1.8-19.81c8.77-89.21 26.92-143.36 37.46-170.18q-5.26-1.35-10.09-3.72zm-.94-6.5a47 47 0 0 0 15.13 5.78l.23.05c29.38 5.73 66.73-13.64 79.05-54.63 2.32-7.78 2.2-15.47 0-21.25-1.35-3.5-3.47-6.28-6.37-7.75-5.01-2.56-11.95-1-20.43 6.2-.97.83-2.4.83-3.41 0a2.65 2.65 0 0 1-.57-3.34c7.79-13.22 3.75-25.24-4.68-30.22-8.4-4.99-20.69-2.55-28.97 12.2a2.65 2.65 0 0 1-4.7-.22c-4.79-10.78-10.63-16.38-16.86-17.53-5.98-1.1-12.06 2.1-17.3 8.1-11.56 13.16-18.95 39.5-13.16 69.13 3.13 15.97 11.32 27.05 22.04 33.49zm-107.85 43.1a281 281 0 0 1 13.33 37.9 56 56 0 0 1 19.92 9.68c-.55-47.14-12.56-80.48-16.97-152.8-9.92 27.1-18.32 55.25-16.28 105.23zm21.41-107.65c4.44 76.2 17.31 109.56 17.11 159.6 9 8.26 16.88 19.57 23.27 33.4 1.43-57.69-9.31-130.45-40.38-193zm-54.92 61.63a134 134 0 0 0-18.54-18.86c-15.33-12.65-31.98-19.62-48.7-19.32l-.8.02h-.17c-16.28-.51-32.5 5.88-47.54 17.73a131 131 0 0 0-18.78 18.34l-.49.72q-.3.45-.74.74c-14.22 17.24-26.6 39.69-35.94 65.87a107 107 0 0 1 16.65 10.75q2.1 1.62 4.16 3.37c25.9 21.97 48.43 58.44 62.68 103.95 11.4-20.96 24.1-39.26 37.37-54.33a2.7 2.7 0 0 1 1.52-1.7c10.35-11.52 21.04-21.08 31.7-28.42 17.8-12.25 35.6-18.33 51.82-17.25q3.44.22 6.79.9a279 279 0 0 0-12.5-34.83c-8.08-18.43-17.74-34.54-28.49-47.68zm8.95-93.76a50 50 0 0 1-7.94-3.57c-5.04 15.08-12.4 40.85-15.13 75.3q6.84 5.8 13.35 13.04c-.52-36.39 5.6-67.1 9.72-84.77zm-.64-5.85q2.24.9 4.5 1.58l.15.04c31.93 9.31 74.55-15.92 81.54-63.79 1.14-8.03-.09-15.62-3.15-21.01-1.84-3.27-4.33-5.7-7.4-6.74-5.36-1.79-11.98.77-19.31 9.14a2.63 2.63 0 0 1-4.42-2.72c5.76-14.23-.03-25.52-9.08-29.2-9.06-3.7-20.84.5-26.86 16.32a2.7 2.7 0 0 1-2.2 1.67 2.6 2.6 0 0 1-2.47-1.2c-6.36-9.96-12.96-14.64-19.26-14.87-6.1-.21-11.63 3.86-15.97 10.55-9.48 14.72-12.9 41.86-2.8 70.32 5.44 15.36 15.19 25.12 26.73 29.91zM543.35 325.66c9.74-27.18 22.76-50.39 37.66-68.1 13.96-20.87 25.48-31.62 36.23-42.32 15.47-15.36 29.3-30.62 46.66-76.89-15.53 16.85-35.37 33.58-54.94 52.68-33.36 32.56-65.98 72.08-74.37 131.27a84 84 0 0 1 8.76 3.36zm123.96-181.53c-17.08 44.38-30.95 59.54-46.37 74.84-4.9 4.87-9.95 9.75-15.37 15.63 14.48-10.18 29.9-15.58 45.32-15.31 14.9-30.24 16.73-57.05 16.42-75.16zM519.5 324.4h-.06q-4.51-.5-9.03-.36h-.17q-4.5-.14-9.03.35l-.06.01a69 69 0 0 0-11.43 2.29 80 80 0 0 0-12.78 4.95 101 101 0 0 0-17.83 11.22 139 139 0 0 0-4.07 3.32c-26.48 22.5-49.18 60.55-62.9 107.92a355 355 0 0 0-13 74.22q0 0 0 0c-2.37 33.97 4.65 60.44 16.86 80.82q8.08.23 16.54.43c28.17.68 60.07 1.2 97.79 1.98 36.82-.76 68.12-1.28 95.8-1.93 6.37-.15 12.5-.31 18.5-.48 12.23-20.38 19.25-46.86 16.87-80.82a355 355 0 0 0-13.12-74.7c-13.76-47.2-36.46-85.11-62.88-107.53a139 139 0 0 0-3.96-3.23 102 102 0 0 0-17.83-11.22 80 80 0 0 0-12.86-4.98 70 70 0 0 0-11.36-2.26zm-5.62-68.72q-.9.24-1.78.24-.89 0-1.77-.03-.89.03-1.78.03-.88 0-1.78-.24-1.1-.1-2.18-.24c.75 18.36.72 29.9-.88 63.47a67 67 0 0 1 6.62-.12q3.3-.1 6.62.12c-1.61-33.58-1.64-45.11-.89-63.47q-1.09.14-2.18.24zm-11.7-5.9.1.01q2.62.45 5.2.68.32.03.64.12.2.08.4.09l1.72-.04h.17l1.7.04q.21 0 .42-.09.3-.09.63-.12a61 61 0 0 0 5.3-.7c31.5-5.51 62.28-36.1 62.69-79.59.08-8.54-2.38-16.22-6.48-21.32-2.5-3.11-5.62-5.23-9.12-5.8-6.13-.98-13.1 2.8-19.89 12.86a2.64 2.64 0 0 1-4.72-2.14c2.49-9.45.68-17.09-3.47-22.22-6.05-7.5-17-9.54-25.74-3.97-.86.55-1.95.55-2.8 0a19.5 19.5 0 0 0-25.77 3.97c-4.13 5.13-5.94 12.77-3.44 22.22a2.63 2.63 0 0 1-4.73 2.14c-6.82-10.06-13.76-13.84-19.9-12.86-3.49.57-6.61 2.69-9.1 5.8-4.1 5.1-6.57 12.78-6.51 21.32.43 43.49 31.18 74.08 62.7 79.6zm-132.4-30.48c15.93-.28 31.87 5.5 46.74 16.35-5.9-6.58-11.43-11.89-16.76-17.18-15.42-15.3-29.3-30.48-46.41-74.94-.37 18.11 1.35 45.2 16.42 75.77zm-12.61-80.5c17.19 45.54 30.92 60.7 46.28 75.95 10.92 10.84 22.61 21.76 36.83 43.2q.25.4.37.82c14.48 17.57 27.11 40.33 36.63 66.9a85 85 0 0 1 8.8-3.36c-8.43-59.19-41.01-98.7-74.37-131.27-19.41-18.93-39.07-35.54-54.54-52.23zM319.4 243.87a136 136 0 0 0-18.57 18.86 180 180 0 0 0-10.81 14.79c9.06 13.02 18.2 17.07 26.43 15.8 4.06-.62 7.85-2.49 11.2-5.07a33 33 0 0 1-4.53-10.1c-2.74-10.82.52-21.8 11.44-24.52 4.47-1.13 7.63-.28 9.66 1.5 2.87 2.51 3.75 7.46 2.35 13.36-1.58 6.53-5.85 14.28-11.81 20.31a19 19 0 0 0 8.37 5.18c5.04 1.43 10.98.46 17.5-4.1a29 29 0 0 0 4.57-3.93 26 26 0 0 1-6.42-5.9c-5.07-6.62-6.5-15.5-1.52-24.8 3.21-5.93 6.76-8.31 9.72-8.64 3.35-.36 6.56 1.64 8.71 5.62 3.8 7 4.44 20.68-2.52 31.94 12.12 4.47 29.46.51 40.75-19.2 4.01-6.99 5.53-17.67 5.76-19.26q.06-.38.23-.72l-3.3-2.7c-15.04-11.84-31.26-18.23-47.54-17.72h-.17l-.8-.02c-16.74-.3-33.37 6.67-48.7 19.32zm-19.55-78.47a49 49 0 0 1-7.96 3.57c4.15 17.67 10.22 48.38 9.74 84.77q6.46-7.23 13.36-13.04a315 315 0 0 0-15.14-75.3zm-11.95-.66.14-.04a45 45 0 0 0 4.47-1.58c11.59-4.8 21.33-14.55 26.78-29.91 10.08-28.46 6.64-55.6-2.84-70.32-4.3-6.7-9.83-10.76-15.94-10.55-6.33.23-12.92 4.91-19.26 14.87a2.6 2.6 0 0 1-2.46 1.2c-1-.1-1.86-.75-2.2-1.67-6.03-15.82-17.8-20.03-26.9-16.33-9.02 3.69-14.81 14.98-9.05 29.21a2.63 2.63 0 0 1-4.41 2.72c-7.34-8.37-13.99-10.93-19.32-9.14-3.07 1.03-5.56 3.47-7.42 6.74-3.04 5.39-4.3 12.98-3.13 21.01 6.97 47.87 49.59 73.1 81.54 63.8zM272.37 310.4c-4.3 9.77-8.14 20.2-11.44 31.2 17.11 13.53 33.4 13 45.03 7.33-2.76-7.17-3.04-15.22-1.2-21.35 2.32-7.67 7.76-12.36 15.33-10.38 3.5.92 5.78 2.79 7.1 5.17 1.87 3.33 1.78 7.89-.25 12.7-2.32 5.55-7.34 11.55-14.19 16.02a21 21 0 0 0 5.56 6.23c4.56 3.33 10.86 4.76 19.06 2.88a36 36 0 0 0 8.3-2.94c-6.15-8.52-7.53-19.71-.2-29.35 3.9-5.13 7.83-6.58 10.93-6.11 3.26.49 6.08 3.18 7.51 7.4 2.6 7.63.74 20.67-10.15 29.2 9.43 8.38 25.34 10.65 37.95-3.23a40 40 0 0 0 6.22-8.94c-4.39-1.08-8.02-3.22-10.52-6.27-3.55-4.3-4.96-10.54-2.81-18.56 1.55-5.64 4.3-8.37 7.05-9.2 2.98-.92 6.36.2 9.18 3.28 4.41 4.82 7.56 14.96 4.41 26.3 17.45-.2 42.19-15.67 51.33-49.35l.08-.3c-9.4-17.32-20.34-31.9-32.18-43.06-.78 4.3-2.61 12.59-6 18.5-13.37 23.37-34.24 26.95-48.48 20.91a35 35 0 0 1-6.3 5.69c-8.2 5.7-15.72 6.64-22 4.85a24 24 0 0 1-10.83-6.76c-4.04 3.18-8.68 5.48-13.61 6.25-9.29 1.42-19.95-2.33-30.27-16.23-5.3 8.6-10.2 18.01-14.61 28.12zm-66.15 98.98q.1.4.14.8c6.4-14.44 14.13-26.57 22.93-35.86q-.04-.09-.03-.18c-2.92-58.2 11.84-90.38 16.71-173.1-33.9 68.23-43.62 148.61-39.75 208.34zm44.85-205.82c-4.84 78.68-18.71 111.1-16.73 165.86a67 67 0 0 1 16.67-11.1 292 292 0 0 1 16.34-49.57c2-49.94-6.36-78.1-16.28-105.2zm81.89 473.18a1221 1221 0 0 1-36.6-2.1c.08 29.95.65 56.17 1.6 79.32 34.7 2.3 70.42 3.76 105.61 4.58-.94-38.73.15-68 .6-78.9-8.68-.3-17.47-.65-26.45-1.02zm76.46 3.09c-.43 10.85-1.55 40.12-.57 78.83 33.47.72 66.46.87 97.64.62.9-40.84 2.44-67.43 3.13-77.69q-27.53 0-55-.52l-5.73-.11c-13.07-.28-26.14-.67-39.47-1.13zm105.45 1.75v.1c-.67 10.02-2.21 36.6-3.13 77.58 31.9.28 65.72.14 100.08-.6.98-38.71-.14-67.98-.57-78.83a2836 2836 0 0 1-45.2 1.24q-25.57.49-51.18.51zm101.62-1.94c.44 10.9 1.55 40.17.58 78.9 35.22-.82 70.93-2.28 105.64-4.58a2139 2139 0 0 0 1.6-79.32c-11.89.86-24.13 1.58-36.6 2.1-15.53.66-30.37 1.3-44.79 1.88q-13.4.56-26.43 1.02zm163.17 242.9q.09-.34.26-.66c3.12-6.2 15.87-31.3 23.35-74.42a1451 1451 0 0 1-84.29 8.47c-5.56 35.52-12.98 59.95-21.43 83.75 30.15-4.05 58.23-9.62 82.1-17.13zm-87.87 17.89q.02-.3.14-.6c8.54-23.9 16.02-48.14 21.67-83.5-34.2 2.4-69.19 3.9-103.61 4.72-3.41 28.7-8.31 58.33-15.25 86.96 32.76-1.25 65.9-3.63 97.05-7.58zm-102.5 7.78c7.03-28.63 11.96-58.29 15.4-87.04-32.1.7-63.6.82-93.44.52.3 26.59.92 55.77 2.04 87.35 24.19.27 49.92.07 76-.83zm-81.25.82a3555 3555 0 0 1-2.03-87.31c-28.84.26-59.16.13-90.02-.55 3.43 28.75 8.36 58.41 15.38 87.04 26.29.91 52.25 1.1 76.67.82zm-82.14-1.02c-6.93-28.63-11.8-58.26-15.22-86.96-34.42-.82-69.42-2.33-103.6-4.73 5.61 35.37 13.12 59.62 21.66 83.51q.12.3.15.6c31.15 3.95 64.28 6.33 97 7.58zm-102.78-8.33c-8.45-23.8-15.87-48.23-21.43-83.75a1449 1449 0 0 1-84.3-8.47c7.48 43.11 20.21 68.23 23.37 74.42q.18.32.23.67c23.87 7.5 51.99 13.08 82.13 17.13zm492.02-531.83-.31-.88c-11.41-30.35-29.18-50-50.85-55.56l-.08-.03-.12-.02a47 47 0 0 0-10.12-1.79c-15.22-1.02-31.84 4.86-48.49 16.33-10.32 7.1-20.63 16.33-30.64 27.44l12.47 40.2 37.52-24.05a2.62 2.62 0 0 1 3.9 1.39l15.07 45.74 35.02-32.52c.66-.6 1.58-.84 2.44-.62a2.6 2.6 0 0 1 1.83 1.68L796.4 464l27.48-24.5a209 209 0 0 0-8.74-31.66zM460.15 298.77c-11.32 34.21-38.38 48.95-56.58 48.23h-.2a44 44 0 0 1-7.76 11.7c-15.53 17.1-35.25 13.47-46.38 2.66a42 42 0 0 1-10.68 3.96c-8.8 2-15.77.74-21.1-2.32a25.5 25.5 0 0 1-9.23-9.33 43 43 0 0 1-7.7 2.93 98 98 0 0 1 17.39 8.31c25.28 15.13 50.53 43.49 71.02 81.54 14.21-45.64 36.77-82.22 62.71-104.28q2.1-1.8 4.27-3.46a108 108 0 0 1 16.62-10.75 257 257 0 0 0-12.38-29.19zM256.98 356q1.67-.53 3.35-.96a53 53 0 0 1 8.68-2.04 63 63 0 0 1-9.65-5.99 365 365 0 0 0-2.38 9zm-53.63 77.45c72.83 1.68 124.82-31.2 137.89-43.56-8.54-8.35-17.29-15.23-26.06-20.48-16.79-10.05-33.61-14.03-48.95-10.55-1.49.34-2.95.8-4.44 1.23a64 64 0 0 0-7.48 2.51c-19.37 8.28-35.4 28.98-46.43 57.68l-.83 2.23a190 190 0 0 0-3.7 10.94zm-4.84 18.46c80.2 10.1 136.16-26.04 155.88-47.74a217 217 0 0 0-9.45-10.55c-13.67 12.87-67.59 47.22-143.1 45.04a243 243 0 0 0-3.33 13.25zm-6.22 45.19c7.94 13.44 14.59 27.2 18.71 42.2 7.66 1.18 44.09 8.28 97.62-9.2 42-13.72 51.62-23.77 70.14-44.07q.26-.25.5-.43a353 353 0 0 1 7.52-31.97c-8.83-17.11-18.66-32.34-29.03-45.35-20.81 22.45-78.25 59.27-160.33 48.8a305 305 0 0 0-5.13 40.02zm22.38 92.73a779 779 0 0 0 97.62 14.9c23.93 2.12 48.87 3.34 77.56 4.21-10.75-19.12-17.23-43.18-16.34-73.2-8.57 7.31-29.46 24.38-81.26 33.64-37.85 6.77-67.06 2.12-76.66.29a144 144 0 0 1-.92 20.16zm.63-25.57c7.83 1.56 37.3 6.88 76.04-.05 57.5-10.28 75.86-30.43 81.91-35.1q.3-.22.6-.34a365 365 0 0 1 3.81-33.76c-16.19 17.42-28 27.2-67.4 40.08-50.87 16.63-86.7 11.54-97.85 9.74a123 123 0 0 1 2.9 19.43zm-6.07 101.17c-.43 4.99-3.12 30.7-1.06 80.2 26.8 3.34 55.26 5.96 84.52 7.97-.95-23.19-1.5-49.41-1.6-79.35l-1.27-.1a1320 1320 0 0 1-80.6-8.72zm520.36 8.82a2188 2188 0 0 1-1.6 79.35 1551 1551 0 0 0 84.51-7.98c2.07-49.49-.63-75.2-1.08-80.19a1318 1318 0 0 1-80.6 8.73zM216.5 842.05c26.85 3.6 55.28 6.42 84.37 8.57-3.58-24.4-6.3-53.95-7.96-91.74a1566 1566 0 0 1-84.52-7.94c.94 20.4 2.72 44.62 5.7 72.82q1.04 9.6 2.4 18.29zm595.76-91.11a1566 1566 0 0 1-84.51 7.94c-1.67 37.79-4.39 67.34-7.97 91.74 29.08-2.15 57.49-4.97 84.38-8.57q1.37-8.7 2.4-18.29a1266 1266 0 0 0 5.7-72.82zM820 512.5l-25.48 27.56a2.65 2.65 0 0 1-4.27-.57l-21.95-42.08-45.63 34.12c-.63.49-1.46.65-2.23.44a2.6 2.6 0 0 1-1.75-1.51l-21.64-51.06-41.7 20.17a2.62 2.62 0 0 1-3.64-1.57l-15.57-49.37q-1.2 2.24-2.4 4.54c6.62 23 11.15 48.14 13 74.77q.42 5.7.47 11.15c10.77 7.92 33.62 26.43 93.37 41.67 36.09 9.2 58.5 7.51 65.15 6.84-2.95-29.28 3.41-53.03 14.27-75.1zm4.96-66.95-28 25c-.66.58-1.55.8-2.41.58a2.6 2.6 0 0 1-1.83-1.67l-13.56-38.78-35.1 32.57a2.63 2.63 0 0 1-4.28-1.1l-15.3-46.41-37.58 24.08c-.68.45-1.54.55-2.29.26a2.7 2.7 0 0 1-1.63-1.68l-12.53-40.42c-10.83 12.7-21.24 27.6-30.78 44.35l.09.27 16.05 50.92 41.44-20.05a2.6 2.6 0 0 1 3.56 1.34l21.4 50.51 45.4-33.97a2.67 2.67 0 0 1 3.93.9l21.67 41.5 35.4-38.32q.2-.22.42-.38a301 301 0 0 0-4.07-49.5zM368.44 281.83c6.19-9.5 5.9-21.14 2.63-27.1-.94-1.76-2.03-3.07-3.52-2.9-.75.07-1.49.52-2.3 1.25a18 18 0 0 0-3.35 4.65c-3.87 7.17-2.86 14.02 1.03 19.12a22 22 0 0 0 5.5 4.98zm-36.86 2.87c4.99-5.23 8.54-11.88 9.89-17.44.46-2.02.66-3.88.46-5.46a4.4 4.4 0 0 0-1.18-2.73c-1.03-.89-2.67-.93-4.93-.37-7.94 2-9.6 10.28-7.6 18.14a28 28 0 0 0 3.36 7.86zm68.35 56.6c3.02-9.6.75-18.2-2.98-22.28-1.2-1.32-2.5-2.2-3.78-1.8-1.55.47-2.6 2.35-3.5 5.55-1.6 5.97-.82 10.66 1.78 13.87 1.98 2.4 4.93 3.95 8.48 4.66zm-49.78 13.17c9.06-6.9 10.92-17.32 8.8-23.57-.71-2.05-1.75-3.67-3.35-3.91-1.78-.27-3.7 1.13-5.93 4.1-5.85 7.69-4.53 16.63.48 23.38zm-39.63-8.16c5.55-3.76 9.63-8.65 11.57-13.28 1.32-3.08 1.7-5.98.52-8.1q-1.07-1.91-3.87-2.64a6.1 6.1 0 0 0-6.77 2.33c-1.94 2.53-2.98 6.37-3.15 10.57-.11 3.6.4 7.48 1.7 11.12zm-12.33 412.92c1.66 37.91 4.44 67.44 8.09 91.78a2262 2262 0 0 0 103.8 4.78 1107 1107 0 0 1-6.36-92 2498 2498 0 0 1-105.53-4.56zm110.77 4.68c.8 27.33 2.64 58.99 6.4 92 31.06.69 61.59.82 90.6.56-.35-35.57-.1-66.37.42-91.93-31.1.24-64 .1-97.42-.63zm102.67.6c-.52 25.55-.78 56.35-.43 91.93 30.03.3 61.79.19 94.09-.53 3.78-33.01 5.61-64.67 6.4-92-34.38.74-68.2.88-100.06.6zm105.32-.72c-.8 27.33-2.6 58.97-6.36 92 34.5-.84 69.59-2.36 103.8-4.78 3.65-24.34 6.4-53.87 8.1-91.78a2498 2498 0 0 1-105.54 4.56zm91.35-159.06 2.32-.2c-24.65-6.95-39.58-13.07-66.52-31.44a125 125 0 0 1-13.28 35.85c28.67-.87 53.6-2.09 77.48-4.21zm-63.14-37.28c31.98 22.04 46.74 26.73 79.75 35.52l.26.09a767 767 0 0 0 63.63-9.7c-11.64-.36-28.26-2.09-49.5-7.5-55.8-14.24-80.01-31.3-92.11-40.26-.2 7.7-.92 14.97-2.03 21.85zm238.56-389.4a2.6 2.6 0 0 1 3.3-1.67 2.63 2.63 0 0 1 1.7 3.31c-12.5 38.09-13.45 50.75-15.86 74.89 23.45-24.4 29.55-30.56 47.4-56.43a2.6 2.6 0 0 1 3.64-.68c1.2.82 1.5 2.46.7 3.66-19.32 28-25.02 33.15-53.23 62.58a2.6 2.6 0 0 1-3.01.57c-1-.48-1.6-1.54-1.49-2.66 3.13-29.84 2.93-41.13 16.85-83.56zM623.7 244.27A25.77 25.77 0 0 1 649.45 270a25.75 25.75 0 1 1-25.76-25.74zm0 5.25a20.5 20.5 0 1 0 0 41 20.5 20.5 0 0 0 0-41zm81.97 40.98a25.74 25.74 0 1 1-.02 51.49 25.74 25.74 0 0 1 .02-51.49zm0 5.26a20.5 20.5 0 0 0-20.52 20.48 20.5 20.5 0 0 0 41.01 0 20.5 20.5 0 0 0-20.5-20.48zm-81.97 40.97a25.77 25.77 0 0 1 25.76 25.74 25.75 25.75 0 1 1-25.76-25.74zm0 5.25a20.5 20.5 0 1 0 0 40.98 20.5 20.5 0 0 0 20.52-20.5c0-11.3-9.2-20.48-20.52-20.48zM737.24 75.31a2.63 2.63 0 0 1 5.16 1.06c-9.03 44.15-9.4 49.88-9.86 68.88 8.88-13.7 20-30.14 42.05-55.47a2.6 2.6 0 0 1 3.7-.26 2.6 2.6 0 0 1 .28 3.7c-26.17 30.05-36.8 47.47-46.69 62.72a2.62 2.62 0 0 1-4.82-1.5c.75-27.8-.28-27.94 10.18-79.13zm-225.01 423.8a6.58 6.58 0 0 1 12.5 0l3.15 9.7c.17.53.65.9 1.23.9h10.2a6.56 6.56 0 0 1 3.84 11.86l-8.22 5.98c-.46.34-.66.93-.49 1.47l3.15 9.68a6.54 6.54 0 0 1-10.09 7.33l-8.25-5.98a1.3 1.3 0 0 0-1.55 0l-8.25 5.98a6.56 6.56 0 0 1-10.1-7.33l3.16-9.68a1.3 1.3 0 0 0-.49-1.47l-8.22-5.98a6.5 6.5 0 0 1-2.38-7.33 6.5 6.5 0 0 1 6.22-4.53h10.2c.58 0 1.06-.37 1.23-.9zm5.01 1.62-3.15 9.7a6.6 6.6 0 0 1-6.25 4.53h-10.2a1.3 1.3 0 0 0-1.23.9c-.17.54 0 1.12.45 1.46l8.26 5.99a6.5 6.5 0 0 1 2.38 7.33l-3.13 9.69c-.2.53 0 1.13.46 1.46s1.1.33 1.55 0l8.23-6a6.6 6.6 0 0 1 7.74 0l8.22 6c.46.33 1.09.33 1.55 0s.66-.93.48-1.46l-3.15-9.69a6.55 6.55 0 0 1 2.38-7.33l8.25-6c.46-.33.64-.91.46-1.45s-.65-.9-1.23-.9h-10.2a6.6 6.6 0 0 1-6.25-4.53l-3.15-9.7a1.3 1.3 0 0 0-1.24-.9 1.3 1.3 0 0 0-1.23.9zm-89.16-49.07a6.58 6.58 0 0 1 12.5 0l3.15 9.69c.17.54.65.9 1.23.9h10.2a6.55 6.55 0 0 1 3.84 11.86l-8.25 5.99c-.46.33-.63.92-.46 1.46l3.15 9.69a6.6 6.6 0 0 1-2.38 7.34 6.6 6.6 0 0 1-7.74 0l-8.22-6a1.3 1.3 0 0 0-1.55 0l-8.25 6a6.57 6.57 0 0 1-10.1-7.34l3.16-9.69a1.3 1.3 0 0 0-.48-1.46l-8.23-5.99a6.56 6.56 0 0 1 3.84-11.86h10.2c.58 0 1.07-.36 1.23-.9zm4.99 1.63-3.13 9.68a6.6 6.6 0 0 1-6.25 4.53h-10.2a1.3 1.3 0 0 0-1.23.9c-.17.54 0 1.14.46 1.46l8.25 6a6.6 6.6 0 0 1 2.38 7.33l-3.15 9.68a1.32 1.32 0 0 0 2.03 1.46l8.23-5.98a6.6 6.6 0 0 1 7.7 0l8.26 5.98c.46.34 1.1.34 1.55 0 .46-.33.66-.92.46-1.46l-3.12-9.68a6.5 6.5 0 0 1 2.37-7.34l8.23-5.99a1.3 1.3 0 0 0-.74-2.36h-10.2a6.6 6.6 0 0 1-6.26-4.53l-3.15-9.68c-.17-.55-.66-.9-1.23-.9-.58 0-1.06.35-1.26.9zm44.16-101.34a6.56 6.56 0 0 1 12.47 0l3.15 9.68c.18.54.69.9 1.27.9h10.17a6.56 6.56 0 0 1 3.87 11.87l-8.26 5.98c-.45.34-.66.93-.45 1.47l3.15 9.69a6.56 6.56 0 0 1-10.12 7.33l-8.25-6a1.3 1.3 0 0 0-1.52 0l-8.26 6a6.56 6.56 0 0 1-10.09-7.33l3.16-9.7a1.3 1.3 0 0 0-.49-1.46l-8.26-5.98a6.55 6.55 0 0 1 3.88-11.86h10.2c.54 0 1.06-.37 1.23-.9zm5 1.62-3.16 9.68a6.5 6.5 0 0 1-6.22 4.54h-10.2c-.58 0-1.06.36-1.27.9-.17.54.03 1.13.49 1.46l8.26 5.99a6.55 6.55 0 0 1 2.38 7.33l-3.16 9.68c-.17.55.03 1.13.49 1.47a1.3 1.3 0 0 0 1.52 0l8.25-5.99a6.6 6.6 0 0 1 7.71 0l8.25 5.99c.46.33 1.1.33 1.55 0 .46-.34.63-.92.46-1.47l-3.15-9.68a6.6 6.6 0 0 1 2.38-7.33l8.25-5.99c.46-.33.66-.92.49-1.46s-.69-.9-1.26-.9h-10.17a6.6 6.6 0 0 1-6.26-4.53l-3.15-9.7a1.3 1.3 0 0 0-2.49 0zm-54.15 203.61a6.58 6.58 0 0 1 12.5 0l3.15 9.7c.17.53.65.9 1.23.9h10.2a6.54 6.54 0 0 1 3.84 11.86l-8.25 5.98c-.46.34-.63.93-.46 1.47l3.15 9.68a6.6 6.6 0 0 1-2.38 7.34 6.6 6.6 0 0 1-7.74 0l-8.22-6a1.3 1.3 0 0 0-1.55 0l-8.25 6a6.57 6.57 0 0 1-10.1-7.34l3.16-9.68a1.3 1.3 0 0 0-.48-1.47l-8.23-5.99a6.56 6.56 0 0 1 3.84-11.85h10.2c.58 0 1.07-.37 1.23-.9zm4.99 1.63-3.13 9.69a6.6 6.6 0 0 1-6.25 4.52h-10.2c-.57 0-1.06.37-1.23.91s0 1.13.46 1.46l8.25 5.98a6.55 6.55 0 0 1 2.38 7.33l-3.15 9.7a1.32 1.32 0 0 0 2.03 1.46l8.23-6a6.6 6.6 0 0 1 7.7 0l8.26 6c.46.33 1.1.33 1.55 0 .46-.34.66-.93.46-1.46l-3.12-9.7a6.5 6.5 0 0 1 2.37-7.33l8.23-5.98a1.3 1.3 0 0 0-.74-2.36h-10.2a6.6 6.6 0 0 1-6.26-4.53l-3.15-9.7a1.3 1.3 0 0 0-1.23-.9c-.58 0-1.06.37-1.26.9zm128.69-154.6a6.58 6.58 0 0 1 12.49 0l3.15 9.68c.17.55.66.9 1.23.9h10.2a6.56 6.56 0 0 1 3.84 11.86l-8.22 6a1.3 1.3 0 0 0-.49 1.46l3.16 9.69a6.54 6.54 0 0 1-10.1 7.33l-8.25-5.99a1.3 1.3 0 0 0-1.54 0l-8.23 5.99a6.58 6.58 0 0 1-10.12-7.33l3.15-9.7a1.3 1.3 0 0 0-.45-1.45l-8.26-6a6.54 6.54 0 0 1 3.84-11.85h10.21c.57 0 1.06-.36 1.23-.9zm5 1.62-3.14 9.69a6.6 6.6 0 0 1-6.25 4.53h-10.2a1.3 1.3 0 0 0-1.24.9 1.3 1.3 0 0 0 .5 1.46l8.21 6a6.5 6.5 0 0 1 2.38 7.32l-3.12 9.69c-.2.54 0 1.13.46 1.46s1.09.33 1.55 0l8.25-5.98a6.6 6.6 0 0 1 7.7 0l8.24 5.98a1.32 1.32 0 0 0 2.04-1.46l-3.16-9.7a6.5 6.5 0 0 1 2.38-7.32l8.25-5.99c.46-.33.63-.92.46-1.46s-.66-.9-1.23-.9h-10.2a6.6 6.6 0 0 1-6.25-4.53l-3.13-9.69c-.2-.54-.69-.9-1.26-.9s-1.06.36-1.23.9zm31.36 134.36a6.57 6.57 0 0 1 12.47 0l3.15 9.69c.18.53.69.9 1.24.9h10.2a6.55 6.55 0 0 1 3.87 11.86l-8.26 5.99c-.45.33-.65.92-.48 1.46l3.15 9.69a6.55 6.55 0 0 1-10.09 7.33l-8.25-5.99a1.3 1.3 0 0 0-1.52 0l-8.26 5.99a6.56 6.56 0 0 1-10.09-7.33l3.13-9.7c.2-.53 0-1.12-.46-1.45l-8.25-5.99a6.55 6.55 0 0 1 3.86-11.86h10.18c.57 0 1.09-.37 1.26-.9zm4.99 1.62-3.16 9.69a6.55 6.55 0 0 1-6.24 4.53h-10.18a1.3 1.3 0 0 0-1.25.9 1.3 1.3 0 0 0 .48 1.46l8.26 6a6.6 6.6 0 0 1 2.37 7.32l-3.15 9.69a1.3 1.3 0 0 0 2 1.46l8.26-5.99a6.6 6.6 0 0 1 7.71 0l8.25 6a1.3 1.3 0 0 0 2.01-1.47l-3.15-9.69a6.5 6.5 0 0 1 2.38-7.33l8.25-5.99c.46-.33.66-.92.49-1.46-.2-.54-.69-.9-1.26-.9h-10.2a6.5 6.5 0 0 1-6.23-4.53l-3.15-9.7a1.32 1.32 0 0 0-2.5 0zM478.18 165.07a2.63 2.63 0 0 1 5.2-.77c6.4 43.37 11.77 54.72 23.4 74.9 21.38-46.34 27.03-66.47 29.2-73.32a2.63 2.63 0 0 1 5.02 1.6c-2.26 7.12-8.28 28.51-31.55 78.52a2.64 2.64 0 0 1-4.67.2c-13.76-23.67-19.58-33.64-26.6-81.13zm-197.44-88.7a2.63 2.63 0 0 1 5.15-1.06c10.47 51.19 9.4 51.33 10.18 79.12a2.62 2.62 0 0 1-4.82 1.5c-9.91-15.24-20.55-32.66-46.69-62.71a2.63 2.63 0 1 1 4-3.44c22.03 25.33 33.15 41.77 42.04 55.47-.47-19-.83-24.73-9.86-68.88zM134.43 179.69a2.6 2.6 0 0 1 1.66-3.3c1.4-.46 2.86.3 3.32 1.67 13.93 42.43 13.73 53.72 16.86 83.56a2.63 2.63 0 0 1-4.5 2.1c-28.2-29.44-33.91-34.6-53.23-62.6a2.63 2.63 0 1 1 4.33-2.97c17.85 25.87 23.96 32.03 47.4 56.43-2.4-24.14-3.35-36.8-15.84-74.89zm0 0" fill-rule="evenodd" stroke="#1a1a1a" stroke-width="4" stroke-linecap="round" stroke-linejoin="round" data-locked="true"></path><path d="M281.57 931.02a3128 3128 0 0 1-33.37-7.4c-4.06-.97-7.4-5.22-11.62-14.76-5.7-12.88-18.78-57.97-17.16-59.14.63-.46 79.11 7.36 80.63 8.04.24.1 1.66 6.41 3.17 14.02 2.77 14 13.43 55.32 15.98 61.97 1.92 4.98-4.28 4.53-37.63-2.73z" data-region="path2" fill="#ffffff"></path><path d="M382.65 944.45a1905 1905 0 0 1-37.86-3.46l-15-1.6-6.24-19.66c-6.05-19.03-15.54-59.82-14.26-61.31.34-.4 22.56.33 49.38 1.64 51.79 2.53 52.75 2.8 52.82 14.93.03 5.52 6.49 43.22 10.99 64.18 1.68 7.8 1.66 7.82-7.65 7.48-5.12-.2-19.6-1.18-32.18-2.2z" data-region="path3" fill="#ffffff"></path><path d="M432.2 944.94c-1.98-3.21-13.45-67.25-13.45-75.12v-7.06h86.63l.03 36.7c.02 20.18.7 39.14 1.49 42.11l1.45 5.42h-37.44c-20.6 0-38.01-.92-38.7-2.05z" data-region="path4" fill="#ffffff"></path><path d="M514.17 930.75c-.84-8.94-1.54-27.9-1.55-42.12l-.02-25.87h90.65l-1.85 13.84c-1.02 7.6-4.27 26.56-7.22 42.11L588.82 947H515.7z" data-region="path5" fill="#ffffff"></path><path d="M596.83 945.94c0-.57 1.66-8.92 3.69-18.55a859 859 0 0 0 7.08-40.13c1.87-12.44 3.9-23.12 4.51-23.74 1.27-1.26 98.1-6.1 99.25-4.96 1.4 1.41-8.69 43.96-14.78 62.3l-6.11 18.38-12.53 1.53c-12.65 1.53-69.12 6.06-76.9 6.16-2.31.03-4.2-.41-4.2-.99z" data-region="path6" fill="#ffffff"></path><path d="M700.96 934.34c3.37-8.79 11.36-38.34 15.12-55.94 2.27-10.59 4.54-19.72 5.05-20.3 1.05-1.18 78.6-9.28 79.88-8.34 2.81 2.07-15.8 60.88-21.88 69.1-3 4.06-39.71 13.58-66.63 17.28-10.9 1.5-12.7 1.22-11.54-1.8z" data-region="path7" fill="#ffffff"></path><path d="M791.77 913.9c0-1 2.03-7.22 4.51-13.84 2.49-6.62 6.48-20.7 8.88-31.28 2.4-10.6 4.65-19.67 5.02-20.18.7-.95 38.2-7.37 43.55-7.45 1.66-.03 3.01 1.1 3.01 2.52 0 6.79-15.57 38.8-23.22 47.74-10.58 12.36-41.76 29.15-41.75 22.49z" data-region="path8" fill="#ffffff"></path><path d="M395.88 968.36c-86.52-6-163.05-24.72-186.63-45.63-9.64-8.55-8.2-8.38 21.5 2.52 24.35 8.93 66.27 17.6 113.4 23.43 29.62 3.67 54.33 4.33 163.64 4.33 136.91 0 160.85-1.33 220.2-12.21 33.5-6.15 54.8-11.82 75.52-20.1 7.12-2.84 13.45-4.67 14.06-4.06 2.49 2.49-20.32 16.23-38.7 23.32-36.26 13.99-91.59 23.87-160.38 28.63-40.75 2.82-180.78 2.68-222.6-.23z" data-region="path9" fill="#ffffff"></path><path d="M811.78 833.28c.71-2.98 2.6-22.2 4.2-42.72 1.62-20.51 3.28-37.71 3.7-38.21.99-1.15 52.46-9.56 53.41-8.72 1.54 1.34-10.68 87.83-12.42 87.85a2120 2120 0 0 0-20.77 3.6c-27.95 4.93-29.69 4.82-28.12-1.8z" data-region="path10" fill="#ffffff"></path><path d="M819 704.18c-.24-21.32.3-38.76 1.2-38.76 2.1 0 40.41-6.7 49.18-8.58l6.62-1.43-.03 27.27c0 15-.69 32.86-1.51 39.7l-1.5 12.45-15.93 2.77a618 618 0 0 1-26.76 4.07l-10.83 1.28z" data-region="path11" fill="#ffffff"></path><path d="M730.14 714.47c.94-20.93 1.92-38.25 2.18-38.48.6-.52 71.53-8.17 75.69-8.17 2.28 0 3 9.31 3 38.51 0 29.62-.7 38.5-3.06 38.5-1.7 0-11.71 1.01-22.26 2.24a1484 1484 0 0 1-38.22 3.85l-19.02 1.62z" data-region="path12" fill="#ffffff"></path><path d="M722.9 836.74c.84-6.38 2.63-26.08 3.98-43.8 1.35-17.7 2.69-32.35 2.98-32.53 1.41-.9 80.06-7.8 80.78-7.1.97.94-6.5 85.84-7.64 86.98-1.13 1.13-64.04 7.98-73.51 8l-8.14.03z" data-region="path13" fill="#ffffff"></path><path d="M612.38 848.36c.69-3.33 2.42-23.37 3.86-44.54s2.8-38.63 3.03-38.8c.23-.19 23.28-1.1 51.22-2.04l50.79-1.7-1.14 18.85c-.63 10.37-2.37 30.23-3.86 44.12l-2.73 25.27-24.06 1.62c-13.24.9-36.28 2-51.21 2.45l-27.14.83z" data-region="path14" fill="#ffffff"></path><path d="M618.5 719.01V680.5l47.52-1.67c26.14-.92 49.43-2.22 51.74-2.89 3.89-1.12 4.21 1.75 4.21 37.19 0 37.84-.08 38.42-5.41 39.7-2.98.71-26.26 2.06-51.74 3l-46.33 1.7z" data-region="path15" fill="#ffffff"></path><path d="M513.43 739.42a606 606 0 0 0 1.56-38.4l.02-18.56 48.13-.7 48.14-.7v75.07l-30.7 1.56c-16.87.86-39.23 1.57-49.68 1.58h-19.01z" data-region="path16" fill="#ffffff"></path><path d="M512.6 811.32v-44.21l48.73-1.15c26.8-.63 48.89-1.04 49.07-.9.7.5-3.82 68.1-5.28 79.05l-1.52 11.43h-91z" data-region="path17" fill="#ffffff"></path><path d="M415.11 840.88c-1.38-11.87-5.48-74.91-4.94-75.84.09-.14 21.54.27 47.68.91l47.53 1.17v88.42h-88.57z" data-region="path18" fill="#ffffff"></path><path d="m430.18 757.48-21.06-.8.03-31.8c.05-47.45-5.75-42.61 51.16-42.61h48.22l-1.57 29.25c-.87 16.1-1.58 33.42-1.58 38.5v9.26l-27.07-.5c-14.9-.27-36.55-.85-48.13-1.3z" data-region="path19" fill="#ffffff"></path><path d="M326.1 754.36c-14.57-.93-26.75-1.83-27.08-2s-.6-17.7-.6-38.97c0-35.69.32-38.57 4.2-37.45 2.32.67 25.6 1.97 51.75 2.89l47.53 1.67v76.37l-24.67-.41c-13.57-.23-36.58-1.17-51.14-2.1z" data-region="path20" fill="#ffffff"></path><path d="M356.28 852.7c-29.67-1.32-47.43-3.08-48.48-4.78-1.79-2.88-4.14-25.05-6.7-62.97l-1.59-23.66 50.6 1.7c27.82.93 50.9 1.97 51.28 2.3s1.73 16.7 3 36.4c1.26 19.69 2.94 39.86 3.73 44.82 1.06 6.73.6 8.94-1.8 8.67-1.77-.2-24.29-1.31-50.04-2.47z" data-region="path21" fill="#ffffff"></path><path d="M257.5 749.63a2137 2137 0 0 1-33.09-3.5l-15.04-1.77V706.1c0-34.85.38-38.27 4.21-38.28 8.04 0 74.01 7.82 75.21 8.92.66.6 1.55 17.8 1.97 38.2l.78 37.12-8-.34a663 663 0 0 1-26.04-2.09z" data-region="path22" fill="#ffffff"></path><path d="M246.92 844.47c-15.75-1.8-28.97-3.62-29.38-4.03-1-1-8.46-86.5-7.62-87.3.72-.7 79.62 6.6 80.81 7.47.4.3 1.74 13.93 2.98 30.29 1.23 16.36 2.93 35.97 3.78 43.58l1.55 13.84-11.74-.28c-6.46-.15-24.63-1.76-40.38-3.57z" data-region="path23" fill="#ffffff"></path><path d="M167.34 738.44c-10.55-1.9-19.54-3.84-19.99-4.28s-1.47-18.4-2.27-39.87l-1.45-39.05 7 1.51c9.4 2.03 47.45 8.66 49.72 8.67 1 0 1.8 17.33 1.8 38.5v38.51l-7.82-.26c-4.3-.15-16.45-1.82-27-3.73z" data-region="path24" fill="#ffffff"></path><path d="M180.46 835.3c-8.63-1.56-16.87-3.58-18.33-4.48s-3.92-8.11-5.48-16.03c-3.09-15.72-10.18-70.47-9.23-71.29.93-.8 52.18 7.6 53.23 8.73.53.57 2.19 16.2 3.7 34.72 1.5 18.53 3.34 37.76 4.09 42.72 1.3 8.67 1.09 9.01-5.47 8.75-3.76-.14-13.89-1.55-22.51-3.12z" data-region="path25" fill="#ffffff"></path><path d="M214.23 910.56c-17.63-8.02-24.49-13.63-33.04-27.05-6.51-10.2-18.39-39.96-16.64-41.7 1.2-1.2 44.58 5.26 45.55 6.77.33.52 3.14 11.18 6.25 23.7s7.7 27.55 10.23 33.43c2.51 5.87 4.27 10.96 3.91 11.31s-7.68-2.56-16.26-6.46z" data-region="path26" fill="#ffffff"></path><path d="m416.76 608.43-20.03-.97-5.82-12.7c-11.87-25.92-13.6-56.09-5.85-101.43 10.74-62.85 33.8-110.78 68.7-142.75 21.2-19.43 36.35-25.34 61.34-23.95 14.03.78 20.94 2.54 30.5 7.74 13.84 7.53 35.86 28.6 46.83 44.8 30.15 44.52 49.85 115.48 47.05 169.48-1.3 25.04-8.3 51.07-15.32 56.9-2.73 2.26-26.15 3.1-95.49 3.42-50.53.24-100.9 0-111.9-.54zm13.49-6.01c2.18-2.19 4.17-2.13 8.59.23 9.62 5.15 14.8 2.56 14.8-7.4 0-5.04 1.86-10.75 4.42-13.6 6.58-7.31 4.33-13.55-5.22-14.46-6.35-.62-8.5-2.22-10.45-7.83-3.45-9.91-13.28-9.9-16.74.03-1.93 5.54-4.12 7.24-10.1 7.82-9.68.94-12.06 10.07-4.08 15.65 4.02 2.82 4.82 5.13 3.63 10.54-.84 3.8-.84 8.03 0 9.39 2.07 3.35 11.66 3.12 15.15-.37zm173.8-16.61c1.99 0 7.12.7 11.4 1.57 9.15 1.84 11.77-1.91 8.08-11.6-2.04-5.37-1.53-6.8 3.66-10.2 9.32-6.1 6.99-14.27-4.33-15.21-7.6-.63-9.08-1.74-10.42-7.82-2.22-10.14-12.5-10.06-16.34.13-2.25 5.96-4.08 7.22-10.46 7.22-10.8 0-13.59 8.49-5.09 15.5 5.02 4.15 5.8 6.48 4.82 14.3l-1.17 9.34 8.12-1.62c4.47-.89 9.75-1.61 11.73-1.61zm-89-41.98c2.73-3.29 3.5-3.27 7.32.19 2.35 2.13 6.8 3.5 9.89 3.07 4.7-.67 5.61-2.21 5.61-9.54 0-5.1 1.84-10.8 4.42-13.66 6.59-7.32 4.3-13.47-5.55-14.9-6.39-.93-8.61-2.58-9.7-7.22-1-4.32-3.25-6.23-7.98-6.78-5.47-.64-7.02.46-9.12 6.48-1.99 5.7-4.14 7.4-10.14 7.98-9.43.92-11.33 7.43-4.35 14.86 3.26 3.47 4.47 7.08 3.56 10.58-.77 2.92-.76 6.96 0 8.96 1.82 4.72 12.12 4.7 16.05-.02zm-86.92-46.01c5.25-3.68 6.14-3.67 12.68.2 9.54 5.63 15.05 1.48 12.94-9.74-1.16-6.21-.43-8.51 3.62-11.35 3.3-2.31 4.8-5.56 4.29-9.22-.63-4.44-2.51-5.81-8.8-6.41-6.37-.62-8.51-2.21-10.47-7.83-1.76-5.04-4.03-7.05-8-7.05s-6.25 2-8 7.05c-1.96 5.62-4.1 7.21-10.47 7.83-6.3.6-8.18 1.97-8.8 6.41-.52 3.66.99 6.91 4.28 9.22 4.19 2.93 4.8 5.06 3.5 12.06-1.14 6-.63 9.11 1.72 10.6 4.5 2.85 5.03 2.77 11.51-1.77zm135.1-47.87c3.66-3.31 4.81-3.25 11.53.6 6.78 3.9 7.81 3.94 11.24.51 2.82-2.82 3.21-5.25 1.54-9.62-1.83-4.8-1.1-7.06 4.06-12.55 7.61-8.1 5.16-14.55-5.96-15.68-5.33-.54-7.76-2.48-9.77-7.82-1.84-4.86-4.33-7.1-7.92-7.1s-6.07 2.24-7.9 7.1c-2.02 5.34-4.46 7.28-9.79 7.82-11.1 1.13-13.56 7.57-5.98 15.68 4.59 4.9 5.79 8 4.45 11.51-4.01 10.54 6.07 17.18 14.5 9.55zm-84.44-52.15c3.65-2.28 5.9-2.21 10.64.32 9.09 4.87 14.05 1.8 13.2-8.17-.54-6.2.69-9.67 4.76-13.46 7.87-7.34 5.9-12.94-4.87-13.83-7.53-.63-9.07-1.77-10.36-7.62-2.64-12.04-13.52-12.07-17.71-.04-1.89 5.4-4.09 7.02-10.4 7.63-10.42 1-12.25 9.04-3.38 14.86 5.15 3.37 5.73 4.9 3.8 9.96-4.39 11.55 3.4 17.17 14.32 10.35z" data-region="path27" fill="#ffffff"></path><path d="M774.92 586.5c-38.83-4.5-92.63-23.46-118.64-41.8l-8.53-6.02-.75-13.05c-1.1-19.44-6.58-52.05-11.49-68.52-.61-2.06-.73-4.37-.27-5.12.47-.76 4.01 8.78 7.88 21.2 8.07 25.94 8.42 26.78 11.26 26.78 1.16 0 10.97-4.35 21.81-9.67s20.1-9.25 20.6-8.73 5.63 12.19 11.4 25.92c7.82 18.55 11.04 24.97 12.56 24.97 1.12 0 12.2-7.63 24.6-16.95s22.7-16.76 22.89-16.54c.18.22 5.14 9.73 11.02 21.13 8.6 16.65 11.19 20.74 13.19 20.76 1.61.01 6-3.8 12.47-10.87 5.5-5.99 10.2-10.67 10.47-10.41.26.26-.34 2.41-1.33 4.78-5.79 13.86-8.15 25.56-8.9 44.2l-.76 18.65-10.23.16a178 178 0 0 1-19.25-.88z" data-region="path28" fill="#ffffff"></path><path d="M782.5 511.77c-6.15-11.8-11.69-21-12.76-21.2-1.05-.21-11.55 6.86-23.33 15.7a1376 1376 0 0 1-22.75 16.89c-.84.5-5.21-8.45-11.99-24.57-5.86-13.95-11.25-25.6-11.98-25.87-.72-.28-10.83 4.06-22.45 9.63L656.1 492.5l-3.78-12.2a5181 5181 0 0 0-7.86-25.14l-4.09-12.93 6.6-10.53c8.77-14.01 22.32-31.84 23.33-30.7.44.5 3.42 9.5 6.61 19.99s6.52 19.35 7.39 19.68c1.27.48 16.74-8.7 36.93-21.93l2.91-1.9 7.74 23.21c6.36 19.1 8.16 23.29 10.13 23.58 1.67.25 7.45-4.33 19-15.04 9.13-8.47 16.94-15.53 17.36-15.7s3.66 8.08 7.21 18.32 7.22 19.25 8.15 20.02c1.94 1.6 1.33 2.04 18.25-13.24 6.36-5.74 11.63-9.64 12.2-9.03 1.49 1.6 3.68 22.7 3.68 35.4v11.04l-15.22 16.43-17.25 18.6c-1.92 2.06-2.58 1.1-12.89-18.65z" data-region="path29" fill="#ffffff"></path><path d="M794.53 456.53c-9.55-27.29-11.92-32.98-13.86-33.34-1.32-.25-8.4 5.56-19.45 15.94l-17.38 16.34-7.72-23.17c-8.3-24.9-8.99-25.89-15.04-21.62a869 869 0 0 1-18.5 12l-15.2 9.67-6.07-19.44-6.08-19.43 6.22-6.4c19.61-20.14 41.61-33.13 61.5-36.3 9.09-1.46 21.34.52 30.39 4.9 20.79 10.07 37.63 35.48 46.74 70.54 1.63 6.29 2.97 11.82 2.97 12.28s-5.93 6.1-13.18 12.52l-13.18 11.69z" data-region="path30" fill="#ffffff"></path><path d="M709.94 598.05c-22.86-6.74-36.27-12.86-55.58-25.35l-8.5-5.5.76-5.5c.41-3.04.75-7.62.75-10.2v-4.7l6.92 4.7c17.35 11.77 43.2 23.17 70.03 30.88 16.89 4.86 42.22 10.23 48.34 10.26 6.61.03 8 1.93 2.05 2.8-2.87.41-14.41 2.11-25.66 3.78-11.25 1.66-21.54 3-22.86 2.97s-8.64-1.9-16.25-4.14z" data-region="path31" fill="#ffffff"></path><path d="M635.33 601.25c1.92-3.86 4.7-11.3 6.2-16.55s2.8-9.67 2.9-9.86 5 2.7 10.89 6.4a180 180 0 0 0 40.18 19.2l11.43 3.86-11.43.82c-17.6 1.27-51.69 3.1-58 3.13l-5.65.01z" data-region="path32" fill="#ffffff"></path><path d="M811.83 587.02c-1.4-1.41-.8-24.68.9-34.1 4.13-23.02 13.9-43.08 40.46-83 23.95-36.01 24.44-36.8 32.04-51.17 3.5-6.62 6.37-11.05 6.38-9.85.02 1.2-1.05 9.05-2.36 17.45-7.7 49.12-13.84 68.63-34.38 109.11-7.39 14.56-15.22 31.19-17.4 36.95l-3.96 10.48-8.54 1.9c-4.7 1.05-9.39 2.17-10.43 2.48-1.04.3-2.26.2-2.7-.25z" data-region="path33" fill="#ffffff"></path><path d="M842.3 579.4c0-2.94 9.17-23.23 19.29-42.7 5.86-11.27 12.27-24.55 14.25-29.51 8.92-22.42 15.8-50.77 20.57-84.77 1.38-9.89 2.7-18.16 2.9-18.38.23-.21 1.16 3.82 2.08 8.96 1.07 5.93 1.63 17.06 1.54 30.41-.16 24.04-2.7 40.07-11.36 71.6-6.08 22.15-11.59 36.66-18.8 49.52l-5.5 9.82-10.38 2.57a522 522 0 0 0-12.48 3.2c-1.16.35-2.1.02-2.1-.72z" data-region="path34" fill="#ffffff"></path><path d="M364 607.47c-37.41-2.22-51.3-3.28-69.75-5.34-20.1-2.24-54.25-7.6-71.04-11.14l-7.22-1.52.38-8.93c.2-4.92.57-9.13.8-9.36s5.21.16 11.06.88c47.96 5.88 110.1-8.07 140.28-31.5l4.51-3.5v8.44c0 17.48 4.86 39.8 12.03 55.24l3.49 7.52-9.27-.21c-5.09-.12-11.97-.38-15.27-.58z" data-region="path35" fill="#ffffff"></path><path d="M232.43 566.1c-17.56-1.84-16.4-1.1-17.73-11.47l-1.16-9.09 6.04.85c11.57 1.62 38.16.75 53.62-1.77 30.28-4.92 65.16-17.28 82.97-29.4 2.98-2.03 8.87-6.96 13.09-10.97 7.32-6.96 7.63-7.13 6.96-3.68-.38 1.98-1 6.86-1.39 10.83-1.7 17.65-1.32 16.7-9.05 22.78-29.05 22.82-87.25 36.75-133.35 31.92z" data-region="path36" fill="#ffffff"></path><path d="M218.07 539.74c-2.82-.46-5.58-1.34-6.12-1.95-.54-.62-2.22-4.64-3.73-8.94s-5.6-13.51-9.08-20.46l-6.35-12.63 1.01-9.03a836 836 0 0 1 2.37-18.72l1.35-9.69 20.95.52c23.57.58 38.33-.8 56.97-5.37 29.5-7.21 54.06-19.72 78.15-39.8l4.66-3.89 6.82 9.7a375 375 0 0 1 14.04 22.06c6.17 10.58 7.05 12.8 6.07 15.39-.64 1.66-2.33 8.64-3.77 15.5l-2.62 12.5-9.8 10c-15.4 15.7-27.49 22.92-53.66 32.03A264 264 0 0 1 266.98 539c-12.91 1.9-39.34 2.3-48.9.74z" data-region="path37" fill="#ffffff"></path><path d="M205.46 452.15c-6.16-.48-6.38-.86-4.49-7.7l1.22-4.36 14.12-.83c46.1-2.7 84.21-14.35 115.7-35.4a529 529 0 0 0 11.56-7.86q1.4-1.09 5.77 3.61l4.35 4.7-5.68 5.12c-8.73 7.88-25.9 19.1-38.03 24.87-31.16 14.8-66.57 20.85-104.52 17.85z" data-region="path38" fill="#ffffff"></path><path d="M204.56 431.9c0-.39 2.16-6.21 4.8-12.94 7.08-18.11 14.5-30 25.76-41.23 11.25-11.22 18.6-15.29 33.03-18.27 9.2-1.9 10.42-1.9 19.6 0 15.52 3.2 31.94 12.17 47.26 25.8l5.63 5-11.88 7.91c-25.06 16.69-54.3 27.32-89.46 32.52-12.4 1.83-34.74 2.6-34.74 1.2z" data-region="path39" fill="#ffffff"></path><path d="m360.06 361.67-5.14-2.4 4.1-5.36c7.13-9.35 8.5-21.98 3.1-28.83-3.27-4.16-6.34-4.9-11.07-2.66-6.32 3-10.52 10.58-10.52 19 0 3.85.81 8.95 1.8 11.33 1 2.38 1.81 4.46 1.81 4.63 0 .72-10.98 3-14.42 3-4.08 0-11.91-3.54-14.37-6.5-1.32-1.6-.72-2.68 4.06-7.34 13.51-13.13 12.23-30.07-2.27-30.07-10.12 0-14.8 8.4-13.47 24.25l.71 8.6-6.13 1.48a45 45 0 0 1-12.81.78c-7.19-.74-21.63-7.1-22.75-10.01-1.06-2.75 6.32-22.36 15.41-40.99l8.34-17.08 5.44 5.43c10.13 10.13 22.36 12.83 33.22 7.34l5.44-2.76 4.42 2.93c8.86 5.89 22.38 4.36 31.38-3.54 3.6-3.17 4.24-3.33 8.59-2.12 10.76 2.97 24.14-1.13 34.11-10.46 7.23-6.76 11.17-13.2 13.96-22.8l2.09-7.17 5.45 5.98a186 186 0 0 1 20.9 28.45l4.76 8.02-3.82 9.17c-8.46 20.32-24.3 34.95-41.76 38.55l-3.9.8-.03-8.21c-.04-10.28-3.03-17.48-8.44-20.27-7.45-3.86-13.42 1.14-14.99 12.55-1.2 8.76 2.97 16.63 10.54 19.89l3.34 1.43-3.63 5.01c-5.62 7.76-12.17 11.5-20.93 11.97-5.48.28-8.7-.24-12.52-2.02z" data-region="path40" fill="#ffffff"></path><path d="M341.44 292.47a104 104 0 0 1-4.48-2.45c-.65-.4.7-3.31 3-6.53 7.66-10.66 9.98-22.42 5.5-27.94-4.47-5.53-17.32-2.36-21.4 5.28-2.72 5.07-2.7 16.97.02 22.18 2.85 5.46 2.65 5.94-3.4 8.25-9.25 3.53-19.23-.08-26.49-9.6l-3.22-4.22 2.74-3.95c6.34-9.14 18.52-22.65 25.5-28.29 17.42-14.07 31.34-19.6 49.2-19.55 6.18.01 13.66.58 16.64 1.27 7.39 1.7 21.03 8.39 28.1 13.8 5.71 4.35 5.83 4.58 5.07 9.42-1.98 12.42-12.55 27.02-23.21 32.03-5.45 2.57-16.6 3.65-19.44 1.9-.94-.59-.76-1.95.62-4.62 1.08-2.08 2.23-7.12 2.55-11.19 1.36-16.95-7.55-27.12-17.14-19.57-9.69 7.61-10.31 25.1-1.23 34.18 3.73 3.73 2.97 5.17-4.67 8.87-6 2.9-9.73 3.09-14.26.73z" data-region="path41" fill="#ffffff"></path><path d="M393.04 336.76c-3.43-3.43-4.22-9.56-2-15.4 3.46-9.1 11.81 5 9.18 15.49-.99 3.93-3.19 3.9-7.18-.1z" data-region="path42" fill="#ffffff"></path><path d="M348.44 349.72a19 19 0 0 1-1.9-7.46c0-4.28 4.27-12.7 6.97-13.73 7.29-2.8 6.5 16.08-.94 22.83-2.12 1.92-2.34 1.83-4.13-1.64z" data-region="path43" fill="#ffffff"></path><path d="M309.77 340.54c-1.6-8.5 2.06-17.46 7.12-17.46 3.4 0 5.6 2.14 5.6 5.42s-6.35 13.28-9.5 14.97c-2.18 1.16-2.5.86-3.22-2.93z" data-region="path44" fill="#ffffff"></path><path d="M329.82 279.59c-2.36-6.77-1.67-14.02 1.63-17.33 3.36-3.35 8.46-3.9 9.57-1.02 1.1 2.89-1.17 10.01-5.25 16.44-1.98 3.13-3.84 5.7-4.12 5.7s-1.1-1.71-1.83-3.8z" data-region="path45" fill="#ffffff"></path><path d="M363.56 276.38a24 24 0 0 1-3.24-6.67c-.97-3.88 2.07-12.73 5.43-15.77 2.15-1.95 2.36-1.91 4.08.76 3.08 4.77 3.58 11.08 1.47 18.35-2.21 7.59-4.13 8.41-7.74 3.33z" data-region="path46" fill="#ffffff"></path><path d="M381.64 432.47c-13.57-23.01-33.78-46.58-51.32-59.86l-8.2-6.2h7.79c4.28 0 10.27-.86 13.31-1.9 5.4-1.83 5.64-1.8 10.36 1.17 16.26 10.27 35.8 5.13 47.01-12.35 3.59-5.6 4.04-5.88 10.32-6.53 8.24-.85 19.93-6.52 28-13.58 6.92-6.04 15.83-18.74 19.21-27.36l2.25-5.71 5.7 13.44c3.12 7.39 5.54 13.58 5.35 13.75-.18.18-4.6 3.16-9.8 6.64-17.54 11.7-34.07 30.47-48.63 55.2-7.07 12.02-17.71 35.55-21.4 47.31-1.19 3.8-2.47 6.91-2.85 6.9-.37-.02-3.57-4.93-7.1-10.92z" data-region="path47" fill="#ffffff"></path><path d="M631.03 441.58c-7.12-20.36-16.14-40.45-24.1-53.68-4.76-7.9-5.15-9.66-1.37-6.2 11.93 10.9 31.63 8.5 39.9-4.89 6.39-10.33 5.54-23.03-2.12-31.76-7.86-8.96-20.56-11.23-31.7-5.68-12.43 6.2-17.11 19.97-11.85 34.85l.85 2.41-1.94-2.4a2290 2290 0 0 1-9.34-11.83c-9.06-11.53-20.4-22.08-31.83-29.58l-8.62-5.67 4.57-10.9c15.93-38.06 37.05-65.56 62-80.77 18.98-11.57 44.15-13.18 64.59-4.14 22.57 9.98 45.93 35.74 62.42 68.85 6.29 12.62 14.63 33.56 16.06 40.34l.77 3.61-10.55.07c-36.46.26-79.7 35.61-112.3 91.8-3.83 6.6-4.75 7.54-5.44 5.57zm85.54-101.49c19.4-8.8 20.25-37.23 1.42-46.92-16.63-8.56-36.39 1.72-37.88 19.7-.79 9.48.45 14 5.42 19.8 7.87 9.2 20.48 12.22 31.04 7.42zm-79.28-47.71c7.51-4.4 11.62-11.1 12.26-19.99 1.2-16.52-10.34-28.8-26.99-28.7-10.66.06-22.1 9.58-24.36 20.26-4.86 22.93 18.94 40.23 39.1 28.43z" data-region="path48" fill="#ffffff"></path><path d="M613.67 286.68c-5.95-4.04-8.69-8.47-9.32-15.05-.64-6.7 1.15-11.12 6.51-16.09 7.76-7.18 18.84-6.92 26.39.63 12.88 12.88 4.15 33.22-14.25 33.22q-5.36 0-9.33-2.7z" data-region="path49" fill="#ffffff"></path><path d="M615.48 380.35c-15-6.67-15.2-27.73-.34-35.38 4.59-2.36 6.7-2.77 10.98-2.12 6.61.99 14.5 7.43 16.49 13.47 5.18 15.72-11.85 30.81-27.13 24.03z" data-region="path50" fill="#ffffff"></path><path d="M696.66 333.55c-6.05-3.2-10.78-10.84-10.78-17.4 0-16.67 20.83-25.76 32.92-14.36 7.97 7.52 8.66 18.9 1.63 26.91-6.94 7.9-14.92 9.53-23.77 4.85z" data-region="path51" fill="#ffffff"></path><path d="M781.54 352.17a69 69 0 0 0-9.2-4.33c-4.44-1.68-5.73-2.82-6.27-5.52-.37-1.86-3.48-11.1-6.92-20.54l-6.24-17.16.82-18.34c1.21-27.15 5.39-50.85 12.58-71.5 2.85-8.15 2.87-8.06 5.53 19.95 1.07 11.3 3.82 32.94 6.11 48.1 5.31 35.19 8.04 58.96 7.57 66l-.37 5.53z" data-region="path52" fill="#ffffff"></path><path d="M812.86 388.18c-1.22-3.83-9.91-16.63-15.17-22.34l-4.97-5.4-1.05-17.77c-.57-9.78-1.59-21.57-2.26-26.2a17114 17114 0 0 0-5.4-36.7c-4.39-29.71-7.96-61.09-7.78-68.45.1-4.11.36-3.8 4.83 5.66 2.6 5.5 7.41 17.96 10.7 27.67 13.64 40.47 20.82 80.4 22.48 125.06.72 19.4.37 24-1.38 18.47z" data-region="path53" fill="#ffffff"></path><path d="M832.35 453.04a552 552 0 0 1-3.23-15.93 240 240 0 0 0-5.23-21.66c-3.15-9.98-3.27-8.79 3.97-38.82 7.58-31.47 21.28-74.28 31.9-99.7l1.75-4.2 4.89 1.91c3.65 1.43 4.68 2.4 4.09 3.82-3.6 8.63-13.2 39.36-17.16 54.96-8.4 33.06-15.69 75.59-19.24 112.4-.65 6.72-1.24 9.2-1.74 7.22z" data-region="path54" fill="#ffffff"></path><path d="M870.25 268.97c-8.53-3.07-17.34-9.73-21.82-16.5-15.8-23.83-13.68-68.38 4.17-88.14 11.4-12.62 22.65-11.12 30.72 4.07 3.7 6.98 5.84 7.81 8.92 3.46 4.44-6.27 10.3-11.15 14.86-12.37 14.62-3.94 25.42 11.44 18.93 26.97-3.78 9.06-1.27 11.13 6.7 5.51 7.24-5.1 12.67-5.85 17.11-2.36 7.07 5.56 8.62 16.11 4.28 29.13-8.22 24.6-28.63 44.69-51.66 50.81-9.39 2.5-24.4 2.23-32.21-.58zm13.62-17.18c14.87-15.59 26.32-29.08 35.22-41.5 6.63-9.24 7.87-13.55 3.9-13.55-1.57 0-5.6 4.4-12.4 13.53-9.88 13.27-35.58 42.44-36.55 41.47-2.07-2.08 7.56-49.67 13.3-65.68 2.69-7.5 2.47-9.78-.92-9.78-2.54 0-3.24 1.38-7.22 14.14-5.95 19.12-8.72 32.47-11.1 53.53-2.05 18.18-1.88 21.38 1.13 21.38.95 0 7.54-6.1 14.64-13.54z" data-region="path55" fill="#ffffff"></path><path d="M732 163.72c-7.18-2.24-12.47-5.8-18.96-12.74-20.94-22.38-22.97-74.73-3.6-92.6 8.64-7.95 16.84-6.31 26.33 5.26 2.5 3.05 5.28 5.55 6.18 5.55s2.98-2.64 4.61-5.86c7.23-14.27 20.74-17.65 29.93-7.48 4.77 5.28 6.36 11.72 4.47 18.14-2.97 10.15-.4 12.33 6.95 5.88a37 37 0 0 1 8.32-5.45c3.53-1.47 4.55-1.45 7.97.17 14.22 6.75 12.54 35.01-3.57 59.67-12.78 19.57-33 31.28-53.74 31.11-5.43-.04-12.14-.79-14.9-1.65zm7.42-17.83a469 469 0 0 1 32.33-43.49c8.12-9.53 9.42-13.1 4.96-13.65-2.78-.34-17.23 16.73-33.8 39.9l-10.24 14.36.63-5.93c.35-3.26.96-9.43 1.36-13.7.4-4.29 2.31-15.93 4.24-25.88 4.38-22.57 4.46-25 .82-24.48-2.46.35-3 1.86-5.96 16.63-6.54 32.6-9.27 66.38-5.47 67.7 2.68.94 3.8-.21 11.13-11.46z" data-region="path56" fill="#ffffff"></path><path d="m711.96 245.37-5.8-5.26 1.39-11.76c2.2-18.75 11.11-58.78 13.65-61.32.25-.25 1.9.19 3.64.98 2.03.93 2.98 2.15 2.63 3.36-3.25 11.04-7.41 41.77-8.85 65.25l-.86 14.01z" data-region="path57" fill="#ffffff"></path><path d="M624.82 216.09c17.2-18.15 24.26-29.3 39.7-62.67l1.95-4.21.07 5.41c.17 13.52-5.4 38.81-12.07 54.85l-3.56 8.56-9.66 1.37c-8.24 1.16-12.66 2.56-26.37 8.31-1 .42 3.48-4.81 9.94-11.62z" data-region="path58" fill="#ffffff"></path><path d="M538.07 323c-2.55-1.01-2.74-1.61-1.98-6.23 5.48-33.25 21.85-66.9 47.27-97.17 16.4-19.54 78.32-78.8 76.69-73.4-2.17 7.15-15.62 33.63-21.82 42.95-3.89 5.84-14.3 17.96-24.53 28.55-19.45 20.12-42.81 50.16-52.66 67.68-6.37 11.36-15.34 30.65-16.63 35.79-.84 3.32-1.88 3.63-6.34 1.84z" data-region="path59" fill="#ffffff"></path><path d="M495.72 247.42c-17.39-5.56-34.76-19.42-43.76-34.92-7.98-13.74-10.78-24-10.87-39.83-.07-12.09.25-14.47 2.59-18.84 6.82-12.75 16.65-13.36 27.2-1.7 2.5 2.77 5.51 4.9 6.94 4.9 2.38 0 2.48-.43 1.7-7.11-.66-5.72-.36-8.13 1.53-12.33 5.22-11.62 13.02-14.46 27.49-10.02 1.4.43 5.1-.09 8.22-1.14 7.2-2.45 13.3-1.02 18.54 4.34 5.04 5.15 6.63 10.55 5.66 19.18-.77 6.82-.7 7.08 1.96 7.08 1.74 0 4.06-1.61 6.2-4.3 4.52-5.66 10.04-8.93 15.1-8.93 3.2 0 5.08 1.02 8.48 4.59 5.47 5.75 7.3 11.73 7.27 23.82-.06 33.17-22.67 64.77-53.3 74.5-11.16 3.54-21.38 3.78-30.95.71zm20.25-13.99c8.15-18.1 19.56-46.65 23.15-57.9 2.81-8.82 2.63-12.48-.64-12.48-2.08 0-2.26.36-8.44 18.05-5.47 15.63-22.28 55.35-23.42 55.35-1.3 0-10.33-18.91-13.1-27.38-2.65-8.14-6.33-24.61-8.6-38.5-1.3-8.03-1.65-8.73-4.31-8.73-2.27 0-2.9.64-2.9 2.93 0 6.26 6.32 36.72 9.75 47 3.19 9.55 13.53 30.95 17.04 35.26 2.71 3.34 5.14.46 11.47-13.6z" data-region="path60" fill="#ffffff"></path><path d="M476.92 322.26c-2.47-6.98-12.92-29.35-17.19-36.8-5.8-10.1-25.54-38.19-33.62-47.81-3.05-3.64-12.62-13.93-21.26-22.86s-18.61-20.55-22.16-25.8c-6.7-9.95-22.17-40.78-21.48-42.84.46-1.4 44.25 39.6 61.81 57.86 26.9 27.97 43.42 53.65 53.88 83.74 4.94 14.22 8.88 32.59 7.3 34.06-.6.55-2.3 1.37-3.8 1.82-2 .61-2.9.26-3.48-1.37z" data-region="path61" fill="#ffffff"></path><path d="M403.1 226.8c-6.11-3.38-17.55-6.79-26.04-7.76l-7.4-.85-3.58-9.22c-7.45-19.11-10.47-32.24-11.7-50.74l-.76-11.43 5.3 12.2c10.97 25.18 19.84 38.54 38.03 57.3 6.9 7.1 12.06 12.9 11.46 12.88-.6-.03-3-1.1-5.3-2.38z" data-region="path62" fill="#ffffff"></path><path d="M504.6 310.15c.42-4.47.77-18.41.77-30.99l.01-22.86H515v18.16c0 10 .36 23.94.8 30.99l.78 12.82h-12.75z" data-region="path63" fill="#ffffff"></path><path d="M267.73 165.28c-21.64-2.48-41.7-17.4-52.36-38.93-12-24.24-11.04-47.36 2.18-52.47 3.58-1.38 10.38 1.4 15.46 6.31 4.53 4.39 8.43 4.28 7.9-.2-1.68-14.42-1.55-17.47.88-21.34 5.12-8.16 15-10.97 22.5-6.4 4.27 2.6 9.29 8.74 11.15 13.64 1.77 4.66 3.96 4.12 9.18-2.25 8.4-10.24 16.75-12.74 24.65-7.39 9.58 6.5 16.58 28.51 15.21 47.8-2.97 41.66-24.53 64.92-56.75 61.23zm28.01-9.15c1.74-3.59-.59-36.11-3.82-53.35-4.8-25.53-5.65-28.9-7.54-29.62-4.45-1.7-4.55 1.7-.62 22.2 4.16 21.75 6.14 35.44 6.2 42.94l.03 4.74-7.28-10.68c-14.5-21.25-33.26-43.92-36.34-43.92-4.1 0-3.68 3.5 1.07 9.18q18.65 22.25 31.96 41.96c10.63 15.74 12.87 18.65 14.35 18.65.53 0 1.43-.94 2-2.1z" data-region="path64" fill="#ffffff"></path><path d="M437.4 674.93c-5.3-.22-25.87-.97-45.73-1.68-87.19-3.12-133.3-6.68-187.71-14.51-40.53-5.84-58.15-9.85-66.51-15.16-24.9-15.83-24.8-55.96.16-62.95 6.5-1.82 3.43-2.35 47.1 8.19 60.23 14.54 102.43 20.75 164.85 24.28 40.59 2.3 161.51 4.25 208.77 3.38 152.04-2.82 198.38-7.76 292.54-31.17 30.36-7.54 35.16-7.21 44.17 3.04 11.55 13.16 8.28 38-6.76 51.26-7.92 6.98-10.56 8.12-26.5 11.43-74.7 15.53-183.72 23.29-336.54 23.94-43.02.19-82.55.16-87.84-.05z" data-region="path65" fill="#ffffff"></path><path d="M421.16 599.04c.01-.55.78-3.53 1.72-6.62 2.27-7.48 1.5-9.63-5.14-14.41l-5.61-4.04 7.2-.37c8.5-.44 10.62-2 12.67-9.32.82-2.94 1.9-5.35 2.39-5.35s1.56 2.4 2.39 5.35c2.05 7.32 4.17 8.88 12.67 9.32l7.2.37-5.62 4.04c-6.6 4.75-7.65 7.7-5.2 14.64 2.58 7.33 2.34 7.6-3.2 3.59-6.45-4.67-10.8-4.65-16.8.1-2.57 2.03-4.67 3.25-4.67 2.7z" data-region="path66" fill="#ffffff"></path><path d="M505.86 538.45a64 64 0 0 0 1.55-8.55c.65-5.54.63-5.58-5.2-9.62l-5.85-4.07 7.62-.6c8.44-.68 10.08-1.98 12.46-9.9.74-2.5 1.74-4.54 2.21-4.54s1.53 2.41 2.36 5.35c2.04 7.29 4.18 8.89 12.52 9.32l7.04.37-5.55 3.98c-6.59 4.72-7.52 7.44-5.01 14.56 1.03 2.92 1.64 5.53 1.37 5.8-.28.28-2.8-1.16-5.61-3.2-5.64-4.08-7.86-4.48-11.4-2.07-1.3.9-3.95 2.64-5.9 3.89l-3.51 2.26z" data-region="path67" fill="#ffffff"></path><path d="M592.79 575.58c2.22-7.47 1.33-10.1-4.83-14.3-2.4-1.62-4.35-3.36-4.36-3.86 0-.5 2.94-.9 6.53-.9 7.45 0 9.41-1.37 11.56-8.1 2.23-6.97 3.13-7.05 5.3-.52 1.1 3.32 2.67 6.58 3.49 7.26.81.67 4.7 1.4 8.65 1.6l7.18.36-5.12 3.61c-6.03 4.25-7.2 7.55-5.25 14.83.78 2.95 1.17 5.6.86 5.91s-2.35-.78-4.55-2.43c-6.35-4.76-8.3-4.87-14.62-.86-3.13 1.98-5.92 3.61-6.19 3.61s.34-2.8 1.35-6.21z" data-region="path68" fill="#ffffff"></path><path d="M554.73 445.52c0-.17.82-2.98 1.81-6.24s1.5-6.92 1.11-8.12-3.22-3.94-6.32-6.1l-5.64-3.9 7.2-.38c8.5-.43 10.62-2 12.67-9.31.83-2.95 1.9-5.36 2.4-5.36.48 0 1.56 2.41 2.38 5.36 2.05 7.32 4.17 8.88 12.67 9.31l7.2.37-5.6 4.04c-6.65 4.78-7.35 6.74-5.1 14.2.92 3.1 1.43 5.88 1.11 6.2-.31.3-2.56-.95-5-2.81-5.54-4.23-9.74-4.28-15.12-.17-3.69 2.81-5.81 3.88-5.77 2.9z" data-region="path69" fill="#ffffff"></path><path d="M470.97 391.63c.5-1.63 1.2-5.5 1.56-8.6.65-5.6.62-5.67-5.02-9.63l-5.67-3.99 7.12-.7c3.91-.38 7.73-1.08 8.48-1.54.76-.47 2.3-3.79 3.43-7.37 1.13-3.6 2.43-6.3 2.89-6 .46.27 1.53 2.98 2.37 6 1.93 6.88 4.9 9 12.6 9.02h6.05l-5.72 4.9c-6.24 5.35-6.6 6.7-3.9 14.38 1 2.83 1.66 5.31 1.46 5.52s-2.78-1.24-5.73-3.2c-6.8-4.5-9.08-4.47-15.56.3-5.18 3.81-5.24 3.83-4.36.9z" data-region="path70" fill="#ffffff"></path><path d="M421.16 493.15c.01-.55.75-3.44 1.65-6.42 2.09-6.9 1.02-9.74-5.36-14.37-5.66-4.1-5.14-4.64 4.9-5.15l6.62-.33 2.6-7.22c2.08-5.82 2.76-6.75 3.47-4.82a193 193 0 0 0 3.05 7.52l2.18 5.12h7.29c4 0 7.28.48 7.28 1.06s-1.88 2.5-4.2 4.26c-6.32 4.83-7.14 7.08-4.9 13.62 2.67 7.87 2.5 8.07-3.45 3.98-6.7-4.62-9.76-4.61-16.09.04-2.78 2.05-5.04 3.27-5.04 2.71z" data-region="path71" fill="#ffffff"></path><path d="m196.7 585.24-9.67-2.3-3.44-9.25c-1.89-5.08-9.52-21.47-16.96-36.41-7.43-14.95-15.51-32.5-17.95-38.99-7.7-20.56-14.57-51.33-19.23-86.16-.72-5.37-.67-5.32 4.8 4.81 8.35 15.47 12.52 22.11 33.79 53.92 32.69 48.89 41.33 70.44 41.33 103.06 0 10.38-.38 13.85-1.5 13.76-.83-.07-5.86-1.17-11.17-2.44z" data-region="path72" fill="#ffffff"></path><path d="M165.74 577.6c-5.8-1.52-11.26-3.35-12.13-4.07-3.36-2.8-14.32-25.95-18.96-40.07-11.49-34.97-17.17-65.23-17.27-91.85-.06-17.27 2.24-37.28 4.15-36.1.48.3 1.24 4.2 1.7 8.69 1.29 12.55 6.48 41.7 9.81 55.08 5.64 22.64 10.4 34.92 26.37 67.99 18.06 37.39 20.6 43.37 18.37 43.2-.83-.05-6.24-1.35-12.04-2.87z" data-region="path73" fill="#ffffff"></path><path d="M188.56 466.27c-.32-.99-1.47-11.28-2.54-22.86-4.97-53.82-16.43-109.61-31.23-152.07l-5.22-14.96 4.7-1.85 4.7-1.85 2.17 5.05c12.15 28.38 27.3 77.75 36.16 117.84 4.43 20.07 4.5 23.69.63 35.63a277 277 0 0 0-5.9 23.1c-1.58 7.58-3.14 12.97-3.47 11.97z" data-region="path74" fill="#ffffff"></path><path d="M206.3 399.42c-1.15-9.23.23-43.67 2.58-64.3 4.7-41.3 15.2-82.08 30.18-117.32 4.58-10.77 4.6-10.8 5-6.07.56 6.92-2.77 35.77-8.96 77.66-4.45 30.07-5.55 41.03-6.13 60.68l-.7 23.99-5.54 6.87a126 126 0 0 0-10.54 16.24l-5 9.35z" data-region="path75" fill="#ffffff"></path><path d="M234.65 357.63c0-13.37 1.93-33.53 5.5-57.4 4.65-31.23 7.52-52.5 8.9-66.19.72-6.95 1.63-15.61 2.05-19.25l.75-6.62 3.96 12.12c7.35 22.46 11.32 48.67 11.32 74.79 0 10.7-.45 13.44-3.44 21.05a401 401 0 0 0-11.47 34.69c-1.74 6.24-2.37 7-9.72 11.68l-7.86 5.01z" data-region="path76" fill="#ffffff"></path><path d="M114.5 268.34c-21.36-7.44-37.7-23.43-46.37-45.37-6.02-15.25-5.3-26.81 2.06-33 4.65-3.92 9.94-3.31 17.48 2 2.9 2.04 6.01 3.43 6.93 3.08 2.13-.82 2.06-5.28-.14-9.14-2.58-4.52-2.26-14.3.64-19.04 3.54-5.8 11.63-9.15 18-7.44 4.46 1.2 10.77 6.33 15.92 12.94 2.6 3.33 5.06 2.46 7.11-2.5.87-2.1 3.89-6.12 6.7-8.93 4.37-4.38 5.83-5.11 10.11-5.11 20.11 0 34.6 37.92 28.2 73.83-3.18 17.76-11.84 30.33-25.6 37.1-7.17 3.53-9.25 3.97-20.1 4.3-10.45.3-13.31-.07-20.93-2.72zm41.56-5c1.14-2.97-1.77-29.12-5.07-45.54a320 320 0 0 0-7.2-27.98c-3.5-11-4.72-13.54-6.59-13.54-1.26 0-2.61.52-3 1.16s1.22 7.54 3.58 15.34c4.79 15.77 9.6 38.63 10.83 51.49l.8 8.42-10.23-10.92c-14.21-15.16-19.67-21.69-28.58-34.2-5.77-8.1-8.32-10.75-10.11-10.53-1.32.16-2.56 1.15-2.76 2.18-.91 4.82 50.87 66.1 55.86 66.1.94 0 2.05-.89 2.47-1.98z" data-region="path77" fill="#ffffff"></path></svg>