<?xml version="1.0"?>
<svg xmlns="http://www.w3.org/2000/svg" xmlns:svg="http://www.w3.org/2000/svg" viewBox="0 0 1024 1024" preserveAspectRatio="xMidYMid" version="1.0"><path fill="#1a1a1a" d="M802.96 286.99a7.8 7.8 0 0 1-5.7-2.46c-2.82-2.92-4.13-7.47-3.51-12.16.56-4.3 2.5-8.12 4.33-11.28a110 110 0 0 1 16.54-21.87c4.32-4.35 11.17-4.72 15.6-.85q.45.4.86.84c3.07 3.33 3.67 8.2 1.56 12.7a1.88 1.88 0 0 1-3.4-1.58c1.47-3.15 1.13-6.36-.92-8.58q-.27-.3-.57-.55c-2.9-2.54-7.6-2.24-10.47.66a106 106 0 0 0-15.95 21.1c-1.64 2.85-3.38 6.24-3.86 9.9-.48 3.57.46 6.96 2.5 9.07 2.36 2.44 5.39.97 6.99-.14a1.88 1.88 0 1 1 2.12 3.1 11 11 0 0 1-6.12 2.1zm0 0" stroke="#1a1a1a" stroke-width="4" stroke-linecap="round" stroke-linejoin="round" data-locked="true"></path><path fill="#1a1a1a" d="M815.5 298.55c-3.72 0-7.7-1.57-9.59-5.13-2.62-4.92.04-10.65 2.26-14.53a174 174 0 0 1 17.93-25.63c6.65-7.9 13.02-7.84 16.78-5.14 3.88 2.8 5.93 8.18 5.2 13.73-.63 4.94-3.15 9.34-5.53 13a102 102 0 0 1-13 16.07c-3.04 3.06-6.46 6.05-10.85 7.22q-1.52.4-3.2.4zm22.2-48.34c-2.64 0-5.72 1.89-8.74 5.47a171 171 0 0 0-17.53 25.07c-1.78 3.11-3.95 7.63-2.2 10.92 1.49 2.8 5.5 3.65 8.5 2.85 3.54-.94 6.5-3.55 9.16-6.24a98 98 0 0 0 12.52-15.49c2.15-3.3 4.42-7.23 4.96-11.42.54-4.2-.9-8.2-3.69-10.2a5 5 0 0 0-2.97-.96zm-10.17 4.26h.01zm0 0" stroke="#1a1a1a" stroke-width="4" stroke-linecap="round" stroke-linejoin="round" data-locked="true"></path><path fill="#1a1a1a" d="M812.33 318.09a9 9 0 0 1-3.8-.84c-5.89-2.72-12.1-5.81-17.66-9.96-5.36-4-12.32-10.75-15.07-20.21-2.12-7.32-1.63-15.7 1.5-25.65a87 87 0 0 1 21.04-34.83c1.86-1.88 7.51-7.58 13.89-4.6 3.07 1.44 5.17 4.64 5.47 8.34.52 6.66-4.13 15.29-7.18 19.16a1.88 1.88 0 0 1-2.95-2.32c3.44-4.36 6.76-11.74 6.39-16.54-.2-2.37-1.46-4.38-3.32-5.24-2.76-1.3-5.73-.1-9.64 3.84a83 83 0 0 0-20.11 33.32c-2.91 9.21-3.4 16.89-1.49 23.47 2.46 8.47 8.82 14.6 13.72 18.26 5.28 3.94 11.28 6.92 16.98 9.56 1.8.82 3.9.6 5.48-.6a168 168 0 0 1 11.48-7.61c2.23-1.4 4.34-2.71 6.06-3.87 4.41-2.98 10.6-7.71 13.3-14.33 2.18-5.32 1.7-13-3.49-16.75a1.87 1.87 0 1 1 2.2-3.04c6.74 4.88 7.48 14.57 4.77 21.2-3.1 7.57-9.86 12.77-14.68 16.02-1.78 1.2-3.92 2.54-6.18 3.95a164 164 0 0 0-11.2 7.42 9 9 0 0 1-5.5 1.85zm0 0" stroke="#1a1a1a" stroke-width="4" stroke-linecap="round" stroke-linejoin="round" data-locked="true"></path><path fill="#1a1a1a" d="M650.75 342.19q-8.71 0-17.75-1c-4.58-.51-9.18-.95-13.79-1.4-19.26-1.83-39.18-3.73-57.6-10.92a1.88 1.88 0 0 1 1.37-3.5c17.93 7 37.58 8.88 56.6 10.7 4.61.44 9.23.88 13.84 1.4 25.92 2.87 50-.64 69.68-10.14 10.5-5.08 20.3-12.11 29.77-18.91 13.07-9.39 26.6-19.1 42.3-23.92a1.87 1.87 0 1 1 1.1 3.58c-15.12 4.65-28.38 14.17-41.21 23.38-9.6 6.9-19.53 14.03-30.33 19.24-15.71 7.6-34.12 11.49-53.98 11.49zm0 0" stroke="#1a1a1a" stroke-width="4" stroke-linecap="round" stroke-linejoin="round" data-locked="true"></path><path fill="#1a1a1a" d="M644.92 470.53a1.87 1.87 0 0 1-.04-3.74c72.05-1.55 139.64-46.88 168.19-112.82 3.98-9.18 9.2-26-.47-35.51a1.87 1.87 0 1 1 2.63-2.67c11.27 11.07 5.64 29.6 1.28 39.67-29.12 67.25-98.06 113.5-171.55 115.07zm0 0" stroke="#1a1a1a" stroke-width="4" stroke-linecap="round" stroke-linejoin="round" data-locked="true"></path><path fill="#1a1a1a" d="M516.64 616.38c-38.6 0-76.15-1.94-112.37-5.82a7.85 7.85 0 0 1-6.9-6.53c-4.28-26.5-6.61-58.73-6.23-86.24a1.87 1.87 0 0 1 1.88-1.85h.02c1.04.01 1.87.87 1.85 1.9-.38 27.3 1.93 59.3 6.18 85.6.3 1.8 1.77 3.2 3.6 3.39 70.04 7.5 145.12 7.73 223.15.66a4.8 4.8 0 0 0 4.16-3.41c10.1-35.8 10.36-71.38 10.61-105.79.15-19.84.3-40.37 2.41-60.25 3.47-32.7 12.29-64.81 20.82-95.86a1.87 1.87 0 1 1 3.61.99c-8.48 30.9-17.26 62.87-20.7 95.26-2.1 19.7-2.23 39.22-2.38 59.9-.26 34.64-.53 70.48-10.76 106.76a8.5 8.5 0 0 1-7.43 6.14c-37.95 3.43-75.2 5.15-111.52 5.15zm0 0" stroke="#1a1a1a" stroke-width="4" stroke-linecap="round" stroke-linejoin="round" data-locked="true"></path><path fill="#1a1a1a" d="M305.8 578.26a9.5 9.5 0 0 1-5.99-2.14 4482 4482 0 0 0-50.12-40.64 6.95 6.95 0 0 1-1.78-8.85C299.36 434.5 400.67 373.9 506.03 372.3l5.6-.07c14.5-.1 29.5-.22 41.8-7.18 7.09-4 11.98-11.1 13.1-19 .95-6.71-1.03-12.97-5.57-17.6a1.88 1.88 0 0 1 2.68-2.63c5.37 5.5 7.72 12.87 6.6 20.76a30 30 0 0 1-14.96 21.73c-13.15 7.44-28.64 7.57-43.62 7.68q-2.8.01-5.58.05c-104.03 1.6-204.08 61.43-254.9 152.43a3.25 3.25 0 0 0 .85 4.09 4454 4454 0 0 1 50.16 40.68 5.7 5.7 0 0 0 6.14.69c29.53-14.78 60.28-31.38 83.28-57.35 26.27-29.64 39.7-69.43 51.55-104.54a1.87 1.87 0 1 1 3.55 1.2c-11.96 35.44-25.52 75.61-52.29 105.83-23.45 26.46-54.55 43.27-84.41 58.21a9.4 9.4 0 0 1-4.2.99zm0 0" stroke="#1a1a1a" stroke-width="4" stroke-linecap="round" stroke-linejoin="round" data-locked="true"></path><path fill="#1a1a1a" d="M380.83 406.67q-.43 0-.82-.2c-6.96-3.37-15.72-14.57-13.55-23.13 1.7-6.7 6.38-12.96 13.94-18.62 13.35-10.03 31.33-15.74 52-16.5 18.31-.69 36.61 2.35 54.28 5.28a1.87 1.87 0 0 1 1.54 2.16 1.87 1.87 0 0 1-2.15 1.54c-17.5-2.9-35.57-5.92-53.54-5.24-19.89.74-37.14 6.19-49.88 15.76-6.85 5.13-11.08 10.7-12.55 16.54-1.54 6.07 5.2 15.77 11.54 18.84a1.87 1.87 0 0 1-.81 3.57zm0 0" stroke="#1a1a1a" stroke-width="4" stroke-linecap="round" stroke-linejoin="round" data-locked="true"></path><path fill="#1a1a1a" d="M397.2 359.21q-.45 0-.88-.22c-9.59-5.1-14.73-19.22-10.37-28.5 3.76-8.02 11.89-14.47 22.87-18.18 22.74-7.66 48.15-2.12 68.56 2.33a1.9 1.9 0 0 1 1.44 2.23 1.9 1.9 0 0 1-2.24 1.44c-19.96-4.36-44.8-9.79-66.55-2.44-5.8 1.95-16.2 6.66-20.68 16.21-3.53 7.51.88 19.42 8.74 23.6a1.87 1.87 0 0 1-.89 3.53zm0 0" stroke="#1a1a1a" stroke-width="4" stroke-linecap="round" stroke-linejoin="round" data-locked="true"></path><path fill="#1a1a1a" d="M392.42 307.32c-5.05 0-11.4-1.08-15.41-5.7-4.26-4.9-3.9-11.76-2.14-16.53 1.97-5.35 5.86-9.78 8.98-13.35 56.26-64.13 123.9-123.47 206.8-181.42 11.36-7.95 21.75-14.74 33.98-17.47 12.9-2.87 25.5 1.6 33.67 11.99a1.88 1.88 0 0 1-2.95 2.32c-7.37-9.36-18.27-13.24-29.9-10.65-11.56 2.58-21.63 9.17-32.65 16.88-82.65 57.78-150.07 116.93-206.13 180.82-3.71 4.24-6.68 7.82-8.28 12.17-1.74 4.74-1.17 9.76 1.45 12.78 3.4 3.92 9.37 4.55 13.76 4.38 17.06-.6 27.2-8.31 40.01-18.07 3.68-2.8 7.47-5.68 11.73-8.65a1.88 1.88 0 0 1 2.15 3.08c-4.2 2.92-7.96 5.78-11.6 8.55-13.36 10.16-23.9 18.19-42.15 18.85zm0 0" stroke="#1a1a1a" stroke-width="4" stroke-linecap="round" stroke-linejoin="round" data-locked="true"></path><path fill="#1a1a1a" d="M382.1 311.82c-7.75 0-14.87-1.63-19.45-5.02-10.33-7.66-11.34-22.7-8.84-34.22 4.4-20.26 16.96-37.7 29.46-53.83 32.53-42 61.9-73.32 92.4-98.54C513.59 88.87 553.4 67.16 594 55.71c23.81-6.72 41.66-5.04 53.04 5 14.03 12.36 13.79 33.7 7.63 48.3-6.97 16.51-23.52 33.32-36.27 41.4a1.87 1.87 0 1 1-2-3.17c12.25-7.76 28.15-23.88 34.81-39.7 5.65-13.39 5.99-32.89-6.65-44.02-10.36-9.14-27.03-10.55-49.54-4.2-40.1 11.31-79.45 32.77-116.96 63.79-30.29 25.03-59.46 56.15-91.83 97.94-12.23 15.78-24.52 32.82-28.75 52.33-2.26 10.37-1.5 23.8 7.4 30.4 8.52 6.31 30.88 6.01 44.84-3.34a1.87 1.87 0 1 1 2.08 3.11c-8.07 5.42-19.44 8.27-29.7 8.27zm0 0" stroke="#1a1a1a" stroke-width="4" stroke-linecap="round" stroke-linejoin="round" data-locked="true"></path><path fill="#1a1a1a" d="M388.23 217.3c-.54 0-1.09-.24-1.45-.7-22.88-28.36-27.97-69.85-12.97-105.7 13.87-33.17 43.15-60.15 80.34-74.03 21.97-8.19 43.77-10.6 63.06-6.99 22.36 4.2 42 17.12 52.54 34.56a1.88 1.88 0 0 1-3.21 1.94c-10-16.54-28.7-28.8-50.02-32.81-18.63-3.5-39.74-1.14-61.06 6.82-36.22 13.51-64.72 39.74-78.2 71.95-14.46 34.6-9.58 74.6 12.43 101.9a1.87 1.87 0 0 1-1.46 3.06zm0 0" stroke="#1a1a1a" stroke-width="4" stroke-linecap="round" stroke-linejoin="round" data-locked="true"></path><path fill="#1a1a1a" d="M374.34 193.43a1.87 1.87 0 0 1-1.6-2.84c40.58-67.56 108.02-121.26 180.38-143.64 1-.3 2.04.25 2.35 1.24.3 1-.25 2.04-1.24 2.34-71.51 22.12-138.15 75.2-178.28 141.99-.35.59-.97.9-1.6.9zm0 0" stroke="#1a1a1a" stroke-width="4" stroke-linecap="round" stroke-linejoin="round" data-locked="true"></path><path fill="#1a1a1a" d="M424.16 242.75q-4.56 0-9.1-.51a1.87 1.87 0 1 1 .42-3.72c32.36 3.67 65.94-13.99 84.89-33.1 18.09-18.25 29.9-44.48 31.57-70.16a2.35 2.35 0 0 1 3.77-1.72c19.52 14.68 45.66 20.65 68.22 15.55 8.01-1.8 13.15-4.78 15.7-9.08 4.3-7.3.2-16.86-1.77-20.64C611.6 107.4 602 97.42 592.13 92.7a1.87 1.87 0 1 1 1.61-3.39c10.58 5.06 20.84 15.65 27.45 28.33 2.8 5.38 6.74 15.69 1.66 24.28-3.1 5.24-9.02 8.78-18.1 10.83-22.82 5.15-49.12-.5-69.26-14.74-2.31 25.75-14.33 51.77-32.46 70.05-17.82 17.98-48.24 34.69-78.87 34.69zm0 0" stroke="#1a1a1a" stroke-width="4" stroke-linecap="round" stroke-linejoin="round" data-locked="true"></path><path fill="#1a1a1a" d="M557.84 311.13c-23.34 0-51.02-9.02-82.14-35.3-.64-.54-1.49-.6-2.1-.13-9.97 7.5-23.87 7.9-32.36.92-9.07-7.46-12.83-21.13-10.07-36.57a1.87 1.87 0 1 1 3.7.66c-2.52 14.09.75 26.43 8.76 33.01 7.89 6.49 20.28 4.58 27.7-1.02a5.4 5.4 0 0 1 6.79.27c75.6 63.83 130.03 22.81 149.92 2.2 10.69-11.07 17.17-27.18 16.92-42.04-.25-14.7-7.68-28.42-14.86-41.7-7.79-14.38-15.85-29.27-15.14-45.76a1.9 1.9 0 0 1 1.96-1.8 1.9 1.9 0 0 1 1.8 1.96c-.67 15.46 6.78 29.24 14.68 43.82 7.4 13.67 15.05 27.8 15.3 43.41.28 15.82-6.6 32.96-17.96 44.72-12.4 12.84-37.72 33.35-72.9 33.35zm0 0" stroke="#1a1a1a" stroke-width="4" stroke-linecap="round" stroke-linejoin="round" data-locked="true"></path><path fill="#1a1a1a" d="M461.43 265.38a1.88 1.88 0 0 1-1.67-2.72 12 12 0 0 0 .08-10.37 12 12 0 0 0-8.2-6.36 1.87 1.87 0 0 1-1.47-2.2 1.86 1.86 0 0 1 2.21-1.47 15.7 15.7 0 0 1 10.84 8.4 15.8 15.8 0 0 1-.11 13.7 1.9 1.9 0 0 1-1.68 1.02zm0 0" stroke="#1a1a1a" stroke-width="4" stroke-linecap="round" stroke-linejoin="round" data-locked="true"></path><path fill="#1a1a1a" d="M549.54 370.21q-.4 0-.8-.17l-61.13-28.78c-6.36-3-12.3-6.19-14.98-12.22a12.3 12.3 0 0 1 .25-9.97c1.27-2.77 3.4-4.78 5.85-5.53.54-.16 1.85-.7 2.19-2.03 3.12-12.43 2.42-24.2-1.93-32.26a1.87 1.87 0 1 1 3.3-1.78c4.79 8.88 5.61 21.63 2.26 34.95a6.7 6.7 0 0 1-4.73 4.7c-1.42.44-2.7 1.72-3.53 3.5a8.7 8.7 0 0 0-.24 6.9c2.17 4.86 7.46 7.66 13.15 10.34l61.14 28.78a1.88 1.88 0 0 1-.8 3.57zm0 0" stroke="#1a1a1a" stroke-width="4" stroke-linecap="round" stroke-linejoin="round" data-locked="true"></path><path fill="#1a1a1a" d="M562.3 329c-.47 0-.93-.17-1.29-.52-3.95-3.73-4.5-13.97-3.9-18.38a1.88 1.88 0 1 1 3.7.5c-.6 4.48.3 12.82 2.78 15.15a1.88 1.88 0 0 1-1.3 3.24zm0 0" stroke="#1a1a1a" stroke-width="4" stroke-linecap="round" stroke-linejoin="round" data-locked="true"></path><path fill="#1a1a1a" d="M524.1 488.5c-1 0-1.83-.8-1.86-1.82l-3.47-110.61a1.87 1.87 0 0 1 1.82-1.94c1.06-.06 1.9.78 1.93 1.82l3.46 110.61a1.9 1.9 0 0 1-1.81 1.93zm0 0" stroke="#1a1a1a" stroke-width="4" stroke-linecap="round" stroke-linejoin="round" data-locked="true"></path><path fill="#1a1a1a" d="M591.79 473.72c-.94 0-1.75-.7-1.86-1.64-1.04-8.49-1.98-17.13-2.88-25.48-3.78-34.95-7.69-71.1-20.68-107.93a1.88 1.88 0 0 1 3.54-1.25c13.13 37.25 17.06 73.61 20.87 108.78.9 8.33 1.83 16.96 2.87 25.42a1.9 1.9 0 0 1-1.63 2.1zm0 0" stroke="#1a1a1a" stroke-width="4" stroke-linecap="round" stroke-linejoin="round" data-locked="true"></path><path fill="#1a1a1a" d="M511.02 586.67c-38.68 0-77.37-2.88-115.83-8.64a1.87 1.87 0 0 1-1.57-2.13 1.86 1.86 0 0 1 2.13-1.57 777 777 0 0 0 243.65-2.09 1.87 1.87 0 1 1 .62 3.7 781 781 0 0 1-129 10.73zm0 0" stroke="#1a1a1a" stroke-width="4" stroke-linecap="round" stroke-linejoin="round" data-locked="true"></path><path fill="#1a1a1a" d="M817.5 349.35h-.17c-30.1-2.84-57.31-20.82-71.04-46.94a1.88 1.88 0 0 1 3.32-1.74c13.14 25 39.23 42.22 68.07 44.94a1.87 1.87 0 0 1-.17 3.74zm0 0" stroke="#1a1a1a" stroke-width="4" stroke-linecap="round" stroke-linejoin="round" data-locked="true"></path><path fill="#1a1a1a" d="M326.44 568.6c-.65 0-1.28-.34-1.63-.95-15.18-26.32-40-47.97-64.8-56.47a1.88 1.88 0 0 1 1.2-3.55c25.63 8.8 51.24 31.07 66.85 58.15a1.87 1.87 0 0 1-1.62 2.81zm0 0" stroke="#1a1a1a" stroke-width="4" stroke-linecap="round" stroke-linejoin="round" data-locked="true"></path><path fill="#1a1a1a" d="M569.4 919.04a11.1 11.1 0 0 1-9.52-5.35c-33.88-56.36-68.61-109.1-102.2-160.1-13.88-21.08-28.23-42.87-38.34-66.57-11.46-26.87-15.66-52.32-12.5-75.64a1.88 1.88 0 0 1 3.72.5c-3.07 22.65 1.05 47.43 12.23 73.66 9.98 23.4 24.23 45.05 38.02 65.99 33.61 51.03 68.37 103.8 102.3 160.23a7.35 7.35 0 0 0 8.71 3.12c31.1-10.97 56.4-22.9 79.65-37.54a7.66 7.66 0 0 0 3.2-9c-23.7-68.62-49-128.33-77.37-182.53a23.7 23.7 0 0 1-2.66-12.91c1.37-16.92 1.08-38.12-.82-59.7a1.87 1.87 0 0 1 1.7-2.03 1.86 1.86 0 0 1 2.03 1.7c1.92 21.79 2.21 43.21.83 60.33-.3 3.73.47 7.5 2.24 10.87 28.46 54.37 53.84 114.24 77.6 183.04a11.4 11.4 0 0 1-4.75 13.4c-23.5 14.8-49.04 26.84-80.4 37.9q-1.81.64-3.67.63zm0 0" stroke="#1a1a1a" stroke-width="4" stroke-linecap="round" stroke-linejoin="round" data-locked="true"></path><path fill="#1a1a1a" d="M583.49 695.58a1.88 1.88 0 0 1-1.44-3.07c16.61-20.2 34.94-53.65 38.4-82.87a1.88 1.88 0 0 1 3.74.44c-3.56 29.97-22.28 64.2-39.25 84.81-.37.45-.9.69-1.45.69zm0 0" stroke="#1a1a1a" stroke-width="4" stroke-linecap="round" stroke-linejoin="round" data-locked="true"></path><path fill="#1a1a1a" d="M464.09 886.12a7 7 0 0 1-3.58-1c-23.75-14.28-45.16-30.74-61.9-47.59a5.9 5.9 0 0 1-1.3-6.28 493 493 0 0 1 49.1-93.91 1.87 1.87 0 1 1 3.1 2.08 489 489 0 0 0-48.71 93.2c-.3.78-.13 1.68.46 2.27 16.54 16.63 37.7 32.9 61.18 47.02 1.4.84 3.2.5 4.22-.8 15.68-20 27.83-37.4 39.57-54.21a1.87 1.87 0 1 1 3.08 2.14c-11.78 16.86-23.96 34.29-39.7 54.4a7 7 0 0 1-5.52 2.68zm0 0" stroke="#1a1a1a" stroke-width="4" stroke-linecap="round" stroke-linejoin="round" data-locked="true"></path><path fill="#1a1a1a" d="M624.85 987.33a9 9 0 0 1-7.78-4.57c-7.74-13.64-16.3-27.39-24.58-40.68a1566 1566 0 0 1-16.22-26.42 1.88 1.88 0 0 1 3.22-1.92c5.1 8.55 10.48 17.2 16.19 26.36 8.3 13.32 16.88 27.1 24.66 40.81a5.14 5.14 0 0 0 6.5 2.25 495 495 0 0 0 94.6-53.65 14.6 14.6 0 0 0 6.21-10.74c.42-6.25-3.7-10.32-13.38-13.2-14.29-4.24-28.13-5.65-41.13-4.18a17 17 0 0 1-14.61-5.76l-11.48-13.14a1.88 1.88 0 0 1 2.83-2.47l11.47 13.14a13.2 13.2 0 0 0 11.37 4.5c13.5-1.52 27.84-.07 42.62 4.33 7.24 2.15 16.78 6.25 16.05 17.03a18.3 18.3 0 0 1-7.75 13.53 499 499 0 0 1-95.31 54.06q-1.71.72-3.48.72zm0 0" stroke="#1a1a1a" stroke-width="4" stroke-linecap="round" stroke-linejoin="round" data-locked="true"></path><path fill="#1a1a1a" d="M598.36 948.19a1.88 1.88 0 0 1-.75-3.6c21.17-9.23 41.68-24.64 64.56-48.5a1.88 1.88 0 1 1 2.7 2.6c-23.23 24.22-44.12 39.9-65.76 49.34q-.37.15-.75.16zm0 0" stroke="#1a1a1a" stroke-width="4" stroke-linecap="round" stroke-linejoin="round" data-locked="true"></path><path fill="#1a1a1a" d="M616.66 980.14a1.88 1.88 0 0 1-.7-3.61c37.17-14.88 79.29-31.74 111.87-63.18a1.87 1.87 0 1 1 2.6 2.7C697.33 948 654.84 965 617.36 980.01q-.35.13-.7.13zm0 0" stroke="#1a1a1a" stroke-width="4" stroke-linecap="round" stroke-linejoin="round" data-locked="true"></path><path fill="#000000" d="M471.83 989.98c-7.46 0-15.14-2.92-21.24-5.68-30.4-13.84-60.5-37.65-92.1-72.79l-1.08-1.21 1.04-1.25c18.33-22.1 31.27-43.43 45.05-68.64a1.88 1.88 0 1 1 3.3 1.8c-13.64 24.92-26.45 46.1-44.42 67.98 30.82 34.1 60.19 57.23 89.76 70.7 9.56 4.34 23.32 9.13 32.42.55 4.3-4.04 6.37-10.12 5.71-16.7-1.29-12.88-10.66-22.49-19.35-30.46l-2.46-2.23c-5.36-4.9-10.92-9.95-16.62-16.98a14.1 14.1 0 0 1-1.42-15.76l8.79-16.02a1.88 1.88 0 1 1 3.3 1.8l-8.8 16.03a10.3 10.3 0 0 0 1.05 11.58c5.5 6.81 10.96 11.78 16.24 16.57l2.45 2.24c9.2 8.46 19.14 18.66 20.56 32.86.78 7.73-1.73 14.96-6.88 19.8-4.52 4.26-9.85 5.81-15.3 5.81zm0 0"></path><path fill="#1a1a1a" d="M457.83 921q-.22 0-.48-.07c-26.98-7.08-56.53-21.72-77.12-38.22a1.88 1.88 0 1 1 2.34-2.92c20.2 16.19 49.23 30.56 75.74 37.51a1.88 1.88 0 0 1-.48 3.7zm0 0" stroke="#1a1a1a" stroke-width="4" stroke-linecap="round" stroke-linejoin="round" data-locked="true"></path><path fill="#1a1a1a" d="M478.08 982.12c-16.51 0-32.61-10.5-47.14-19.99a447 447 0 0 0-9.4-6.02c-17.88-11.07-33.6-29.11-47.48-45.03q-3.65-4.21-7.21-8.24a1.87 1.87 0 1 1 2.8-2.49q3.58 4.06 7.24 8.26c14.37 16.5 29.23 33.54 46.63 44.31 3.12 1.93 6.35 4.03 9.47 6.07 18.03 11.77 36.69 23.94 55.46 17.73a1.87 1.87 0 1 1 1.18 3.56 37 37 0 0 1-11.55 1.84zm0 0" stroke="#1a1a1a" stroke-width="4" stroke-linecap="round" stroke-linejoin="round" data-locked="true"></path><path fill="#1a1a1a" d="m447.92 945.85-.18-.01c-1.03-.1-1.79-1-1.7-2.04.88-9.66 9.1-18.16 18.74-19.35a1.87 1.87 0 0 1 .46 3.72c-7.95.99-14.73 8-15.46 15.97-.09.98-.9 1.71-1.86 1.71zm0 0" stroke="#1a1a1a" stroke-width="4" stroke-linecap="round" stroke-linejoin="round" data-locked="true"></path><path fill="#1a1a1a" d="M458.89 956.39q-.27 0-.54-.08c-1-.3-1.56-1.34-1.26-2.33a26.2 26.2 0 0 1 19.35-17.71 1.88 1.88 0 0 1 .75 3.68 22.3 22.3 0 0 0-16.5 15.1 1.9 1.9 0 0 1-1.8 1.34zm0 0" stroke="#1a1a1a" stroke-width="4" stroke-linecap="round" stroke-linejoin="round" data-locked="true"></path><path fill="#1a1a1a" d="M675.87 929.69c-.82 0-1.57-.54-1.8-1.37a34.5 34.5 0 0 1 6.33-30.53 1.88 1.88 0 0 1 2.92 2.37 30.6 30.6 0 0 0-5.64 27.15 1.88 1.88 0 0 1-1.8 2.38zm0 0" stroke="#1a1a1a" stroke-width="4" stroke-linecap="round" stroke-linejoin="round" data-locked="true"></path><path fill="#1a1a1a" d="M691.49 919.65a1.9 1.9 0 0 1-1.88-1.83 24 24 0 0 1 7.16-17.57 1.87 1.87 0 1 1 2.62 2.69 20.2 20.2 0 0 0-6.02 14.79 1.9 1.9 0 0 1-1.83 1.92zm0 0" stroke="#1a1a1a" stroke-width="4" stroke-linecap="round" stroke-linejoin="round" data-locked="true"></path><path fill="#1a1a1a" d="M604.75 905.88c-.64 0-1.27-.33-1.62-.94-19.63-33.7-40.08-69.68-59.87-104.47-19.76-34.76-40.19-70.7-59.79-104.35-14.62-25.13-29.75-51.1-35.68-80.36a1.87 1.87 0 1 1 3.67-.75c5.81 28.65 20.78 54.36 35.25 79.22 19.61 33.68 40.05 69.62 59.81 104.38 19.78 34.79 40.24 70.76 59.85 104.45a1.88 1.88 0 0 1-1.62 2.82zm0 0" stroke="#1a1a1a" stroke-width="4" stroke-linecap="round" stroke-linejoin="round" data-locked="true"></path><path fill="#1a1a1a" d="M467.52 658.4a1.88 1.88 0 0 1-.48-3.69c18.37-4.89 33.47-20.63 37.57-39.18a1.88 1.88 0 1 1 3.66.8c-4.4 19.89-20.58 36.77-40.27 42q-.24.07-.48.07zm0 0" stroke="#1a1a1a" stroke-width="4" stroke-linecap="round" stroke-linejoin="round" data-locked="true"></path><path fill="#1a1a1a" d="M297.86 597.14a1.9 1.9 0 0 1-1.88-1.84c-.05-3.01-.86-5.58-1.71-8.3-.9-2.86-1.82-5.82-1.88-9.37-.05-2.73-.03-5.62.71-8.42a1.88 1.88 0 0 1 3.63.96c-.62 2.33-.63 4.93-.6 7.4.06 3 .87 5.58 1.72 8.3.9 2.86 1.82 5.81 1.88 9.36.02 1.04-.8 1.9-1.83 1.91zm0 0" stroke="#1a1a1a" stroke-width="4" stroke-linecap="round" stroke-linejoin="round" data-locked="true"></path><path fill="#1a1a1a" d="M266.6 610.48c-5.27 0-10.92-1.58-16.86-4.72-3.98-2.1-7.7-4.67-11.31-7.16-2-1.37-4.05-2.8-6.11-4.1l-1.15-.73c-4.88-3.07-10.4-6.56-12.32-12.49-1.89-5.82.53-11.93 2.5-16.02 5.75-11.91 15.85-22.06 30.86-31.02a1.87 1.87 0 1 1 1.92 3.22c-14.36 8.58-23.98 18.2-29.4 29.42-1.7 3.52-3.78 8.7-2.31 13.25 1.5 4.64 6.2 7.6 10.75 10.47l1.16.73c2.12 1.35 4.2 2.8 6.23 4.19 3.51 2.42 7.15 4.92 10.94 6.93 6.78 3.58 13.04 4.93 18.63 3.99 5.3-.89 16.54-7.55 15.4-21.52a1.88 1.88 0 0 1 3.73-.31c1.24 15.09-10.31 24.15-18.51 25.53q-2.04.34-4.15.34zm0 0" stroke="#1a1a1a" stroke-width="4" stroke-linecap="round" stroke-linejoin="round" data-locked="true"></path><path fill="#1a1a1a" d="M131.32 745.4c-.87 0-1.66-.6-1.84-1.49-11.1-52.98 5.14-88.32 20.7-108.65 19.82-25.85 50.86-42.38 83.03-44.22.95-.06 1.92.73 1.98 1.77a1.9 1.9 0 0 1-1.76 1.98c-31.1 1.78-61.1 17.76-80.26 42.75-15.1 19.7-30.83 54.02-20.02 105.6a1.87 1.87 0 0 1-1.83 2.26zm0 0" stroke="#1a1a1a" stroke-width="4" stroke-linecap="round" stroke-linejoin="round" data-locked="true"></path><path fill="#1a1a1a" d="M116.1 744.4a1.9 1.9 0 0 1-1.83-1.45c-9.87-42.47-4.17-80.73 16.47-110.65 19.98-28.95 52.65-48.43 89.64-53.45a1.87 1.87 0 1 1 .5 3.72c-35.94 4.88-67.67 23.78-87.05 51.86-20.03 29.02-25.53 66.25-15.9 107.67a1.88 1.88 0 0 1-1.83 2.3zm0 0" stroke="#1a1a1a" stroke-width="4" stroke-linecap="round" stroke-linejoin="round" data-locked="true"></path><path fill="#1a1a1a" d="M350.2 744.4q-.1 0-.19-.02a1.87 1.87 0 0 1-1.68-2.05c6.04-60.82-2.46-95.11-68.84-137.51a1.88 1.88 0 0 1 2.02-3.16c68.04 43.46 76.75 78.64 70.55 141.05-.1.96-.91 1.68-1.86 1.68zm0 0" stroke="#1a1a1a" stroke-width="4" stroke-linecap="round" stroke-linejoin="round" data-locked="true"></path><path fill="#1a1a1a" d="M363.09 741.93q-.19 0-.38-.04a1.9 1.9 0 0 1-1.47-2.2c11.28-56.12 2.88-102.99-74.8-149.33a1.88 1.88 0 1 1 1.92-3.22c37.65 22.46 61.4 46.6 72.64 73.77 9.26 22.41 10.47 46.93 3.92 79.51-.18.9-.96 1.5-1.83 1.5zm0 0" stroke="#1a1a1a" stroke-width="4" stroke-linecap="round" stroke-linejoin="round" data-locked="true"></path><path fill="#1a1a1a" d="M239.66 873.58c-38.13 0-73.45-1.5-107.5-4.51a16.8 16.8 0 0 1-14.35-11.22c-13.1-37.39-22.88-70.79-30.76-105.1a10.8 10.8 0 0 1 2.4-9.6 10.7 10.7 0 0 1 9.12-3.68c89.21 7.84 184.22 7.41 282.38-1.3a7 7 0 0 1 5.83 2.27 7 7 0 0 1 1.73 5.95c-5.04 28.43-11.53 55-18.4 83.13q-3.27 13.33-6.5 26.92a17.9 17.9 0 0 1-16.3 13.7 1814 1814 0 0 1-107.65 3.44zM97.6 743.18a7 7 0 0 0-5.32 2.43 7 7 0 0 0-1.58 6.3c7.86 34.18 17.6 67.45 30.65 104.7a13.1 13.1 0 0 0 11.14 8.73c63.67 5.63 131.88 5.97 214.6 1.05a14.2 14.2 0 0 0 12.86-10.8c2.16-9.1 4.35-18.06 6.52-26.96 6.85-28.07 13.33-54.58 18.35-82.9a3.28 3.28 0 0 0-3.54-3.82c-98.38 8.72-193.6 9.16-283.04 1.3zm249.6 125.08h.02zm0 0" stroke="#1a1a1a" stroke-width="4" stroke-linecap="round" stroke-linejoin="round" data-locked="true"></path><path fill="#1a1a1a" d="M239.75 797.82c-47.32 0-94.65-2.2-141.64-6.6a1.87 1.87 0 0 1 .35-3.72 1521 1521 0 0 0 276.68.53 1.88 1.88 0 0 1 .33 3.74 1522 1522 0 0 1-135.72 6.05zm0 0" stroke="#1a1a1a" stroke-width="4" stroke-linecap="round" stroke-linejoin="round" data-locked="true"></path><path fill="#1a1a1a" d="M216.91 839.77c-36.8 0-72.45-1.6-105.69-4.83a1.9 1.9 0 0 1-1.68-2.05 1.87 1.87 0 0 1 2.05-1.68c77.69 7.53 168.77 6.18 256.45-3.83a1.88 1.88 0 0 1 .42 3.73 1350 1350 0 0 1-151.55 8.66zm0 0" stroke="#1a1a1a" stroke-width="4" stroke-linecap="round" stroke-linejoin="round" data-locked="true"></path><path fill="#1a1a1a" d="M146.35 870.23c-.96 0-1.79-.75-1.87-1.72-3.06-36.13-12.64-92.8-19.77-124.57a1.88 1.88 0 0 1 3.66-.83c7.15 31.9 16.77 88.8 19.85 125.08a1.87 1.87 0 0 1-1.87 2.04zm0 0" stroke="#1a1a1a" stroke-width="4" stroke-linecap="round" stroke-linejoin="round" data-locked="true"></path><path fill="#1a1a1a" d="M193.67 871.28c-.95 0-1.76-.72-1.86-1.69-1.88-18-4.22-39.8-6.57-61.6-2.34-21.8-4.7-43.6-6.57-61.6a1.88 1.88 0 0 1 3.73-.4c1.88 18.02 4.22 39.81 6.57 61.6 2.34 21.8 4.7 43.6 6.57 61.62a1.9 1.9 0 0 1-1.67 2.06zm0 0" stroke="#1a1a1a" stroke-width="4" stroke-linecap="round" stroke-linejoin="round" data-locked="true"></path><path fill="#1a1a1a" d="M233.32 873.58q0 0 0 0a1.87 1.87 0 0 1-1.87-1.88c.12-18.16.06-40.68 0-62.46-.06-21.72-.13-44.19 0-62.32 0-1.03.84-1.86 1.87-1.86h.02c1.03 0 1.86.85 1.86 1.89-.13 18.11-.06 40.56 0 62.28.06 21.78.12 44.31 0 62.5a1.9 1.9 0 0 1-1.88 1.85zm0 0" stroke="#1a1a1a" stroke-width="4" stroke-linecap="round" stroke-linejoin="round" data-locked="true"></path><path fill="#1a1a1a" d="M280.5 873.04h-.16a1.87 1.87 0 0 1-1.7-2.04c1.66-18.3 1.72-40.73 1.79-62.42.06-21.77.13-44.28 1.8-62.74a1.87 1.87 0 0 1 3.74.34c-1.66 18.3-1.72 40.73-1.8 62.42-.06 21.77-.13 44.27-1.8 62.74-.09.97-.9 1.7-1.87 1.7zm0 0" stroke="#1a1a1a" stroke-width="4" stroke-linecap="round" stroke-linejoin="round" data-locked="true"></path><path fill="#1a1a1a" d="m326.44 871.28-.32-.03a1.9 1.9 0 0 1-1.53-2.17c4.37-25.66 5.29-60.28 6.1-90.8.33-12.5.64-24.32 1.16-34.85a1.84 1.84 0 0 1 1.97-1.78c1.03.05 1.83.93 1.78 1.97-.52 10.49-.83 22.27-1.16 34.75-.82 30.66-1.74 65.4-6.15 91.35a1.9 1.9 0 0 1-1.85 1.56zm0 0" stroke="#1a1a1a" stroke-width="4" stroke-linecap="round" stroke-linejoin="round" data-locked="true"></path><path fill="#1a1a1a" d="M812.35 177.99a12.7 12.7 0 0 1-6.27-1.72c-4.17-2.44-7.06-6.76-8.6-12.83a37 37 0 0 1 2.41-24.28l-1.06.46c-9.43 4.09-19.18 8.32-29.72 5.98a16 16 0 0 1-7.94-4.21c-4.67-4.76-4.47-11.35.54-18.1 7.2-9.7 20.03-14.86 32.04-13.4l-1.65-1.58c-3.68-3.5-7.16-6.8-9.61-11.08-3.07-5.36-3.7-11.9-1.66-17.1a14 14 0 0 1 9.22-8.43c2.72-.83 5.67-.91 8.53-.2 7.33 1.8 13.24 7.88 16.21 16.7a53 53 0 0 1 2.3 10.9c3.98-8.3 9.02-17.02 16.07-24.01 2.23-2.21 9.02-8.95 17.41-5.69a14.5 14.5 0 0 1 8.14 8.4c2.42 6.25 1.3 13.68-3.22 21.52a53 53 0 0 1-4.74 6.84q1.96-1.14 3.94-2.22c4.73-2.56 11.05-5.58 18-6.14 9.51-.78 17.82 3.48 21.19 10.82 1.42 3.1 1.74 6.55.93 9.72-2.07 8.02-9.62 10.41-15.13 11.51-7.05 1.42-14.16.9-21.15-.06a48.3 48.3 0 0 1 19.03 22.8c1.62 4.12 1.64 8.5.05 12.35a12.8 12.8 0 0 1-7.18 7.25c-4.55 1.85-10.8 1.44-16.73-1.1-9.91-4.25-17.46-12.07-21.87-22.44a57 57 0 0 1-5.51 18.15c-3.67 7.36-8.47 11.19-13.97 11.19zm-9.2-44.09a2.3 2.3 0 0 1 1.94 3.52 33 33 0 0 0-3.97 25.1c1.28 5.06 3.59 8.6 6.86 10.52q1.27.75 2.62 1.02c5.94 1.18 10-4.2 12.36-8.94a53.4 53.4 0 0 0 5.55-25.87 2.06 2.06 0 0 1 4.09-.53c3.06 13.72 11.08 23.99 22.58 28.92 5.02 2.16 10.2 2.56 13.84 1.07a9.2 9.2 0 0 0 5.12-5.2 13 13 0 0 0-.07-9.54c-4.77-12.1-15.17-21.76-27.8-25.84l-1.65-.53.32-1.83a2 2 0 0 1 2.22-1.51q2.63.38 5.28.81c8.78 1.4 17.85 2.84 26.5 1.1 7.37-1.47 11.03-4.1 12.23-8.76.61-2.35.36-4.91-.7-7.22-3.29-7.17-11.49-9.14-17.48-8.66-6.24.51-12.1 3.32-16.51 5.71q-2.64 1.45-5.25 2.98c-3 1.72-6.1 3.52-9.3 5.04a2.07 2.07 0 0 1-2.17-3.51 51 51 0 0 0 12.48-14.31c4-6.91 5-13.06 2.98-18.28a10.8 10.8 0 0 0-6-6.26c-4.18-1.63-8.45-.08-13.42 4.85-8.21 8.14-13.62 18.93-17.83 28.41a2.1 2.1 0 0 1-2.29 1.23 2.1 2.1 0 0 1-1.76-1.91c-.46-5.85-1-11.1-2.68-16.09-2.56-7.57-7.5-12.77-13.55-14.26-2.2-.54-4.47-.48-6.53.16-3.27 1-5.63 3.16-6.84 6.23-1.6 4.09-1.05 9.52 1.43 13.84 2.17 3.8 5.46 6.93 8.93 10.23 1.82 1.73 3.7 3.52 5.53 5.5.66.71.76 1.78.25 2.59a2.2 2.2 0 0 1-2.45.91c-11.91-3.6-25.91 1-33.3 10.94-2.71 3.67-5.08 8.94-.87 13.24a12 12 0 0 0 6.08 3.16c9.36 2.09 18.53-1.9 27.41-5.75q2.5-1.1 4.94-2.1.43-.18.87-.18zm25.79 5.65zm-27.04-4.1q0 0 0 0zm40.18-20.76h-.02zm-1.76-2.82q0 0 0 0t0 0zm-25.78-7.23v.01zm0 0" stroke="#1a1a1a" stroke-width="4" stroke-linecap="round" stroke-linejoin="round" data-locked="true"></path><path fill="#1a1a1a" d="m825.76 131.06-.4-.01c-2.1-.1-4.06-.97-5.48-1.6-2.62-1.14-5.31-2.47-7.02-4.93-1.35-2.02-1.57-4.17-.63-5.99 1.03-2.02 3.3-3.22 6.19-3.32 5.13-.17 10.39 3.21 11.96 4.96a7.4 7.4 0 0 1 1.93 4.28 5.7 5.7 0 0 1-1.53 4.63 7 7 0 0 1-5.02 1.98zm-7.22-12.1c-1.47.05-2.58.53-2.97 1.28-.4.78.04 1.66.34 2.1 1.18 1.7 3.27 2.71 5.48 3.69 1.5.65 2.85 1.2 4.15 1.27 1.02.06 2-.26 2.54-.82q.6-.62.5-1.7a4 4 0 0 0-1-2.1c-1.18-1.32-5.46-3.85-9.04-3.72zm0 0" stroke="#1a1a1a" stroke-width="4" stroke-linecap="round" stroke-linejoin="round" data-locked="true"></path><path fill="#1a1a1a" d="M583.91 258.49a51 51 0 0 1-18.88-3.8 1.87 1.87 0 0 1-1.03-2.44 1.9 1.9 0 0 1 2.44-1.03c10.45 4.23 21.56 4.67 30.5 1.2 10.04-3.9 17.28-13.02 18.03-22.68.08-1.03.93-1.8 2.01-1.72 1.04.08 1.8.98 1.73 2.01-.85 11.07-9.06 21.47-20.42 25.89a40 40 0 0 1-14.38 2.57zm0 0" stroke="#1a1a1a" stroke-width="4" stroke-linecap="round" stroke-linejoin="round" data-locked="true"></path><path fill="#1a1a1a" d="M601.39 195.27c.49 3.05 1 6.21 2.72 8.78 1.7 2.58 4.97 4.4 7.92 3.46 3.17-1.01 4.7-4.64 5.15-7.94.4-2.92.28-5.96-.69-8.75a12.3 12.3 0 0 0-5.43-6.74 7 7 0 0 0-5.1-.88c-2.05.52-3.62 2.25-4.47 4.18-.86 1.93-.72 3.98-.1 7.9zm0 0" stroke="#1a1a1a" stroke-width="4" stroke-linecap="round" stroke-linejoin="round" data-locked="true"></path><path fill="#1a1a1a" d="M532.74 211.73c.2 3.79.4 7.64 1.6 11.24 1.19 3.6 3.5 7 6.93 8.66s8 1.14 10.42-1.79c2.07-2.51 2.17-6.09 1.85-9.34-.39-3.86-1.28-7.78-3.5-10.97s-5.97-5.51-9.84-5.17c-3.86.35-7.65 3.92-7.46 7.37zm0 0" stroke="#1a1a1a" stroke-width="4" stroke-linecap="round" stroke-linejoin="round" data-locked="true"></path><path fill="#1a1a1a" d="M536.54 188.08a9.5 9.5 0 0 0-7.59-1.32 9.5 9.5 0 0 0-6.02 4.8 7.64 7.64 0 0 1 4.3-8.28c3.1-1.34 7.05-.23 9.31 4.8zm0 0" stroke="#1a1a1a" stroke-width="4" stroke-linecap="round" stroke-linejoin="round" data-locked="true"></path><path fill="#1a1a1a" d="m522.16 197.15-1.07-5.22a9.55 9.55 0 0 1 5.4-10.37c3.7-1.6 8.96-.49 11.77 5.75l2.7 6.03-5.47-3.7a7.6 7.6 0 0 0-6.07-1.07 7.6 7.6 0 0 0-4.82 3.84zm7.57-12.52a4.4 4.4 0 0 0-2.24.62 10 10 0 0 1 2.66-.6zm0 0" stroke="#1a1a1a" stroke-width="4" stroke-linecap="round" stroke-linejoin="round" data-locked="true"></path><path fill="#1a1a1a" d="M594.86 176.9a10.3 10.3 0 0 1 6.28-4.5 10.3 10.3 0 0 1 7.63 1.22 7.95 7.95 0 0 0-8.03-3.97c-3.15.5-5.84 3.14-5.88 7.25zm0 0" stroke="#1a1a1a" stroke-width="4" stroke-linecap="round" stroke-linejoin="round" data-locked="true"></path><path fill="#1a1a1a" d="m592.91 183.54.07-6.66c.05-4.65 3.12-8.39 7.46-9.08a9.9 9.9 0 0 1 9.98 4.93l3.28 6.08-5.9-3.6a8.5 8.5 0 0 0-6.23-.98c-2.08.49-4 1.86-5.12 3.67zm0 0" stroke="#1a1a1a" stroke-width="4" stroke-linecap="round" stroke-linejoin="round" data-locked="true"></path><path fill="#1a1a1a" d="M592.6 219.8a6.26 6.26 0 0 1 4.52 6.8 6.3 6.3 0 0 1-6.4 5.09 10.1 10.1 0 0 0 1.89-11.9zm0 0" stroke="#1a1a1a" stroke-width="4" stroke-linecap="round" stroke-linejoin="round" data-locked="true"></path><path fill="#1a1a1a" d="m591.08 233.58-.5-.02-4.14-.3 2.96-2.91a8.2 8.2 0 0 0 1.55-9.68l-1.96-3.71 4.07 1.01a8.2 8.2 0 0 1 5.91 8.93 8.2 8.2 0 0 1-7.89 6.68zm0 0" stroke="#1a1a1a" stroke-width="4" stroke-linecap="round" stroke-linejoin="round" data-locked="true"></path><path fill="#1a1a1a" d="M870.8 310.83q-.26 0-.53-.08a75.5 75.5 0 0 1-27.31-14.65 1.87 1.87 0 1 1 2.41-2.87 72 72 0 0 0 25.95 13.92 1.87 1.87 0 0 1-.52 3.68zm0 0" stroke="#1a1a1a" stroke-width="4" stroke-linecap="round" stroke-linejoin="round" data-locked="true"></path><path fill="#1a1a1a" d="M805.77 254.55c-.64 0-1.26-.32-1.61-.91-12.66-21.26 1.92-46.8 12.56-65.43 2.41-4.2 4.68-8.18 6.4-11.68 5.09-10.35 9.31-21.99 5.82-36.97a1.87 1.87 0 1 1 3.65-.85c3.78 16.17-.96 29.03-6.1 39.47-1.77 3.6-4.08 7.63-6.51 11.9-10.76 18.82-24.14 42.25-12.6 61.64a1.88 1.88 0 0 1-1.61 2.83zm0 0" stroke="#1a1a1a" stroke-width="4" stroke-linecap="round" stroke-linejoin="round" data-locked="true"></path><path fill="#1a1a1a" d="M831.37 304.26q-.38 0-.74-.02a9.2 9.2 0 0 1-6.86-3.4c-2.42-3.18-1.67-6.94 2.37-11.8a1.87 1.87 0 1 1 2.88 2.39c-4.01 4.84-2.83 6.4-2.26 7.15a5.5 5.5 0 0 0 4.06 1.91c2.08.11 5.2-.4 7.02-2.22a1.88 1.88 0 0 1 2.66 2.65c-2.48 2.47-6.2 3.34-9.13 3.34zm0 0" stroke="#1a1a1a" stroke-width="4" stroke-linecap="round" stroke-linejoin="round" data-locked="true"></path><path d="m114.7 788.45-14.64-1.15-4.54-18.43c-3.93-15.93-4.34-18.87-3.05-21.7l1.49-3.27 14.69.85c8.08.47 15.06 1.22 15.5 1.67.9.9 8.21 37.75 8.21 41.34 0 1.21-.67 2.12-1.5 2.02s-8.1-.7-16.15-1.33z" data-region="path68" fill="#ffffff"></path><path d="M153.65 791.11c-7.82-.49-14.51-1.2-14.88-1.56-.84-.84-8.9-42.03-8.33-42.59.78-.78 45.09 1.25 46.51 2.13 1.07.66 5.64 33.35 5.92 42.37.03 1.04-8.9.93-29.22-.35z" data-region="path69" fill="#ffffff"></path><path d="m194.18 792.69-6.17-.44-1.4-12.88c-.78-7.08-1.83-16.8-2.33-21.6l-.92-8.72h47.67v44.52l-15.34-.22a549 549 0 0 1-21.51-.66z" data-region="path70" fill="#ffffff"></path><path d="M235.84 771.3v-22.25h45.19l-.4 20.75c-.23 11.42-.63 21.44-.9 22.27-.37 1.13-5.9 1.5-22.19 1.5h-21.7z" data-region="path71" fill="#ffffff"></path><path d="M285.42 770.9c.31-12.03.8-22.06 1.07-22.3s10.45-.82 22.62-1.28l22.13-.85-.88 22.05c-.48 12.12-.98 22.15-1.1 22.28s-10.18.62-22.33 1.1l-22.08.85z" data-region="path72" fill="#ffffff"></path><path d="M334.92 779.13c.44-6.16.8-16.15.8-22.2v-11.01l20.75-1.45c27.52-1.93 27.38-1.93 27.38.87 0 2.56-5.45 30.68-7.27 37.54-1.1 4.15-1.44 4.37-7.47 5.06-3.48.4-12.77 1.1-20.65 1.56l-14.33.84z" data-region="path73" fill="#ffffff"></path><path d="M333.47 821.55c.09-4.47.5-12.19.9-17.15l.75-9.03 19.25-1.4c10.59-.77 19.41-1.24 19.6-1.05.2.2-1.44 7.86-3.63 17.05l-3.98 16.69-10.8 1.41a193 193 0 0 1-16.53 1.5l-5.72.1z" data-region="path74" fill="#ffffff"></path><path d="M330.17 862.14c.42-2.62 1.1-9.66 1.53-15.64.7-9.76 1.03-10.91 3.3-11.36 3.88-.77 28.9-2.96 29.29-2.57.68.68-4.84 23.02-6.48 26.26-2.4 4.71-6.86 6.5-18.33 7.35l-10.08.74z" data-region="path75" fill="#ffffff"></path><path d="M283.17 866.47c.44-1.16.8-7.9.8-15V838.6l21.36-1.35c11.75-.74 21.6-1.12 21.88-.84.53.53-2.23 29.68-2.87 30.32-.2.2-9.72.69-21.16 1.1-19.47.7-20.76.6-20-1.35z" data-region="path76" fill="#ffffff"></path><path d="M285.18 815.6v-18.04l21.86-.8c12.02-.43 22.05-.6 22.29-.36s.06 8.02-.38 17.3l-.8 16.88-7.35.71c-4.04.4-13.7 1.09-21.48 1.53l-14.14.81z" data-region="path77" fill="#ffffff"></path><path d="M235.84 816.89v-18.5h44.9l-.76 17.61c-.42 9.7-.9 17.75-1.09 17.9-.18.15-9.94.55-21.69.88l-21.36.62z" data-region="path78" fill="#ffffff"></path><path d="M235.84 855.12v-14.27l9.93-.77c5.46-.42 15.27-.77 21.8-.78h11.85l-.44 13.88c-.34 10.65-.86 14.16-2.23 15.03-1 .62-10.6 1.14-21.35 1.15l-19.56.02z" data-region="path79" fill="#ffffff"></path><path d="M200.79 868.5c-5.06-.53-5.19-.87-6.54-17.5l-.85-10.5h37.63v28.88l-12.93-.2c-7.12-.12-14.9-.42-17.31-.67z" data-region="path80" fill="#ffffff"></path><path d="M192.12 830.57c-1.55-11.54-3.5-32.3-3.06-32.65.25-.21 9.8-.13 21.21.2l20.76.57v37H192.8z" data-region="path81" fill="#ffffff"></path><path d="m150.92 833.6-6.11-.43-2.76-18.65c-1.52-10.26-2.56-18.82-2.31-19.03.24-.2 10.23.18 22.19.84l21.75 1.22 1.5 15.76c.83 8.67 1.8 16.98 2.15 18.46l.64 2.71-15.47-.22a543 543 0 0 1-21.58-.66z" data-region="path82" fill="#ffffff"></path><path d="M162.11 866.96c-7.13-.47-13.13-1.07-13.32-1.33-.47-.62-3.25-26.69-2.88-27.02.16-.14 9.13.04 19.93.39 13.82.45 20.1 1.1 21.21 2.21.9.9 1.93 6.1 2.4 12.16.45 5.83 1.1 11.54 1.43 12.7.54 1.87-.31 2.08-7.6 1.92-4.51-.1-14.04-.56-21.17-1.03z" data-region="path83" fill="#ffffff"></path><path d="M135.37 864.94c-6.64-.87-10.32-3.06-12.53-7.47-2.61-5.2-7.76-20.55-7.11-21.2.47-.47 24 1.55 24.52 2.1.43.47 2.93 21.5 2.94 24.69 0 2.79-.28 2.86-7.82 1.88z" data-region="path84" fill="#ffffff"></path><path d="M125.8 831.9c-6.58-.59-12.29-1.58-12.68-2.22-1.4-2.27-11.1-36.25-10.51-36.84.72-.72 29.94 1.72 30.8 2.57.57.58 6.1 33.28 6.15 36.36.01.83-.38 1.43-.88 1.34s-6.3-.64-12.88-1.22z" data-region="path85" fill="#ffffff"></path><path d="M116.55 732.5c-1.02-5.05-1.63-16.07-1.61-29.18.02-17.86.43-22.6 2.7-31.28 3.66-13.92 14.26-34.7 23.22-45.48 14.55-17.52 38.23-32.6 61.73-39.32 13.52-3.86 16.31-3.8 19.65.44l2.64 3.36-9.26 2c-34.51 7.51-64.18 31.53-79.27 64.18-7.23 15.67-10.22 29.73-10.43 49.11-.1 9.27.26 20.77.8 25.57l.97 8.73h-9.5z" data-region="path86" fill="#ffffff"></path><path d="M353.56 719.87c.6-30.17-2.54-45.45-13.23-64.44-6.62-11.74-27.08-32.63-43.12-44.02-6.28-4.47-11.42-8.5-11.4-8.94 0-.46.78-2.81 1.7-5.24l1.7-4.42 6.7 4.3c38.33 24.5 60.73 53.4 66.94 86.36 2.24 11.84 1.9 34.07-.74 48.43-1.35 7.34-1.47 7.52-5.16 7.52h-3.78z" data-region="path87" fill="#ffffff"></path><path d="M255.54 603.55c-7.4-3.36-30.25-19-31.68-21.68-2.03-3.78-1.47-7.44 2.39-15.6 3.94-8.32 15.41-20.65 22.95-24.65l4.27-2.26 18.98 15.42c10.45 8.48 19.16 16 19.37 16.7s.64 4.9.94 9.31c.43 6.32.21 7.9-1.04 7.42-.87-.33-1.75-1.78-1.96-3.21-.72-5.07-3.88-2.9-4.93 3.4-2.44 14.58-15.57 21.37-29.29 15.15z" data-region="path88" fill="#ffffff"></path><path d="M282.67 556.4a3863 3863 0 0 1-26.24-21.39l-5.29-4.41 2.03-3.92c1.12-2.16 3.53-6.29 5.36-9.17l3.33-5.25 8.35 4.2c11.58 5.82 22.5 13.82 32.46 23.78 7.46 7.46 19.81 23.13 19.81 25.14 0 1.18-14.16 7.99-16.6 7.99-1.24 0-11.68-7.64-23.2-16.97z" data-region="path89" fill="#ffffff"></path><path d="M463.87 580.96a1438 1438 0 0 1-54.97-5.42c-8.91-1.18-10.54-1.74-11.15-3.88-.39-1.38-1.05-13.7-1.47-27.37l-.77-24.86 6.56-8.83c16.08-21.64 26.72-43.65 41.38-85.6 3.45-9.85 4.2-13.32 3.15-14.38-2.3-2.3-4.37 1.07-8.64 14.14-21.98 67.25-46.39 100.41-95.59 129.87-7.25 4.35-13.75 7.88-14.44 7.86-.68-.03-3.25-3.15-5.7-6.92-10.67-16.41-29.63-33.4-47.92-42.92l-9.68-5.04 9.97-13.14c36.65-48.27 92.17-86.64 151.98-105.04 23.7-7.3 47.5-11.25 77.3-12.83l14.74-.78-.02 6.42c-.04 13.22 2.62 101.59 3.14 104.19.5 2.57 3.4 3.74 4.45 1.8.27-.5-.2-21.47-1.06-46.62-.85-25.15-1.58-50.12-1.62-55.48l-.08-9.76 8.15-.75c17.62-1.64 29.15-7.51 35.1-17.88 2.01-3.5 3.66-5.98 3.67-5.5 0 .5 1.38 6.18 3.06 12.64 4.43 17.02 8.53 42.39 12.49 77.15 3.33 29.31 4.58 34.7 7.37 31.9 1.36-1.36-4.19-52.72-8.63-79.85-2.42-14.78-8.34-39.31-12.92-53.55-1.27-3.97-2.2-7.35-2.05-7.51s5.1.76 11.01 2.05c14.68 3.2 54.25 7.27 70.76 7.27H665l-5.76 21.78c-13.1 49.58-15.17 64.7-16.66 122-1.11 42.96-3.1 80.84-4.41 84.27-.93 2.41-38.82 7.51-75.63 10.17-15.2 1.1-83.78 1.38-98.67.4z" data-region="path90" fill="#ffffff"></path><path d="M566.56 913.85c-1.1-.63-6.2-8.05-11.35-16.5-17.15-28.15-45.52-72.61-77.73-121.83-17.54-26.8-35-54.04-38.8-60.52-13.44-22.94-22.97-47.2-26.5-67.49-1.93-11.07-2.49-31.58-.93-34.03.67-1.05 5.19-1.07 18.51-.07l17.63 1.32.77 4.9c1.09 6.82 7.13 24.06 12.58 35.86 5.7 12.37 2.93 7.44 77.61 137.95 34.23 59.82 61.8 109.16 61.26 109.64-.97.88-24.05 9.93-28.65 11.24-1.32.38-3.3.17-4.4-.47z" data-region="path91" fill="#ffffff"></path><path d="M458.76 610.5c-27.42-1.42-54.39-4.1-55.84-5.54-1.17-1.17-4.96-24.45-4.12-25.29.23-.22 6.83.41 14.69 1.4 65.6 8.31 143.45 7.67 207.97-1.7 8.58-1.25 15.69-2.16 15.8-2.03.64.82-5.99 26.97-7.13 28.11-4.7 4.66-115.75 7.94-171.37 5.05z" data-region="path92" fill="#ffffff"></path><path d="M462.64 647.19c-3.86-8.72-10.74-30.37-9.91-31.2 1.29-1.28 50.25 1.03 50.23 2.38-.03 3.75-6.75 14.92-12.77 21.24-6.3 6.6-18.7 14.38-22.92 14.38-.9 0-2.98-3.06-4.63-6.8z" data-region="path93" fill="#ffffff"></path><path d="M545 794.63a29985 29985 0 0 1-68.74-120.53l-8.06-14.5 9.31-4.53c14.17-6.9 24.1-17.78 29.6-32.5l2.08-5.55 32.09-.62c17.65-.34 32.31-.42 32.6-.17.27.26.57 15.22.67 33.25l.17 32.79 10.31 20.45c17.55 34.82 34.43 73.36 50.6 115.52 13.4 34.92 19.18 52.15 18.38 54.69-.9 2.8-14.94 11.46-34 20.98-7.43 3.72-13.7 6.75-13.92 6.75s-27.7-47.71-61.08-106.03z" data-region="path94" fill="#ffffff"></path><path d="M581.64 684.53c-1.64-3.88-2-10.1-2.18-36.75l-.22-32.08 6.09-.66c3.35-.37 12.42-1.02 20.15-1.46l14.07-.78-1.69 7.22c-4.75 20.38-18.74 49.35-32.01 66.31l-2.25 2.87z" data-region="path95" fill="#ffffff"></path><path d="M591.71 932.3c-7.53-12.2-9.67-16.08-9.11-16.5.21-.16 5-2.1 10.62-4.3 13.59-5.33 37.32-16.54 46.97-22.2l7.76-4.55 5.77 6.45 5.76 6.45-10.53 10.13c-11.75 11.3-25.54 21.9-37.53 28.87-13.06 7.57-12.23 7.76-19.7-4.35z" data-region="path96" fill="#ffffff"></path><path d="m613.32 967.65-8.06-13.64-3.7-6.2 9.7-5.17c12.46-6.64 27.45-17.93 41.2-31l10.9-10.38 6.15.43c3.37.23 6.25.52 6.38.64.14.13-.51 2.38-1.45 5-2.24 6.3-2.3 18.66-.1 21.68 2.63 3.6 3.57 1.31 3.65-8.83.04-6.54.73-10.63 2.3-13.8 2.13-4.27 2.56-4.51 8-4.51h5.75l-2.28 4.46c-3 5.9-3.12 13.93-.19 13.36 1.33-.26 2.35-1.93 2.79-4.6.8-4.78 2.62-8.55 5.16-10.66 3.48-2.89 24.19 4.34 25.7 8.98.59 1.77-14.47 14.07-28.51 23.3-16.22 10.67-45.28 24.97-73.5 36.17l-5.52 2.2z" data-region="path97" fill="#ffffff"></path><path d="M450.32 873.23c-14.92-9.88-34.84-25.58-42.9-33.8l-5.9-6.02 2.18-5.78c7.47-19.8 26.19-56.3 39.58-77.18l5.67-8.83 10.94 16.65c29.92 45.5 44.29 67.9 44.29 69.06 0 3.02-37.82 54.08-40.06 54.08-.8 0-7.02-3.68-13.8-8.18z" data-region="path98" fill="#ffffff"></path><path d="M441.67 911.4c-11.35-4.03-33.2-15.06-45.13-22.8-6.32-4.09-11.49-7.64-11.49-7.88s2.36-4.11 5.25-8.6a344 344 0 0 0 10.36-17.52l5.1-9.36 5 4.57c7.28 6.68 24.01 19.45 35.06 26.76 5.3 3.5 10.1 6.8 10.68 7.32s-.82 4.36-3.15 8.56c-5.11 9.26-6 12.69-4.58 17.64 1.26 4.4 1.49 4.35-7.1 1.3z" data-region="path99" fill="#ffffff"></path><path d="M466.07 975.94c-11.42-3.57-43.93-23.64-58.41-36.07-8.31-7.12-35.84-37.24-35.84-39.2 0-1.59 9.67-15.09 10.63-14.84.44.12 5.4 3.32 11.03 7.11 12.74 8.6 35.32 19.5 51.14 24.7 12.33 4.04 16.76 6.98 12.77 8.47-5.29 1.97-13.65 15.72-11.59 19.05 1.6 2.57 3.9 1.05 5.26-3.47 1.52-5.08 8.51-12.15 12.02-12.15 1.18 0 3.6 1.53 5.4 3.4l3.24 3.39-5.32 3.82c-5.37 3.86-11.27 13.41-9.77 15.83 1.42 2.3 3.93 1.26 5.38-2.24 1.95-4.7 8.12-10.83 11.86-11.77 2.55-.63 3.75.04 7.06 3.93 8.2 9.67 11.3 26.1 5.7 30.2-2.74 2-13.96 1.9-20.56-.16z" data-region="path100" fill="#ffffff"></path><path d="M462.86 984.37c-10.41-2.75-35.4-16.7-50.56-28.25-13.85-10.54-33.8-28.8-43.9-40.2l-5.2-5.85 1.92-2.6c1.06-1.42 2.15-2.59 2.44-2.59s4.69 4.8 9.78 10.68a438 438 0 0 0 21 22.1c9.6 9.34 14.19 13.02 25.16 20.22 29.52 19.36 40.44 24.34 53.8 24.5l5.56.07-3.4 1.61c-4.06 1.92-10.07 2.03-16.6.3z" data-region="path101" fill="#ffffff"></path><path d="M622.96 982.82a6 6 0 0 1-2.21-2l-.97-1.47 5.82-2.29c20.6-8.09 44.3-18.97 58.17-26.7 10.88-6.07 26.9-16.88 35.65-24.07 5.28-4.33 7.37-5.74 7.37-4.96 0 2.55-3.68 6.6-10.09 11.08-25.04 17.53-51.36 32.75-77.15 44.61-13.25 6.1-14.68 6.6-16.59 5.8z" data-region="path102" fill="#ffffff"></path><path d="M376.95 399c-3.98-3.99-6.52-8.78-6.59-12.44-.14-7.7 9.44-18.13 22.82-24.82 20.89-10.45 45.06-12.04 84.45-5.56 9.72 1.6 10.9 1.49 10.9-1 0-1.64-1.5-2.08-12.93-3.8-16.03-2.43-26.2-3.32-37.9-3.31-14.5 0-23.28 1.24-34.8 4.88l-5.9 1.88-2.3-2.24a20.6 20.6 0 0 1-5.91-13.4c-.25-3.82-.09-4.74 1.32-7.62 5.55-11.34 23.37-19.02 44.17-19.01 11.8 0 38.57 4.26 38.07 6.05-.67 2.38-.71 8.51-.07 10.46.4 1.2 2.1 3.56 3.77 5.24 3.35 3.34 9.25 6.36 48.1 24.58 10.83 5.07 19.56 9.42 19.4 9.67-.35.58-5.32 1.65-11.1 2.4-2.48.32-13.58.84-24.66 1.15-20.56.6-33.1 1.72-47.37 4.27a303 303 0 0 0-72.04 22.3c-4.28 1.93-7.89 3.52-8 3.52s-1.66-1.44-3.43-3.2z" data-region="path103" fill="#ffffff"></path><path d="M516.94 350.56c-17.96-8.5-33.92-16.4-35.47-17.55-3.74-2.8-5.57-5.6-5.57-8.54 0-3.46 1.43-5.69 4.7-7.35 3.39-1.71 3.95-2.75 5.27-9.8 1-5.31.95-18.36-.08-21.74-.35-1.15.98-.46 7.33 3.8 9.2 6.16 24.5 13.87 33.34 16.78 7.5 2.48 16.87 4.37 24.43 4.94l5.47.41.36 4.58c.5 6.45 1.57 9.42 5 13.95 3.67 4.82 4.63 8 4.33 14.2a24 24 0 0 1-5.74 14.53c-2.14 2.6-8.72 7.38-10.05 7.28-.36-.02-15.35-7-33.32-15.49z" data-region="path104" fill="#ffffff"></path><path d="M551.4 306.74c-22.37-1.88-44.36-11.58-67.95-29.96-7.84-6.1-9-6.35-14.47-3.06-8.57 5.16-19.29 4.81-25.67-.84-5.53-4.9-8.93-13.73-8.91-23.14 0-6.2.37-7.58 2.01-7.59 2.73-.02 13-2.52 19.66-4.78 17.73-6.04 34.3-16.23 46.93-28.87 16.7-16.7 28.6-40.62 32-64.3l.77-5.39 4.8 2.93c10.4 6.33 24.61 11.1 37.63 12.62 11.22 1.3 26.58-.32 33.98-3.59l2.7-1.2v2.53c.01 3.26 1.85 10.88 4.15 17.2 1 2.75 4.86 10.86 8.57 18.02 11.9 23 13.56 26.76 15.62 35.4 1.66 6.94 1.37 19.08-.63 26.06-1.74 6.1-6.49 15.69-10.12 20.46-8.08 10.59-24.68 23.58-37.42 29.3-14.39 6.44-29.89 9.35-43.64 8.2zm-88.25-41.87c1.23-1.5 2.07-6.42 1.65-9.76-.79-6.3-6.62-12.48-11.89-12.6-2.34-.04-2.6.1-2.76 1.51-.16 1.35.18 1.7 2.4 2.55 6.36 2.43 9.44 8.46 7.41 14.45-.76 2.25-.82 3.08-.27 3.75.89 1.06 2.62 1.11 3.46.1zm130.97-7.42c12.05-2.9 22.19-13.04 24.45-24.45.75-3.77.2-5.28-1.92-5.28-1.4 0-1.66.45-2.36 4.18-1.94 10.2-11.56 19.4-22.71 21.72-5.3 1.1-15.64.4-21.5-1.46-4.99-1.59-6.34-1.4-6.34.83 0 1.52.98 2.13 5.75 3.58a47 47 0 0 0 24.63.88zm1.33-24.89c5.1-3.11 4.95-11.38-.27-14.08-1.94-1-6.17-1.92-6.17-1.33 0 .22.54 1.45 1.2 2.75 2.23 4.37 1.56 7.43-2.61 11.88l-1.83 1.96h3.87c2.79 0 4.43-.34 5.8-1.18zm-45.09-1.15c2.37-1.27 3.45-4.15 3.4-9.11-.08-8.12-3.54-15.16-8.46-17.22-6.42-2.68-12.85 1.04-12.84 7.42 0 3.66 1.18 9.9 2.36 12.57 2.96 6.67 9.74 9.44 15.54 6.34zm63.83-25.07c2.25-1.89 3.3-4.91 3.33-9.6.03-4.6-1.04-7.68-3.65-10.58-3.66-4.04-8.4-4.52-11.26-1.12-2.03 2.42-2.37 4.6-1.55 10.02.92 6.08 2.04 8.77 4.58 11 2.7 2.37 5.95 2.48 8.55.28zM524 194.31c2-3.53 4.76-5.69 7.3-5.7.85 0 3.34 1.09 5.53 2.41 2.2 1.33 4.13 2.4 4.29 2.4.59 0-3.4-8.15-4.65-9.52-3.5-3.82-9.17-4.15-12.68-.75-2.83 2.75-3.57 5.67-2.67 10.56.4 2.16.79 3.93.86 3.93.08 0 .99-1.5 2.02-3.33zm71.69-14.41c1.98-3.27 5.38-5.72 7.93-5.72.54 0 3.03 1.07 5.53 2.39 2.5 1.31 4.54 2.16 4.54 1.88 0-.85-3.11-6.28-4.46-7.79-1.9-2.14-4.2-3.1-7.4-3.1-6.05 0-9.16 4.04-9.19 11.92 0 2.41.22 4.25.5 4.07.3-.17 1.44-1.82 2.55-3.65z" data-region="path105" fill="#ffffff"></path><path d="M436.2 222.8c22-21.86 41.62-39.61 67.48-61.11 13.96-11.6 26.72-21.8 27.26-21.8.98 0-2.41 15.28-5.19 23.34-9.78 28.43-29.59 50.6-57.37 64.24-14.12 6.92-26.59 10.3-40 10.85l-8.13.32z" data-region="path106" fill="#ffffff"></path><path d="M389.87 303.13c-8.09-1.18-12.04-4.88-12.04-11.24 0-7.21 2.88-11.11 28.78-39.05l9.35-10.08h14.22v6.53c0 11.2 3 19.69 9.17 25.89 1.83 1.83 2.86 3.3 2.52 3.6-.3.28-3.82 2.95-7.8 5.93-14.76 11.05-21.4 14.83-29.76 16.92-4.62 1.16-11.75 1.9-14.44 1.5z" data-region="path107" fill="#ffffff"></path><path d="M375.43 307.33c-3.84-.64-9.08-2.82-11.24-4.68-2.85-2.43-5.83-7.84-6.75-12.24-.92-4.39-.82-11.04.25-16.06 3.6-17 11.8-31.45 33.7-59.26 45.51-57.8 87.52-97.1 132.94-124.38 33.3-20 74.59-35.15 95.44-35.04 10.37.06 19.81 3.53 25.72 9.45 3.17 3.17 6.46 8.65 7.6 12.68.38 1.32.21 1.27-2.83-.75-5.06-3.36-9.52-4.72-16.49-5.02-13.89-.6-24.3 4.35-54.69 26.03-75.26 53.69-139.3 110.14-190.8 168.18-12.7 14.31-14.13 16.76-14.52 24.66-.23 4.72-.12 5.36 1.49 8.4 1.95 3.72 5.29 6.18 10.19 7.53l2.92.8-5.71-.02a82 82 0 0 1-7.22-.28z" data-region="path108" fill="#ffffff"></path><path d="M386.03 208.69a102 102 0 0 1-5.75-9.9l-3.62-6.96 5.9-8.98q44-67 116.2-108.08c5.74-3.27 22.35-11.33 29.82-14.47 7.24-3.05 23.19-8.86 24.31-8.86 1.74 0 12.67 12.9 11.7 13.8-.3.27-3.53 1.78-7.17 3.35-54.33 23.43-106.75 66.54-159.46 131.16-4.86 5.95-9.05 11.06-9.31 11.34-.27.29-1.44-.8-2.62-2.4z" data-region="path109" fill="#ffffff"></path><path d="M374.61 185.73c-.14-.23-.81-2.45-1.5-4.94a105 105 0 0 1-.63-52.47c5.03-20.62 15.31-38.23 32.08-54.94 11.55-11.51 21.77-18.81 36.89-26.38C471.29 32.07 502 28.39 527 36.75c8.64 2.89 22.33 10.18 21.09 11.23-.17.14-4.23 1.68-9.03 3.43-61.62 22.49-119.5 68.37-157.64 125-3.6 5.36-6.68 9.56-6.82 9.32z" data-region="path110" fill="#ffffff"></path><path d="M810.29 173.58c-3.06-.92-5.23-3.04-7.2-7.05-1.72-3.5-2-4.72-2.2-9.83-.27-6.84.45-10.76 2.96-16.03 2.11-4.42 2.12-6.4.03-6.7-.78-.12-5.52 1.42-10.53 3.41-13.43 5.34-20.13 6.08-26.3 2.93-3.33-1.7-5.04-4.07-5.02-6.92.05-6.6 8.69-15.22 18.26-18.24 4.4-1.38 12.73-1.7 16.21-.6 2.48.76 4.29-.02 4.29-1.85 0-.8-2.5-3.84-6.8-8.27-8.01-8.25-9.63-11.07-9.9-17.2-.16-3.51.04-4.6 1.2-6.6 5.46-9.41 18.26-6.28 24.23 5.95 2.02 4.14 3.9 12.32 3.9 16.93 0 3.03.54 3.88 2.47 3.88 1.62 0 1.99-.5 5.6-7.7 7.7-15.35 16.5-25.66 23.02-26.95 4.6-.9 9.77 3.2 10.95 8.69 1.55 7.21-2.43 16.29-11.1 25.32-3.11 3.25-5.67 6.3-5.67 6.76 0 1.14 1.21 2.3 2.38 2.3.51 0 5.21-2.4 10.44-5.34s11.65-6.05 14.27-6.92c10.66-3.52 20.8-.79 24.12 6.5 3.37 7.44-.8 13.6-10.61 15.69-5.74 1.21-12.32 1.12-21.95-.3-10.99-1.62-11.91-1.59-12.66.39-.33.87-.53 1.66-.44 1.75s1.58.7 3.3 1.35c10.06 3.82 19.46 12.03 24.24 21.18 2.3 4.39 2.68 5.63 2.68 8.72.03 14.11-18.04 13.81-31.4-.51-3.85-4.13-8.6-12.76-9.5-17.23-.68-3.4-1.38-4.3-3.17-4.1-1.59.18-1.61.26-2.3 7.1-.86 8.56-2.08 13.35-4.99 19.56-2.25 4.8-6.75 9.92-8.71 9.92a7 7 0 0 0-1.67.25c-.44.14-1.53.03-2.43-.24zm18.77-43.02c5.54-2.86 4.57-9.12-2.05-13.21-2.4-1.48-3.74-1.86-7.24-2.04-3.96-.2-4.46-.08-6.23 1.4-1.62 1.36-1.92 2.03-1.92 4.23 0 4.11 3.08 7.03 10.2 9.65 2.88 1.06 5.15 1.05 7.24-.03z" data-region="path111" fill="#ffffff"></path><path d="M823.05 126.21c-6.95-2.35-9.78-6.8-4.33-6.78 2.75 0 8.22 2.48 9.1 4.11 1.48 2.78-.74 4.03-4.77 2.67z" data-region="path112" fill="#ffffff"></path><path d="M804.65 244.42c-.83-2.7-1.15-5.55-1.14-10.15 0-7.17.4-8.1 3.7-8.71 7.62-1.43 8.3 8.9 1.28 19.62-1.08 1.65-2.13 3-2.33 3s-.88-1.7-1.51-3.76z" data-region="path113" fill="#ffffff"></path><path d="M806.25 311.64C786 301.92 776.82 288.8 779 272.6c1.6-12.04 9.32-28.61 17.54-37.7l2.4-2.66.04 3.6c.04 4.42 1.3 10.53 2.91 14.07l1.2 2.63-2.7 4.15c-4.76 7.37-6.46 11.66-6.71 16.92-.2 4.1-.03 5.08 1.36 7.91 1.78 3.66 3.67 5.16 7.05 5.61 2.03.28 2.32.51 2.32 1.91 0 .88.6 2.8 1.35 4.28 1.92 3.81 5.45 5.58 10.38 5.2 1.99-.16 4.22-.48 4.97-.72 1.09-.34 1.35-.2 1.35.77 0 1.66 2.02 4.05 4.19 4.95l1.82.76-7.25 4.74c-4.57 2.98-7.86 4.74-8.89 4.74-.9 0-3.63-.96-6.07-2.12z" data-region="path114" fill="#ffffff"></path><path d="M800.61 281.86c-3.33-2.62-3.64-9.11-.73-15.26 2.36-5 7.9-13.17 13.12-19.4 5.95-7.1 9.02-8.63 13.05-6.55a6.2 6.2 0 0 1 3.62 5.87c0 1.8-.49 2.83-2.28 4.83-5.85 6.52-15.07 19.42-19.39 27.1q-2.58 4.63-5.36 4.62c-.27 0-1.18-.54-2.03-1.2z" data-region="path115" fill="#ffffff"></path><path d="M812.52 293.94c-2.23-.92-3.45-2.87-3.42-5.45.06-4.18 7.72-17.02 17.23-28.87 7.01-8.74 10.88-10.72 14.68-7.51 3.84 3.23 4.02 9.02.5 16.08-4.3 8.63-16.19 22.41-21.58 25.02-2.76 1.34-5.3 1.59-7.4.73z" data-region="path116" fill="#ffffff"></path><path d="M827.66 298.82c-2.05-2.27-1.38-3.75 4.77-10.5 2.48-2.72 6.17-7.3 8.2-10.17 2.04-2.88 3.95-5.08 4.26-4.9 2.13 1.33 2.9 8.99 1.33 13.42-1.24 3.5-4.73 8.1-8.28 10.9-2.6 2.06-3.36 2.35-6.13 2.35-2.3 0-3.43-.3-4.15-1.1z" data-region="path117" fill="#ffffff"></path><path d="M808.22 343.81a89 89 0 0 1-30.88-13.14c-9.11-6.03-19.99-17.51-25.8-27.23l-1.31-2.2 6.18-3.67c5.44-3.23 18.99-9.52 19.34-8.98.07.1 1.05 2.06 2.19 4.34 2.67 5.39 8.98 12.11 15.24 16.25 5.2 3.45 15.45 8.79 16.84 8.79 1.53 0 4.03 2.5 5.64 5.62 1.3 2.53 1.63 4.1 1.8 8.52a46 46 0 0 1-.56 9.02c-.92 4.32-.94 4.32-8.68 2.68z" data-region="path118" fill="#ffffff"></path><path d="M647.37 462.86c0-5.96 1.11-19.7 2.46-30.58 2.39-19.15 7.27-42.1 15.3-71.95 2.48-9.17 4.5-17.17 4.5-17.77 0-.66.55-1.22 1.35-1.4l6.47-1.26c19.96-3.8 32.07-9.76 59.26-29.12 5.13-3.66 9.55-6.65 9.82-6.65s.91.88 1.43 1.96c1.72 3.6 8.44 12.13 13.66 17.35a91.7 91.7 0 0 0 48.58 25.23c5.11.9 5.16-.1-.6 11.76-19.38 39.8-52.62 71.61-94.01 89.96-18.14 8.03-39.81 13.77-57.7 15.27-2.3.2-5.62.5-7.36.68l-3.16.32z" data-region="path119" fill="#ffffff"></path><path d="M578.18 150.08a99 99 0 0 1-29.06-8.77c-4.7-2.35-11.28-6.46-11.1-6.96.25-.72 22.68-17.53 39.44-29.56l15.77-11.32 4.11 2.73c9.08 6.04 19.03 18.79 22.35 28.63q5.22 15.5-9.02 21.8c-6.7 2.96-22.73 4.66-32.49 3.45z" data-region="path120" fill="#ffffff"></path><path d="M624.05 140.37c2.7-7.03 1.78-14.24-3.02-23.65-4.2-8.26-11.53-17.02-18.8-22.5l-4.84-3.65 4.1-2.63c22.12-14.18 37.54-15.48 50.05-4.24l3.21 2.9-.36 5.43c-.48 7.21-1.66 11.44-5.24 18.67-3.53 7.15-9 14.7-15.78 21.76-5.55 5.78-9.93 9.5-9.32 7.9z" data-region="path121" fill="#ffffff"></path></svg>