<?xml version="1.0"?>
<svg xmlns="http://www.w3.org/2000/svg" xmlns:svg="http://www.w3.org/2000/svg" viewBox="0 0 1024 1024" preserveAspectRatio="xMidYMid" version="1.0"><path fill="#1a1a1a" d="M167.07 264.82c-8.07-.93-15.58-4.06-20.83-9.96-4.22-4.72-7.06-11.26-7.44-20.05-.57-13.27 3.13-22.1 8.63-27.83a27 27 0 0 1 3.27-2.9c-2.04-17.46-8.35-102.86 52.86-150.69 35.75-27.94 70.67-9.42 80.75-2.91 9.18-8.63 42.85-36.04 84.65-18.9 116.32 47.67 93.54 155.69 89.8 170.52a28 28 0 0 1 6.26 4.88c5.5 5.74 9.2 14.56 8.63 27.83-.38 8.79-3.22 15.33-7.43 20.05-5.25 5.9-12.76 9.03-20.83 9.96l-.02.2a87 87 0 0 1-8.29 29.3c4.19 3.39 6.86 8.8 4.34 16.17a19 19 0 0 1-1.77 3.77c4.02 2.9 9.12 8.3 8.12 16.69-.66 5.54-2.26 9.39-3.49 12.5-.72 1.85-1.53 3.22-.97 4.8.66 1.88 2 3.32 3.13 4.6a25 25 0 0 1 2.86 3.59l.86 2.13.15 1.83-.33 1.62-.73 1.43-1.34 1.45q-.92.75-2.27 1.26c-1.55.57-3.67.88-6.14.8-8.28-.3-21.03-5.07-26.64-14.55-6.6-11.17-5.4-23.73-4.71-28.09a15 15 0 0 1-4.44-2.79c-3.65-3.44-5.26-9.08-3.82-14.66-4.35-2.54-8.44-5.37-11.46-8.9-12.69 11.25-29.77 20.08-52.76 24.19.17 2.16.55 5.43 1.46 8.53a17 17 0 0 0 1.8 4.26c.53.8 1.11 1.5 1.92 1.84 3.03 1.25 15.36 2.97 29.77 6.51 15.17 3.74 32.51 9.43 44.47 18.26 3.75 2.75 8.05 9.21 12.37 18.4 9.27 19.72 19.47 52.53 28.19 84.5 9.92 36.4 17.93 71.7 20.48 85.17.56 2.94.86 4.93.91 5.79l-.19 1.82c-.85 2.65-2.85 5.21-5.88 7.45l-.04.03c5.45 6.27 9.46 11.18 11.42 16.49 54.64 13.7 53.68 69.02 52.7 81.84a4 4 0 0 1 1.22 2.86v21.97a3.97 3.97 0 0 1-3.97 3.97h-2.45v41.2a36.56 36.56 0 0 1-36.55 36.57h-73.92q-4.13 0-8.02-.89c.3 14.11.47 27.61.58 37l.68-.19a3.98 3.98 0 0 1 4.96 4.67s-7.41 33.81-6.43 60.97c.42 11.62 4.18 20.52 7.9 29.36 4.05 9.67 8.05 19.26 8.52 31.57.92 24.06-22.78 41.32-51 42.1-17.22.47-33.4-6.03-44-14.64-7.59-6.17-12.29-13.49-13.08-20.15-1.3-11.06 2.14-23.09 6.1-34.94 3.64-10.87 7.74-21.59 8.04-31.16.64-20.8-12.95-58.99-12.95-58.99a3.98 3.98 0 0 1 4.57-5.2l2.02.4c-.83-11.83-1.78-32.07-2.49-50.5-12.28.29-24.74.16-37.02-.36-.71 18.52-1.67 38.93-2.5 50.85 1.25-.24 1.94-.4 1.94-.4a3.97 3.97 0 0 1 4.58 5.21s-13.6 38.18-12.95 58.99c.3 9.57 4.4 20.29 8.03 31.16 3.97 11.85 7.4 23.88 6.1 34.94-.79 6.66-5.49 13.98-13.07 20.15-10.6 8.6-26.79 15.11-44 14.64-28.22-.78-51.92-18.04-51-42.1.46-12.31 4.46-21.9 8.52-31.57 3.71-8.84 7.48-17.74 7.9-29.36.99-27.16-6.43-60.97-6.43-60.97a3.97 3.97 0 0 1 4.96-4.67l.74.21c.17-14.3.5-38.14 1.11-59.18-11.32-3.22-20.88-7.06-27.97-11.44-5.76-3.54-9.95-7.5-12.41-11.7-1.12-1.93-1.87-5.14-2.02-9.47-.17-5.37.47-12.79 1.74-21.63 4.68-32.44 17.94-84.65 28.49-124.52a71 71 0 0 1-31.8-27.48c-11-17.4-10.5-46.72-4.15-76.89 6.5-30.86 18.89-62.59 29.94-82.6 4.95-8.96 9.72-15.64 13.57-19.06 11.21-9.97 28.68-15.75 44.21-19.26 14.58-3.29 27.3-4.48 30.32-5.73a4.5 4.5 0 0 0 1.9-1.84 17 17 0 0 0 1.82-4.26 43 43 0 0 0 1.43-8.28c-23.32-3.9-40.57-12.6-53.31-23.72-2.89 3.2-6.37 5.5-10.57 7.86 1.2 4.9.04 9.89-2.92 13.27a15.5 15.5 0 0 1-5.74 3.97c.66 3.76 2.27 16.95-4.62 28.62-5.6 9.48-18.36 14.25-26.64 14.55-2.48.08-4.6-.23-6.14-.8a8 8 0 0 1-2.27-1.26l-1.35-1.45-.72-1.43-.33-1.62.15-1.83.86-2.13c.64-1.1 1.68-2.29 2.86-3.6 1.13-1.27 2.47-2.71 3.13-4.59.56-1.58-.25-2.95-.98-4.8-1.23-3.11-2.83-6.96-3.49-12.5-1.06-8.92 4.02-13.95 7.8-16.41q-.62-1-1.1-2.08c-3.66-8.05-.41-14.22 4.38-17.93-4.76-9.92-7.85-21.18-8.68-29.51zm199.42 85.66c-7.33-1.75-14.02-3.06-19.17-4.1-5.66 8.84-16.05 21.8-39.55 21.1-26.21-.8-34.72-13.24-41.68-21.54-3.7.63-8.3 1.38-13.4 2.34 7.98 49.36 3.52 21.02 9.93 71.63 45.39-2.75 82.55-1.6 98.07-.7.89-16.87 3.63-51.34 5.8-68.73zm18.96 311.45h9.47c.04-10.58 2.15-39.62 23.2-55.54-.67-2.1-1.08-4.8-1.2-7.85a68 68 0 0 1 0-4.05c-32.7 17.39-32.23 56.86-31.47 67.44zm8.79-302.8a163 163 0 0 0-20-6.69c-2.3 19.08-5.24 56.88-5.81 71.16a4 4 0 0 1-4.27 3.8c-12.23-.92-53.53-2.64-104.76.68a3.97 3.97 0 0 1-4.2-3.47c-7.05-55.36-2.24-24.85-10.3-74.75l-1.86.41a153 153 0 0 0-20.55 6c12.38 45 11.01 79.9 5.53 107.4q.54-1.95 1.19-3.55c2.6-6.38 6.6-8.94 10.9-8.32a12.6 12.6 0 0 1 7.3 3.39 13 13 0 0 1 2.92 4.6c3.33-7.42 8.43-11.2 15-9.5 2.84.75 4.9 2.6 6.23 5.44 1.46 3.15 1.93 7.8 1.52 13.27a64 64 0 0 1-.34 3.3 16 16 0 0 1 4.06-3.46 8.5 8.5 0 0 1 6.02-1.04c5.01 1.04 7.64 4.33 8.46 9.11.62 3.69 0 8.48-1.52 13.67-3.74 12.8-12.77 28.24-17.3 34.12a22.3 22.3 0 0 1 4.55 12.81 11 11 0 0 1-1.36 5.77q-.09.16-.24.34c.67 2.3 1.4 5.33 1.56 8.43.22 4.2-.6 8.5-3.32 11.9a15 15 0 0 1-5.55 4.26l-.62 1.14c4.9.91 9.41 3.22 12.66 6.71q4.1 4.42 5.89 13.27c1.56 7.73 1.9 18.2 1.74 30.95-.25 19.76-.7 47.25-4.7 61.98-1.22 4.47-2.84 7.88-4.69 9.94-1.88 2.1-4.06 3.1-6.45 3.09-2.49 0-5.19-1.21-7.76-3.88a31 31 0 0 1-3.68-4.83 95 95 0 0 1-4.22 11.67c-2.01 4.46-4.28 7.76-6.58 9.61-2.26 1.83-4.67 2.5-7.12 2.13-2.8-.44-5.62-2.4-8.02-6.08-1.94-2.98-3.73-7.23-5.3-12.4a26 26 0 0 1-3.91 5.1c-2.8 2.71-5.77 3.62-8.64 3.02-2.66-.56-5.26-2.57-7.32-6.21-2.22-3.9-4.02-9.95-5.3-17.33-4.75-27.27-2.76-73.09 4.25-87.74 4.05-8.45 10.94-12.72 18.15-13.79q-.98-.88-2-1.85a4 4 0 0 1-3.23 1.93s-10.74.47-24.27-3.96c-10.44 39.47-23.47 90.8-28.09 122.79-1.19 8.27-1.82 15.2-1.66 20.23.09 2.6.27 4.57.94 5.72 1.9 3.27 5.26 6.2 9.71 8.95 7.39 4.55 17.66 8.42 29.88 11.63 47.35 12.47 123.35 14.9 177.31 5.69a37 37 0 0 1-2.24-12.63v-41.21h-2.44a3.97 3.97 0 0 1-3.98-3.97V665.9c0-1.11.45-2.1 1.18-2.83-.8-11.54-1.46-59.36 39.98-77.73l.19-1.64-.04-.14c-7.6-29.66-21.25-87.54-27.8-145.46-3.02-26.75 2.68-68.04 4.32-78.99zm-208.03-60.6c-3.62-.1-10.69 3.86-7.6 10.64 2.7 5.97 9.75 8.5 15.96 8.5 3.85 0 7.5-.89 9.42-3.07 1.6-1.83 1.94-4.43 1-6.9-1.83-4.87-7.96-8.87-18.78-9.16zm76.71 338.63.8-4.7c2.17-12.7 3.53-23.2 3.16-31.16-.22-4.55-.94-8.17-2.68-10.69-6.59-9.55-25.17-10.9-31.1 4.09-1.25 3.14-2.16 7.6-2.78 12.96l11.05.31a3.48 3.48 0 0 1-.2 6.95l-11.44-.32c-.86 13.78-.16 31.31 1.8 47.23h7.26a3.47 3.47 0 1 1 0 6.95h-6.3c.82 5.42 1.8 10.54 2.92 15.12 1.63 6.7 3.54 12.2 5.8 15.67.86 1.33 1.56 2.4 2.57 2.56.58.1 1-.45 1.52-1 1.33-1.38 2.54-3.52 3.74-6.16 5.33-11.78 9.48-32.7 12.7-50.94l-8.63-.75a3.47 3.47 0 0 1 .6-6.92zm155.92 287.8c-1.38-7.84-4.27-14.56-7.12-21.34-4.06-9.66-8.06-19.45-8.52-32.15-.75-20.77 3.25-45.32 5.37-56.65-8.9 2.25-25.66 6.04-39.09 6.68-13.59.64-30.12-1.76-39.17-3.34 3.91 12.24 11.76 39 11.25 55.41-.31 10.25-4.53 21.78-8.43 33.44-2.47 7.37-4.83 14.8-5.66 21.97 23.1 21.6 63.94 28.46 91.37-4.02zm-91.5 13.06q0 .23.04.47c.6 5 4.5 10.27 10.2 14.9 9.33 7.6 23.6 13.3 38.77 12.88 22.67-.63 42.69-13 43.29-31.9-28.44 28.55-67.45 23.32-92.3 3.65zm-42.35-9.04c-.84-7.17-3.2-14.6-5.66-21.97-3.9-11.66-8.12-23.19-8.44-33.44-.5-16.42 7.34-43.17 11.26-55.4-9.05 1.57-25.58 3.97-39.17 3.33-13.43-.64-30.2-4.43-39.1-6.68 2.13 11.33 6.12 35.88 5.37 56.65-.46 12.7-4.45 22.49-8.52 32.15-2.84 6.78-5.73 13.5-7.11 21.34 27.43 32.48 68.27 25.61 91.37 4.02zm-92.17 5.39c.6 18.9 20.61 31.27 43.29 31.9 15.16.41 29.43-5.28 38.77-12.87 5.7-4.64 9.6-9.9 10.2-14.9l.04-.48c-24.85 19.67-63.87 24.9-92.3-3.65zm-34.58-734.4c6.66-2.53 14.05-2.92 20.48-2.13 3.81.47 7.27 1.38 10.07 2.46.44-8.37 1.34-13.58 1.34-13.58a4 4 0 0 1 3.8-3.28s33.3-.9 56.52-24.41c15.78-15.97 32.63-58.67 32.63-58.67a3.98 3.98 0 0 1 7.22-.36s16.5 31.75 52.2 53.42c31.92 19.37 76.93 28.24 76.93 28.24a4 4 0 0 1 3.15 3.26s.94 5.93 1.22 15.34a43 43 0 0 1 9.93-2.42c5.52-.68 11.75-.5 17.61 1.18 4.07-17.1 22.36-115.94-85.4-160.1-44.2-18.11-78.23 19.37-78.23 19.37a4 4 0 0 1-5.38.46s-36.43-28.38-73.88.9c-55.14 43.1-52.33 118.35-50.21 140.31Zm171.84-79.22a3.48 3.48 0 0 1 5.58-4.15c14.39 19.34 43.42 33.87 69.73 40.23a3.49 3.49 0 0 1-1.63 6.76c-27.85-6.73-58.44-22.38-73.68-42.84zm-140.12-14.52a3.48 3.48 0 0 1 5.23 4.6c-12.23 13.9-21.5 34.23-24.17 49.53a3.47 3.47 0 1 1-6.84-1.19c2.84-16.34 12.73-38.07 25.78-52.94zm19.58 52.65a3.48 3.48 0 0 1-3.78-5.82c16.7-10.84 28.45-24.05 37.67-38.78a3.48 3.48 0 0 1 5.9 3.7c-9.75 15.54-22.17 29.47-39.79 40.9zm166.44-76.6a3.48 3.48 0 0 1 2.67-6.41c29.05 12.08 53.2 40.24 66.23 69.53a3.48 3.48 0 0 1-6.35 2.82c-12.32-27.72-35.05-54.5-62.55-65.93zm-96.16 676c-25.68-1.48-50.22-4.72-70.24-9.62-.6 21.52-.92 45.54-1.08 59.13 8.95 2.18 23.2 5.22 34.85 5.78 11.35.53 24.84-1.17 33.84-2.62.87-11.45 1.88-33.13 2.63-52.68zm-64.7-398.84a56 56 0 0 0-12.76 8.28c-3.41 3.03-7.51 9.02-11.9 16.97-10.76 19.47-22.8 50.35-29.11 80.39-5.87 27.84-7.06 54.95 3.08 71a64 64 0 0 0 30.3 25.35q.27.03.56.1.75.21 1.34.65a72 72 0 0 0 21.01 4.46l6.77-47.4-26.48-12.42a3.97 3.97 0 0 1 3.37-7.2l7.04 3.32c10.75-30.22 25.47-74.56 6.78-143.5zm222.26-94.4c-8.2-.43-16.33-2.82-22.51-6.32-4.5 11.85-11.1 23.55-20.73 33.72 2.39 3 5.8 5.3 9.41 7.39 3.85-4.62 10.53-8.39 20.8-9.66a15 15 0 0 1 5.65.56 79 79 0 0 0 7.38-25.68zm-169.9 254.8c4.93-6.53 15.38-25 16.92-37.23.5-3.98.35-7.31-3-8-.6-.13-1.14.21-1.74.65-1.22.9-2.39 2.33-3.56 4.1-5.79 8.84-10.8 25.5-13.37 38.75 1.9.46 3.52 1.05 4.74 1.72zm.93 28.38c-5.02 1.85-12.9 2.83-23.07-1.29a3.97 3.97 0 0 1 2.97-7.36c7.76 3.13 13.73 2.55 17.47 1.15a14 14 0 0 0 3.2-1.79c.23-.55.14-1.48 0-2.59-.37-2.86-1.91-6.5-5.38-9.6-.4-.36-1.08-.53-1.9-.75q-1.06-.3-2.36-.5a3.6 3.6 0 0 1-2.52-.31c-7.62-.76-18.02-.16-24.1.65q-.57.38-1.3.5l-5.27 36.91c3.15 3.16 5.85 5.86 8.5 7.94 3.82 3.01 7.5 4.6 12.7 4.03 2.94-.32 6.76-2.15 9.91-5.37a22 22 0 0 1-7.54-2.6 32 32 0 0 1-9.32-8.15l-.13-.17a3.97 3.97 0 0 1 6.12-5.04s1.93 2.79 5.23 5.17c2.8 2.03 6.73 3.87 11.28 2.61q3.13-.87 4.56-2.68c1.48-1.85 1.7-4.23 1.58-6.5a25 25 0 0 0-.63-4.26zm-71.56-289.09a53 53 0 0 1-21.77 5.92c.85 7.47 3.63 17.3 7.81 25.99q1.91-.48 3.53-.44c11.36.3 18.7 4.03 22.82 8.9 3.34-1.87 6.17-3.65 8.46-6.3-9.82-10.24-16.44-22.09-20.85-34.07zm-8.27-50.29c-2.1-1.37-6.15-2.53-10.83-3.11-8.05-1-18.11 0-24.58 6.75-4.33 4.5-6.88 11.55-6.43 21.98.29 6.6 2.26 11.57 5.43 15.12 4.8 5.4 12.2 7.5 19.72 7.59 8.12.1 16.49-2.16 22.42-5.74-4.56-15.54-5.75-30.8-5.73-42.59zm-26.34 24.24c-1.07 2.02-1.53 4.18-.82 6.24a3.97 3.97 0 1 1-7.52 2.57c-1.8-5.28-.22-11.15 3.54-15.9 5.33-6.73 14.89-10.93 23.14-8.1a3.98 3.98 0 0 1-2.58 7.51c-3.48-1.2-7.26-.19-10.37 1.88 3.37 3.25 8.64 7.94 13.87 9.48a3.96 3.96 0 1 1-2.25 7.62c-6.38-1.88-12.96-7.5-17.01-11.3zM483.65 589.8a21 21 0 0 1-2.8 9.86c34.88 12.53 36.44 49.66 35.92 62.27h10.42c.9-11.72 1.6-58.66-43.54-72.13zm38.26 102.05H390.78v15.17H521.9zm-46.18-85.53a29 29 0 0 1-8.7 5.78 15 15 0 0 1-4.62 5.25c-3.58 2.5-7.93 3.02-12.1 2.52a38 38 0 0 1-8.3-2.14q-.2.14-.36.22c-1.25.66-3.3 1.15-5.84.96l-.65-.06a1664 1664 0 0 1 10.27 43.08h63.43c.63-10.73-.02-45.44-33.13-55.61zm-41.38-286.2a29 29 0 0 1-18.43 5.81c-.56 3.6-1.47 13.56 3.78 22.43 3.6 6.1 11.27 9.37 17.27 10.36 1.35.23 2.94.2 4.14.12l-.8-.95c-1.72-1.92-3.51-4.2-4.5-7-1-2.86-.67-5.5.4-8.55 1.06-2.99 3-6.59 3.68-12.33.63-5.28-3.07-8.42-5.54-9.9zm-16.86-69.09c5.96 3.8 14.65 6.24 23.08 6.14 7.52-.09 14.91-2.19 19.72-7.59 3.17-3.55 5.14-8.52 5.43-15.12.45-10.43-2.1-17.47-6.43-21.98-6.47-6.75-16.53-7.75-24.58-6.75-4.7.58-8.77 1.75-10.86 3.13-.22 11.86-1.7 26.9-6.36 42.17zm32.73-17.95c-4.05 3.8-10.63 9.42-17.02 11.3a3.96 3.96 0 1 1-2.24-7.62c5.23-1.54 10.5-6.23 13.87-9.48-3.12-2.07-6.9-3.07-10.38-1.88a3.97 3.97 0 0 1-2.57-7.52c8.25-2.82 17.8 1.38 23.13 8.1 3.77 4.76 5.35 10.63 3.54 15.91a3.98 3.98 0 0 1-7.51-2.57c.7-2.06.25-4.22-.82-6.24zm-253.74 92.47q-.95.07-1.9.07c-5.75 0-11.83-1.71-16.56-5.16-1.86.9-6.15 3.64-5.45 9.55.68 5.74 2.62 9.34 3.67 12.33 1.08 3.06 1.4 5.69.4 8.54-.98 2.81-2.78 5.09-4.49 7.01q-.4.44-.8.95c1.2.08 2.78.1 4.14-.12 6-.99 13.67-4.26 17.27-10.36 5.44-9.2 4.26-19.59 3.72-22.8zm30.2 144.36c-3.23 14.04-7.42 26.04-11.1 36.42l10.6 4.97c-1.4-17.11-1.14-31.35.5-41.39zm204.84-157.9a12 12 0 0 0 2.38-4.1c2.42-7.04-5-10.3-8.58-9.85-10.75 1.33-16.48 5.9-17.83 10.92-.69 2.55-.1 5.11 1.67 6.77 2.12 2 5.83 2.54 9.66 2.16 4.07-.4 8.4-1.9 11.48-4.67q.48-.75 1.22-1.23zm-40.74 401.95v18.31H521.9v-18.3Zm.66 25.26a28.6 28.6 0 0 0 27.94 22.45h73.92c13.68 0 25.12-9.6 27.94-22.45zM239.84 517.2c2.52-23.5 5.74-40.1 4.96-50.11-.37-4.87-1.66-7.84-5.68-8.41-.78-.12-1.35.44-1.92 1.2-1.25 1.63-2.2 4.18-2.97 7.48-2.52 10.66-2.78 28.36-.48 50.36q2.79-.3 6.09-.52zm12.56-.25c3.24-7 12.5-32.06 13.75-48.47.26-3.47.18-6.5-.51-8.8-.4-1.3-.92-2.36-2.05-2.65-2.34-.6-4.02.66-5.4 2.75-2.11 3.18-3.52 7.96-4.57 13.4-2.97 15.4-2.83 35.77-3.28 43.73q1.04 0 2.06.04zm-54.9-325.82c-1.64 12.99-5.77 64.66 26.91 97.58 16.12 16.23 41.2 27.75 79.85 28 39.54.27 65.37-11.22 82.07-27.65 34.28-33.73 30.24-87.66 28.77-100.2-10.52-2.33-48.54-11.55-76.72-28.65-27.19-16.5-43.82-38.57-50.99-49.62-5.8 13.34-18.92 41.5-31.3 54.02-20.8 21.06-48.98 25.58-58.58 26.52zm40.54 10.89a3.97 3.97 0 0 1-4.24-6.72c9.74-6.15 21.27-8.67 35.17-1.25a3.98 3.98 0 0 1-3.74 7c-10.75-5.73-19.66-3.8-27.19.97zm140.62-6.72a3.97 3.97 0 0 1-4.24 6.72c-7.54-4.76-16.44-6.7-27.2-.96a3.97 3.97 0 1 1-3.73-7.01c13.9-7.42 25.42-4.9 35.17 1.25zm-81.59 55.9a3.78 3.78 0 0 1 4.3-6.2c3.45 2.39 7.32 4.24 11.34 3.67a3.78 3.78 0 0 1 1.06 7.47c-5.87.83-11.65-1.45-16.7-4.93zm-19.7 28.65a3.97 3.97 0 1 1 4.75-6.36c13.73 10.26 31.31 10.14 48.68.56a3.97 3.97 0 1 1 3.83 6.96c-20.43 11.27-41.11 10.92-57.27-1.16zm-23.19-63.56c5.16 0 9.34 6.24 9.34 13.91s-4.18 13.92-9.34 13.92-9.34-6.24-9.34-13.92 4.18-13.9 9.34-13.9zm104.1 0c5.15 0 9.34 6.24 9.34 13.91s-4.19 13.92-9.34 13.92c-5.16 0-9.35-6.24-9.35-13.92s4.19-13.9 9.35-13.9zm-123.42 43.75c8.95 0 16.23 2.72 16.23 6.07 0 3.34-7.28 6.06-16.23 6.06-8.97 0-16.24-2.72-16.24-6.06 0-3.35 7.27-6.07 16.24-6.07zm142.75 0c8.95 0 16.23 2.72 16.23 6.07 0 3.34-7.28 6.06-16.23 6.06-8.97 0-16.24-2.72-16.24-6.06 0-3.35 7.27-6.07 16.24-6.07zm43.7 305.1c2.05 1.03 5.08 1.48 8.58 1.66 7.18.37 16.16-.76 23.92-3 4.95-1.41 9.4-3.26 12.45-5.52a9 9 0 0 0 2.78-2.88 89 89 0 0 0-.71-4.3c-2.53-13.37-10.5-48.4-20.34-84.54-8.58-31.49-18.6-63.8-27.72-83.22-3.56-7.58-6.8-13.11-9.9-15.4a66 66 0 0 0-8.62-5.32c-1.93 13.26-6.7 50.16-3.93 74.6 5.43 48.14 15.83 96.25 23.5 127.91zm-17.95 200.79a37 37 0 0 1-14.55-12.83c-16.96 3.04-36.18 4.91-56.09 5.68.75 19.43 1.76 40.84 2.62 52.18 9 1.45 22.45 3.14 33.77 2.6 11.67-.55 25.97-3.6 34.91-5.79-.11-10-.31-25.68-.66-41.84zm-.52-104h34.45a1755 1755 0 0 0-11.14-46.37 24 24 0 0 1-3.48-2.66c-8.76 6.72-13.63 16.12-16.37 25.03a83 83 0 0 0-3.46 24zm61-93.27a64 64 0 0 1-7.84 2.78c-8.6 2.47-18.56 3.71-26.53 3.3q-1.12-.07-2.2-.17c-1.26 5.75-2.66 16.1-2.4 23.7.06 1.74.2 3.32.47 4.64.17.8.31 1.47.64 1.9 2.86 3.66 6.38 5.45 9.21 6.01 1.1.21 2.02.37 2.58.18a15 15 0 0 0 2-3.08c1.66-3.63 2.64-9.55.04-17.51a3.98 3.98 0 0 1 7.55-2.47c3.4 10.44 1.9 18.24-.29 23.12 1.3.4 2.73.74 4.2.92 2.27.27 4.66.2 6.6-1.14 1.26-.88 2.26-2.3 2.98-4.37 1.57-4.46 0-8.5-1.83-11.43-2.16-3.45-4.8-5.56-4.8-5.57a3.97 3.97 0 0 1 5.6-5.63c.81.7 4.95 4.43 7.5 9.86a22 22 0 0 1 2.08 7.7c3.42-2.93 5.51-6.6 6.03-9.52.92-5.16-.42-8.93-3.16-12.94-2.13-3.14-5.03-6.38-8.43-10.28zM327.82 323.34q-10.95 1.39-23.62 1.32-10.37-.08-19.58-1.15c-.3 3.4-1.05 8.49-2.8 12.64-1.55 3.65-3.9 6.56-7 7.9 5.71 6.84 13.84 14.9 33.19 15.48 17.29.52 25.97-7.95 30.99-15q-.72-.2-1.19-.4c-3.17-1.31-5.59-4.27-7.17-7.98-1.79-4.22-2.52-9.41-2.82-12.8zM263.5 675.31c1.77 3.9 3.57 7.15 5.4 9.43q.93 1.2 1.86 1.95c.42.34.78.65 1.19.65.45 0 .63-.51.96-1 1-1.46 1.8-3.58 2.5-6.17 3.88-14.25 4.18-40.87 4.43-59.99.15-12.05-.1-21.97-1.58-29.28-.84-4.14-2-7.36-3.92-9.42-3.08-3.31-7.92-4.89-12.68-4.59h-.36q-.55.48-1.1.91c4.3 1.8 8.03 4.64 10.55 8.3q3.63 5.3 4.07 14.83c.4 8.39-.98 19.47-3.26 32.86-2.13 12.5-4.8 27.96-8.06 41.52zm-37.16 4.32c-5.82-29.24-6.54-72.88-.62-87.85a26.5 26.5 0 0 1 6.2-9.46c-6.24-.54-12.9 2.13-16.42 9.46-6.63 13.85-8.08 57.18-3.59 82.95 1.1 6.26 2.5 11.46 4.39 14.77.67 1.19 1.17 2.18 2.04 2.36.26.05.48-.16.74-.34a8 8 0 0 0 1.68-1.65c1.88-2.3 3.68-5.78 5.46-9.98zm302-9.75H384.35v14.02h143.98Zm0 0" fill-rule="evenodd" stroke="#1a1a1a" stroke-width="4" stroke-linecap="round" stroke-linejoin="round" data-locked="true"></path><path fill="#1a1a1a" d="M598.35 689.96c-11.38-3.69-24.23-8.8-34.73-15.48-11.54-7.35-20.2-16.65-22.06-27.7-4.6-27.16 10.19-79.03 30.67-119.56 13.88-27.49 30.53-49.65 45.08-56.13 8.81-3.92 32.86-8.07 48-11.64a87 87 0 0 0 8.91-2.47c.71-.26 1.6-.7 1.78-.8 1.54-1.57 2.42-4.24 3.08-6.82.57-2.22.92-4.41 1.13-6.1-25.73-4.17-43.97-13.79-56.88-25.83a87 87 0 0 1-18.87-25.65c-7.13 4.66-17.63 7.76-27.84 7.63-9.81-.12-19.3-3.22-25.56-10.24-4.23-4.74-7.06-11.27-7.44-20.05-.57-13.27 3.12-22.08 8.63-27.82a28 28 0 0 1 7.55-5.56c-4-8.7-11.65-31.63-5.58-71.25a75 75 0 0 1 4.56-16.8q-.94.63-1.72 1.01-1.09.5-1.96.67l-1.78.07-1.75-.55-1.5-1.2-.75-1.2-.47-1.6c-.18-1.2-.1-3.07.47-5.49 2.4-10.28 13.79-33.85 32.85-54.24 11.35-12.15 25.18-18.19 35.55-21.17-5.35-1.94-10.9-4.14-14.16-5.93-2.07-1.13-3.42-2.3-4-3.16l-.57-1.07-.26-.99-.04-.99.2-1.04a9 9 0 0 1 4.3-5.02c2.26-1.3 5.51-2.13 9.3-2.48 9.4-.88 22.47.99 28.47 2 2.42-5.8 8.12-18.37 14.75-25.53 4.95-5.34 10.56-7.65 15.76-5.4l1.21.69 1 .91 1.03 1.56a8 8 0 0 1 .58 1.58c.52 1.95.49 4.75-.05 7.97-.75 4.5-2.46 9.98-4.15 14.72 18.16-9.35 58.9-23.71 111.5-1.65 22.72 9.54 56.84 31.3 67.27 42.27 2.55 2.67 3.83 5.06 4.08 6.64l.08 1.03-.13 1.15-.43 1.18-.71 1.06-1.55 1.24-1.61.63q-1.49.36-3.6.1c9.75 10.3 19.4 25.67 24.5 50.14 8.01 38.4-7.08 81.38-10.12 89.46a28 28 0 0 1 8.96 6.24c5.5 5.74 9.2 14.55 8.63 27.82-.8 18.38-12.88 26.69-27.2 28.72-12.2 1.73-26.04-1.35-35.12-6.42a94 94 0 0 1-11.39 17.36c-13.07 15.73-32.9 28.8-62.91 34.13.2 1.73.55 4.08 1.16 6.45.66 2.58 1.54 5.25 3.08 6.83.17.09 1.06.53 1.78.79a88 88 0 0 0 8.91 2.47c15.15 3.57 39.18 7.72 48 11.64 14.55 6.48 31.2 28.64 45.09 56.13 20.48 40.53 35.25 92.4 30.66 119.57-1.86 11.01-11.38 20.6-24.2 28.28-8.22 4.92-17.79 9.11-27.18 12.57l.02.18c2.82 42.44 8.23 136.35 7.85 175.13-.07 7.05-.34 12.35-.83 15.3-.36 2.24-1.07 3.63-1.6 4.26-.7.85-1.94 1.8-3.74 2.6-2 .9-4.95 1.78-8.6 2.57 2.05 6.47 4.82 12.35 7.26 18.43 3.14 7.81 5.78 15.94 6.15 25.81.92 24.05-22.8 41.3-51.03 42.07-17.22.48-33.42-6.02-44.02-14.63-7.59-6.16-12.3-13.48-13.08-20.13-1.76-14.87 5.28-31.53 10.17-47.11-4.58-.48-8.27-1.15-10.7-2.01-3.21-1.13-4.86-2.94-5.41-4.48-1.95-5.47-6.18-45.48-9.55-79.93-1.42 21.86-3.14 45.86-4.73 61.51-.97 9.48-2.05 16.09-2.85 17.86-.77 1.68-2.51 3.37-5.43 4.6-2.88 1.21-7.23 2.14-12.58 2.76 4.88 15.5 11.83 32.03 10.08 46.8-.78 6.65-5.49 13.97-13.08 20.13-10.6 8.61-26.8 15.11-44.03 14.63-28.23-.77-51.94-18.02-51.02-42.07.38-9.88 3.02-18.03 6.16-25.85 2.51-6.25 5.36-12.28 7.43-18.96-5.07-1.37-8.68-2.93-10.29-4.4-.84-.78-1.8-2.32-2.38-4.76-.82-3.39-1.27-9.32-1.36-17.1-.5-41.53 8.4-138.22 10.9-170.89zm89.73-245.63a58 58 0 0 1-1.3 7c-1.05 4.1-2.81 8.18-5.3 10.62a11 11 0 0 1-3.3 2q-1.12.48-2.62.96c5.02 6.1 12.86 10.41 21.9 12.55 16.04 3.82 35.92.8 51.9-11.57a49 49 0 0 1-5.96-1.94 11 11 0 0 1-3.3-2c-2.49-2.44-4.25-6.52-5.3-10.62a58 58 0 0 1-1.32-7.23q-11.48 1.46-24.85 1.4-10.94-.08-20.55-1.17zm-26.96 24.2c-14.33 3.1-32.92 6.45-40.45 9.75 1.67 7.03 8.18 36.88 5.97 68.18-2.77 38.97-7.15 58.25-12.96 76.17q-.13.4-.33.75l36.7 15.32a4 4 0 0 1 2.43 3.45q.06 1.15-.29 3.19l15.08 5.67c1.7-2.4 3.51-4.75 5.12-7.05 3.12-4.45 10.43-10.67 18.47-10.31 4.18.17 8.92 1.6 14.38 2.26l2.36-55.44c-6.63-2.67-24.25-10.26-35.12-19.67-6.3-5.46-10.28-11.66-10.08-17.74.14-4.33 2.23-8.81 7.5-13.08 5.35-4.34 10.32-5.67 14.75-5.17 6.4.71 12.05 5.51 16.52 12.42 4.8 7.41 8.37 17.22 10.74 25.25 3.1-10.78 8.03-24.36 14.72-31.9 3.18-3.6 6.78-5.93 10.62-6.6 4-.72 8.4.23 13.07 3.9 5.65 4.4 8.18 9.04 8.75 13.52.83 6.55-2.7 13.18-8.67 19.07-10.59 10.46-28.75 18.87-34.9 21.54l-2.33 54.27c5.93.28 9.55 1.91 12.78 3.64 1.9 1.02 3.61 2.1 5.8 2.8 2.05.65 4.25.12 6.41.12 3.62 0 7.16.74 10.4 4.44q1.14 1.3 2.17 2.88l9.18-2.34a16 16 0 0 1-.28-3.18 4 4 0 0 1 2.5-3.47l48.95-19.45c-4.36-17.4-7.16-31.08-8.44-41.7-5.5-45.78-2.38-91.1-1.55-101.66l-.05-.02c-6.98-3.1-23.78-6.26-37.7-9.2-.08 6.19-.5 19.67-2.68 29.1-.87 3.71-2.03 6.85-3.44 8.94-1.46 2.15-3.25 3.4-5.16 3.84-6.2 1.42-39.56 3.17-61.45 3.27-9.88.04-17.54-.36-19.78-1.09l-1.77-.92a8 8 0 0 1-1.78-1.85 19 19 0 0 1-2.45-5.51c-2.76-9.43-3.5-27.74-3.71-36.4zm-47.6 14.15c-11.49 8.97-23.53 27-34.2 48.12-19.66 38.91-34.33 88.58-29.92 114.66 1 5.87 4.57 11 9.5 15.53 5.37 4.93 12.32 9.14 19.73 12.7 18.83 9.1 40.53 14.03 47.55 15.48 4.34-6.08 9.82-18.82 13.71-29.69 2.13-5.94 3.82-11.28 4.43-14.56l-60.07-25.08a3.97 3.97 0 0 1 3.06-7.33l18.76 7.84.05-.16c5.66-17.48 9.9-36.28 12.59-74.3 1.93-27.33-3.04-53.52-5.2-63.21zm141.84-11.4c-18.24 14.72-41.25 18.3-59.74 13.91-11.05-2.62-20.48-8.1-26.54-15.67.18 7.14.7 19.44 2.29 28.34.46 2.6 1 4.88 1.68 6.58.19.46.51 1.04.69 1.33 2.4.53 8.77.61 16.83.58 21.1-.09 53.18-1.66 59.56-3.03.12-.15.62-.74.87-1.2a24 24 0 0 0 1.91-5.66c1.83-7.88 2.33-18.76 2.45-25.18zM704.9 643.8c-5.44-.67-10.19-2.05-14.37-2.24-5.14-.22-9.63 4.1-11.61 6.94-2.32 3.32-5.11 6.76-7.31 10.25-1.8 2.85-3.28 5.7-3.28 8.55q0 .5.03 1.07c5.7-2.85 13.59-1.82 22.37-.1 3.87.75 8.95 4.19 11.68 9.23a11.5 11.5 0 0 1 2.71-4.22c2.05-2.1 5.21-4.09 8.85-5.73 5.9-2.66 13.05-4.48 17.98-4.91 2.71-.24 4.9 0 6.21.48 3.6 1.34 6.4 3.81 8.57 6.7 1.6-4.16.7-8.84-1.1-12.63q-.44-.58-.66-1.3a20 20 0 0 0-2.36-3.38c-1.77-2-3.83-1.79-5.8-1.7-2.53.12-5.04.23-7.45-.53-2.69-.85-4.82-2.12-7.15-3.36a20.6 20.6 0 0 0-9.37-2.71l-.48 11.17a3.98 3.98 0 0 1-7.94-.34zm1.22-72.55c-1.97-7.93-5.79-20.73-11.6-29.71-3.02-4.65-6.43-8.37-10.74-8.85-2.7-.3-5.61.81-8.87 3.45-2.97 2.4-4.48 4.74-4.56 7.17-.13 4.06 3.13 7.84 7.34 11.49 8.27 7.14 20.73 13.14 28.43 16.45zm11.33 1.17c7.59-3.58 19.66-9.99 27.38-17.6 3.97-3.94 6.91-8.08 6.36-12.44-.35-2.8-2.22-5.5-5.75-8.26q-3.03-2.38-5.67-2.44c-2-.02-3.79.96-5.47 2.43-2.18 1.91-4.13 4.64-5.9 7.77-5.37 9.46-9.03 22.46-10.95 30.54zm-67.13 80.69c-.8 2.75-1.8 5.83-2.94 9.03-3.31 9.27-7.82 19.74-11.9 27 4.27 2.79 14.88 9.21 25.04 11.21 4.78.95 13.33.04 20.54-1.82 4.44-1.14 8.4-2.56 10.35-4.36 3.1-2.88 4.64-5.6 4.96-8.14.64-5.3-4-9.35-7.17-9.97-3.74-.74-7.3-1.42-10.5-1.58-2.6-.14-4.95.02-6.9 1.05a10 10 0 0 0-3.22 2.7c-2.84 3.67-2.8 8.51-2.8 8.51a3.98 3.98 0 0 1-7.95-.08s.14-6.2 3.54-11.75c-.7-2.8-1-5.57-.99-7.63.01-3.12.99-6.29 2.59-9.42zm-19.2 42.65-.35.4a4 4 0 0 1-3.68 1.28s-8.9-1.63-20.94-5.1c-2.67 34.14-11.24 127.78-10.75 168.41.07 5.48.3 9.96.75 13.14.17 1.27.57 2.71.71 3.18.56.4 1.4.73 2.45 1.12a71 71 0 0 0 10.64 2.7c17.7 3.35 46.5 5.36 66.76 4.32 7.14-.35 13.18-1.08 17.18-2.3a17 17 0 0 0 2.91-1.34c.66-1.75 1.3-7.34 2.1-15.18 3.59-35.18 7.8-112.7 7.8-112.7a3.97 3.97 0 0 1 7.92-.12s10.1 115.08 13.75 128.7c.48.2 1.44.58 2.27.78 3.93 1 10.06 1.56 17.36 1.83 20.6.75 50.27-1.03 67.87-4.14 4.28-.76 7.82-1.58 10.26-2.49.53-.2 1.15-.5 1.55-.72.19-1.7.83-7.9.9-14.67.37-38.05-4.86-129.33-7.7-172.51a316 316 0 0 1-35.8 9.57 4 4 0 0 1-3.72-1.27q-1.08-1.2-2.27-3c-7.34 3.16-32.92 13.72-46.54 13.7-16.71-.02-25.84-8.91-29.18-18.65-1.09 2.99-3.14 6.13-6.55 9.29-2.62 2.42-7.8 4.7-13.79 6.23-8.43 2.17-18.45 3.03-24.05 1.92-11.28-2.22-23.08-9.28-27.86-12.38zm-29.87-311.3c-5.77-14.64-7.71-29.48-8.1-41.47-2.16-1.3-6.07-2.39-10.56-2.94-8.05-1-18.12 0-24.59 6.73-4.33 4.52-6.89 11.56-6.43 21.98.28 6.6 2.26 11.56 5.43 15.12 4.8 5.39 12.2 7.48 19.72 7.58 8.79.1 17.85-2.54 23.82-6.61q.34-.23.7-.39zm-34.18-17.08c-1.07 2.01-1.52 4.18-.82 6.23a3.97 3.97 0 1 1-7.52 2.58c-1.8-5.28-.22-11.15 3.55-15.9 5.33-6.72 14.9-10.92 23.15-8.1a3.97 3.97 0 0 1-2.58 7.52c-3.49-1.2-7.27-.2-10.39 1.88 3.38 3.25 8.65 7.93 13.88 9.47a3.97 3.97 0 1 1-2.24 7.62c-6.39-1.88-12.97-7.5-17.03-11.3zm33.89-25.48c.45 19.98 5.51 48.9 27.81 69.72 16.12 15.04 41.23 25.7 79.92 25.93 45.83.28 73.27-14.37 89.46-33.85 24.2-29.13 23.31-68.6 21.98-83.05-31.87-14.77-61.85-46.76-73.54-87.86-31.75 49.07-86.74 71.14-87.46 71.4a3.97 3.97 0 0 1-4.9-5.54c9.5-18.52 12.3-31.77 11.93-45.42-18.57 32.42-37.89 51.63-63.83 66.46-.39 2.38-1.5 10.01-1.4 20.32q.24.94.03 1.89zm56.64-6.56c5.58 0 10.12 6.75 10.12 15.06s-4.54 15.06-10.12 15.06c-5.6 0-10.14-6.74-10.14-15.06s4.54-15.06 10.14-15.06zm106.4 0c5.6 0 10.14 6.75 10.14 15.06s-4.55 15.06-10.13 15.06c-5.6 0-10.13-6.74-10.13-15.06s4.53-15.06 10.13-15.06zm-82.1 67.46a3.97 3.97 0 1 1 4.77-6.36c13.73 10.26 31.33 10.14 48.7.57a3.97 3.97 0 0 1 3.85 6.95c-20.45 11.26-41.15 10.91-57.32-1.16zm101.36-84.5a3.97 3.97 0 1 1-4.24 6.71c-7.54-4.75-16.45-6.7-27.2-.96a3.98 3.98 0 0 1-3.75-7c13.91-7.42 25.44-4.9 35.19 1.25zm-81.74 56.04a3.98 3.98 0 0 1 4.51-6.54c3.42 2.37 7.25 4.2 11.22 3.64a3.97 3.97 0 1 1 1.11 7.87c-5.92.83-11.75-1.46-16.84-4.97zM642.56 325a3.98 3.98 0 0 1-4.25-6.7c9.76-6.16 21.29-8.68 35.2-1.27a3.97 3.97 0 1 1-3.74 7c-10.76-5.72-19.67-3.78-27.2.97zm185.78-.94c.18 2.94.29 6.43.25 10.33a47 47 0 0 1 24.2-1.74c2.36-6.13 17.72-48.05 9.92-85.44-8.64-41.5-31.43-54.73-43.16-62.57a3.97 3.97 0 0 1 4.42-6.6c2.32 1.55 5.04 3.3 8 5.4l.3.03c3.1.51 6.83 1.86 10.17 2.91a49 49 0 0 0-2.87-2.66c-13.33-11.2-40.9-28.21-60.06-36.24-67.34-28.26-113.95 6.88-113.95 6.88a3.96 3.96 0 0 1-6.04-4.75s6.29-14.31 7.89-23.84c.25-1.52.21-3.46.18-4.31-.85-.1-1.69.22-2.54.71-1.2.7-2.36 1.75-3.51 2.99-7.98 8.62-14.37 26-14.37 26a4 4 0 0 1-4.5 2.5s-17.76-3.55-29.44-2.46q-2.26.2-4.08.68c1.24.63 2.7 1.33 4.04 1.88 8.88 3.64 21.21 7.5 21.21 7.5a3.96 3.96 0 0 1-1 7.76s-26.54 1.34-45.42 21.55c-15.68 16.77-25.93 35.77-29.76 46.74q-.2.55-.36 1.11 1.46-1.27 3.1-2.65c3.36-2.84 7.04-5.75 10.37-7.34a45 45 0 0 1 3.7-3.27 3.98 3.98 0 0 1 4.93 6.23c-9.4 7.41-15.66 19.79-17.88 34.3-5.96 38.88 1.95 60.44 5.21 67.29a46 46 0 0 1 16.27-.82 44 44 0 0 1 9.56 2.28c.1-3.97.35-7.4.62-10.13l-.88.45a3.97 3.97 0 1 1-3.58-7.09c35.32-17.81 57.97-41.48 81.7-90.82a3.98 3.98 0 0 1 7.16 3.44q-2.55 5.3-5.1 10.24c2.26 17.11 1.65 31.62-7.02 51.76 17.87-8.99 56.32-31.9 78.36-71.2q.22-.62.63-1.15 2.9-5.3 5.37-10.98a3.98 3.98 0 0 1 7.3 3.16 139 139 0 0 1-5.35 10.98c10.6 48.21 47.85 84.63 84.43 95.39a3.96 3.96 0 1 1-2.24 7.61q-3.09-.9-6.18-2.04zm-.1 19.04c-.82 12.16-3.28 26.77-9.25 41.08 7.7 4.55 19.93 7.3 30.65 5.79 10.65-1.51 19.8-7.54 20.39-21.2.44-10.43-2.11-17.47-6.44-21.99-6.47-6.74-16.54-7.73-24.6-6.73-4.61.57-8.62 1.7-10.75 3.05zm26.28 24.28c-4.06 3.8-10.64 9.42-17.03 11.3a3.98 3.98 0 0 1-2.24-7.62c5.23-1.54 10.5-6.22 13.88-9.47-3.12-2.07-6.9-3.07-10.38-1.88a3.97 3.97 0 0 1-2.59-7.52c8.26-2.82 17.82 1.38 23.16 8.1 3.76 4.75 5.34 10.62 3.53 15.9a3.97 3.97 0 0 1-7.52-2.58c.71-2.05.27-4.22-.81-6.23zm-79.44 321.36c-3.64-6.99-7.44-16-10.34-24.1a152 152 0 0 1-2.96-9.11l-7.66 1.95c2.04 6.63 1.89 14.4-3.12 20.56a41 41 0 0 1 1.97 7.75 3.98 3.98 0 0 1-7.88 1.03s-.65-4.95-3.1-9.64c-1.44-2.72-3.47-5.45-6.61-6.62-.89-.33-2.55-.1-4.6.2a55 55 0 0 0-13.55 4.02 25 25 0 0 0-5.74 3.4c-.8.69-1.54 1.27-1.6 2.03-.87 9.27 5.83 21.18 22.66 21.2 12.24.02 34.76-9.28 42.53-12.67zm43.46-69.99 15.8-6.27a3.98 3.98 0 0 1 2.93 7.38l-69.47 27.59c.61 3.3 2.31 8.6 4.42 14.51 3.89 10.87 9.37 23.6 13.7 29.68 9.12-1.92 42.87-9.66 65.82-23.39 10.55-6.31 18.91-13.73 20.44-22.8 4.41-26.08-10.26-75.75-29.92-114.66-10.47-20.73-22.27-38.48-33.56-47.6-1.05 15.27-3.03 55.4 1.84 95.86 1.22 10.18 3.89 23.2 8 39.7zm-4.68 270.37c-18.27 2.84-46.33 4.42-66.15 3.7l-2.38-.11c-3.63 11.8-9.03 24.26-10.36 36.05 23.11 21.6 63.99 28.48 91.45-3.99-1.01-5.68-2.81-10.76-4.8-15.71-2.63-6.57-5.6-12.91-7.76-19.94zm-136.02 3.99-.74.03c-20.53 1.05-49.57-.94-67.84-4.3-2.16 7.12-5.16 13.54-7.83 20.18-2 4.97-3.8 10.06-4.8 15.75 27.45 32.47 68.33 25.59 91.44 4-1.3-11.66-6.6-24-10.23-35.66zm57.02 44.71.05.47c.59 5 4.5 10.26 10.2 14.9 9.34 7.58 23.62 13.27 38.8 12.86 22.69-.63 42.7-13 43.31-31.88-28.45 28.53-67.5 23.3-92.36 3.65zm-139.04-3.65c.6 18.88 20.63 31.25 43.31 31.88 15.18.41 29.46-5.28 38.8-12.86 5.7-4.64 9.6-9.9 10.2-14.9l.05-.47c-24.87 19.65-63.9 24.88-92.36-3.65zm0 0" fill-rule="evenodd" stroke="#1a1a1a" stroke-width="4" stroke-linecap="round" stroke-linejoin="round" data-locked="true"></path><path d="M158.2 190.42c-.45-4.51-.44-13.74.02-20.5 2.18-31.76 9.63-57.24 23.04-78.84 6.56-10.56 24.6-29.4 33.53-35.03 8.7-5.48 19.6-8.52 30.59-8.52 10.94 0 19.53 2.27 29.91 7.92 4.16 2.26 8.5 4.1 9.63 4.08s5.31-2.75 9.28-6.07c9.61-8.05 24.2-15.15 36.1-17.58 13.43-2.74 24.58-1.05 40.61 6.14 41.56 18.64 68.83 48.9 78.97 87.63 5.03 19.24 5.8 38.5 2.42 60.11l-1.27 8.07-7.42-.66c-4.08-.36-9.84-.1-12.8.6-2.96.68-5.62 1-5.92.7s-.78-3.64-1.08-7.45c-.3-3.8-1.06-7.56-1.68-8.34s-3.94-2.02-7.37-2.76c-17.8-3.81-46.2-13.64-61.4-21.25-20.65-10.34-43.37-30.5-57.12-50.67-9.74-14.3-11.07-14.42-16.46-1.5-4.77 11.4-15.46 31.95-21.07 40.5-13.04 19.86-33.26 31.22-63.95 35.9-4.79.72-5.8 2.54-5.83 10.46 0 2.44-.42 4.68-.92 4.98s-4.05-.04-7.9-.75c-4.7-.86-9.3-.9-14.04-.12l-7.04 1.17zm11.23-27.2c.86-.55 2.4-4.2 3.4-8.1 2.5-9.7 11.29-28 17.87-37.23 5.63-7.9 6.73-11.85 3.63-13.04-3.14-1.2-5.1.4-11.2 9.26-12.59 18.28-22.18 43.64-18.27 48.35 1.7 2.04 2.37 2.15 4.57.76zm238.42-.7c2.48-2.98-.4-6.05-7.36-7.82-20.5-5.22-43.77-17.85-57.24-31.06-9.15-8.98-12.8-10.58-14.18-6.22-1.06 3.33 5.98 11.64 17 20.09 9.77 7.47 29.86 17.99 42.6 22.28 14.58 4.91 17.08 5.27 19.18 2.73zm-190.37-8.45c14.26-10.72 33.57-33.67 32.6-38.76-.25-1.33-1.6-2.31-3.42-2.49-2.47-.23-4.03 1.2-9 8.28-6.19 8.8-23.13 25.75-29.51 29.52-3.7 2.18-5.52 5.47-4.2 7.6 1.59 2.57 6.66 1 13.53-4.15zM445 147.1c.74-6.47-15.42-31.93-29.06-45.77-12.67-12.86-32.57-26.12-39.2-26.12-2.35 0-4.46 3.83-3.22 5.85.36.58 3.7 2.55 7.42 4.37 20.74 10.15 41.6 32.38 54.55 58.14 3.15 6.26 4.29 7.53 6.47 7.22 1.89-.27 2.77-1.34 3.04-3.7z" data-region="path3" fill="#ffffff"></path><path d="M163.92 255.5c-11.88-2.67-18.68-15.28-15.96-29.62 1.4-7.41 2.42-9.54 6.27-13.14 6.26-5.86 20.4-8.3 29.57-5.1 3.63 1.27 3.68 1.4 4.54 12.24.47 6.03 1.79 15.51 2.91 21.07l2.05 10.1-3.1 1.58c-3.63 1.85-14.69 4.33-18.49 4.14a61 61 0 0 1-7.8-1.28zm-2.74-12.36c.8-.96 1.26-2.99 1.05-4.52-.5-3.56.74-3.28 8.52 1.96 6.61 4.45 10.64 5.32 13.11 2.85 2.67-2.68 1.48-4.37-7.08-10.06-9.43-6.27-9.37-7.7.32-7.73 4.62-.02 5.78-.47 6.42-2.49 2.68-8.43-13.65-9.08-22.96-.91-5.43 4.77-7.74 9.28-7.74 15.1 0 6.8 4.78 10.11 8.36 5.8z" data-region="path4" fill="#ffffff"></path><path d="M282.27 314.61c-37.6-5.9-62.84-24.04-75.57-54.33-6.5-15.49-8.37-25.19-9.04-46.95l-.63-20.11 2.86-1.08c1.58-.6 7.74-2.25 13.7-3.68 15.08-3.62 28.8-10.7 39-20.15 10.03-9.29 16.47-18.8 27.1-40.01l7.99-15.94 5.54 7.6c7.6 10.4 24.4 26.86 35.28 34.54 19.54 13.79 45.43 24.51 81.67 33.84l5.27 1.35-.62 20.07c-.5 16.41-1.19 22.26-3.77 32.1-7.92 30.25-25.95 52.86-51.06 64.01-14.5 6.45-28.01 9-50.14 9.44-11.25.23-23.66-.09-27.58-.7zm37.21-26.85c3.31-.88 8.6-2.74 11.73-4.13 4.56-2.02 5.71-3.12 5.71-5.45 0-5.59-2.85-6.3-10.81-2.73-14.86 6.67-28.05 6.66-39.44-.02-6.8-3.98-10.51-3.53-10.51 1.29 0 2.9.9 4.08 4.8 6.32 10.81 6.18 26.03 8.05 38.52 4.72zm-70.7-17.7c3.63-2.29 3.42-5.42-.55-8.02-4.25-2.78-20.9-2.97-26.22-.3-4.97 2.5-4.72 6.02.6 8.77 3.32 1.72 6.25 2.08 13.84 1.72 5.48-.26 10.79-1.19 12.33-2.16zm141.09.38c5.33-2.67 5.57-6.2.6-8.7-5.33-2.67-21.98-2.48-26.23.3-5.4 3.54-3.93 7.12 3.97 9.72 4.52 1.5 17.63.7 21.66-1.32zm-73.45-15.28c2.71-3.27.96-5.96-4.49-6.89a31 31 0 0 1-8.74-3.01c-4.14-2.45-7.53-1.26-8.14 2.86-.86 5.7 17.47 11.73 21.37 7.04zM260 241.36c3.06-3.06 3.52-4.42 3.52-10.3 0-7.96-2.5-13.54-6.54-14.56-4.65-1.16-7.03-.16-9.96 4.19-6 8.9-1.45 24 7.27 24.14 1.2.02 3.78-1.54 5.71-3.48zm103.97.64c7.27-7.28 3.83-26-4.78-26-7.06 0-10.24 4.67-10.24 15.06 0 5.88.47 7.24 3.52 10.3 4.27 4.26 7.68 4.45 11.5.64zm-120-41.88c5.8-2.4 6.93-2.5 12.66-1.14 12.6 3.01 13.8 3.03 14.67.3 1.09-3.42 0-4.81-5.82-7.45-12.98-5.9-36.55 0-33.86 8.46 1 3.2 4.33 3.15 12.35-.17zm136.35.73c2.22-2.67.33-5.32-6.13-8.62-6.89-3.53-19.89-3.72-27.2-.4-5.82 2.64-6.9 4.03-5.82 7.44.87 2.74 2.08 2.72 14.68-.29 5.7-1.36 6.83-1.27 12.03 1.02 7.07 3.1 10.39 3.33 12.44.85z" data-region="path5" fill="#ffffff"></path><path d="M430.18 255.22c-9.03-2.22-11.8-4.03-10.93-7.14 1.05-3.72 4.23-24.22 5-32.3.61-6.31.94-6.92 4.38-8.12 2.04-.71 7.01-1.28 11.05-1.27 13.66.05 22.43 6.8 24.75 19.03 1.21 6.37.1 16.04-2.36 20.64-2.04 3.81-8.72 8.22-14.47 9.54-6.73 1.55-9.84 1.48-17.42-.38zm11.55-14.64c8.04-5.41 8.7-5.5 8.8-1.26.22 7.98 8.23 7.05 8.9-1.04.52-6.09-1.52-10.58-7.07-15.6-9.48-8.56-26.17-8.23-23.4.47.61 1.95 1.84 2.48 5.81 2.55 9.67.16 10.24 1.34 3.05 6.3-3.55 2.44-7.1 4.45-7.87 4.45-2.12 0-3.19 4.67-1.53 6.67 2.35 2.83 6.5 2.04 13.3-2.54z" data-region="path6" fill="#ffffff"></path><path d="M829.07 329.7c0-4.01.06-4.06 5.11-3.84 4.78.22 5.14 0 5.5-3.15.33-2.88-.2-3.59-3.6-4.8-10.42-3.72-27.81-13.5-36.7-20.64-19.74-15.85-36.52-40.63-43.91-64.85l-2.51-8.24 2.66-5.7c3.45-7.35 2.97-11.38-1.4-11.89-2.98-.34-3.68.45-8.02 9.02-13.25 26.2-36.3 49.69-67.46 68.74-5.58 3.42-10.32 6.03-10.53 5.82-.22-.21.65-3.41 1.92-7.1 3.46-10.07 5.27-24.23 4.34-34.1-.7-7.46-.46-9.35 1.76-13.69 3.32-6.5 2.85-10.15-1.35-10.63-2.9-.34-3.73.7-10.04 12.63-19.91 37.62-39.9 59.82-67.7 75.18-4.8 2.66-9.23 5.71-9.83 6.8-1.49 2.64.56 6.23 3.55 6.23 1.84 0 2.36.82 2.36 3.77 0 3.68-.1 3.75-4.51 3.02-2.48-.41-8.36-.75-13.07-.76l-8.56-.01-1.93-6.32c-3.75-12.23-4.79-22.59-4.02-40 1.15-26.04 5.1-38.33 16.05-50.04 4.1-4.38 5.23-6.4 4.63-8.26-1.4-4.4-5.05-3.72-13.53 2.54-3.59 2.65-6.8 4.56-7.12 4.24-.97-.98 7.4-16.55 13.74-25.53 16.86-23.88 30.17-32.84 57.42-38.66 5.05-1.07 6.8-3.93 4.27-6.98-.74-.9-6.55-3.42-12.9-5.6-9.2-3.18-10.96-4.14-8.67-4.74 2.7-.7 17.81.33 25.73 1.77 1.99.36 4.19.26 4.89-.23.7-.48 3.77-6.03 6.82-12.31 3.09-6.38 7.45-13.27 9.85-15.58l4.31-4.15v3.2c0 1.75-1.87 8.43-4.16 14.84-3.13 8.77-3.87 12.2-2.97 13.89 1.7 3.17 3.4 2.85 13.46-2.57 17.69-9.54 33.5-13.46 54.44-13.48 22.92-.02 42.7 5.28 66.78 17.88 17.1 8.95 44.6 27.29 41.75 27.85-1.2.24-4.66-1.19-7.7-3.17-6.13-3.98-10.3-3.7-10.96.76-.29 1.91 1.63 3.97 8.07 8.65 17.72 12.88 28.99 29.23 35.27 51.15 2.38 8.29 2.76 12.38 2.76 29.48 0 21.13-1.32 30.13-7.47 50.84l-3.13 10.53h-7.94c-4.37 0-9.7.5-11.85 1.12-3.85 1.1-3.9 1.06-3.9-2.94z" data-region="path7" fill="#ffffff"></path><path d="M564.94 388.27c-9.26-4.42-12.65-10.62-12.6-23.06.06-16.53 12.82-27 29.94-24.6 8.62 1.22 10.94 3.23 10.94 9.47 0 5.98 2.58 20.07 5.26 28.76l1.79 5.82-5.63 2.52c-8.1 3.61-23.23 4.17-29.7 1.09zm.37-10.08c.79-.79 1.44-3.27 1.44-5.51v-4.08l5.91 4.34c7.73 5.68 12.77 7.47 15.23 5.43 2.4-2 1.75-5.96-1.27-7.63-7.1-3.95-12.74-8.33-11.86-9.21.56-.55 3.72-1.17 7.03-1.37 5.34-.33 6.06-.7 6.43-3.32.82-5.8-7.47-7.94-16.4-4.21-9.5 3.96-16.06 14.2-14.09 22.04 1.19 4.73 4.73 6.37 7.58 3.52z" data-region="path8" fill="#ffffff"></path><path d="M692.48 436.2c-47.19-4.95-76.9-27.96-87.34-67.63-2.64-10.02-4.23-32.18-3.01-41.92.81-6.56.84-6.59 8.89-11.6 17.85-11.1 33.36-26.8 47.29-47.83 6.19-9.35 7.1-10.28 7.09-7.22-.04 6.64-3.45 19.68-7.73 29.55-5.07 11.7-5.29 13.98-1.43 14.95 4.88 1.22 26.53-10.49 46.48-25.15 12.97-9.53 32.24-28.42 38.5-37.77 2.32-3.45 4.54-6.29 4.93-6.3.4-.02 1.4 2.26 2.23 5.08.84 2.81 3.63 9.54 6.2 14.95 12.05 25.34 32.3 47.39 55.94 60.95l8.76 5.02.38 7.22c.64 12.17-1.17 28.35-4.45 39.65-8.8 30.4-28.66 51.74-57.16 61.43-17.78 6.05-44.95 8.8-65.57 6.63zm33.19-26.01c3.6-1.07 8.6-2.99 11.12-4.27 3.82-1.95 4.52-2.88 4.21-5.58-.52-4.49-3.29-4.65-12.78-.74-6.38 2.63-10.06 3.33-17.74 3.4-8.7.1-10.49-.3-17.61-3.92-9.13-4.63-12.24-4.62-12.78.06-.31 2.64.49 3.78 4.3 6.2a59 59 0 0 0 10 4.81c7.07 2.47 23 2.5 31.28.04zm-4.3-34.73c0-3.27-.44-3.65-5.12-4.45a31 31 0 0 1-8.76-3.02c-4.35-2.57-7.78-1.11-7.78 3.32 0 4.35 7.95 8.43 15.65 8.04 5.8-.3 6.01-.44 6.01-3.89zm-60.42-10.36c4.41-2.01 6.88-7.26 6.88-14.65 0-8.83-3.7-14.58-9.7-15.09-6.38-.54-9.86 3.77-10.53 13.01-.62 8.53 1.23 13.82 5.65 16.23 3.87 2.1 4.15 2.12 7.7.5zm109.15-2.11c9.99-10 2.67-31.35-9.32-27.2-9.06 3.15-9.99 22.6-1.36 28.65 4.01 2.81 6.79 2.44 10.68-1.45zm-120.02-40.27 6.92-2.38 7.95 2.61c8.67 2.84 11.76 2.09 11.06-2.7-.6-4.02-7.47-7.1-17.2-7.73-7.58-.49-9.68-.15-15.52 2.53-5.99 2.74-6.75 3.49-6.75 6.66 0 3.76 1.78 5.27 4.81 4.1 1-.4 4.92-1.78 8.73-3.09zm133.34 2.73c5.2-2.79 1.08-8.6-8.38-11.8-9.53-3.24-26.98-.18-28.93 5.07-2.06 5.52 1.54 7.66 8.12 4.83 6.39-2.75 15.53-2.53 21.31.51 5.75 3.03 5.04 2.9 7.88 1.39z" data-region="path9" fill="#ffffff"></path><path d="m826.58 386.8-6.7-2.4 2.85-8.7c1.57-4.78 3.6-13.72 4.54-19.85s2-11.65 2.36-12.25c1.48-2.4 14.2-4 20.37-2.59 13.23 3.06 19.13 10.85 19.13 25.25 0 9.84-2.26 14.62-9.02 19.1-4.41 2.92-6.25 3.33-15.91 3.56-8.36.2-12.5-.3-17.62-2.13zm15.61-9.51a53 53 0 0 0 8.38-5.52c2.47-2.08 3.8-2.62 3.88-1.56.07.88.2 2.9.3 4.48.1 1.57 1.14 3.47 2.3 4.2 6.7 4.26 9.12-10.8 3.01-18.8-6-7.88-20.75-12.18-25.5-7.44-4.1 4.11-1.25 7.74 6.1 7.74 2.81 0 5.43.52 5.83 1.16.75 1.22-7.64 7.87-11.47 9.08-2.86.91-4.16 5.01-2.3 7.26 1.94 2.33 3.97 2.2 9.47-.6z" data-region="path10" fill="#ffffff"></path><path d="M696.73 476.38c-6.77-1.82-15.4-6.28-17.84-9.23-1.1-1.31-.66-2.2 2.06-4.21 3.23-2.39 7.33-11.25 7.33-15.83 0-1.65 2.82-1.9 22.2-1.9h22.19l1.36 5.42c1.94 7.7 5.45 12.82 9.87 14.36l3.82 1.33-2.64 1.84c-12.5 8.77-33.21 12.29-48.35 8.22z" data-region="path11" fill="#ffffff"></path><path d="M673.94 503.76c-1.71-3.2-3.69-16.44-3.7-24.77v-7.15l3.3 3.16c4.92 4.7 17.83 10.25 27.38 11.76 14.88 2.35 29.94-.53 45-8.6l8.9-4.76-.76 9.08c-1.15 13.56-3 19.8-6.06 20.5-4.03.92-45.7 3-59.98 3-11.3 0-13.04-.27-14.08-2.22z" data-region="path12" fill="#ffffff"></path><path d="M659.83 647.73c-4.89-1.87-6.32-3.05-6.83-5.58-.57-2.86-2.66-4.06-19.08-10.9a815 815 0 0 1-18.82-8c-.21-.18 1.26-7 3.28-15.17 6.88-27.9 10.45-65.43 8.58-90.06-1.1-14.35-4.27-36.58-5.52-38.6-.73-1.18 32.02-9.54 37.38-9.54.84 0 1.85 5.72 2.71 15.35 1.57 17.56 3 23.48 6.55 27.02 2.46 2.46 3.11 2.5 38.13 1.71 19.59-.43 38.55-1.24 42.13-1.79 10.35-1.58 12.41-5.57 14.74-28.45.75-7.28 1.44-13.35 1.55-13.5.21-.3 22.75 4.73 30.14 6.72l4.82 1.3.04 42.45c.04 45.84 1.12 58.52 7.3 86.18 1.68 7.51 2.7 14.01 2.27 14.44-.43.44-11.7 5.12-25.05 10.42-22.44 8.9-24.3 9.86-24.64 12.8-.5 4.36-6.72 5.75-10.37 2.33-3.26-3.05-8.28-4.9-13.29-4.9-2.2 0-6.9-1.35-10.45-3s-7.7-3-9.26-3c-2.76-.02-2.82-.23-2.14-8.14.38-4.47 1.05-16.52 1.5-26.78l.82-18.65 10.76-5.4c18.84-9.44 30.8-20.9 31.88-30.53.82-7.24-.2-10.73-4.57-15.7-5.15-5.88-13.02-8.72-19.09-6.9-8 2.4-15.83 13.47-21.68 30.7l-2 5.88-1.58-5.27c-.87-2.9-3.15-8.4-5.08-12.22-9.31-18.45-21.6-23.47-34.54-14.1-17.92 12.98-8 31.02 26.05 47.33l10.46 5-.75 16.86c-.42 9.26-.82 21.28-.9 26.71l-.15 9.87-9.98-.7c-7.83-.56-10.78-.3-13.7 1.22-3.72 1.92-13.62 12.25-13.62 14.2 0 1.35-.63 1.22-8-1.6z" data-region="path13" fill="#ffffff"></path><path d="M608.26 683.9c-31.03-9.37-49.98-20.59-56.09-33.2-4.92-10.18-3.02-33.36 5.06-61.53 10.91-38.08 32.86-81.69 50-99.36l5.77-5.94 1.44 7.14c5.27 26.05 5.2 54.3-.23 90.78-1.58 10.6-7.28 35.77-8.4 37.1-.19.21-4.3-1.28-9.15-3.32-11-4.61-13.96-4.73-15-.6-.43 1.7-.3 3.56.28 4.12s14.32 6.54 30.53 13.29 29.88 12.61 30.35 13.05c1.15 1.04-6.04 21.54-11.6 33.1-5.22 10.87-4.97 10.81-22.96 5.38z" data-region="path14" fill="#ffffff"></path><path d="M696.1 565.8c-20.16-10.9-27.32-18.91-23.43-26.2 1.46-2.7 7.25-5.94 10.65-5.94 4.08 0 9.57 5.85 13.9 14.83 4.38 9.03 8.38 21.29 6.94 21.24-.46-.01-4.09-1.78-8.06-3.93z" data-region="path15" fill="#ffffff"></path><path d="M718.36 570.71c0-.23 1.4-4.73 3.12-10.01 5.61-17.27 12.84-28.24 18.61-28.24 3.08 0 9.16 5.46 10.06 9.03 1.05 4.2-1.74 9.01-8.87 15.25-5.05 4.42-22.92 15.31-22.92 13.97z" data-region="path16" fill="#ffffff"></path><path d="M781.1 681.2c-5.37-11.05-12.48-30.56-11.84-32.48.23-.7 16.08-7.52 35.23-15.15 34.79-13.87 34.8-13.88 34.8-17.49 0-4.84-3.07-5.18-12.48-1.35-4.04 1.64-7.56 2.61-7.82 2.17-1.1-1.87-6.66-29.3-7.97-39.32-3.13-24-3.76-92.7-.84-91.74 2.82.92 14.79 16.42 22.2 28.73 14.83 24.66 29.17 60.48 35.9 89.7 4.54 19.67 4.87 40.9.75 47.53-8.83 14.2-38.18 28.58-76.92 37.68l-6.27 1.47z" data-region="path17" fill="#ffffff"></path><path d="M722.58 698.64c-6.05-2.79-9.51-6.62-11.45-12.68-1.45-4.52-1.37-4.87 1.7-7.5 3.95-3.4 18.94-8.12 22.35-7.03 3.11.98 6.1 5.38 8.45 12.42 2.17 6.5 4.9 8.66 7.85 6.21 1.58-1.3 1.88-2.86 1.32-6.93-.5-3.62-.13-6.38 1.18-8.9 1.24-2.41 1.75-5.9 1.49-10.16-.27-4.37.05-6.47 1-6.47.77 0 2.2-.3 3.18-.68 1.33-.51 2.47 1.39 4.5 7.52 1.5 4.5 4.27 11.63 6.15 15.83s3.42 7.82 3.42 8.04c0 .87-20.3 8.16-28.74 10.32-11.14 2.85-16.26 2.85-22.4.01z" data-region="path18" fill="#ffffff"></path><path d="M699.62 673.14c-4.37-4.83-9-6.3-20.06-6.42-5.79-.05-10.52-.6-10.53-1.22 0-1.87 9.38-15.64 12.92-18.96 4.59-4.3 7.68-4.97 15.36-3.38l6.61 1.37v6.39c0 6.98 1.92 9.79 5.83 8.54 2.56-.81 3.76-3.97 3.78-9.98.02-4.83 1.5-4.96 10.36-.9 3.9 1.78 8.77 3 11.98 3 4.78 0 5.66.44 7.74 3.86 2.5 4.11 4.27 10.34 3.24 11.37-.34.35-2.25-.58-4.25-2.05-3.16-2.34-4.68-2.6-11.94-2.09-9.17.66-20.4 5.07-25.62 10.06l-3.1 2.97z" data-region="path19" fill="#ffffff"></path><path d="M654.52 698.05c-5.26-2.04-14.46-6.64-16.44-8.23-1.13-.9-.9-2.29 1.02-6.05 2.05-4.02 8.05-19.01 11.05-27.64.68-1.95 1.04-1.95 6.2-.04 4.63 1.72 5.33 2.4 4.62 4.47-.46 1.35-.95 5.43-1.1 9.07a69 69 0 0 1-1.76 12.28q-2.45 9.36 3.7 9.38c2.84 0 4.34-2.12 5.31-7.53 1.09-6 5.22-8.7 12.83-8.37 10.38.45 15.44 3.74 15.51 10.1.05 4.13-5.4 9.63-11.53 11.64-7.15 2.35-24.32 2.88-29.4.92z" data-region="path20" fill="#ffffff"></path><path d="M636.54 883.78c-14.13-1.32-25.16-3.12-33.29-5.43l-6.21-1.76-.83-8.8c-1.07-11.41.98-53.27 5.49-112.12 4.34-56.7 4.85-61.97 5.96-61.97.48 0 5.23 1.08 10.56 2.4 5.32 1.33 10.47 2.12 11.43 1.75s6.02 1.47 11.24 4.08c15.7 7.88 22.7 8.9 38.23 5.61 10.98-2.32 18.4-6.05 21.52-10.83l2.56-3.9 3.45 5.2c2.4 3.61 5.47 6.2 10 8.42 11.7 5.72 28.97 3.31 57.9-8.09 3.38-1.33 4.16-1.24 6.33.73 2.43 2.19 2.83 2.15 19.02-2.08 9.1-2.38 17.4-4.66 18.46-5.07 2.15-.84 1.98-2.62 5.26 55.92 4.1 72.99 5.4 125.07 3.24 128.48-2.41 3.8-34 7.6-64.58 7.77-22.57.13-32.59-.85-33.52-3.27-1.1-2.85-5.55-42.38-9.76-86.54-4.08-42.82-4.53-45.16-8.61-45.21-3.42-.05-4.17 4.69-6.48 41.03-2.46 38.76-5.47 77.15-6.75 86.18-.65 4.59-1.16 5.22-5.1 6.4-5.81 1.75-41.14 2.44-55.52 1.1z" data-region="path21" fill="#ffffff"></path><path d="M770.1 945.56c-9.86-1.66-21.5-6.96-30.27-13.81l-4.4-3.44 1.64-6.9c.9-3.8 3.2-11.51 5.11-17.14l3.47-10.23 23.36-.8c12.85-.43 27.92-1.38 33.5-2.1 5.57-.7 10.3-1.11 10.52-.9 1.06 1.06 11.26 28.02 11.9 31.47.7 3.7.26 4.35-6.49 9.97-14.23 11.85-31.26 16.73-48.33 13.88z" data-region="path22" fill="#ffffff"></path><path d="M628.24 944.48c-9.1-2.44-17.59-7.3-25.04-14.34l-6.38-6.01 3.53-9.63a1111 1111 0 0 1 9.14-24.38c.11-.17 7.18.5 15.72 1.5s23.76 1.82 33.82 1.82h18.3l4.24 13.1c2.33 7.22 4.57 15.21 4.98 17.78.71 4.44.5 4.83-4.48 8.4-16.84 12.03-36.7 16.37-53.83 11.76z" data-region="path23" fill="#ffffff"></path><path d="M629.33 964.4c-16.37-3.44-29.27-13.33-32-24.52l-.86-3.5 5.75 4.39c22.05 16.83 52.96 18.26 77.33 3.59 3.68-2.22 6.88-3.84 7.12-3.6 1.18 1.18-7.57 10.92-13.13 14.6-12.15 8.07-30.76 11.86-44.21 9.04z" data-region="path24" fill="#ffffff"></path><path d="M771.91 964.39a72 72 0 0 1-20.49-7.73c-4.95-2.9-15-12.9-15-14.91 0-.6 4.73 1.3 10.52 4.22 11.05 5.58 23.28 8.8 33.4 8.8 13.44 0 30.82-6 40.18-13.87 7.65-6.45 6.27 1.67-1.75 10.25-10.5 11.23-29.92 16.71-46.86 13.24z" data-region="path25" fill="#ffffff"></path><path d="M360.7 963.84a56 56 0 0 1-22.33-11.1c-5.19-4.21-9.47-9.57-8.45-10.58.3-.3 4.11 1.35 8.47 3.67 24.4 12.96 52.38 11.53 73.1-3.73 4-2.93 7.26-4.78 7.26-4.1s-1.35 3.9-3 7.16c-3.56 7.03-11.32 13.33-20.89 16.96-8.77 3.33-24.65 4.13-34.16 1.72z" data-region="path26" fill="#ffffff"></path><path d="M222.91 963.78c-12.92-3.48-22.45-10.27-26.7-19.03-3.85-7.96-3.05-8.4 4.77-2.65 20.73 15.26 48.7 16.69 73.1 3.73 4.36-2.32 8.18-3.97 8.48-3.67 1.01 1.01-3.27 6.37-8.55 10.7-13.32 10.91-34.4 15.42-51.1 10.92z" data-region="path27" fill="#ffffff"></path><path d="M223.81 944.2a100 100 0 0 1-11.5-4.73c-6.87-3.55-17.38-13.3-17.38-16.13 0-1.3 2.23-8.16 4.96-15.23 8.55-22.2 9.48-26.62 9.46-44.72-.02-13.97-1.88-33.62-4.24-44.7l-.68-3.16 8.86 2.11c16.91 4.03 32.75 5.24 48.5 3.7 7.9-.77 15.54-1.7 16.98-2.06l2.61-.66-2.38 7.63a328 328 0 0 0-5.42 21.47c-4.56 20.8-3.78 32.5 3.68 55.35 3.14 9.6 5.8 19.56 5.91 22.15.2 4.5-.12 4.91-7.44 9.85-10.75 7.26-20.07 10.24-33.87 10.84-8.9.4-12.89.01-18.05-1.71z" data-region="path28" fill="#ffffff"></path><path d="m222.2 810.16-13.05-2.6.41-27.95c.23-15.38.8-28.34 1.26-28.8s6.96.28 14.44 1.64a426 426 0 0 0 44.12 5.69l10.08.81-.77 13.4c-2.33 41.14-1.86 37.76-5.38 38.57-1.74.41-11.02.99-20.62 1.29-14.57.46-19.6.12-30.5-2.05z" data-region="path29" fill="#ffffff"></path><path d="M343.66 811.5c-3.9-.58-7.25-1.2-7.45-1.39-.66-.66-2.96-49.16-2.37-50.1.32-.53 7.24-1.32 15.37-1.76s20.15-1.6 26.7-2.6l11.92-1.79 6.36 6.02c3.5 3.3 6.94 6.01 7.64 6.01q1.27.01 1.27 20.85v20.85l-14.14 2.62c-14.81 2.75-31.95 3.23-45.3 1.28z" data-region="path30" fill="#ffffff"></path><path d="M357.38 944.47a74 74 0 0 1-23.89-11.46c-4.98-3.67-5.2-4.09-4.5-8.51.42-2.56 3.26-12.36 6.33-21.77 8.64-26.49 8.4-40.9-1.24-74.17l-2.87-9.92 2.55.67c1.4.37 9.18 1.3 17.28 2.05 16.05 1.51 29.6.46 47.66-3.7l9.43-2.17-.7 2.57c-2.51 9.33-4.53 34.12-4.07 50l.5 17.56 6.36 16.22c8.94 22.81 8.93 22.42 1.18 29.39-14.83 13.33-35.03 18.28-54.02 13.24z" data-region="path31" fill="#ffffff"></path><path d="M410.49 759.43c-5.73-2.07-13.03-8.54-15.83-14.03-1.31-2.57-2.39-4.97-2.39-5.33s28.7-.65 63.78-.65c43.34 0 63.77.4 63.77 1.25 0 3-5.14 10.91-9.01 13.86-8.16 6.23-10.04 6.45-54.76 6.4-29.5-.02-42.69-.46-45.56-1.5z" data-region="path32" fill="#ffffff"></path><path d="M391.07 723.18v-9.03h129.95v18.05H391.07Z" data-region="path33" fill="#ffffff"></path><path d="M391.07 699.71v-7.22h129.95v14.44H391.07Z" data-region="path34" fill="#ffffff"></path><path d="M385.05 676.85v-6.02h143.2v12.04h-143.2z" data-region="path35" fill="#ffffff"></path><path d="M386.26 652.38c0-10.91 3.52-25.11 8.58-34.6 3.48-6.53 17.57-21.55 20.21-21.55.57 0 1.24 2.18 1.5 4.84.39 4.11-.07 5.34-3.04 8.13-9.3 8.72-17.05 26.77-18.42 42.93l-.76 9.08h-8.07z" data-region="path36" fill="#ffffff"></path><path d="M449.79 611.05c-1.65-.43-1.83-1.12-.9-3.54 2.61-6.88.13-21.5-3.86-22.77-4.5-1.43-5.89 1.4-5.05 10.38 1.32 14.25-1.94 18.01-10.4 12.02-2.53-1.79-3.08-3.27-3.4-9.23-.22-3.9-.05-10.37.37-14.38l.76-7.28 12.35-1.38c6.79-.76 14.98-2.28 18.2-3.37l5.87-2 3.41 4.04c8.44 9.97 9.9 17.7 4.55 24.1-2.25 2.7-2.33 2.72-2.37.33-.05-3.29-6.45-13.26-9.58-14.93-2.98-1.6-7.3.23-7.3 3.08 0 1 1.64 3.87 3.65 6.37s3.97 6.5 4.36 8.87c.58 3.57.16 4.86-2.4 7.42-3.04 3.04-4.17 3.35-8.26 2.27z" data-region="path37" fill="#ffffff"></path><path d="M517.4 655.5c-.09-22.39-12.3-44.78-28.94-53.1-3.85-1.93-6.7-3.8-6.33-4.17s1.01-2.36 1.43-4.41l.77-3.74 8.83 4.42c20.35 10.17 31.44 28.8 33.46 56.18l.78 10.53h-9.99z" data-region="path38" fill="#ffffff"></path><path d="M423.36 564.76c-3.67-2.97-16.27-64.7-23.41-114.73-2.6-18.13-2.54-45.86.14-68.57 1.08-9.25 2.18-17.03 2.42-17.28.59-.58 7.96 4.6 9.95 7 6.07 7.31 16.54 33.75 26.72 67.48 7.9 26.17 21.88 80.58 26.54 103.25l2.8 13.67-2.93 2.27c-7.56 5.88-37.46 10.77-42.23 6.91z" data-region="path39" fill="#ffffff"></path><path d="M275.55 749.53c-2.31-.26-10.44-1.06-18.05-1.78-46.16-4.34-84.5-17.4-88.69-30.22-1.82-5.59-.43-19.38 4.6-45.5 3.85-20.04 22.24-95.93 23.89-98.6.8-1.3 2.06-1.35 6.47-.24 3 .76 7.36 1.38 9.67 1.38 5.27 0 6.37 1.56 2.55 3.61-4.14 2.21-8.76 9.69-10.77 17.42-3.03 11.61-4.64 34.94-3.84 55.38 1.16 29.33 5.34 44.82 12.97 48.03 4.46 1.88 9.15.76 12.54-2.99 2.07-2.28 2.17-2.21 4.4 2.79 5.13 11.47 13.33 15.1 19.7 8.72 3.07-3.06 8.89-14.33 8.9-17.25.02-1.02 1.37-.48 3.72 1.5 5.3 4.46 9.09 5.13 12.95 2.27 7.23-5.35 9.35-15.5 11.12-53.17 1.45-30.62.4-50-3.19-58.96-2.16-5.4-7.45-10.54-12.04-11.7-3.64-.9-3.63-1.35.07-4.26 1.63-1.3 3.46-4.35 4.05-6.8 1.68-6.93.88-26.73-1.23-30.77-1.76-3.34-1.64-3.77 3.33-12.03 12.36-20.58 16.49-39.08 10.21-45.77-3.05-3.26-9.07-4.19-13.1-2.03-1.76.94-2.06.3-2.28-4.8-.43-9.82-3.94-14.23-11.4-14.3-3.36-.02-5.3.86-8.16 3.72-3.48 3.48-3.9 3.61-5.89 1.82-4.07-3.68-9.23-4.72-13.2-2.67-1.98 1.02-3.93 2.55-4.32 3.4-.4.83-.41.17-.02-1.49.38-1.65 1-12.58 1.37-24.28.75-23.58-.44-36.9-5.23-58.6-1.66-7.52-2.58-14.12-2.03-14.65 1.3-1.27 18.7-6.09 19.42-5.37.9.9 3.66 18.89 7.34 48.01 2.34 18.41 4.03 27.9 5.1 28.63.9.6 4.33.7 7.64.24 3.31-.47 27.7-.93 54.2-1.03s48.76-.53 49.45-.96 1.62-7.16 2.06-14.96c.78-14.1 4.47-57.23 4.94-57.8.27-.32 17.65 5.46 18.27 6.08.2.2-.43 6.57-1.4 14.14-2.68 20.7-3.6 53.84-1.88 67.98 4.28 35.35 12.78 81.83 21.86 119.66a1046 1046 0 0 0 5.43 21.96c.36 1.16.05 2.11-.69 2.11-2.5 0-13.84 8.06-19.55 13.9-11.91 12.2-18.16 29.53-20.15 55.9-2.24 29.67-1.51 37.3 3.56 37.3 2.18 0 2.31 1.34 2.66 26.17.2 14.39.3 26.32.23 26.5-.08.2-6.3 1.18-13.84 2.21-12.97 1.76-82.93 3.37-93.72 2.15z" data-region="path40" fill="#ffffff"></path><path d="M241.4 698.2c-2.04-3.18-6.12-16.23-7.3-23.37-.84-4.99-.81-5.04 3.04-5.42 7.94-.78 7.32-8.2-.69-8.2-4.94 0-5.23-1.23-6.25-26.78l-.75-18.95h6.66c4.6 0 7.15-.58 8.24-1.9 2.77-3.34-.12-5.87-7.17-6.28l-6.23-.37.76-4.45c1.93-11.16 8.93-18.28 17.97-18.28 5.77 0 12.34 3.78 14.7 8.46 1.82 3.58 1.98 19.26.32 30.04-2.15 13.95-1.7 13.24-8.34 13.24-5.01 0-6.04.4-6.74 2.61-1.07 3.36 2.1 5.81 7.48 5.81 4.57 0 4.6-1.55-.35 21.06-4.41 20.2-9.9 35.5-12.71 35.5-.5 0-1.7-1.22-2.65-2.71z" data-region="path41" fill="#ffffff"></path><path d="M216.01 687.32c-7.45-17.85-7.53-80.25-.1-94.5 2.3-4.43 6.69-8.3 10.5-9.24l3.2-.8-2.79 5.51c-4.57 9.02-5.78 20.2-5.09 46.97.34 13.28 1.3 28.6 2.14 34.06 1.38 8.99 1.31 10.38-.66 14.75-3.4 7.54-5.09 8.3-7.2 3.25z" data-region="path42" fill="#ffffff"></path><path d="M268.44 682.82c-3.83-6.22-4.12-8.65-2.09-17.63 3.23-14.26 7.98-44.29 8.77-55.36 1.18-16.57-2.38-25.76-12.2-31.54-2.06-1.21-1.8-1.31 1.8-.67 11.48 2.03 13.45 7.15 14.15 36.66.78 33.18-2.02 64.7-6.26 70.51-1.5 2.04-1.78 1.9-4.17-1.97z" data-region="path43" fill="#ffffff"></path><path d="M263.01 416.8c-.35-1.57-1.47-10.18-2.5-19.11a858 858 0 0 0-4.25-31.01c-1.3-8.12-2.37-15.52-2.37-16.44 0-1.08 2.07-1.95 5.88-2.47 5.86-.8 5.9-.78 11.4 5.1 10.37 11.08 22.75 15.44 41.22 14.5 14-.7 20.6-3.62 29.47-13.06l6.74-7.17 8.73 1.97 8.73 1.97-.7 4.35c-.4 2.4-1.57 15.72-2.63 29.62s-2.17 27.03-2.48 29.18l-.58 3.91-39.95.01c-21.98 0-43.58.35-48.01.77-7.8.74-8.08.67-8.7-2.11z" data-region="path44" fill="#ffffff"></path><path d="M298.83 357.93c-6.33-1.25-13.61-4.95-18.92-9.6l-4.13-3.63 3.36-3.36c2.15-2.15 3.88-5.7 4.82-9.9l1.47-6.55h41.62l1.46 6.55c.97 4.32 2.67 7.75 5 10.08 1.95 1.95 3.27 4.26 2.93 5.14-1.08 2.82-10.56 8.88-16.78 10.73-6.52 1.94-12.93 2.1-20.83.54z" data-region="path45" fill="#ffffff"></path><path d="M204.8 563.73c-12.3-3.24-22.48-9-31.04-17.53-12.91-12.87-17.05-26.31-15.72-51.01.4-7.63 2.14-20.64 3.85-28.92 6.86-33.27 26.29-81.27 38.3-94.6 5.01-5.59 15.2-12.57 15.2-10.43 0 .55 1.31 7.34 2.92 15.09 8.25 39.8 6.28 74.7-6.46 114.27l-3.77 11.7-4.23-2.03c-4.87-2.32-8.06-1.16-8.7 3.17-.34 2.28 1.48 3.5 13.83 9.32a784 784 0 0 1 14.45 6.9c.12.1-1.25 10.47-3.04 23.03-2.5 17.46-3.67 22.9-5.03 23.1-.98.14-5.73-.79-10.56-2.06z" data-region="path46" fill="#ffffff"></path><path d="M236.45 571.25c-9.99-7.35-9.74-6.47-7.23-25.53 1.22-9.23 2.65-17.48 3.17-18.33.7-1.12 4.83-1.55 14.94-1.55h13.98l3.51 3.93c8.28 9.27.38 13.53-17.14 9.25-4-.98-6.68 2.82-4.66 6.59 1.57 2.93 12.91 5.44 20.13 4.45 5.11-.7 5.18-.66 5.18 2.87 0 6.78-7.04 10.43-13.61 7.06-1.45-.74-4.34-2.96-6.42-4.94-4.75-4.48-8.85-3.82-8.85 1.43 0 3.87 6.42 10.3 12.33 12.36 3.12 1.08 3.32 1.43 1.74 3.01-.98.98-4.14 2.04-7.02 2.36-4.42.49-6 .02-10.05-2.96z" data-region="path47" fill="#ffffff"></path><path d="M234.04 514.42c-.41-1.32-.8-10.39-.86-20.16-.1-18.2 1.42-29.54 4.52-33.54 1.7-2.2 1.83-2.18 4.16.57 3.08 3.64 3.09 8.72.02 33.33a720 720 0 0 0-2.41 20.69c-.02 2.46-4.6 1.7-5.43-.9z" data-region="path48" fill="#ffffff"></path><path d="M252 498.76c1-25.44 4.88-40.9 10.3-40.9 5.44 0 3.57 18.35-4.27 41.92-6.33 19-6.8 18.92-6.02-1.02z" data-region="path49" fill="#ffffff"></path><path d="M264.87 518.15c-3.47-2.23 10.13-39.98 15.08-41.88 6.2-2.38 4.53 9.9-3.62 26.7-6.24 12.88-9.11 16.68-11.46 15.18z" data-region="path50" fill="#ffffff"></path><path d="M175.7 354.07c2.97-4.89 2.97-6.52-.02-15.03-2.81-8-3.03-12.24-.8-15.3 1.53-2.07 1.93-2.1 6.93-.3a68 68 0 0 0 9.81 2.63c4.39.71 4.52.88 4.51 5.8-.01 7.2-2 13.41-5.7 17.82-3.25 3.85-11.18 8.21-15.03 8.26-1.92.03-1.9-.29.3-3.88z" data-region="path51" fill="#ffffff"></path><path d="M187.01 315.36c-3.61-1.58-8.92-7.13-8.92-9.34 0-2.18 5.97-7 8.67-7 8.9.03 17.8 5.67 17.8 11.3 0 6-9.26 8.65-17.55 5.04z" data-region="path52" fill="#ffffff"></path><path d="M205.76 295.55c-4.38-3.19-10.4-4.96-16.88-4.96h-5.69l-2.5-6.91c-2.44-6.78-4.99-15.66-5-17.45 0-.5 1.36-.9 3.04-.9 1.67 0 6.34-1.11 10.36-2.47 4.03-1.36 7.4-2.3 7.49-2.1 4.16 9.37 11.49 22.22 15.25 26.76l4.93 5.95-2.8 2.14c-3.47 2.68-4.44 2.67-8.2-.06z" data-region="path53" fill="#ffffff"></path><path d="m399.1 295.92-4.4-2.99 5.43-6.66c2.99-3.67 7.6-10.96 10.23-16.21s5.2-9.53 5.7-9.5c.48.01 3.86 1.08 7.5 2.36s8.13 2.34 9.98 2.37c3.23.03 3.33.22 2.54 4.55a99 99 0 0 1-3.37 11.73c-2.27 6.46-2.92 7.26-6.15 7.58-6.89.68-16.1 3.89-19.57 6.81l-3.5 2.94z" data-region="path54" fill="#ffffff"></path><path d="M409.69 314.62c-5.95-6.56 8.41-17.84 19.26-15.11 3.84.96 5.26 5.99 2.9 10.25-3.76 6.76-17.68 9.82-22.16 4.86z" data-region="path55" fill="#ffffff"></path><path d="M430.13 355.72c-8.83-4.01-13.77-12.5-13.78-23.68-.01-4.83.04-4.88 5.7-6.17a74 74 0 0 0 9.61-2.9c3.52-1.45 4.06-1.38 5.68.76 2.46 3.25 2.3 7.8-.55 15-3 7.64-3.01 10.42 0 15.34 2.18 3.6 2.2 3.9.29 3.88-1.15-.01-4.28-1.02-6.95-2.23z" data-region="path56" fill="#ffffff"></path></svg>