<?xml version="1.0"?>
<svg xmlns="http://www.w3.org/2000/svg" xmlns:svg="http://www.w3.org/2000/svg" viewBox="0 0 1024 1024" preserveAspectRatio="xMidYMid" version="1.0"><path fill="#1a1a1a" d="m656.36 280.97.32-4.04a269 269 0 0 0-14.22-109.4.5.5 0 0 0-.44-.34.4.4 0 0 0-.39.2c-11.2 19.82-30.92 36.89-52.73 45.66-22.22 8.94-48.15 9.89-71.15 2.61a5.4 5.4 0 0 1-3.78-4.5 5.4 5.4 0 0 1 2.49-5.32 145 145 0 0 0 49.26-53.3c-25.16 32.41-61.14 52.03-100.46 54.34-1.42.1-2.69-.82-3.05-2.21s.3-2.8 1.6-3.43a130.5 130.5 0 0 0 56.3-52.36 234 234 0 0 1-49.47 39.06c-9.33 5.51-16.87 12.58-22.4 21.03a243 243 0 0 0-22.67 43.77 4.05 4.05 0 0 1-4.05 2.57 4 4 0 0 1-3.72-3.04 37.4 37.4 0 0 0-19.2-23.69 37.2 37.2 0 0 0-36.1 2.17l-1.9 1.23-1.16-1.93c-22.24-36.92-19.03-87.94 7.99-126.97C391.74 67.98 434 43.7 480.5 38.14c41.77-4.98 86.44 4.1 129.19 26.26 29.45 15.27 52.68 34.1 69.04 55.95 19.3 25.78 28.72 55.7 26.55 84.23-2.42 31.7-19.8 60.22-45.37 74.43zm-14.4-118.14.45.02a4.8 4.8 0 0 1 4.15 3.23 274 274 0 0 1 14.75 107.04c22.38-14.1 37.44-40.1 39.63-68.87 2.1-27.49-7.03-56.35-25.7-81.29-15.96-21.33-38.7-39.73-67.56-54.7-41.96-21.75-85.76-30.68-126.66-25.8-45.28 5.4-86.4 29-110.02 63.1-25.59 36.98-29.08 85.04-8.94 120.36 11.6-6.62 26.45-7.16 38.45-1.24 10.19 5.01 18.1 14.61 21.3 25.76a247 247 0 0 1 22.79-43.86c5.9-9 13.92-16.54 23.83-22.4a229 229 0 0 0 55.44-45.8 2.96 2.96 0 0 1 3.88-.52 3 3 0 0 1 1.06 3.78 135 135 0 0 1-56.86 60.3c39.24-4.45 74.51-26.86 97.6-62.28a3.25 3.25 0 0 1 4.26-1.1 3.2 3.2 0 0 1 1.46 4.13v0a149.6 149.6 0 0 1-56.47 66.82 1.1 1.1 0 0 0-.52 1.08c.03.22.16.72.78.92 22.06 6.98 46.92 6.07 68.22-2.5 20.93-8.41 39.83-24.78 50.57-43.77a4.7 4.7 0 0 1 4.11-2.4zm-68.7-20.99h.02zm0 0" stroke="#1a1a1a" stroke-width="4" stroke-linecap="round" stroke-linejoin="round" data-locked="true"></path><path fill="#1a1a1a" d="M542.4 419.35c-29.76 0-59.3-9.35-83.63-26.55-24.06-17-42.8-41.7-52.8-69.52a4.8 4.8 0 0 0-4.18-3.3c-20.45-1.1-40.16-13.43-49.06-30.7-11.84-23-9.27-45.56 7.04-61.89a2.17 2.17 0 0 1 3.07 3.08c-20.38 20.4-12.65 44.35-6.24 56.81 8.21 15.95 26.46 27.34 45.43 28.36a9.1 9.1 0 0 1 8.04 6.17 142 142 0 0 0 51.2 67.43 141 141 0 0 0 85.5 25.69c18.41-.59 35.5-4.96 49.38-12.64 15.74-8.7 27.75-21.8 33.8-36.87 4.01-9.95 5.5-20.95 6.96-31.6q.67-5.1 1.46-10.16c2.68-16.76 9.07-38.2 18.94-48.1a2.18 2.18 0 0 1 3.08 3.08c-9.15 9.17-15.15 29.63-17.73 45.71q-.78 5.01-1.44 10.06c-1.49 10.9-3.03 22.18-7.23 32.64-6.43 16-19.13 29.87-35.74 39.05-14.49 8.01-32.24 12.57-51.34 13.17q-2.25.08-4.5.08zm0 0" stroke="#1a1a1a" stroke-width="4" stroke-linecap="round" stroke-linejoin="round" data-locked="true"></path><path fill="#1a1a1a" d="M398.62 291.62q-.15 0-.28-.02a2.2 2.2 0 0 1-1.88-2.43 57 57 0 0 0-5.34-31.99c-2.14-4.34-5.8-9.75-11.12-10.88-3.02-.64-6.47.16-9.47 2.18-2.63 1.76-4.94 4.38-7.05 7.99a2.18 2.18 0 0 1-3.75-2.2c2.45-4.2 5.19-7.27 8.37-9.4 3.98-2.68 8.65-3.7 12.8-2.83 5.64 1.2 10.4 5.65 14.12 13.22a61.5 61.5 0 0 1 5.75 34.46 2.2 2.2 0 0 1-2.15 1.9zm0 0" stroke="#1a1a1a" stroke-width="4" stroke-linecap="round" stroke-linejoin="round" data-locked="true"></path><path fill="#1a1a1a" d="M452.93 720.2q-.72 0-1.45-.18c-20.82-5.06-38.9-19.29-48.57-38.16-20.32-4.73-39.3-24.66-51.73-40.7-16.84-21.72-33.59-62.33-37.34-90.52-3.57-26.86-1.99-51.1 4.7-72.05 7.76-24.36 22.62-44.37 41.83-56.34 6.69-4.17 13.97-7.4 21-10.54 8.27-3.67 16.82-7.47 24.2-12.74 13.7-9.76 24.33-28.69 17.63-42.27a2.18 2.18 0 0 1 3.9-1.92c7.81 15.83-3.53 36.7-19 47.74-7.74 5.52-16.5 9.4-24.95 13.17-6.9 3.07-14.05 6.24-20.48 10.26-18.34 11.42-32.54 30.58-40 53.96-6.48 20.34-8 43.94-4.52 70.16 3.67 27.55 20.02 67.21 36.46 88.42 11.87 15.31 29.82 34.28 48.66 38.98 10.83-30.78 37.73-59.43 70.69-75.12a9 9 0 0 1 10.4 2.12c6.7 7.28 13.55 14.3 19.95 20.8a6.5 6.5 0 0 1-1.92 10.46 76 76 0 0 0-34.23 31.37 76 76 0 0 0-9.14 46.29 6 6 0 0 1-2 5.24 6.2 6.2 0 0 1-4.09 1.57zm-46-40.02a70.6 70.6 0 0 0 45.58 35.61c.58.14 1.18 0 1.63-.4.25-.23.65-.72.56-1.47a80.3 80.3 0 0 1 9.68-48.96 80.3 80.3 0 0 1 36.2-33.18 2.1 2.1 0 0 0 1.21-1.55c.13-.7-.08-1.4-.58-1.9a894 894 0 0 1-20.05-20.9 4.6 4.6 0 0 0-5.34-1.15c-32.4 15.43-58.73 43.7-68.89 73.9zm0 0" stroke="#1a1a1a" stroke-width="4" stroke-linecap="round" stroke-linejoin="round" data-locked="true"></path><path fill="#1a1a1a" d="M469.49 609.22c-.73 0-1.45-.37-1.85-1.04-5.36-8.67-11.68-21.47-18.37-35.02-11.03-22.32-23.52-47.62-36.2-64.18-19.56-25.54-44.92-42.55-77-60.22a2.18 2.18 0 0 1 2.1-3.81c32.55 17.94 58.33 35.24 78.35 61.38 12.94 16.9 25.53 42.4 36.65 64.9 6.64 13.46 12.92 26.17 18.17 34.67a2.17 2.17 0 0 1-1.85 3.32zm0 0" stroke="#1a1a1a" stroke-width="4" stroke-linecap="round" stroke-linejoin="round" data-locked="true"></path><path fill="#1a1a1a" d="M556.52 660.85c-1.2 0-2.17-.97-2.17-2.17 0-46.25-.1-84.9-1.3-126.08-.62-21.16-1.26-43.04-8.7-63.16-7.57-20.51-21.76-35.7-38.49-41.44 7.14 20.72 12.7 43.3 16.57 67.18a11.66 11.66 0 0 1-10.91 13.49 476 476 0 0 1-65.3-1.04 11.7 11.7 0 0 1-9.67-7.04c-14.79-33.75-34.2-62.17-57.71-84.45a2.18 2.18 0 0 1 3-3.16c23.92 22.68 43.68 51.57 58.7 85.86a7.4 7.4 0 0 0 6.06 4.46 472 472 0 0 0 64.7 1.02 7.3 7.3 0 0 0 6.84-8.44c-4.08-25.17-10.05-48.87-17.78-70.43l-1.37-3.83 3.94.98c19.83 4.91 36.84 21.86 45.5 45.32 7.69 20.8 8.34 43.04 8.97 64.55 1.2 41.24 1.3 79.92 1.3 126.2 0 1.2-.97 2.18-2.18 2.18zm0 0" stroke="#1a1a1a" stroke-width="4" stroke-linecap="round" stroke-linejoin="round" data-locked="true"></path><path fill="#1a1a1a" d="M503.99 430.26q-.78 0-1.43-.53a19.6 19.6 0 0 1-5.73-20.21 2.2 2.2 0 0 1 2.73-1.43 2.2 2.2 0 0 1 1.42 2.74 15.2 15.2 0 0 0 4.43 15.6 2.18 2.18 0 0 1-1.42 3.83zm0 0" stroke="#1a1a1a" stroke-width="4" stroke-linecap="round" stroke-linejoin="round" data-locked="true"></path><path fill="#1a1a1a" d="M470.68 458.06q-2.14 0-4.42-.22c-13.2-1.3-26.77-7.65-39.21-18.34-10.99-9.45-19.91-21.01-28.54-32.2a2.18 2.18 0 0 1 3.44-2.66c8.5 11.01 17.28 22.4 27.93 31.56 8.2 7.04 21.25 15.77 36.81 17.3 5 .5 12.14.32 17.75-3.32 5.01-3.26 7.85-8.6 9.35-12.51 1.97-5.18 2.86-10.85 3.72-16.35a2.17 2.17 0 1 1 4.3.68c-.9 5.71-1.83 11.62-3.96 17.22-2.48 6.47-6.3 11.52-11.05 14.6-4.3 2.8-9.81 4.24-16.12 4.24zm0 0" stroke="#1a1a1a" stroke-width="4" stroke-linecap="round" stroke-linejoin="round" data-locked="true"></path><path fill="#1a1a1a" d="M470.64 476.73a69 69 0 0 1-18.24-2.68c-18.87-5.2-36.8-16.41-49.21-30.78a2.18 2.18 0 0 1 3.29-2.85c11.86 13.73 29.01 24.46 47.07 29.43 11.49 3.16 21.55 3.35 29.92.57 9.21-3.07 22.75-14.15 23.15-26.16.03-1.18 1-2.11 2.16-2.11h.08a2.2 2.2 0 0 1 2.1 2.25c-.46 14.15-15.46 26.6-26.12 30.15a45 45 0 0 1-14.2 2.18zm0 0" stroke="#1a1a1a" stroke-width="4" stroke-linecap="round" stroke-linejoin="round" data-locked="true"></path><path fill="#1a1a1a" d="M649.91 741.41c-12.03 0-24.05-1.45-35.72-4.33-3.9-.96-7.82-2.09-11.59-3.18-5.87-1.7-11.94-3.45-18-4.56-8.98-1.65-18.36-1.95-27.42-2.24-4.79-.15-9.73-.3-14.6-.66-29.81-2.16-58.48-11.6-86.2-20.71a2.18 2.18 0 0 1 1.35-4.14c27.48 9.04 55.89 18.39 85.17 20.5 4.78.35 9.67.5 14.41.66 9.23.3 18.78.6 28.08 2.3 6.27 1.16 12.44 2.94 18.42 4.67 3.73 1.08 7.6 2.2 11.41 3.13a145 145 0 0 0 35.95 4.2c10.14-.09 16.62-2.62 19.28-7.52a2.2 2.2 0 0 1 2.95-.88c1.05.57 1.44 1.9.87 2.95-3.46 6.4-11.22 9.7-23.07 9.8zm0 0" stroke="#1a1a1a" stroke-width="4" stroke-linecap="round" stroke-linejoin="round" data-locked="true"></path><path fill="#1a1a1a" d="M664.13 731.93c-4.82 0-9.92-1.12-18.35-2.98l-4.42-.97a2.17 2.17 0 0 1 .92-4.25l4.43.97c12.18 2.68 16.74 3.69 23.62 2.15 4.49-1 8.05-3.94 9.06-7.5a2.17 2.17 0 1 1 4.18 1.2c-1.45 5.07-6.27 9.2-12.3 10.55a32 32 0 0 1-7.14.83zm0 0" stroke="#1a1a1a" stroke-width="4" stroke-linecap="round" stroke-linejoin="round" data-locked="true"></path><path fill="#1a1a1a" d="M677.37 719.95c-12.03 0-23.94-2.14-35.5-4.22a2.17 2.17 0 1 1 .77-4.28c12.64 2.28 25.73 4.62 38.68 4.07 2.13-.1 4.58-.28 6.54-1.27 1.47-.75 2.96-2.28 2.94-4.02 0-1.24-.79-2.59-2.1-3.6-1.4-1.09-3.16-1.73-5-2.35a119 119 0 0 0-39.36-6.24h-.02a2.17 2.17 0 0 1-.02-4.35 124 124 0 0 1 40.78 6.46c2.12.72 4.36 1.54 6.29 3.04 2.4 1.85 3.77 4.41 3.78 7.02.02 3.16-2.07 6.27-5.32 7.92-2.74 1.39-5.73 1.62-8.33 1.73q-2.06.1-4.13.1zm0 0" stroke="#1a1a1a" stroke-width="4" stroke-linecap="round" stroke-linejoin="round" data-locked="true"></path><path fill="#1a1a1a" d="M688.34 705.34a2.17 2.17 0 0 1-1.1-4.05c1.9-1.1 2.09-4.24 1-6.31-1.38-2.63-4.26-4.4-6.85-5.85a127 127 0 0 0-34.77-13.05 3.27 3.27 0 0 1 .27-6.41 55 55 0 0 0 13.16-3.63c1.72-.72 3.56-1.65 4.19-3.1.65-1.53-.2-3.46-1.39-4.56-1.27-1.19-3.15-2-5.92-2.58-10.83-2.24-22.23.8-31.94 4.07-2.6.87-5.24 1.88-7.8 2.86-8.1 3.07-16.46 6.24-25.33 6.24-31.07 0-77.37-21.18-97.14-30.23a2.17 2.17 0 1 1 1.8-3.95c17.84 8.16 65.22 29.83 95.34 29.83 8.07 0 16.06-3.03 23.77-5.96 2.6-1 5.3-2.01 7.97-2.91 10.27-3.46 22.36-6.67 34.21-4.21 2.26.47 5.54 1.35 8 3.66 2.72 2.54 3.72 6.42 2.42 9.45-1.24 2.9-4.13 4.41-6.51 5.4a59 59 0 0 1-9.2 2.97 129 129 0 0 1 31 12.31c3.36 1.9 6.72 4.12 8.56 7.62 2.06 3.9 1.49 9.7-2.66 12.1q-.53.3-1.08.3zm0 0" stroke="#1a1a1a" stroke-width="4" stroke-linecap="round" stroke-linejoin="round" data-locked="true"></path><path fill="#1a1a1a" d="M736.09 685.52c-5.95 0-11.7-1.14-16.3-2.25-6.86-1.67-8.55-4.96-8.76-7.43-.2-2.33 1-4.78 3.13-6.37 1.73-1.3 3.7-1.88 5.6-2.33 10.04-2.37 20.28-1.54 30.18-.73 4.25.35 6.24 2.23 7.15 3.74a7.3 7.3 0 0 1 .42 6.38c-.9 2.11-2.7 3.87-5.51 5.37-5 2.7-10.54 3.62-15.91 3.62zm-1.42-15.58c-4.7 0-9.37.36-13.92 1.44-1.43.33-2.9.76-3.99 1.57-.9.68-1.47 1.7-1.4 2.51.17 2 3.5 3.1 5.45 3.58 8.08 1.96 19.9 4 29.13-.97q2.84-1.52 3.57-3.25a3 3 0 0 0-.15-2.42c-.7-1.16-2.44-1.54-3.77-1.65-4.93-.4-9.94-.8-14.92-.8zm0 0" stroke="#1a1a1a" stroke-width="4" stroke-linecap="round" stroke-linejoin="round" data-locked="true"></path><path fill="#1a1a1a" d="M722.9 701.76c-2.75 0-5.7-.35-8.4-1.73-3.5-1.79-6.59-5.92-5.74-10.38.53-2.71 2.47-5.17 5.32-6.75 2.16-1.19 6.78-2.96 10.6-2.96a2.17 2.17 0 1 1 0 4.35c-2.83 0-6.68 1.42-8.5 2.42-1.7.94-2.87 2.34-3.14 3.77-.45 2.31 1.44 4.65 3.44 5.68 2.57 1.32 5.79 1.34 8.58 1.18a65 65 0 0 0 13.17-2.12c2.84-.76 6.42-1.94 8.86-4.3 1.85-1.8 3.34-4.97 2.23-7.68a2.18 2.18 0 0 1 4.03-1.65c1.88 4.62-.27 9.58-3.24 12.45-3.15 3.06-7.4 4.5-10.75 5.39a69 69 0 0 1-16.46 2.33zm0 0" stroke="#1a1a1a" stroke-width="4" stroke-linecap="round" stroke-linejoin="round" data-locked="true"></path><path fill="#1a1a1a" d="M720.6 715.38q-1.08 0-2.19-.04c-1.8-.06-7.28-.25-9.56-4.35-1.41-2.56-1.06-5.98.91-8.74 1.58-2.21 3.8-3.66 5.76-4.93a2.17 2.17 0 1 1 2.37 3.65c-1.71 1.12-3.49 2.27-4.59 3.81-.79 1.1-1.33 2.86-.64 4.1q1.06 1.95 5.9 2.1c7.5.27 13.44-.87 18.15-3.47 5.6-3.08 9.27-8.56 9.37-13.95.02-1.2.92-2.14 2.2-2.14a2.2 2.2 0 0 1 2.14 2.22c-.12 6.92-4.68 13.86-11.61 17.69-4.94 2.72-10.91 4.05-18.22 4.05zm0 0" stroke="#1a1a1a" stroke-width="4" stroke-linecap="round" stroke-linejoin="round" data-locked="true"></path><path fill="#1a1a1a" d="M724.12 725q-1.72 0-3.4-.28-4.67-.77-6.74-3.63c-2.38-3.27-1.66-6.24-1.02-8.86a2.18 2.18 0 0 1 4.23 1.03c-.65 2.69-.79 3.76.31 5.28.84 1.16 2.6 1.67 3.92 1.89 4.32.71 9-.39 12.54-2.95 3.66-2.66 5.95-8 6.58-12.1a2.17 2.17 0 1 1 4.3.66c-.72 4.64-3.33 11.35-8.33 14.96a21.2 21.2 0 0 1-12.4 4zm0 0" stroke="#1a1a1a" stroke-width="4" stroke-linecap="round" stroke-linejoin="round" data-locked="true"></path><path fill="#1a1a1a" d="M726.27 669.38c-.55 0-1.1-.21-1.53-.63-3.2-3.16-2.62-8.2-.44-11.33 2.2-3.15 5.7-4.84 8.52-5.96a55 55 0 0 1 9.45-2.81c1.76-.36 3.64-.58 5.47.14 2.26.92 3.9 3.1 4.72 6.34 1.06 4.15.82 8.66-.69 12.67a2.18 2.18 0 0 1-4.07-1.53 17 17 0 0 0 .55-10.06c-.27-1.05-.9-2.88-2.13-3.37-.8-.33-1.96-.13-3 .08-2.96.6-5.89 1.47-8.7 2.58-2.24.9-5.02 2.2-6.55 4.4-1.16 1.68-1.47 4.38-.07 5.76a2.17 2.17 0 0 1-1.53 3.72zm0 0" stroke="#1a1a1a" stroke-width="4" stroke-linecap="round" stroke-linejoin="round" data-locked="true"></path><path fill="#1a1a1a" d="M700.49 650.68q-5.49 0-11.2-.45c-24.78-1.96-50.6-10.73-49.61-23.13.44-5.6 6.28-10 16.9-12.77 9.73-2.52 22.41-3.33 35.73-2.28 24.78 1.96 50.59 10.73 49.6 23.13-.43 5.6-6.28 10.01-16.9 12.77-6.95 1.8-15.4 2.73-24.52 2.73zM644 627.45c-.55 6.97 18.05 16.26 45.62 18.44 12.85 1.02 25.02.25 34.3-2.16 8.28-2.15 13.38-5.47 13.65-8.9.55-6.97-18.05-16.26-45.62-18.44-12.85-1.02-25.02-.25-34.3 2.16-8.27 2.15-13.38 5.47-13.65 8.9zm0 0" stroke="#1a1a1a" stroke-width="4" stroke-linecap="round" stroke-linejoin="round" data-locked="true"></path><path fill="#1a1a1a" d="M683.24 780.32q-4.48 0-9.03-.36c-28.8-2.28-46.85-10.88-45.98-21.91.73-9.23 1.4-19.96 1.4-20.07a2.14 2.14 0 0 1 2.31-2.04c1.2.08 2.11 1.1 2.04 2.3 0 .12-.68 10.9-1.41 20.15-.53 6.7 14 15.02 41.99 17.23 12.29.97 24.87-.2 34.48-3.22 8.4-2.64 13.8-6.48 14.07-10.02.74-9.35 3.33-40.28 3.33-40.28l4.32.36s-2.57 30.92-3.31 40.26c-.44 5.6-6.51 10.5-17.1 13.83-7.88 2.48-17.27 3.77-27.1 3.77zm0 0" stroke="#1a1a1a" stroke-width="4" stroke-linecap="round" stroke-linejoin="round" data-locked="true"></path><path fill="#1a1a1a" d="M739.26 652.84h-.16a2.17 2.17 0 0 1-2.02-2.33c.16-2.17.2-5.08.25-7.9.04-2.87.09-5.85.25-8.13a2.17 2.17 0 1 1 4.34.3c-.15 2.17-.2 5.09-.24 7.9-.05 2.88-.1 5.86-.26 8.14a2.17 2.17 0 0 1-2.16 2.02zm0 0" stroke="#1a1a1a" stroke-width="4" stroke-linecap="round" stroke-linejoin="round" data-locked="true"></path><path fill="#1a1a1a" d="M640.1 655.82h-.15a2.2 2.2 0 0 1-2.02-2.32l1.74-26.37a2.17 2.17 0 1 1 4.34.28l-1.74 26.38a2.2 2.2 0 0 1-2.17 2.03zm0 0" stroke="#1a1a1a" stroke-width="4" stroke-linecap="round" stroke-linejoin="round" data-locked="true"></path><path fill="#1a1a1a" d="m697.53 596.76-3.88-1.96c8.17-18.53 22.18-34.39 35.72-49.72q4.38-4.94 8.6-9.83c9.04-10.52 23.13-24.77 41.16-27.03 7.7-.97 16.78 1.34 19.67 8.7 1.96 4.96.4 11.12-3.98 15.7-3.72 3.91-8.67 6.16-13.04 8.14l-1.93.87c-14.65 6.63-29.8 13.5-43.23 22.62a513 513 0 0 1-7.09 4.7c-12.13 7.99-25.88 17.03-32 27.8zm84.9-84.4q-1.4 0-2.75.18c-16.55 2.07-29.85 15.57-38.4 25.54q-4.25 4.92-8.65 9.88c-8.96 10.15-18.13 20.52-25.58 31.69 6.24-5.22 13.4-9.93 20.1-14.33q3.61-2.37 7.03-4.68c13.73-9.33 29.06-16.26 43.88-22.98l1.93-.87c4-1.81 8.54-3.87 11.7-7.17 2.62-2.75 4.59-7.25 3.07-11.1-1.72-4.37-7.16-6.16-12.32-6.16zm0 0" stroke="#1a1a1a" stroke-width="4" stroke-linecap="round" stroke-linejoin="round" data-locked="true"></path><path fill="#1a1a1a" d="M694.15 626.6c-1.1 0-2.04-.84-2.16-1.95-2.36-21.9 3.6-45.98 16.74-67.8 4.44-7.36 9.58-14.36 14.56-21.12q3.06-4.17 6.14-8.46c4.35-11.86 3.56-27.99 2.88-42.24q-.22-4.22-.36-8.09c-.54-16.31.2-33.27 9.17-46.81 3.36-5.08 7.28-7.72 11.5-7.61 5.4.12 9.18 4.71 10.93 8.96 3 7.29 2.28 15.23 1.06 22.73a177 177 0 0 1-31.32 75.14q-.16.34-.42.6a704 704 0 0 1-6.08 8.35c-4.92 6.7-10 13.6-14.33 20.8-12.66 21-18.4 44.12-16.15 65.09a2.2 2.2 0 0 1-1.93 2.4zm58.26-199.73c-3.23 0-5.95 3.07-7.66 5.66-8.3 12.53-8.97 28.68-8.45 44.27q.14 3.83.35 8.03c.5 10.47 1.06 21.94-.36 32.27a173 173 0 0 0 24.03-63.6c1.11-6.86 1.8-14.07-.8-20.36-1.16-2.85-3.7-6.2-7-6.27zm0 0" stroke="#1a1a1a" stroke-width="4" stroke-linecap="round" stroke-linejoin="round" data-locked="true"></path><path fill="#1a1a1a" d="m713.21 554.95-.26-.01a2.45 2.45 0 0 1-2.18-2.25c-.73-9.06-4.52-20.6-9.66-29.4l-1.98-3.34c-4.86-8.17-9.88-16.6-10.97-26.3-.64-5.67 1.15-12.11 6.6-13.71 4.68-1.38 9.59 1.54 13.42 8 10.77 18.13 13.67 43.74 7.4 65.23a2.5 2.5 0 0 1-2.37 1.78zm1.9-2.6zM697 483.97q-.51 0-1.01.15c-2.88.84-3.94 5.19-3.5 9.05.97 8.75 5.75 16.79 10.38 24.56l1.99 3.37a84 84 0 0 1 8.62 21.58c2.9-18.14-.37-37.9-9.04-52.52-1.85-3.12-4.68-6.19-7.44-6.19zm0 0" stroke="#1a1a1a" stroke-width="4" stroke-linecap="round" stroke-linejoin="round" data-locked="true"></path><path fill="#1a1a1a" d="M702.54 574.37c-.88 0-1.71-.48-2.15-1.3-3.5-6.56-9.4-13.65-16.63-19.97q-1.62-1.4-3.3-2.73a56 56 0 0 1-6.72-6.04c-3.81-4.25-5.65-9.05-5.16-13.51.56-5.16 5.2-10.48 11.03-9.91 4.45.45 7.52 3.96 9.7 6.96 7.09 9.78 15.55 25.34 15.69 44.02a2.46 2.46 0 0 1-2.46 2.48zm-23.78-49.15c-2.96 0-5.55 3.15-5.86 6.07-.47 4.34 2.35 8.2 4.08 10.12a52 52 0 0 0 6.21 5.57q1.75 1.38 3.43 2.84a88 88 0 0 1 13.5 14.66c-1.9-14.24-8.59-26.14-14.33-34.05-1.64-2.27-3.88-4.92-6.61-5.2zm0 0" stroke="#1a1a1a" stroke-width="4" stroke-linecap="round" stroke-linejoin="round" data-locked="true"></path><path fill="#1a1a1a" d="m700.98 598.66-6.48-5.04-3.68-2.9c-7.64-6.05-17.15-13.58-27.65-17.9q-1.42-.59-2.87-1.13c-2.85-1.1-5.8-2.22-8.5-3.95-4.5-2.86-7.29-6.96-7.67-11.23a10.6 10.6 0 0 1 2.71-7.9 8.4 8.4 0 0 1 6.15-2.89h.06c2.45 0 4.61 1.1 6.45 2.13a88.6 88.6 0 0 1 38.34 43.22zm-47.93-48.59h-.03a4.2 4.2 0 0 0-2.97 1.47 6.3 6.3 0 0 0-1.59 4.59c.26 2.91 2.32 5.8 5.67 7.94 2.34 1.49 4.95 2.5 7.73 3.56q1.5.56 2.97 1.17c9.38 3.86 17.84 10.02 24.99 15.6a84.3 84.3 0 0 0-32.45-32.76c-1.42-.8-2.92-1.57-4.32-1.57zm0 0" stroke="#1a1a1a" stroke-width="4" stroke-linecap="round" stroke-linejoin="round" data-locked="true"></path><path fill="#1a1a1a" d="M741.29 614.73a17 17 0 0 1-3.37-.33c-5.43-1.05-10.11-3.89-14.64-6.62a95 95 0 0 0-5.49-3.18c-6.42-3.38-15.04-5.12-21.83-6.27a2.5 2.5 0 0 1-2.06-1.97 2.5 2.5 0 0 1 1.05-2.64c13.93-9.45 33.2-10.41 47.95-2.4 3.91 2.11 6.5 4.35 8.16 7.04 2.32 3.76 2.48 8.3.4 11.58-2.25 3.56-6.39 4.79-10.17 4.79zm-39.83-19.82c6.1 1.2 12.87 2.95 18.35 5.83 1.96 1.03 3.87 2.19 5.72 3.3 4.4 2.67 8.55 5.18 13.22 6.1 3.3.63 7.37.1 9.04-2.53 1.35-2.14.76-5.03-.43-6.96-1.25-2.02-3.32-3.77-6.53-5.51-11.97-6.5-27.24-6.47-39.37-.23zm-4.07 2.41q0 0 0 0t0 0zm0 0" stroke="#1a1a1a" stroke-width="4" stroke-linecap="round" stroke-linejoin="round" data-locked="true"></path><path fill="#1a1a1a" d="m695.39 587.97 9.74-6.65c7.52-5.14 23.4-10.98 31.64-13.45 9.94-2.97 19.97-1.74 26.84 3.31 2.11 1.54 3.52 3.18 4.31 5a7.5 7.5 0 0 1-.57 7.43c-2 2.73-5.61 3.56-10.73 2.46-2.34-.5-4.66-1.1-6.92-1.7-4.06-1.07-7.9-2.08-11.9-2.52-6-.67-20.75.95-30.94 3.38zm39.02-10.62q2.2 0 3.88.17c4.3.48 8.48 1.58 12.52 2.64 2.2.58 4.48 1.18 6.72 1.66 2.25.48 5.19.74 6.31-.79.55-.75.6-2 .1-3.1q-.7-1.63-2.9-3.24c-5.78-4.24-14.4-5.23-23.02-2.65a189 189 0 0 0-17.6 6.37 116 116 0 0 1 14-1.06zm0 0" stroke="#1a1a1a" stroke-width="4" stroke-linecap="round" stroke-linejoin="round" data-locked="true"></path><path fill="#1a1a1a" d="M591.47 668.5h-.24a2.2 2.2 0 0 1-1.92-2.4c2.47-22.63 16.32-44.38 36.16-56.78a4 4 0 0 0 1.9-3.1 4 4 0 0 0-1.34-3.3c-8.08-7.2-15.95-10.26-23.36-9.1-8.26 1.3-14.9 7.9-19.17 12.76-12.05 13.7-20.9 27.97-24.91 40.17a2.17 2.17 0 1 1-4.13-1.36c5.66-17.2 18.58-33.5 25.78-41.69 4.71-5.36 12.1-12.67 21.75-14.18 8.76-1.36 17.83 2.05 26.93 10.14a8.34 8.34 0 0 1-1.15 13.36c-18.73 11.7-31.8 32.22-34.14 53.55a2.2 2.2 0 0 1-2.16 1.94zm0 0" stroke="#1a1a1a" stroke-width="4" stroke-linecap="round" stroke-linejoin="round" data-locked="true"></path><path fill="#1a1a1a" d="M602.33 593.85c-.85 0-1.66-.5-2-1.34-4.7-11.3-8.54-23.3-12.6-36-9.92-31.09-21.16-66.32-48.99-99.22a2.18 2.18 0 0 1 3.32-2.81c28.39 33.56 39.77 69.23 49.81 100.7 4.03 12.62 7.84 24.54 12.47 35.66a2.17 2.17 0 0 1-2 3.01zm0 0" stroke="#1a1a1a" stroke-width="4" stroke-linecap="round" stroke-linejoin="round" data-locked="true"></path><path fill="#1a1a1a" d="M641.82 627.02q-.23 0-.47-.05c-7.31-1.64-14.03-6.45-18.42-13.2a2.18 2.18 0 0 1 3.64-2.38c3.78 5.8 9.52 9.94 15.73 11.33a2.17 2.17 0 0 1-.48 4.3zm0 0" stroke="#1a1a1a" stroke-width="4" stroke-linecap="round" stroke-linejoin="round" data-locked="true"></path><path fill="#1a1a1a" d="M484.07 911.84c-.7 0-1.37-.33-1.79-.93-18.62-26.7-51.6-39.66-81.41-48.83q-5.72-1.75-11.5-3.47c-27.69-8.28-56.3-16.85-78.82-35.4-24.4-20.13-40.87-51.94-46.4-89.6-5.06-34.48-.88-69.29 4.39-101.77 7.85-48.36 21.1-110.64 54.12-163.49a2.17 2.17 0 1 1 3.68 2.31c-32.6 52.19-45.73 113.92-53.5 161.88-5.22 32.14-9.37 66.55-4.39 100.45 5.37 36.58 21.3 67.42 44.86 86.85 21.84 18 50.04 26.44 77.3 34.6q5.8 1.72 11.54 3.48c30.52 9.39 64.33 22.72 83.7 50.5a2.18 2.18 0 0 1-1.78 3.42zm0 0" stroke="#1a1a1a" stroke-width="4" stroke-linecap="round" stroke-linejoin="round" data-locked="true"></path><path fill="#1a1a1a" d="M303.04 664.9c-12.35 0-24.66-3.24-35.18-6a2.18 2.18 0 0 1 1.11-4.21c14.6 3.84 32.76 8.62 48.95 3.86 12.8-3.77 23.43-13.16 32.38-21.67a2.17 2.17 0 1 1 3 3.16c-9.32 8.86-20.42 18.65-34.15 22.7a57 57 0 0 1-16.11 2.16zm0 0" stroke="#1a1a1a" stroke-width="4" stroke-linecap="round" stroke-linejoin="round" data-locked="true"></path><path fill="#1a1a1a" d="M483.86 899.78c-.94 0-1.81-.62-2.09-1.57-7.7-26.74-29.25-45.2-45.97-55.98-16.22-10.46-34.4-18.22-51.96-25.73q-7.92-3.36-15.77-6.83c-14.02-6.23-29.84-14-40.22-27.33-13.82-17.73-15.2-41.78-15.05-58.32.05-4.97.23-10.03.42-14.92.53-14.72 1.1-29.94-2.08-44.37a2.17 2.17 0 1 1 4.24-.93c3.3 14.96 2.73 30.47 2.18 45.46-.18 4.86-.36 9.89-.41 14.8-.15 15.89 1.14 38.94 14.13 55.6 9.77 12.54 25.02 20.01 38.56 26.03q7.81 3.45 15.7 6.8c17.74 7.58 36.08 15.43 52.6 26.08 17.37 11.18 39.74 30.4 47.81 58.43a2.18 2.18 0 0 1-2.1 2.78zm0 0" stroke="#1a1a1a" stroke-width="4" stroke-linecap="round" stroke-linejoin="round" data-locked="true"></path><path fill="#000000" d="M218.98 972.94a27.3 27.3 0 0 1-19.07-8.22c-8.44-8.39-12.4-20.85-11.75-37.03 1-24.7 12-49.03 30.21-66.74 7.65-7.44 12.34-16.85 13.2-26.5a29 29 0 0 1 8.7-18.2c8.01-7.65 20.37-11.23 33.82-9.79 11.78 1.27 25.61 6.59 36.35 11.08a2.18 2.18 0 0 1-1.69 4.02c-10.46-4.38-23.9-9.56-35.13-10.76-12.19-1.32-23.25 1.82-30.34 8.6a25 25 0 0 0-7.39 15.45c-.92 10.68-6.1 21.07-14.48 29.23-17.43 16.94-27.96 40.18-28.89 63.79-.61 14.9 2.92 26.26 10.47 33.76 5.3 5.28 12.42 7.78 19.03 6.72 10.44-1.7 16.3-10.72 22.49-20.28 3.93-6.05 8-12.32 13.46-16.98 16.22-13.85 40.4-10.1 57.16-6.09 17.41 4.18 34.75 9.61 51.52 14.87 20.72 6.5 42.15 13.21 63.7 17.55 31.9 6.38 77.73 9.43 114.96-12.37 10.7-6.25 24.74-17.17 30.86-33.58 5.46-14.65 4.03-32.5-4.04-50.2-7.45-16.31-19.4-30.64-29.95-43.28-19.04-22.82-42.74-51.23-71.85-70.33-31.15-20.43-65.68-27.55-94.73-19.5a2.18 2.18 0 0 1-1.15-4.2c30.25-8.37 66.06-1.07 98.25 20.06 29.66 19.45 53.59 48.13 72.82 71.17 10.73 12.86 22.89 27.44 30.57 44.27 8.55 18.78 10.02 37.78 4.15 53.54-6.56 17.6-21.43 29.2-32.73 35.82-38.4 22.49-85.37 19.41-118 12.85-21.8-4.37-43.34-11.12-64.16-17.65-16.7-5.22-33.97-10.64-51.23-14.78-15.85-3.8-38.62-7.4-53.34 5.17-4.97 4.24-8.86 10.25-12.63 16.04-6.44 9.94-13.1 20.2-25.44 22.2q-1.86.29-3.73.29zm0 0"></path><path fill="#1a1a1a" d="M614.64 915.44c-11.2 0-22.37-1.15-33.32-2.26a2.17 2.17 0 0 1 .44-4.34c18.14 1.86 36.9 3.78 55.03.34 19.93-3.77 35.98-14.07 44.03-28.24 9.16-16.13 8.3-38.64-2.23-58.74-9.78-18.65-25.72-33.3-41.21-46.7l-4.65-4c-14.44-12.42-29.37-25.25-40.45-41.17a2.17 2.17 0 1 1 3.57-2.49c10.76 15.46 25.48 28.12 39.71 40.36l4.66 4.01c15.8 13.67 32.09 28.64 42.22 47.97 11.22 21.4 12.05 45.5 2.16 62.9-8.68 15.3-25.81 26.36-47 30.38a123 123 0 0 1-22.96 1.98zm0 0" stroke="#1a1a1a" stroke-width="4" stroke-linecap="round" stroke-linejoin="round" data-locked="true"></path><path fill="#1a1a1a" d="M513.57 646.95a2.18 2.18 0 0 1-.44-4.31c6.15-1.27 10.64-8.53 13.33-21.59a287 287 0 0 0 5.89-60.75q0-.64-.48-1.1a1.6 1.6 0 0 0-1.17-.45c-34.74 1.15-61.38.77-86.36-1.2a2.18 2.18 0 0 1 .34-4.35c24.81 1.97 51.3 2.34 85.87 1.2a6 6 0 0 1 4.33 1.66 6 6 0 0 1 1.82 4.19c.21 20.68-1.8 41.43-5.98 61.68-3.12 15.13-8.6 23.3-16.71 24.98q-.23.04-.44.04zm0 0" stroke="#1a1a1a" stroke-width="4" stroke-linecap="round" stroke-linejoin="round" data-locked="true"></path><path fill="#1a1a1a" d="M538.86 529.13c-4.96 0-8.85-5.49-8.85-12.49s3.89-12.49 8.85-12.49 8.84 5.49 8.84 12.5c0 6.99-3.89 12.48-8.84 12.48zm0-20.62c-2.13 0-4.5 3.34-4.5 8.13s2.37 8.13 4.5 8.13 4.49-3.34 4.49-8.13-2.37-8.13-4.5-8.13zm0 0" stroke="#1a1a1a" stroke-width="4" stroke-linecap="round" stroke-linejoin="round" data-locked="true"></path><path fill="#1a1a1a" d="M432.15 532.98c-4.95 0-8.84-5.48-8.84-12.49s3.89-12.48 8.84-12.48c4.97 0 8.85 5.48 8.85 12.48s-3.88 12.49-8.85 12.49zm0-20.62c-2.12 0-4.49 3.34-4.49 8.13s2.37 8.14 4.5 8.14 4.5-3.34 4.5-8.14-2.38-8.13-4.5-8.13zm0 0" stroke="#1a1a1a" stroke-width="4" stroke-linecap="round" stroke-linejoin="round" data-locked="true"></path><path fill="#1a1a1a" d="M394 952.7c-.8 0-1.57-.45-1.94-1.22-14.32-29-9.99-67.74 10.28-92.1a2.18 2.18 0 0 1 3.35 2.8c-18.92 22.72-23.1 60.28-9.74 87.38a2.18 2.18 0 0 1-1.94 3.13zm0 0" stroke="#1a1a1a" stroke-width="4" stroke-linecap="round" stroke-linejoin="round" data-locked="true"></path><path fill="#1a1a1a" d="M417.06 958.88c-.84 0-1.65-.5-2-1.34-12.19-29.26-9.19-64.04 7.83-90.76a2.18 2.18 0 0 1 3.67 2.34c-16.27 25.54-19.14 58.78-7.49 86.74a2.18 2.18 0 0 1-2 3.02zm0 0" stroke="#1a1a1a" stroke-width="4" stroke-linecap="round" stroke-linejoin="round" data-locked="true"></path><path fill="#1a1a1a" d="M224.9 971.45c-.6 0-1.2-.25-1.63-.74-17.22-19.49-22.36-48.83-12.8-73.02 4.85-12.27 12.98-22.84 20.86-33.07q3.12-4.01 6.15-8.09a257 257 0 0 0 28.54-49.2 2.17 2.17 0 0 1 2.87-1.12c1.1.49 1.6 1.77 1.11 2.87a261 261 0 0 1-29.03 50.05q-3.04 4.09-6.2 8.16c-7.68 9.98-15.63 20.3-20.26 32-8.96 22.7-4.14 50.25 12.01 68.54a2.17 2.17 0 0 1-1.62 3.62zm0 0" stroke="#1a1a1a" stroke-width="4" stroke-linecap="round" stroke-linejoin="round" data-locked="true"></path><path fill="#1a1a1a" d="M496.75 248.03a50.2 50.2 0 0 1 34.08-2.4c2.13.62 4.24 1.38 6.45 1.5s4.6-.5 6-2.22c1.49-1.84 1.51-4.57.52-6.73-.98-2.15-2.83-3.8-4.81-5.1-6.97-4.56-16.08-5.37-24.02-2.85s-14.71 8.17-18.22 17.8zm0 0" stroke="#1a1a1a" stroke-width="4" stroke-linecap="round" stroke-linejoin="round" data-locked="true"></path><path fill="#1a1a1a" d="M639.37 287.1a47.6 47.6 0 0 0-20-15.21c-2.25-.9-4.6-1.65-6.63-2.98s-3.77-3.4-3.99-5.82c-.23-2.45 1.16-4.85 3.1-6.37 4.3-3.37 10.78-2.67 15.28.41s7.33 8.07 9.4 13.11c1.75 4.24 3.08 8.64 2.84 16.86zm0 0" stroke="#1a1a1a" stroke-width="4" stroke-linecap="round" stroke-linejoin="round" data-locked="true"></path><path fill="#1a1a1a" d="M569.25 328.35c4.48 3.14 5.53 10.2 2.16 14.53-3.37 4.3-10.49 4.99-14.61 1.39 3.42-.73 6.9-1.83 9.55-4.11s4.33-6 2.9-11.81zm0 0" stroke="#1a1a1a" stroke-width="4" stroke-linecap="round" stroke-linejoin="round" data-locked="true"></path><path fill="#1a1a1a" d="M519.1 343.47c5.88 7.82 12.8 15.25 21.7 19.32 8.9 4.06 20.14 4.16 27.85-1.88-4.52 9.85-16.36 15.7-26.92 13.34s-18.78-12.71-22.64-30.78zm0 0" stroke="#1a1a1a" stroke-width="4" stroke-linecap="round" stroke-linejoin="round" data-locked="true"></path><path fill="#1a1a1a" d="M510.22 286.47c-7.35 3.56-10.07 7.46-13.2 12.78s-3.77 12.6.12 17.39c3.2 3.92 8.87 5.3 13.78 4.1s9.06-4.68 11.93-8.85c2.6-3.78 4.3-8.3 4.2-12.91s-2.17-9.25-5.9-11.94-8.15-1.92-10.93-.57zm0 0" stroke="#1a1a1a" stroke-width="4" stroke-linecap="round" stroke-linejoin="round" data-locked="true"></path><path fill="#1a1a1a" d="M593.32 316.99c-3.12 3.18-5.42 7.34-5.68 11.8-.25 4.44 1.83 9.14 5.7 11.34 4.7 2.66 10.78 1.18 15.24-1.85 6-4.07 10.1-10.85 10.92-18.05.44-3.84-.31-8.31-3.56-10.4a8.4 8.4 0 0 0-6.96-.82c-5.06 1.56-12.55 4.79-15.66 7.98zm0 0" stroke="#1a1a1a" stroke-width="4" stroke-linecap="round" stroke-linejoin="round" data-locked="true"></path><path d="M208.28 964.19c-8.84-5.4-13.07-14.2-13.93-28.99-1.42-24.6 6.69-46.4 24.99-67.12 11.4-12.93 14.83-19.22 17.17-31.55 2.08-10.96 5.15-15.58 13.43-20.24 6.22-3.5 12.12-4.87 12.12-2.81 0 3.07-17.99 31.87-30.26 48.44-7.97 10.76-16.7 24.25-19.4 29.99-11.24 23.84-9.78 45.26 5.05 74.24 1.21 2.36-3.85 1.28-9.17-1.96z" data-region="path51" fill="#ffffff"></path><path d="M218.34 952.61c-6.14-12.41-6.48-13.96-6.48-29.39 0-14.91.46-17.21 5.47-27.3 3.01-6.07 9.84-16.77 15.17-23.8 12.9-16.98 26.23-37.56 32.8-50.64 4.95-9.87 5.69-10.59 9.99-9.68 14.3 3.04 29.28 8.99 38.49 15.29 18.73 12.83 45.23 24 80.52 33.95l3.76 1.06-4.84 9.7a167 167 0 0 0-7.16 16.5c-2.9 8.52-2.92 43.9-.02 50.85 1.12 2.7 1.8 5.16 1.51 5.45s-11.61-2.9-25.15-7.1c-38.16-11.86-58.51-16.38-73.94-16.43-22.03-.07-30.12 4.77-45.27 27.1-7.53 11.07-13.85 17.55-17.15 17.55-.67 0-4.14-5.9-7.7-13.1z" data-region="path52" fill="#ffffff"></path><path d="M402.5 949.8c-6.18-1.86-7-2.82-9.68-11.35-6.1-19.47-3.33-46.53 6.66-65.05 4.8-8.88 4.89-8.92 14.07-6.17l6.39 1.92-4.12 9c-9.68 21.13-11.54 49.26-4.71 70.98 1.07 3.41.59 3.45-8.6.68z" data-region="path53" fill="#ffffff"></path><path d="M439.2 958.12c-20.45-3.86-20.25-3.76-22.38-10.7-3.1-10.1-4.01-37.12-1.6-47.9 2.26-10.1 9.27-27.4 11.12-27.4.6 0 8.11 3.6 16.68 8 11.63 5.95 18.78 11.15 28.12 20.41 6.9 6.84 13.2 12.44 14.04 12.44 2.48 0 1.7-6.23-1.06-8.53-2.29-1.9-2.26-2.36.25-4.2 2.6-1.9 2.6-2.67.13-9.94-6.27-18.42-25.66-39.83-49.57-54.73-7.16-4.46-27.7-14.6-45.65-22.51-65.96-29.1-70.4-35.92-71.4-109.55l-.51-38.44 9.42-4.42a89 89 0 0 0 17.45-11.49c4.4-3.88 8.01-6.37 8.01-5.53s4.95 6.61 11 12.84c11.69 12.04 26.08 22.46 33.49 24.25 2.84.69 6.75 4.38 10.66 10.05 10.6 15.4 31.01 28.7 44.4 28.93 6.47.12 6.84-.16 7.34-5.4.3-3.05 1.06-5.53 1.7-5.52.65.01 8.83 2.35 18.2 5.2 27.44 8.36 45.9 11.7 74.87 13.58 34.3 2.22 37.77 3.17 44.24 12.06 2.8 3.86 17.38 17.93 32.39 31.27 35.65 31.7 44.83 42.96 51.78 63.61 6.26 18.58 4.2 37.03-5.59 49.92-13.22 17.43-33.13 25.16-64.72 25.12-29.57-.03-28.15.77-28.18-15.9-.05-29.65-9.85-47.63-53-97.24-25.17-28.95-46.36-47.4-68.25-59.44-23.77-13.06-51.58-19.06-74.82-16.14-13.41 1.68-15.09 2.36-15.09 6.1 0 2.03 1.12 2.4 4.68 1.58 2.58-.6 10.81-1.54 18.3-2.1 34.33-2.53 72.74 15.43 108.28 50.66 14.36 14.23 40.67 44.56 52.06 60.01 28.33 38.45 29.6 71.37 3.66 95.39-10.88 10.07-28.85 19.71-44.88 24.08-14.12 3.84-58.67 4.77-75.57 1.58z" data-region="path54" fill="#ffffff"></path><path d="M472.22 891.48c-17.16-14.82-38.7-24.84-82.05-38.19-49.1-15.11-69-25.46-87.2-45.32-27.51-30.02-39.55-76.5-34.69-133.98 1.1-13.1 1.14-13.17 5.53-12.2 2.43.53 11.82 1.9 20.87 3.05l16.44 2.1 1.18 13.3c.65 7.33.65 21.53 0 31.56-1.37 21.07.99 42.09 6.31 56.34 2.55 6.81 6.53 12.5 13.93 19.9 10.92 10.91 17.18 14.4 61.9 34.48 33.74 15.16 47.02 23.29 61.56 37.7 11.87 11.76 25.04 31.66 23.58 35.63-.3.83-3.61-1.14-7.36-4.37z" data-region="path55" fill="#ffffff"></path><path d="M282.09 657.13c-5.37-1.2-10.18-2.62-10.7-3.15-1.16-1.15 6.53-47.3 11.25-67.59 5.8-24.91 13.44-49.56 21.41-69.07a696 696 0 0 1 7.93-19c.16-.15.34 12.1.4 27.23.1 22.5.8 30 3.79 41.21 6.33 23.73 18.7 52.81 28.1 66.14l3.52 4.96-6.7 5.83c-11.69 10.17-22.18 14.51-36.48 15.1-7.02.3-17.16-.45-22.52-1.66z" data-region="path56" fill="#ffffff"></path><path d="M392.8 672.13c-9.75-5.08-26.47-20.35-36.16-33.03-14.8-19.37-26.9-45.62-34.49-74.84-5.73-22.06-6.06-55.56-.73-75.6 3.43-12.92 12.8-34.32 15.84-36.2 1.95-1.2 17.54 7.6 34.56 19.54 18.83 13.2 36.14 30.75 47.2 47.87 6.87 10.64 39.43 72.04 45.2 85.24.27.63-3.07 3.23-7.42 5.78-18.2 10.66-46.3 42.96-51.76 59.48-1.1 3.33-2.51 6.02-3.14 5.98s-4.72-1.94-9.1-4.22z" data-region="path57" fill="#ffffff"></path><path d="M437.34 708.66c-10.67-5.88-22.13-16.47-26.41-24.42-2.88-5.35-2.85-5.53 3.13-17.24 11.54-22.6 31.94-43.39 54.19-55.25l10.24-5.46 5.95 5.72c3.27 3.14 8.2 8.51 10.93 11.93l4.97 6.23-8.65 5.32a79 79 0 0 0-29.62 32.98c-6.2 12.7-10.6 33.62-8.68 41.27.86 3.46.41 4.12-2.83 4.1-2.12-.02-8.07-2.35-13.22-5.18z" data-region="path58" fill="#ffffff"></path><path d="M625.74 734.05c-4.48-.86-15.2-3.48-23.83-5.83-10.93-2.98-23.65-4.78-42.05-5.98-14.5-.94-33.85-3.22-42.99-5.08-15.03-3.05-55.55-14.48-57.22-16.15-1.64-1.64 3.68-21.25 8.35-30.8 5.85-11.95 24.12-30.36 28.72-28.94 1.5.47 12.11 4.72 23.57 9.45 27.63 11.41 47.67 17.12 64.25 18.32 12.56.91 15.05.5 32.33-5.3 20.67-6.95 34.91-9.04 42.26-6.18 6.89 2.68 4.91 5.63-6.2 9.29-12.58 4.12-13.15 8.2-1.6 11.32 10.38 2.8 29.16 11.17 33.1 14.74 6.26 5.66 3.56 6.85-8.43 3.73-14.03-3.66-34.46-4.24-34.46-.99 0 1.51 5 2.85 15.75 4.2 20.04 2.55 32.28 6.57 31.54 10.38-.46 2.35-3.09 2.79-16.68 2.79-8.88 0-19.78-.63-24.22-1.38-6.84-1.17-8.09-.97-8.09 1.33 0 3.58 1.66 4.1 21.44 6.61 15.43 1.97 16.5 2.34 12.74 4.38-4.88 2.66-16.15 2.68-25.9.06-4.6-1.24-7.58-1.32-8.69-.21-3.16 3.16.5 5.16 13.35 7.32 8.64 1.46 11.84 2.57 9.75 3.4-4.32 1.7-26.95 1.4-36.8-.48z" data-region="path59" fill="#ffffff"></path><path d="M568.37 660.55c-7.17-1.86-7.69-2.39-8.18-8.27-.66-7.99 5.21-20.48 16.94-36.03 10.89-14.42 20.22-21.5 28.36-21.5 6.67 0 20.74 7.4 20.74 10.9 0 1.24-2.97 4.22-6.6 6.63-11.76 7.78-23.32 24.36-28.42 40.75-2.97 9.57-3.18 9.78-9.11 9.65a74 74 0 0 1-13.73-2.13z" data-region="path60" fill="#ffffff"></path><path d="M677.55 643.23c-14.41-2.61-31.5-10.5-32.3-14.91-.93-4.99 13.17-10.07 30.68-11.07l14.96-.85v5.46c0 4.3.65 5.35 2.98 4.9 1.64-.31 3.24-2.37 3.55-4.57.52-3.69 1.13-3.92 7.66-2.91 11.27 1.73 21.99 5.77 27.5 10.35l5.11 4.23-4.54 4.07c-8.24 7.37-31.77 9.61-55.6 5.3z" data-region="path61" fill="#ffffff"></path><path d="M596.52 657.29c2.05-9.47 9.27-21.89 18.25-31.38 8.55-9.04 8.64-9.09 12.16-5.88a42 42 0 0 0 7.38 5.2c3.4 1.75 3.83 3.26 3.83 13.57v11.6l-19.36 6.21c-10.64 3.41-20.28 6.2-21.4 6.2-1.43 0-1.69-1.69-.86-5.52z" data-region="path62" fill="#ffffff"></path><path d="M507.3 638.36c-2.62-1.48-3.37-2.7-2.12-3.48 4.38-2.71 1.43-8.68-10.27-20.74-10.98-11.32-12.85-12.59-18.7-12.59h-6.51l-10.23-20.39c-5.62-11.22-10.22-20.67-10.22-21.02s18.49-.54 41.08-.45l41.08.17-1.08 21.27c-1.74 34.62-8 58.16-15.72 59.11-1.79.22-5.07-.63-7.3-1.88z" data-region="path63" fill="#ffffff"></path><path d="M536.94 650.72c-7.46-2.8-13.74-5.28-13.96-5.5s1.47-4.2 3.74-8.84c7.16-14.62 14.12-74.13 9.35-79.88-1.8-2.17-8-2.6-38.1-2.6-19.78-.02-39.8-.49-44.5-1.05-8.07-.97-8.8-1.48-13.1-9.17l-4.54-8.15 3.4-6.55c3.48-6.74 3.32-14.24-.4-18.73-2.53-3.04-9.9-2.91-13.37.23-2.5 2.27-3.42 1.68-9.26-5.96-13.48-17.69-41.06-40.12-66.96-54.46l-7.26-4.03 8.05-8.18c4.43-4.5 12.94-10.66 18.9-13.7l10.83-5.53 10.65 11.39c13.22 14.13 27.08 34.8 38.24 57.02 4.7 9.34 9.84 18.07 11.43 19.39 2.22 1.84 11.02 2.53 38.16 2.99 37.74.63 41.36.02 44.23-7.52 1.78-4.68-2.48-28.7-9.6-54.12-2.32-8.3-3.88-15.44-3.45-15.86 1.76-1.76 11.36 5 18.66 13.11 15.03 16.72 21.07 35.62 23.37 73.08 1.84 30.16 2.1 137.95.33 137.81-.7-.05-7.38-2.39-14.84-5.2zm8.36-124.42c3.8-5.42 3.4-15.88-.75-20.04-6.71-6.71-13.55-2.64-14.84 8.84-.72 6.38-.23 8.43 2.73 11.38 4.65 4.65 9.53 4.58 12.86-.18z" data-region="path64" fill="#ffffff"></path><path d="M455.77 503.1c-6.24-.6-11.67-1.48-12.07-1.95-.82-.96-19.97-37.8-19.97-38.41 0-.22 4.04 1.8 8.98 4.47 11.4 6.17 26.49 10.12 38.69 10.12 11.51 0 24.56-5.9 32.15-14.55 2.8-3.2 5.42-5.25 5.82-4.56.4.68 2.44 9.93 4.53 20.55 5.03 25.5 5.77 24.74-24.25 25.14-12.39.16-27.64-.2-33.88-.8z" data-region="path65" fill="#ffffff"></path><path d="M459.2 451.2c-16.1-4.45-37.08-20.99-50.47-39.79l-3.69-5.17 7.52-6.16c6.77-5.55 17.97-23.6 17.97-28.96 0-1.02 5.39 3.2 11.97 9.38a153 153 0 0 0 43.2 28.18c7.13 3.04 8.8 4.6 9.71 9.01 1.36 6.66-1.06 17.87-5.37 24.84-5.52 8.94-17.59 12.33-30.85 8.66z" data-region="path66" fill="#ffffff"></path><path d="M522.96 412.77c-47.22-7.53-85.71-36.26-106.45-79.48-7.59-15.82-10.32-18.37-21.44-20.02-28.49-4.23-50.32-36.33-42.85-63 8.88-31.7 49.41-32.53 63.37-1.3 4.76 10.65 8.82 9.34 14.86-4.77 12.74-29.76 24.52-44.8 45.98-58.68 9.01-5.83 19.24-13.11 22.74-16.18s6.76-5.17 7.25-4.68c2.63 2.63-20.53 22.96-37.17 32.62-7.64 4.44-10.64 9.29-5.96 9.64 21.35 1.58 54.1-10.1 76.75-27.37 4.78-3.64 9.04-6.27 9.48-5.83 1.3 1.31-18.83 20.86-27.53 26.73-6.92 4.66-8.04 6.19-7.66 10.46.39 4.47 1.35 5.24 8.95 7.2 12.44 3.23 40.64 3.06 53.73-.31 6.01-1.55 16.08-5.52 22.38-8.83 12.6-6.6 31.4-22.84 37.08-32.05 2-3.24 4.24-5.9 4.95-5.9 1.88 0 8.04 22.19 11.36 40.9 1.67 9.42 2.94 26.01 3.04 39.93.18 22.28-.06 24.16-3.68 28.98-5.5 7.32-11.75 26.4-14.79 45.14-6.16 38.02-9.38 46.32-23.57 60.84-10.61 10.86-21.77 17.47-37.75 22.38-13.33 4.08-39 5.82-53.07 3.58zm35.13-40.06c4.9-2.53 12.65-11 11.31-12.33-.39-.4-3.04.49-5.9 1.96-10.74 5.55-25.12.87-37.21-12.12-8.5-9.12-9.67-6.53-3.22 7.14 3.94 8.36 9.63 14.82 14.67 16.67 5.03 1.83 15.57 1.15 20.35-1.32zm11.6-27.36a9 9 0 0 0 3.79-7.52c0-10.29-4.5-14.25-5.43-4.77-.4 4.1-1.82 6.13-5.64 8.08-2.8 1.43-5.46 2.84-5.9 3.12-1.28.83 3.95 3.68 6.8 3.71 1.43.02 4.3-1.16 6.38-2.62zm37.11-5.19c13.2-6.26 18.5-28.67 7.6-32.12-5.52-1.76-21.44 6.32-24.64 12.5-4.08 7.9-3.43 14.7 1.81 18.83 5.4 4.24 7.7 4.36 15.23.8zm-92.24-20.04c17.04-7.12 16.9-35.08-.18-35.08-12.03 0-24.38 19.06-19.41 29.96 3.16 6.94 10.58 8.88 19.6 5.12zm-113.3-41.7c-1.27-22.03-11-37.63-23.48-37.63-7.63 0-18.72 8.8-18.72 14.85 0 3.75 4.17 2.37 8.83-2.94 11.87-13.53 26.08.8 27.85 28.08l.7 10.64c.04.23 1.3.42 2.83.42 2.4 0 2.66-1.83 2-13.42zm236.07-7.97c-4.04-10.6-10.16-16.04-18.02-16.04-5.98 0-11.8 3.35-11.8 6.78 0 4.35 3.1 7.5 11.7 11.86 5.26 2.67 11.87 7.29 14.68 10.26l5.1 5.4.56-5.51c.3-3.03-.7-8.77-2.22-12.75zm-128.99-24.83c5.8-1.46 10.33-1.4 19.2.28 14.5 2.73 17.4 1.8 16.69-5.44-1.46-14.95-33.63-16.12-43.68-1.59-4.88 7.05-5.94 11.02-2.6 9.74 1.53-.6 6.21-1.93 10.39-2.99z" data-region="path67" fill="#ffffff"></path><path d="M661.45 243.8c-1-28.08-3.9-45.88-11.36-69.8-4.82-15.47-8.18-15.57-19.06-.56-18.25 25.16-50.23 41.73-80.67 41.8-10.8.03-29.65-3.08-29.63-4.89.01-.57 2.83-2.95 6.28-5.3 15.74-10.69 35.24-33.91 45.5-54.2 7.99-15.8 1.99-19.17-8.8-4.93-20.96 27.7-50.38 47.13-80.42 53.12l-5.96 1.19 8.5-5.86c17.51-12.05 43.4-44.31 43.4-54.07 0-5.04-6.01-4.1-10.05 1.58-5.08 7.12-29.42 27.27-46.1 38.16-7.96 5.19-17.3 12.36-20.77 15.95-7.01 7.25-21.42 30.4-26.28 42.21-1.73 4.23-3.64 7.69-4.23 7.7-.58 0-2.03-2.33-3.2-5.18-3-7.2-14-16.14-22.98-18.65-6.56-1.84-18.04-1.72-30.53.31-6.84 1.11-14.54-23.9-14.54-47.22 0-59.64 43.41-110.12 109.88-127.8 14.66-3.89 20.29-4.48 42.43-4.5 17.94-.02 29.56.85 39.13 2.93 50.93 11.05 100.36 38.93 127.63 72 28.19 34.18 37.58 77.06 24.52 111.96-4.63 12.38-15.78 28.61-24.7 35.96l-7 5.76z" data-region="path68" fill="#ffffff"></path><path d="M455.5 469.75c-21.17-5.61-37.36-16.28-52.44-34.54-3.28-3.98-8.66-10-11.96-13.37-3.3-3.38-5.83-6.3-5.62-6.5.21-.18 3.32-1.69 6.92-3.34l6.54-3 8.68 10.6c20.97 25.54 39.57 37.36 60.47 38.4 10.25.5 16.07-1.1 21.61-5.98 4.56-4.02 7.35-8.62 9.4-15.53.84-2.8 1.76-5.4 2.06-5.77s1.63 2.99 2.94 7.44l2.4 8.1-2.7 5.47c-3.33 6.78-10.33 13.4-17.89 16.95-4.71 2.21-6.63 2.6-14.04 2.85-7.02.24-10-.08-16.37-1.78z" data-region="path69" fill="#ffffff"></path><path d="M429.62 525.19c-2.1-3.36-1.75-8.56.76-11.08 2.05-2.04 3.32-1.38 4.97 2.55 1.38 3.31.87 7.44-1.22 9.8-1.83 2.09-2.52 1.9-4.5-1.27z" data-region="path70" fill="#ffffff"></path><path d="M537.03 522.99c-3.72-3.72-1.43-15.08 2.72-13.5 3.45 1.33 4.15 9.5 1.1 13.03l-1.98 2.3z" data-region="path71" fill="#ffffff"></path><path d="M558.71 584.66c-.78-65.16-1.73-83.1-5.34-100.83-.7-3.44-1.1-6.42-.9-6.63.6-.59 10.66 17.03 14.87 26.03 6 12.83 12.18 29.35 19.76 52.8 3.85 11.94 8.05 24.42 9.33 27.74l2.33 6.04-2.82 1.02c-8.2 2.97-22.35 18.06-32.32 34.48l-4.33 7.13z" data-region="path72" fill="#ffffff"></path><path d="M737.27 483.42c.01-26.87.2-31.41 1.51-35.87 3.4-11.59 9.17-20 13.72-20 4.32 0 8.17 7.3 8.16 15.5 0 16.14-9.13 46.17-19.7 64.83-1.88 3.32-3.48 6.1-3.56 6.18-.07.07-.13-13.71-.13-30.64z" data-region="path73" fill="#ffffff"></path><path d="M714.73 569.99c7.27-9.26 31.62-36.9 36.8-41.78 15.01-14.16 33.45-19.41 41.14-11.72 3.95 3.95 1.84 11.02-4.53 15.22-1.78 1.17-10.12 5.37-18.54 9.32-19.97 9.39-26.55 13.1-43.66 24.6a520 520 0 0 1-15.01 9.89c-.45.19 1.26-2.3 3.8-5.53z" data-region="path74" fill="#ffffff"></path><path d="M750.88 579.7c-3.36-.96-10.22-1.96-15.74-2.28l-9.79-.57 8.31-2.75c12.67-4.2 21.68-3.61 27.56 1.78 5.96 5.46 1.34 7.17-10.34 3.82z" data-region="path75" fill="#ffffff"></path><path d="M732.59 607.23c-2.58-1.3-7.56-3.95-11.07-5.88a66 66 0 0 0-12.68-5.15l-6.3-1.63 4.17-1.47c5.69-2 17.66-2.69 23.42-1.32 6.11 1.44 13.78 5.35 15.98 8.16 2.2 2.8 2.3 6.41.24 8.29-2.42 2.19-8.31 1.76-13.76-1z" data-region="path76" fill="#ffffff"></path><path d="M680.68 577.16c-5.06-3.69-12.82-7.77-20.7-10.9-8.8-3.5-12.56-8.7-9.9-13.69 1.52-2.84 5.1-2 12.2 2.88a97 97 0 0 1 20.63 19.45c5.46 7.07 5.01 7.52-2.23 2.26z" data-region="path77" fill="#ffffff"></path><path d="M694.86 557.25c-2.25-2.55-7.27-7.3-11.17-10.55-6.85-5.72-10.66-11.03-10.66-14.82 0-1.64 4.4-6.48 5.9-6.48 1.9 0 6.97 5.76 10.97 12.46 3.5 5.9 10.18 22.88 9.32 23.74-.15.16-2.11-1.8-4.36-4.35z" data-region="path78" fill="#ffffff"></path><path d="M711.7 535.4c-1.7-5.26-5.97-14.03-10.63-21.87-6.9-11.63-9.47-20.7-7.3-25.88 2.37-5.67 6.9-3.35 11.84 6.05 5.34 10.16 7.52 19.29 8.04 33.62.24 6.9.24 12.55-.02 12.55s-1.13-2.01-1.93-4.47z" data-region="path79" fill="#ffffff"></path><path d="M668.35 774.64c-16-2.21-28.45-6.64-32.9-11.7-2.58-2.95-2.63-3.14-2.1-9.37.3-3.5.54-7.73.54-9.41v-3.07l11.55.26c6.35.15 13.6-.16 16.1-.68 5.07-1.05 11.05-4.92 12.49-8.08.52-1.14 2.33-2.98 4.03-4.1a17 17 0 0 0 4.76-5.16c1.18-2.2 2.52-3.35 4.58-3.92 4.71-1.3 7.75-4.8 7.75-8.94 0-1.93-.54-4.25-1.2-5.14-.82-1.13-1.05-2.99-.74-5.97.57-5.56-1.06-8.8-6.21-12.34-5.2-3.58-16.08-8.62-25.47-11.8-4.2-1.42-7-2.6-6.23-2.6 2.23-.03 9.45-3.36 11.56-5.33 1.4-1.31 1.91-2.76 1.91-5.4 0-7.4-6.78-11.41-19.3-11.41h-6.22v-4.9c.01-2.68.25-5.76.54-6.83.47-1.77.66-1.83 1.94-.67 2.58 2.33 13.98 7.08 21.34 8.88 12.33 3.03 19.5 3.84 33.6 3.8 14.94-.05 23.93-1.46 31.7-4.97l4.47-2.02v2.77c0 2.56-.36 2.92-4.65 4.7-6.43 2.67-9.81 6.67-9.81 11.6 0 3.26-.25 3.8-1.73 3.8-3.25 0-7.51 2.41-8.85 5-1.79 3.45-1.68 5.4.44 8.1l1.77 2.25-2.51 2.35c-3.54 3.3-4.18 7.02-1.97 11.26 1.76 3.38 1.76 3.38.07 6.14-2.4 3.94-2.22 8.7.44 11.35 1.17 1.17 2.13 2.99 2.13 4.03 0 4.26 5.33 8.23 11.05 8.23h2.6l-.48 5.32c-.27 2.93-1.01 11.57-1.65 19.2-1.3 15.47-1.31 15.52-8 19.16-9.28 5.04-31.95 7.73-47.34 5.6z" data-region="path80" fill="#ffffff"></path><path d="M727.85 665.01c-1.19-1.14-.03-4.46 2.22-6.35 2.34-1.97 12.03-5.63 14.91-5.63 1.91 0 3.02 3.19 2.75 7.9l-.25 4.44h-9.63c-5.3 0-9.8-.16-10-.36z" data-region="path81" fill="#ffffff"></path><path d="M729.33 680.2c-5.8-.76-11-2.21-12.68-3.55-1.93-1.53.4-3.82 5.07-5 5.39-1.34 27-1.28 29.56.09q3.51 1.88-.51 5.05c-4 3.15-12.8 4.55-21.44 3.41z" data-region="path82" fill="#ffffff"></path><path d="M718.14 696.16c-1.63-.56-3.42-1.96-4-3.13-1.47-2.95.14-5.14 5.16-7.02 3.39-1.26 4.87-1.35 10.4-.58 5.73.8 11.65.46 18.2-1.05 1.9-.43 1.21 3.47-1.01 5.84-2.46 2.61-9.23 5.03-17.2 6.14-7.85 1.1-7.8 1.1-11.55-.2z" data-region="path83" fill="#ffffff"></path><path d="M715.36 709.95c-3-1.16-3.04-3.6-.12-6.3 1.85-1.72 2.8-1.98 5.74-1.58 3.06.42 15.05-1.18 20.75-2.76 5.6-1.56-3 7.42-8.98 9.37-5.29 1.73-14.47 2.4-17.4 1.27z" data-region="path84" fill="#ffffff"></path><path d="M719.16 718.92c-2.84-1.99-2.3-2.92 1.73-2.94 1.99 0 6.3-.58 9.57-1.28s6.1-1.26 6.3-1.26c.19 0-.39.82-1.28 1.82-3.85 4.33-12.57 6.29-16.32 3.66z" data-region="path85" fill="#ffffff"></path></svg>