<?xml version="1.0"?>
<svg xmlns="http://www.w3.org/2000/svg" xmlns:svg="http://www.w3.org/2000/svg" viewBox="0 0 1024 1024" preserveAspectRatio="xMidYMid" version="1.0"><path fill="#000000" d="m262.46 54-2.73 34.34v-.43c3.68 93.67-2.93 361.8-5.83 375.92l.06-1.12c.84 11.25-6.39 35.11-17.16 70.93q-3.83 12.64-8.22 27.4a158 158 0 0 0-6.47 41.57l-.14 2.84c-.93 19.53 5.29 35 11.82 51.07l.2.5c11.33 27.97 31.37 36.13 75.88 53.72 15.53 6.13 33.88 13.36 55.54 23.02q.43.2.8.47L594.44 909.2l-.62-.36c33.35 17 134.1 60.94 183.6 5.96 49.7-55.17 32.39-84.78-10.3-157.12l-.36-.62c-16.49-27.88-43.84-48.87-87.12-81.93-35.59-27.21-81.51-62.3-139.84-115.76-20.29-18.66-30.39-39.3-36.33-56.81-7.5-22.09-12.88-52.67-14.57-92.3v.04l-15.84-324 .05.55-.25-.78a35 35 0 0 1-1.69-6.4c-.84-4.21-1.91-11.39-3.37-24.27a3.96 3.96 0 1 1 7.87-.9c1.47 12.83 2.54 19.78 3.27 23.66.65 3.38 1.07 4.39 1.32 5.06a11 11 0 0 1 .7 2.7l15.85 324.01h0c1.68 39.11 6.97 68.94 14.15 90.1 5.68 16.63 15.14 36.01 34.21 53.46 58.02 53.23 103.72 88.15 139.29 115.3 42.85 32.76 71.66 54.73 89.08 84.25h0l.4.62h0c42.54 72.09 63.13 106.7 9.36 166.46-54.27 60.27-161.65 11.82-193.05-4.22l-.62-.4L361.4 740.52l.82.48a1335 1335 0 0 0-55.24-22.9c-43.78-17.31-67.47-26.46-80.33-58.11l-.2-.5c-6.47-15.99-13.42-32.93-12.38-54.43l.11-2.78c.34-8.58.9-23.55 6.84-43.53a3983 3983 0 0 1 8.19-27.4c11.11-36.98 17.59-58.7 16.88-68.07q0-.56.06-1.1c2.67-13 9.37-280.1 5.68-373.97v-.48l2.73-34.33a3.95 3.95 0 1 1 7.88.62zm0 0"></path><path fill="#000000" d="M253.7 469.63zq0 .28-.05.5c-1.55 12.58-7.93 33.77-16.88 63.48q-3.77 12.58-8.16 27.4a158 158 0 0 0-6.5 41.57l-.14 2.84c-.93 19.53 5.29 35 11.82 51.07l.2.5c11.33 27.98 31.37 36.14 75.88 53.72 8.92 3.52 18.71 7.37 29.57 11.88l-4.95 1.71c.53-.93 1.58-2.45 2.76-4.16 2.84-4.11 7.45-10.78 12.3-19.33 13.42-23.9 28.13-61.74 12.94-100.34-19.95-50.54-67.98-88.86-90.75-106.98a228 228 0 0 1-9.79-8.05c-6.24-5.63-11.2-9.79-14.71-12.74v.02-.02l3.6.76h0a3.94 3.94 0 0 1-5.07-3.83zm-7.93 0a3.97 3.97 0 1 1 7.94 0l-5.07-3.8h.03a4 4 0 0 1 3.6.76q0 0 0 0l.03.03c3.52 2.95 8.61 7.17 14.97 12.94q2.9 2.62 9.4 7.71c22.5 17.95 72.31 57.49 93.16 110.3 16.6 42.04.37 82.67-13.42 107.12-5 8.92-9.8 15.81-12.66 19.98l-2.37 3.51a3.94 3.94 0 0 1-4.95 1.72 2031 2031 0 0 0-29.46-11.82c-43.78-17.3-67.47-26.45-80.33-58.1l-.2-.5c-6.47-15.99-13.42-32.93-12.38-54.43l.11-2.78c.34-8.58.9-23.55 6.84-43.53q4.4-14.8 8.19-27.4c9.09-30.17 15.17-50.46 16.6-62.19zm0 0"></path><path fill="#1a1a1a" d="M770.47 755.88q-27.26 15-57.07 49.74l.02-.04q-49.3 58.71-70.06 127.98l-2.53-4.9c21.03 7.12 45.3 12.9 68.65 12.9 25.85 0 50.18-7.06 67.95-26.8 49.68-55.19 32.4-84.76-10.3-157.12l-.37-.61c-.5-.83-1.02-1.7-1.54-2.52l3.36 1.87h-.02zm-3.81-6.95a4 4 0 0 1 1.9-.49h.02c1.37 0 2.63.7 3.35 1.87q.85 1.33 1.63 2.68h.01l.37.62h-.02c42.56 72.1 63.17 106.71 9.38 166.46-19.74 21.94-46.57 29.41-73.82 29.41-24.54 0-49.73-6.04-71.19-13.3a3.96 3.96 0 0 1-2.51-4.9q21.22-70.85 71.58-130.8l.03-.03q30.77-35.85 59.27-51.52zm0 0" stroke="#1a1a1a" stroke-width="4" stroke-linecap="round" stroke-linejoin="round" data-locked="true"></path><path fill="#000000" d="m262.46 54-2.73 34.34v-.54.09c.56 13.98.87 31.8 1.01 52.02l-3.94-3.94h222.85l-3.94 4.14-2.64-53.86.05.57-.25-.8a35 35 0 0 1-1.69-6.38c-.84-4.22-1.91-11.4-3.37-24.28l3.94 3.52-213.29-1.21zm-7.88-.61a3.94 3.94 0 0 1 3.94-3.66l213.28 1.21a4 4 0 0 1 3.91 3.52c1.41 12.83 2.48 19.78 3.24 23.66.65 3.38 1.07 4.4 1.32 5.07a11 11 0 0 1 .7 2.7l2.62 53.85a3.94 3.94 0 0 1-3.94 4.17H256.8a4 4 0 0 1-4-3.94c-.1-20.2-.44-37.87-.98-51.77v.08-.56zm0 0"></path><path fill="#1a1a1a" d="M351.74 215.23a29.4 29.4 0 0 1-29.38 29.44 29.4 29.4 0 0 1-29.38-29.44 29.4 29.4 0 0 1 29.38-29.43 29.4 29.4 0 0 1 29.38 29.43m-7.91 0c0-11.88-9.61-21.5-21.47-21.5a21.5 21.5 0 0 0-21.47 21.5 21.5 21.5 0 0 0 21.47 21.51 21.5 21.5 0 0 0 21.47-21.5zm0 0" stroke="#1a1a1a" stroke-width="4" stroke-linecap="round" stroke-linejoin="round" data-locked="true"></path><path fill="#1a1a1a" d="M422.76 316a29.4 29.4 0 0 1-29.37 29.43A29.4 29.4 0 0 1 364 315.99a29.4 29.4 0 0 1 29.38-29.43 29.4 29.4 0 0 1 29.37 29.43m-7.9 0c0-11.88-9.62-21.5-21.47-21.5a21.5 21.5 0 0 0-21.47 21.5 21.5 21.5 0 0 0 21.47 21.51 21.5 21.5 0 0 0 21.46-21.5zm0 0" stroke="#1a1a1a" stroke-width="4" stroke-linecap="round" stroke-linejoin="round" data-locked="true"></path><path fill="#1a1a1a" d="M452.28 208.66a29.4 29.4 0 0 1-29.38 29.45 29.4 29.4 0 0 1-29.4-29.45 29.4 29.4 0 0 1 29.4-29.43 29.4 29.4 0 0 1 29.38 29.43m-7.92 0a21.5 21.5 0 0 0-21.46-21.5 21.5 21.5 0 0 0-21.47 21.5c0 11.88 9.6 21.51 21.47 21.51a21.5 21.5 0 0 0 21.46-21.5zm0 0" stroke="#1a1a1a" stroke-width="4" stroke-linecap="round" stroke-linejoin="round" data-locked="true"></path><path fill="#1a1a1a" d="M332.08 311.62a29.4 29.4 0 0 1-29.4 29.43 29.4 29.4 0 0 1-29.37-29.43 29.4 29.4 0 0 1 29.38-29.45 29.4 29.4 0 0 1 29.39 29.45m-7.93 0c0-11.88-9.6-21.51-21.46-21.51a21.5 21.5 0 0 0-21.47 21.5c0 11.88 9.62 21.5 21.47 21.5a21.5 21.5 0 0 0 21.46-21.5zm0 0" stroke="#1a1a1a" stroke-width="4" stroke-linecap="round" stroke-linejoin="round" data-locked="true"></path><path fill="#1a1a1a" d="M577.7 589.6a20 20 0 0 0-4.07 3.04l-.02.01a21 21 0 0 0-6.9 14.65v-.02q-.23 4.46 1.1 8.2l-.06-.18a28 28 0 0 0 4.26 7.4l-.15-.19a22 22 0 0 0 3.18 2.95l.22.15a22 22 0 0 0 2.89 1.84l.04.03h.01l-.04-.03q1.47.8 3.03 1.32l-.2-.07q3.74 1.05 4.65 1.1h-.23.45l1.98.02q3.83 0 5.5-.46l-.24.08q5.95-2.07 7.42-3.35l.13-.12q4.16-3.37 5.78-6.2l-.07.14q1.25-2.4 1.98-4.42l1.2 4.44a1735 1735 0 0 1-36.35-30.8l2.6.98h-.02zm-3.87-6.92a4 4 0 0 1 1.93-.51h.02c.95 0 1.87.35 2.59.98 12.75 11.1 24.8 21.25 36.2 30.65a4 4 0 0 1 1.2 4.43 47 47 0 0 1-2.4 5.33l-.08.13q-2.36 4.14-7.68 8.44l.13-.1q-2.64 2.31-10.06 4.9l-.25.07q-2.72.75-7.6.74l-2.2-.03.44-.02q-.22.03-.48.03l-.4-.01q-1.77-.1-6.34-1.38l-.2-.06a27 27 0 0 1-4.2-1.82l-.05-.02.05.02a30 30 0 0 1-3.93-2.48l.22.15a29 29 0 0 1-4.6-4.12l-.16-.18a36 36 0 0 1-5.55-9.48l-.06-.19a29 29 0 0 1-1.58-11.3v0a28.8 28.8 0 0 1 9.4-20l-.02.02a28 28 0 0 1 5.66-4.19zm0 0" stroke="#1a1a1a" stroke-width="4" stroke-linecap="round" stroke-linejoin="round" data-locked="true"></path><path fill="#1a1a1a" d="m519.6 824.86-.02.01h0a40 40 0 0 0-5.32.59q.13-.03.33-.13-.39.18-.78.28-1.73.45-3.3 1.14-3.11 1.4-5.7 3.86l-.02.01a22 22 0 0 0-4.55 5.88l-.27.43q-.3.5-.9 2.44l-1.38-4.35 38.35 29.38-4.66-.11.09-.07-.08.06a25 25 0 0 0 6.28-6.64l-.08.13a26 26 0 0 0 3-8.57l-.04.37.24-3.45q0-.2.04-.4l-.02.18q.03-1.04-.82-5.34l.05.23q-.46-1.76-1.24-3.4a23 23 0 0 0-4.37-6.26l.06.05q-2.7-2.7-5.98-4.24l-.44-.25q-.9-.44-5.07-1.46l.28.06h-.06a28 28 0 0 0-4-.42zm-.57-7.91.38-.01q2.7.06 5.22.53l-.05-.01.28.05q5.05 1.21 6.76 2.08.56.28.99.61l-.75-.45a29 29 0 0 1 8.22 5.8l.05.06a31 31 0 0 1 5.85 8.4 28 28 0 0 1 1.71 4.73l.06.24q1.05 5.24.97 7.23-.02.45-.08.84l.04-.41-.23 3.46q-.01.19-.05.37a34 34 0 0 1-3.9 11.16l-.07.13a33 33 0 0 1-8.24 8.82l-.07.05-.23.17a4 4 0 0 1-4.66-.11l-38.34-29.38a4 4 0 0 1-1.36-4.37 22 22 0 0 1 1.53-3.9q.3-.54.65-.96l-.47.7a30 30 0 0 1 6.14-7.96l-.02.02a28 28 0 0 1 12.48-6.92l-.78.3q.44-.25 1.02-.4 1.73-.5 6.93-.87zm0 0" stroke="#1a1a1a" stroke-width="4" stroke-linecap="round" stroke-linejoin="round" data-locked="true"></path><path fill="#1a1a1a" d="M494.36 416.87q-.6.21-1.2.48a20 20 0 0 0-5.71 3.85l-.01.02a22 22 0 0 0-4.55 5.88 20 20 0 0 0-1.38 3.28l.07-.23q-1.05 4.17-1.06 5.2v-.2q.03.47 0 .92-.14 1.34.27 4.7l-.03-.15q.3 1.78.88 3.43l-.02-.08a28 28 0 0 0 4.32 7.41l-.23-.26q5.72 6.08 12.74 7.1l-4.47 4.56a447 447 0 0 1-4.94-49.44l3.96 3.77h-.01zm-2.75-7.44q.66-.25 1.38-.24h0a3.95 3.95 0 0 1 3.95 3.77 439 439 0 0 0 4.85 48.55 3.97 3.97 0 0 1-4.46 4.56q-9.77-1.4-17.4-9.52l-.21-.27a36 36 0 0 1-5.5-9.48l-.02-.07a27 27 0 0 1-1.25-4.85l-.02-.14a30 30 0 0 1-.28-6.53v.92a7 7 0 0 1-.04-.85q0-1.97 1.3-7.07l.06-.24a28.7 28.7 0 0 1 8.06-12.54l-.03.02a28 28 0 0 1 9.61-6.02zm0 0" stroke="#1a1a1a" stroke-width="4" stroke-linecap="round" stroke-linejoin="round" data-locked="true"></path><path fill="#1a1a1a" d="M272.15 353.91q-8.52.3-14.32 5.76l-.05.06-.82.76 1.16-2.7c-.29 12.26-.6 23.87-.93 34.65l-1.09-2.85a29 29 0 0 0 2.94 2.71l.37.34v.02q.75.64 4.44 2.6l-.22-.11q3.14 1.42 6.62 1.67l-.23-.01 1.64.01q4.23 0 5.54-.32l-.27.08q6.23-2.03 8.3-3.87l.12-.11q3.47-2.84 5.36-5.91l-.15.25q2.65-5.13 3.05-8.5l-.03.2.24-3.46v.05q.16-3.12-1.79-8.51l.1.25q-1.5-3.42-4.69-6.83l-.03-.03q-1.93-2.1-5.98-4.18l.3.15a41 41 0 0 0-5-1.72l.27.07a35 35 0 0 0-5.12-.52zm-.27-7.92h.27q3.32.1 6.24.63l.28.06q2.69.69 6.04 2.05l.31.15q5.33 2.72 8.21 5.87l-.03-.04a32 32 0 0 1 6.18 9.07l.1.24q2.49 6.9 2.24 11.63v.06l-.23 3.45-.02.2q-.56 4.8-3.87 11.22l-.15.25a32 32 0 0 1-7.09 7.91l.11-.1q-3.3 2.96-11.1 5.48l-.26.08q-2.25.56-7.45.56l-1.75-.02h-.23a27 27 0 0 1-9.31-2.37l-.2-.1q-4.52-2.4-5.97-3.66a6 6 0 0 1-.59-.58l.5.47a35 35 0 0 1-3.74-3.45 4 4 0 0 1-1.1-2.85c.33-10.72.65-22.4.94-34.6a4 4 0 0 1 1.16-2.71q.52-.52 1.09-1.05l-.06.05q7.97-7.5 19.48-7.9zm0 0" stroke="#1a1a1a" stroke-width="4" stroke-linecap="round" stroke-linejoin="round" data-locked="true"></path><path fill="#1a1a1a" d="M485.23 240.75a20.6 20.6 0 0 0-9.8 5.2l-.06.05q-5.93 5.4-6.86 14.06l.01-.15a21.7 21.7 0 0 0 5.32 16.1l.23.3-.05-.07q.66.8 4.3 3.58l-.17-.13a20 20 0 0 0 9.1 3.36l-4.36 4.13-2.45-50.12 3.95 3.77h0zm-1.7-7.75q.42-.1.85-.1h.01a3.97 3.97 0 0 1 3.96 3.78l2.44 50.12a3.98 3.98 0 0 1-4.35 4.14 27 27 0 0 1-12.72-4.68l-.19-.12q-4.36-3.33-5.62-4.86v.01l-.36-.47.25.3q-8.06-9.53-7.17-21.78l.01-.13q1.24-11.67 9.42-19.09l-.05.05a28.3 28.3 0 0 1 13.52-7.17zm0 0" stroke="#1a1a1a" stroke-width="4" stroke-linecap="round" stroke-linejoin="round" data-locked="true"></path><path fill="#1a1a1a" d="M403.34 437.2a29.4 29.4 0 0 1-29.38 29.43 29.4 29.4 0 0 1-29.39-29.44 29.4 29.4 0 0 1 29.4-29.44 29.4 29.4 0 0 1 29.37 29.44m-7.91 0a21.5 21.5 0 0 0-21.47-21.5 21.5 21.5 0 0 0-21.46 21.5c0 11.87 9.6 21.5 21.46 21.5a21.5 21.5 0 0 0 21.47-21.5zm0 0" stroke="#1a1a1a" stroke-width="4" stroke-linecap="round" stroke-linejoin="round" data-locked="true"></path><path fill="#1a1a1a" d="M458.7 387.07a29.4 29.4 0 0 1-29.4 29.44 29.4 29.4 0 0 1-29.37-29.44 29.4 29.4 0 0 1 29.37-29.44 29.4 29.4 0 0 1 29.4 29.44m-7.93 0c0-11.88-9.6-21.5-21.47-21.5a21.5 21.5 0 0 0-21.46 21.5c0 11.87 9.62 21.5 21.46 21.5a21.5 21.5 0 0 0 21.47-21.5zm0 0" stroke="#1a1a1a" stroke-width="4" stroke-linecap="round" stroke-linejoin="round" data-locked="true"></path><path fill="#1a1a1a" d="M490.62 538.92a29.4 29.4 0 0 1-29.37 29.43 29.4 29.4 0 0 1-29.4-29.43 29.4 29.4 0 0 1 29.4-29.45 29.4 29.4 0 0 1 29.37 29.45m-7.9 0a21.5 21.5 0 0 0-21.47-21.51 21.5 21.5 0 0 0-21.47 21.5c0 11.88 9.6 21.5 21.47 21.5a21.5 21.5 0 0 0 21.46-21.5zm0 0" stroke="#1a1a1a" stroke-width="4" stroke-linecap="round" stroke-linejoin="round" data-locked="true"></path><path fill="#1a1a1a" d="M466.66 617.99a29.4 29.4 0 0 1-29.38 29.43A29.4 29.4 0 0 1 407.9 618a29.4 29.4 0 0 1 29.38-29.44A29.4 29.4 0 0 1 466.66 618m-7.91 0c0-11.89-9.6-21.51-21.47-21.51a21.5 21.5 0 0 0-21.46 21.5 21.5 21.5 0 0 0 21.46 21.52A21.5 21.5 0 0 0 458.75 618zm0 0" stroke="#1a1a1a" stroke-width="4" stroke-linecap="round" stroke-linejoin="round" data-locked="true"></path><path fill="#1a1a1a" d="M573.92 676.32a29.4 29.4 0 0 1-29.38 29.43 29.4 29.4 0 0 1-29.4-29.43 29.4 29.4 0 0 1 29.4-29.44 29.4 29.4 0 0 1 29.38 29.44m-7.92 0a21.5 21.5 0 0 0-21.46-21.51 21.5 21.5 0 0 0-21.47 21.5c0 11.89 9.6 21.52 21.47 21.52A21.5 21.5 0 0 0 566 676.32zm0 0" stroke="#1a1a1a" stroke-width="4" stroke-linecap="round" stroke-linejoin="round" data-locked="true"></path><path fill="#1a1a1a" d="M468.79 725.32a29.4 29.4 0 0 1-29.38 29.43 29.4 29.4 0 0 1-29.38-29.43 29.4 29.4 0 0 1 29.38-29.45 29.4 29.4 0 0 1 29.38 29.45m-7.92 0a21.5 21.5 0 0 0-21.46-21.51 21.5 21.5 0 0 0-21.47 21.5c0 11.88 9.6 21.5 21.47 21.5a21.5 21.5 0 0 0 21.46-21.5zm0 0" stroke="#1a1a1a" stroke-width="4" stroke-linecap="round" stroke-linejoin="round" data-locked="true"></path><path fill="#1a1a1a" d="M620.5 789.64a29.4 29.4 0 0 1-29.37 29.44 29.4 29.4 0 0 1-29.38-29.44 29.4 29.4 0 0 1 29.38-29.44 29.4 29.4 0 0 1 29.38 29.44m-7.92 0c0-11.87-9.6-21.5-21.46-21.5a21.5 21.5 0 0 0-21.47 21.5c0 11.88 9.6 21.5 21.47 21.5a21.5 21.5 0 0 0 21.46-21.5zm0 0" stroke="#1a1a1a" stroke-width="4" stroke-linecap="round" stroke-linejoin="round" data-locked="true"></path><path fill="#1a1a1a" d="M683.73 714.28a29.4 29.4 0 0 1-29.38 29.44 29.4 29.4 0 0 1-29.38-29.44 29.4 29.4 0 0 1 29.38-29.44 29.4 29.4 0 0 1 29.38 29.44m-7.91 0a21.5 21.5 0 0 0-21.47-21.5 21.5 21.5 0 0 0-21.47 21.5 21.5 21.5 0 0 0 21.47 21.51 21.5 21.5 0 0 0 21.47-21.5zm0 0" stroke="#1a1a1a" stroke-width="4" stroke-linecap="round" stroke-linejoin="round" data-locked="true"></path><path fill="#1a1a1a" d="M527.37 751.19a29.4 29.4 0 0 1-29.4 29.43 29.4 29.4 0 0 1-29.37-29.43 29.4 29.4 0 0 1 29.38-29.45 29.4 29.4 0 0 1 29.39 29.45m-7.93 0c0-11.88-9.6-21.51-21.46-21.51a21.5 21.5 0 0 0-21.47 21.5c0 11.88 9.62 21.5 21.47 21.5a21.5 21.5 0 0 0 21.46-21.5zm0 0" stroke="#1a1a1a" stroke-width="4" stroke-linecap="round" stroke-linejoin="round" data-locked="true"></path><path fill="#1a1a1a" d="M640.04 878.82a29.4 29.4 0 0 1-29.38 29.43 29.4 29.4 0 0 1-29.38-29.43 29.4 29.4 0 0 1 29.38-29.45 29.4 29.4 0 0 1 29.38 29.45m-7.91 0a21.5 21.5 0 0 0-21.47-21.51 21.5 21.5 0 0 0-21.47 21.51c0 11.87 9.61 21.5 21.47 21.5a21.5 21.5 0 0 0 21.47-21.5zm0 0" stroke="#1a1a1a" stroke-width="4" stroke-linecap="round" stroke-linejoin="round" data-locked="true"></path><path fill="#1a1a1a" d="M413.83 509.68a29.4 29.4 0 0 1-29.38 29.43 29.4 29.4 0 0 1-29.38-29.43 29.4 29.4 0 0 1 29.38-29.45 29.4 29.4 0 0 1 29.38 29.45m-7.91 0a21.5 21.5 0 0 0-21.47-21.51 21.5 21.5 0 0 0-21.47 21.5c0 11.88 9.61 21.5 21.47 21.5a21.5 21.5 0 0 0 21.47-21.5zm0 0" stroke="#1a1a1a" stroke-width="4" stroke-linecap="round" stroke-linejoin="round" data-locked="true"></path><path fill="#1a1a1a" d="M545.08 593.41a29.4 29.4 0 0 1-29.38 29.43 29.4 29.4 0 0 1-29.38-29.43 29.4 29.4 0 0 1 29.38-29.43 29.4 29.4 0 0 1 29.38 29.43m-7.92 0c0-11.88-9.6-21.51-21.46-21.51a21.5 21.5 0 0 0-21.47 21.51c0 11.88 9.6 21.51 21.47 21.51a21.5 21.5 0 0 0 21.46-21.51zm0 0" stroke="#1a1a1a" stroke-width="4" stroke-linecap="round" stroke-linejoin="round" data-locked="true"></path><path d="M261.95 113.71c-.46-12.24-.47-29.57-.03-38.5l.8-16.25h203.66l2.6 15.04c1.42 8.27 3.31 25.6 4.2 38.5l1.63 23.47H262.79Z" data-region="path381" fill="#ffffff"></path><path d="m616.08 917.43-18.04-7.74 14.07-1.25c12.05-1.08 15.09-2.38 21.06-9.07 12.25-13.7 8.26-39.31-7.38-47.4-26.5-13.7-55.76 14.51-42.14 40.63 2 3.83 3.35 7.27 2.98 7.63-.36.36-9.85-6.43-21.1-15.1-15.88-12.23-20.27-16.89-19.66-20.86 3.81-25.11 3.37-29.7-3.58-37.47-8.62-9.62-20.92-12.67-33.56-8.33-5.11 1.76-10.63 5.02-12.26 7.25-2.7 3.7-3.73 3.45-12.06-2.9-5.01-3.8-32.94-25.21-62.06-47.56-43.88-33.69-57.62-43.01-75.25-51.08-.36-.17 3.67-7.7 8.95-16.73 44.33-75.87 22.1-138.98-77.78-220.9l-23.75-19.49 1.5-14.28c.81-7.86 1.48-22.09 1.48-31.63v-17.34l11.44.95c13.72 1.14 21.35-2.43 28.8-13.48 6.98-10.35 6.98-21.35 0-31.7-7.22-10.72-15.04-14.54-27.97-13.66l-10.6.72 1.57-61.2c.87-33.66 1.58-78.9 1.58-100.52V145.6h211.43l1.3 12.63c.7 6.95 1.95 26.32 2.74 43.04l1.46 30.4-7.07 5.03c-14.6 10.4-16.48 33.15-3.84 46.34 3.66 3.82 8.08 6.95 9.82 6.95 1.73 0 3.22.27 3.3.6.07.34 1.5 27.14 3.17 59.57 2.9 56.28 2.84 59.1-1.35 62.11-6.37 4.57-11.6 15.85-11.58 25 .01 9.72 7.61 22.78 15.3 26.28 4.58 2.1 6.65 6.5 10.67 22.8 8.36 33.87 17.52 49.55 44.42 76.08l23.69 23.37-3.73 7.2c-4.9 9.46-4.73 23.05.38 31.7 8.67 14.68 33.08 18.44 45.29 6.97 3.51-3.3 6.79-4.54 8.79-3.33 1.75 1.06 26.95 20.4 56 42.96 46.3 35.98 88.19 73.14 87.86 77.95-.06.88-7.22 6.96-15.92 13.51-39.39 29.67-87.65 99.34-103.37 149.2-2.32 7.35-4.83 13.34-5.58 13.3-.75-.05-9.49-3.57-19.42-7.83zm-9.54-101.64c8.62-4.46 14.36-14.93 14.36-26.2 0-19.35-13.85-31.82-32.94-29.67-37.05 4.18-34.85 59.2 2.37 59.46 5.03.03 12.32-1.58 16.2-3.59zm-89.36-41.05c15.33-12.89 14.35-37.52-1.93-48.47a30.24 30.24 0 0 0-45.74 15.19c-4.35 12.5-2.1 21.24 8.1 31.43 6.98 6.99 9.63 8.05 20.13 8.05 9.47 0 13.68-1.34 19.44-6.2zm-59.93-24.9c18.34-12.99 15.67-41.34-4.9-51.98-27.1-14.02-55 19.12-37.73 44.82 9.3 13.84 28.6 17.08 42.63 7.15zm214.43-10.5c16.27-10.96 17.25-35.58 1.93-48.48-5.77-4.85-9.97-6.19-19.45-6.19-10.5 0-13.14 1.06-20.12 8.04-10.2 10.2-12.46 18.94-8.1 31.44a30.24 30.24 0 0 0 45.74 15.18zm-106.7-41.25c8.35-7.65 8.99-9.2 8.99-21.84s-.64-14.2-8.99-21.85c-7.15-6.55-10.99-8.23-18.77-8.23-19.47 0-31.2 11.31-31.2 30.08 0 18.8 11.26 29.8 30.72 29.99 8.4.07 11.89-1.4 19.25-8.15zm-114-53.17c10.28-4.88 15.9-15.06 15.9-28.85 0-9.64-1.2-12.5-8.19-19.48-6.95-6.96-9.85-8.18-19.37-8.18-14.47 0-23.77 4.96-28.67 15.3-7.44 15.66-3.02 31.46 11.22 40.15 9.26 5.64 18.73 5.99 29.1 1.06zm77.29-23.88c24.43-10.2 22.88-47.68-2.32-56.12-20.28-6.79-39.82 6.93-39.82 27.95 0 12.83 4.2 20.24 15.32 27.02 9.03 5.5 15.71 5.8 26.82 1.15zm-51.69-55.53c19.04-9.85 19.04-43.02 0-52.87-22.92-11.85-48.44 5.49-45.07 30.62 2.8 20.85 25.8 32.2 45.07 22.25zm-77.95-29.17c10.34-4.9 15.3-14.2 15.3-28.67 0-9.52-1.22-12.42-8.18-19.37s-9.86-8.19-19.37-8.19c-14.48 0-23.77 4.96-28.68 15.3-7.43 15.67-3.02 31.47 11.23 40.15 9.4 5.74 18.74 5.98 29.7.78zm-10.94-71.99c15.37-7.95 21.04-28.7 11.92-43.65-6.06-9.94-12.46-13.19-25.96-13.19-18.31 0-29.4 11.64-29.47 30.9-.08 22.07 23.64 36.21 43.5 25.94zm62.9-55.88c13.75-13.75 10.93-39.05-5.3-47.44-21.73-11.24-45.8 2.7-45.8 26.54 0 26.46 32.32 39.68 51.1 20.9zm-38.51-67.86c14.1-11.08 15.12-34.65 2.02-46.36-4.04-3.6-10.07-7.25-13.4-8.08-17.99-4.52-37.3 10.03-37.3 28.1 0 11.23 4.93 21.99 12.55 27.32 7.87 5.5 28.6 4.95 36.13-.98zm-98.35-1c12.34-5.15 18.38-14.52 18.38-28.52 0-10.33-1.09-13.04-8-19.94-9.86-9.87-21.66-12.53-33.54-7.57q-17.41 7.29-17.42 28.4c0 13.8 6.5 23.69 18.27 27.81 10.77 3.78 12.9 3.76 22.31-.17zm25.6-99.74c3.3-2.38 7.97-8.27 10.36-13.07 10.9-21.91-9.76-46.91-34.31-41.52-23.37 5.13-31.57 34.38-14.45 51.51 10.77 10.76 26.05 11.99 38.4 3.08zm97.2-4.06c10.3-4.89 15.9-15.07 15.9-28.85 0-9.65-1.2-12.5-8.18-19.49-7.18-7.18-9.69-8.18-20.54-8.18-14.75 0-23.54 5.01-28.16 16.06-6.55 15.69-1.95 30.96 11.88 39.39 9.26 5.64 18.73 5.99 29.1 1.07z" data-region="path382" fill="#ffffff"></path><path d="M309.57 229.65c-4.84-3.8-6.34-7.13-6.34-14.02 0-11.82 7.8-19.5 19.83-19.5 16.73 0 24.79 20.58 12.77 32.6-7.31 7.31-17.68 7.67-26.26.92z" data-region="path383" fill="#ffffff"></path><path d="M413.66 226.28c-3.45-1.91-7.56-6.57-9.13-10.35-7.98-19.26 17.57-35.91 32.37-21.1 7.5 7.5 7.7 18.28.5 26.35-6.85 7.66-15.67 9.55-23.74 5.1z" data-region="path384" fill="#ffffff"></path><path d="M474.58 274.94c-5.3-6.4-5.93-16.1-1.48-22.87l4.35-6.6 1.7 6.02c2.47 8.8 2.5 26.47.05 26.47-1.16 0-3.24-1.36-4.62-3.02z" data-region="path385" fill="#ffffff"></path><path d="M380.72 330.84c-11.42-10.64-9.03-25.96 5.1-32.7 7.45-3.55 8.7-3.54 15.8.13 7.2 3.72 12.31 11.77 12.31 19.37 0 1.8-2.8 6.6-6.23 10.67-7.52 8.94-18.94 10.01-26.98 2.53z" data-region="path386" fill="#ffffff"></path><path d="M288.8 324.9c-17.37-18.5 9.82-44.55 27.77-26.6 7.82 7.82 7.82 18.88 0 26.7-8 8.01-20.19 7.97-27.76-.1z" data-region="path387" fill="#ffffff"></path><path d="M263 392.98c-4.92-2.37-5.24-3.76-3.93-17.29 1.38-14.3 5.09-20.72 11.97-20.72 13.6 0 24.03 14.31 19.63 26.94-4.28 12.27-15.71 16.84-27.68 11.07z" data-region="path388" fill="#ffffff"></path><path d="M300.82 705.5c-49.14-20.44-59.61-29.97-71.25-64.9-9.8-29.43-7.95-50.13 9.91-111.54l14.11-48.52 18.2 14.73c56.66 45.85 87.76 87.4 94.39 126.15 2.35 13.74 2.15 19.18-1.24 34.37-5.86 26.22-24.07 62.82-31.06 62.4-1.64-.1-16.51-5.82-33.06-12.7z" data-region="path389" fill="#ffffff"></path><path d="M366.23 454.68c-19.53-8.21-13.48-37.14 7.78-37.14 6.21 0 9.72 1.8 14.44 7.4 7.17 8.53 7.6 11.87 2.7 21.34-4.76 9.19-14.9 12.61-24.92 8.4z" data-region="path390" fill="#ffffff"></path><path d="M422.01 405.58c-6.77-2.8-12.9-11.75-12.9-18.84 0-7.74 12.45-19.74 20.46-19.74 3.91 0 9.23 2.84 13.7 7.32 6.16 6.15 7.08 8.55 5.78 15.03-2.67 13.37-15.44 21.03-27.04 16.23z" data-region="path391" fill="#ffffff"></path><path d="M375.16 527.1c-3.46-1.91-7.57-6.57-9.14-10.35-7.97-19.26 17.57-35.91 32.38-21.1 7.5 7.5 7.7 18.28.5 26.35-6.85 7.66-15.67 9.56-23.74 5.1z" data-region="path392" fill="#ffffff"></path><path d="M452.44 556.42c-13.07-6.62-14.65-23.88-3.02-33.03 8.53-6.7 16.63-5.97 24.86 2.26 9.13 9.13 9.13 17.72 0 26.85-7.68 7.68-12.64 8.57-21.84 3.92z" data-region="path393" fill="#ffffff"></path><path d="M484.98 445.88c-3.92-7.81-4.08-9.81-1.28-15.64l3.21-6.68 2.05 10.83c1.13 5.95 1.7 13 1.29 15.64-.62 3.87-1.65 3.05-5.27-4.15z" data-region="path394" fill="#ffffff"></path><path d="M428.1 635.4c-13.14-7.26-14.06-24.9-1.75-33.51 8.12-5.7 17.3-4.76 24.56 2.49 7.87 7.87 8.22 17.75.93 25.92-6.85 7.66-15.67 9.55-23.74 5.1z" data-region="path395" fill="#ffffff"></path><path d="M501.66 606.57c-12.22-12.23-3.46-32.6 14.02-32.6 13.5 0 24.25 15.85 18.32 26.98-6.9 12.96-22.31 15.64-32.34 5.62z" data-region="path396" fill="#ffffff"></path><path d="M580.85 626.99c-11.83-4.9-16.3-19.62-8.69-28.54 4.19-4.9 4.31-4.84 19.1 7.92 13.73 11.85 14.57 13.14 10.83 16.51-5.42 4.9-14.91 6.73-21.24 4.1z" data-region="path397" fill="#ffffff"></path><path d="M532.04 690.47c-9.83-8.26-9.96-18.05-.37-27.64 8.57-8.57 16.88-9 25.8-1.33 9.3 8 9.3 21.5 0 29.5-8.58 7.38-16.23 7.22-25.43-.53z" data-region="path398" fill="#ffffff"></path><path d="M424.98 737.43c-7.18-8.52-7.6-11.86-2.7-21.33 10.07-19.47 41.73-8.18 36.42 12.98-4.2 16.75-22.78 21.35-33.72 8.35z" data-region="path399" fill="#ffffff"></path><path d="M484.82 765.4c-9.74-9.74-7.8-25.44 3.89-31.48 9.44-4.88 12.78-4.46 21.3 2.7 5.64 4.75 7.4 8.22 7.4 14.56 0 10.8-8.92 20.13-19.25 20.13-4.69 0-9.62-2.18-13.34-5.9z" data-region="path400" fill="#ffffff"></path><path d="M524.5 853.64a1156 1156 0 0 1-15.64-12.15l-7.08-5.63 5.68-4.6c16.52-13.38 41.28 8.19 28.6 24.93-2.74 3.62-3.76 3.4-11.56-2.55z" data-region="path401" fill="#ffffff"></path><path d="M599.62 895c-12.52-8.77-11.34-26.53 2.24-33.56 9.74-5.03 13.7-4.38 21.63 3.54 9.06 9.06 9.3 18.91.69 27.53-7.25 7.25-16.43 8.19-24.56 2.5z" data-region="path402" fill="#ffffff"></path><path d="M578.44 804.11c-13.01-11.19-7.02-30.73 10.48-34.23 6.49-1.3 8.89-.37 15.04 5.78 9.41 9.41 9.5 17.9.28 27.12-8.57 8.57-16.89 9-25.8 1.33z" data-region="path403" fill="#ffffff"></path><path d="M646.17 732.43c-12.45-6.8-14.82-22.33-4.93-32.22 12.32-12.32 32.6-3.46 32.6 14.22 0 6.34-1.76 9.8-7.4 14.55-8.01 6.74-12.78 7.55-20.27 3.45z" data-region="path404" fill="#ffffff"></path><path d="M684.67 938.2c-23.45-4.96-37.3-8.92-37.3-10.67 0-4.11 11.52-32.58 19.87-49.13 22.27-44.09 61.63-92.76 91.65-113.33l7.54-5.16 8.04 13.35c40.9 67.9 41.06 99.03.67 140.15-13.83 14.07-18.04 16.84-32.38 21.27-15.47 4.78-43.95 6.5-58.09 3.51z" data-region="path405" fill="#ffffff"></path></svg>