<?xml version="1.0"?>
<svg xmlns="http://www.w3.org/2000/svg" xmlns:svg="http://www.w3.org/2000/svg" viewBox="0 0 1024 1024" preserveAspectRatio="xMidYMid" version="1.0"><path transform="matrix(.92548 0 0 .92495 58.12 201.065)" fill="none" d="M116.84 414.59Q96.77 334 39.46 274.54q-13.76-14.3-28.28-23.31a3.2 3.2 0 0 0-4.89 2.86c3.33 76.62 44.77 139.96 83.48 202.85a.95.95 0 0 1-.77 1.44q-31.72.47-74.44.28c-19.29-.06-13.3 19.81-13.71 30.11-.55 13.93 6.42 15.68 17.99 16.93.86.09 1.57.7 1.77 1.56a9854 9854 0 0 1 19.32 82.42q3.81 16.69 16.65 23.29 7.47 3.86 28.98 3.5 34.52-.6 100.88.36c20.4.27 34.47-3.64 39.69-23.48l20.5-85.9a3.47 3.47 0 0 1 3.78-2.64c19.68 2.2 16.43-15.48 16.55-28.66.1-9.86-3.42-17.66-13.52-17.63q-37.2.03-80.77-.06a1.1 1.1 0 0 1-1.06-1.08q0-.34.2-.61c40-55.98 77.63-117.04 88.56-185.73q.98-6.1.23-10.51a3.74 3.74 0 0 0-5.83-2.45q-13.51 9.44-25.84 21.04c-41.94 39.5-75.21 88.32-90.25 143.65a.39.39 0 0 1-.75-.08 952 952 0 0 1 2.83-119.12 4.4 4.4 0 0 1 2.25-3.5c24.06-13.51 40.63-32.02 44.51-59.91.09-.63.67-1.06 1.3-.96q.31.04.56.23c25.34 20.51 58.26 16.57 86.79 5.83a3.7 3.7 0 0 0 2.39-3.3c1.02-22.57-5.8-54.54-24.65-69.1a1.18 1.18 0 0 1 .05-1.92q27.01-17.91 39.28-48.99c.96-2.47.16-5.3-1.97-6.88-29.03-21.5-62-35.03-96.59-17.13a1.08 1.08 0 0 1-1.52-1.24q.47-1.72 2.02-5.94C207.2 57.84 185.58 22 160.46 1.6a5.4 5.4 0 0 0-6.16-.47c-25.81 15.18-47.62 41.83-46.24 73.21a1.28 1.28 0 0 1-1.88 1.17c-29.59-16.85-63.76-9.38-93.25 4.55a3.94 3.94 0 0 0-2.23 4.17c3.78 26.1 15.19 51.79 38.14 66.19.7.45.93 1.39.48 2.09q-.17.28-.45.46c-21.15 13.35-29.42 33.94-34.23 57.67a5.6 5.6 0 0 0 2.56 5.91c24.37 14.9 55.67 21.04 82.07 8.55a.94.94 0 0 1 1.33.95q-3.45 33.94 18.18 58.03a9 9 0 0 1 2.22 6.82c-4.22 41.66-3.64 80.38-3.36 123.56a.41.41 0 0 1-.8.12" stroke="#8d8d8d" stroke-width="2"></path><path transform="matrix(.92548 0 0 .92495 58.12 201.065)" fill="none" d="M124.5 103.16c10.82-8.21 20.84-13.13 30.83-1.52.63.74 1.73.9 2.55.36q12.38-8.08 21.95 3.02a1.67 1.67 0 0 0 2.56-.03 40 40 0 0 0 6.94-12.63c10.66-32.72-4.97-64.83-30.75-84.72a2.9 2.9 0 0 0-3.2-.23q-23.1 13.33-35.13 35.89-15.32 28.77 2 59.39c.4.73 1.34 1 2.07.58l.18-.11" stroke="#8d8d8d" stroke-width="2"></path><path fill="none" d="M150.81 319.8q.21-15.81 15.9-20.29c.59-.16.93-.77.76-1.35a1 1 0 0 0-.17-.34q-3.78-5.31-7.7-15.68c-2.29-6.06-5.01-7.78-10.56-9.91-24.45-9.45-46.23-4.5-71 4.64q-5.18 1.94-3.92 7.83c4.54 21.33 15.3 41.95 34.18 52.9.82.48 1.8.6 2.7.34a66 66 0 0 1 28-1.95 1.9 1.9 0 0 0 2.13-1.59q1.38-9.12 8.37-12.53c.8-.39 1.3-1.2 1.31-2.08" stroke="#8d8d8d" stroke-width="1.85"></path><path transform="matrix(.92548 0 0 .92495 58.12 201.065)" fill="none" d="M201.95 170.27q41.72 10.58 67.67-20.34 11.4-13.64 17.23-27.64a3.5 3.5 0 0 0-1.02-4.06 109 109 0 0 0-46.38-22q-25.84-5.4-50.73 11.34-4.56 3.06-5.36 9.41a1.9 1.9 0 0 0 1.28 2.05l9.6 3.28q.69.25 1.2.78 9.74 10.54 2.19 23.2c-.84 1.4-.6 3.2.55 4.33q7.2 7.1 3.14 18.4a.96.96 0 0 0 .57 1.23l.06.02" stroke="#8d8d8d" stroke-width="2"></path><path fill="none" d="M177.24 373.19q-1.5 13.13 13.49 12.8 4.98-.1 7.11-6.23a3.6 3.6 0 0 1 4.42-2.26q.2.05 4.52 2.62 12.17 7.19 18.08-6.68c.24-.56.3-1.18.2-1.76l-1.1-6.04a2.4 2.4 0 0 1 2.44-2.82q12.8.33 14.67-12.43a8 8 0 0 0 0-2.02q-.5-3.83-7.2-8.17a2.9 2.9 0 0 1-.94-3.9c.74-1.28 4.06-2.8 4.88-5.19 3.19-9.08-4.11-15.86-13.07-14.78a2.44 2.44 0 0 1-2.7-2.9l1.28-6.55a5.9 5.9 0 0 0-2.72-6.1q-10.53-6.28-17.26 2.53c-.61.8-1.76.95-2.56.34l-.03-.03c-2.7-2.15-2.45-6.37-6.68-8.19q-8.14-3.49-14.98 3.67a4 4 0 0 0-.95 1.88l-1.03 5.13a1.57 1.57 0 0 1-1.82 1.26c-2.26-.44-3.88-1.54-5.93-1.75q-10.59-1.1-12.67 9.94-.75 3.98 3.4 9.7a.9.9 0 0 1-.22 1.25 1 1 0 0 1-.43.16c-6.16.52-10.53.67-13.45 6.65-.44.89-.4 1.93.1 2.78l6.8 11.75c.4.7 1.2 1.09 2 .95l2.03-.39a1.54 1.54 0 0 1 1.78 1.83l-.23 1.23a1.63 1.63 0 0 1-1.92 1.29h-.01l-2.5-.5a1.26 1.26 0 0 0-1.48 1.37q1.15 11.42 2.51 13.58 6.2 9.8 20.53 4.67a1.23 1.23 0 0 1 1.64 1.3" stroke="#8d8d8d" stroke-width="1.85"></path><path fill="none" d="M167.15 379.12q-12.18-.92-15.62-10.07c-1.44-3.8-.38-8.57-.77-11.67a2.1 2.1 0 0 0-1.93-1.8q-5.06-.33-2.97-6.98c.24-.77.17-1.6-.18-2.31q-2.27-4.63-5.3-5.16-31.26-5.75-49.31 19.68a82 82 0 0 0-14.18 34.35 2.95 2.95 0 0 0 1.41 3.03q27.4 16.05 58.13 10.63 8.7-1.54 14.95-6.45a10 10 0 0 0 2.88-3.5 72 72 0 0 1 13.38-18.42.8.8 0 0 0 0-1.12 1 1 0 0 0-.5-.21" stroke="#8d8d8d" stroke-width="1.85"></path><path fill="none" d="M231.18 370.11q.06 6.47-5.78 12.86a2.4 2.4 0 0 0-.4 2.64q5.92 13.33 6.67 26.26a8.3 8.3 0 0 0 3.36 6.22c22.43 16.5 49.99 14.99 74.44 5.7a1.9 1.9 0 0 0 1.23-1.75q1.1-35.06-21.65-58.2a3.7 3.7 0 0 0-3.6-.94 82 82 0 0 1-43.2.66 3.5 3.5 0 0 0-2.62.36l-7.32 4.24c-.7.4-1.13 1.14-1.13 1.95" stroke="#8d8d8d" stroke-width="1.85"></path><path fill="none" d="M171.28 381.63c-9.16 12.56-14.9 19.41-15.54 34.69-1.05 24.64 12 42.81 29.41 58.3.64.56 1.56.65 2.29.23 11.28-6.68 22.76-15.3 29.67-26.5q17.06-27.6 4.2-57.9a4.9 4.9 0 0 0-5.26-2.94q-5.18.8-11.92-2.82c-.92-.5-2.05-.3-2.74.46q-10.82 11.89-23.66 2.24c-1.72-1.29-3.77-4.5-4.83-5.78a1.03 1.03 0 0 0-1.62.02" stroke="#8d8d8d" stroke-width="1.85"></path><path fill="none" d="M168.61 622.84c-8.42-68.57-42.33-137.7-97.45-181.5a1.15 1.15 0 0 0-1.87 1.03q4.08 40.54 18.13 73.7c16.08 37.97 34.21 65.9 59.6 107.6.55.9 1.54 1.45 2.6 1.45h16.99a2.03 2.03 0 0 0 2-2.28" stroke="#8d8d8d" stroke-width="1.85"></path><path fill="none" d="M188.77 625.1h18.91c1.11 0 2.16-.53 2.82-1.41q23.12-31.17 49.01-77.35 25.72-45.87 34.06-93.62.54-3.08.08-4.67a1.08 1.08 0 0 0-1.7-.52c-50.93 41.07-91.85 97.4-104.18 161.93q-.04.21-.61 13.97c-.03.9.67 1.64 1.56 1.67h.05" stroke="#8d8d8d" stroke-width="1.85"></path><path fill="none" d="m181.22 479.16-3.85-4.37a1.54 1.54 0 0 0-2.7.9q-5.72 73.17-.84 148.15c.05.79.72 1.39 1.51 1.36l5.7-.3a1.5 1.5 0 0 0 1.42-1.54v-.06a964 964 0 0 1 .3-139.55 6.2 6.2 0 0 0-1.54-4.6" stroke="#8d8d8d" stroke-width="1.85"></path><path transform="matrix(.92548 0 0 .92495 58.12 201.065)" fill="none" d="M260.96 471.1c0-3.83-3.1-6.92-6.91-6.92H13.2a6.9 6.9 0 0 0-6.9 6.91v21.48a6.9 6.9 0 0 0 6.9 6.91h240.85c3.81 0 6.91-3.1 6.91-6.9v-21.49" stroke="#8d8d8d" stroke-width="2"></path><path transform="matrix(.92548 0 0 .92495 58.12 201.065)" fill="none" d="M133.54 505.17q-100.71.08-106.13.17a1.22 1.22 0 0 0-1.16 1.52A7058 7058 0 0 1 46 590.5q2.8 12.24 11.6 17.48 4.57 2.75 21.1 2.72 22.73 0 54.91-.03l54.96-.05q16.5 0 21.1-2.78 8.76-5.25 11.57-17.48 7.57-33.45 19.62-83.65a1.22 1.22 0 0 0-1.2-1.53q-5.4-.09-106.13 0" stroke="#8d8d8d" stroke-width="2"></path><path fill="none" d="M222.01 337.72c-1.24-14.52-14.44-25.25-29.48-23.97-15.04 1.3-26.22 14.11-24.97 28.63 1.24 14.52 14.44 25.25 29.48 23.96s26.22-14.1 24.97-28.62" stroke="#8d8d8d" stroke-width="1.85"></path><path fill="none" d="M216.13 336.13c-1.91-11.3-13.22-18.82-25.24-16.79h0c-12.04 2.03-20.24 12.85-18.32 24.16s13.22 18.83 25.25 16.8c12.02-2.04 20.22-12.85 18.3-24.17" stroke="#8d8d8d" stroke-width="1.85"></path><path fill="none" d="M187.57 344.05q-4.89 2.51-2.83 6.99a3.56 3.56 0 0 0 4.46 1.9 3 3 0 0 0 1.66-1.65q.56-1.4 3.57-4.57c.43-.46 1.16-.5 1.63-.06q.23.2.32.5 1.74 5.34 6.06 3.13c1.95-.98 3-3.27 2.36-5.1a3 3 0 0 0-1.98-1.86q-.37-.12-.84-.61a1.5 1.5 0 0 1-.08-1.93c.61-.8 2.36-1.54 3.26-2.95q2.09-3.3-2.98-6.55a2.53 2.53 0 0 0-3.42.6c-.28.4-.41.89-.38 1.38q.13 2.16-1.61 3.18a1.44 1.44 0 0 1-2.09-.77q-1.82-5.52-4.42-4.92c-3.75.86-6.26 4.27-5.62 7.6q.16.86.59 1.61.4.72 2.39 1.88a1.25 1.25 0 0 1-.05 2.2" stroke="#8d8d8d" stroke-width="1.85"></path><path fill="#1b1b1a" d="M167 584.43c-.25-39.94-.8-75.75 3.1-114.28a8.3 8.3 0 0 0-2.06-6.32q-20-22.28-16.81-53.66a.86.86 0 0 0-1.24-.89c-24.42 11.56-53.4 5.88-75.94-7.9a5.2 5.2 0 0 1-2.37-5.47c4.44-21.95 12.09-41 31.67-53.35.65-.4.82-1.27.4-1.92a1 1 0 0 0-.43-.44c-21.24-13.32-31.8-37.07-35.3-61.22-.24-1.6.6-3.16 2.07-3.85 27.3-12.88 58.92-19.8 86.3-4.21a1.18 1.18 0 0 0 1.75-1.09c-1.29-29.03 18.9-53.66 42.78-67.71a5 5 0 0 1 5.7.44c23.26 18.88 43.27 52 32.14 82.45q-1.44 3.9-1.88 5.49a1 1 0 0 0 1.42 1.16c32-16.56 62.51-4.06 89.38 15.84a5.5 5.5 0 0 1 1.83 6.36q-11.35 28.75-36.36 45.32c-.5.32-.61.99-.28 1.5q.1.15.25.26c17.43 13.49 23.74 43.06 22.8 63.92a3.5 3.5 0 0 1-2.21 3.06c-26.4 9.93-56.88 13.57-80.32-5.39a1.1 1.1 0 0 0-1.5.17 1 1 0 0 0-.23.5c-3.59 25.8-18.92 42.93-41.19 55.41a4 4 0 0 0-2.08 3.24 880 880 0 0 0-2.62 110.18.4.4 0 0 0 .4.3q.22-.02.3-.21c13.92-51.2 44.71-96.36 83.51-132.88a212 212 0 0 1 23.93-19.46 3.45 3.45 0 0 1 5.39 2.25q.69 4.08-.2 9.74c-10.12 63.53-44.96 120.01-81.97 171.78a1 1 0 0 0 .22 1.37q.25.18.57.2 40.34.08 74.75.06c9.35-.04 12.61 7.18 12.51 16.28-.1 12.22 2.9 28.56-15.3 26.53a3.2 3.2 0 0 0-3.5 2.44l-18.97 79.45c-4.84 18.36-17.87 21.97-36.74 21.72q-61.42-.87-93.37-.34-19.91.32-26.81-3.23-11.9-6.1-15.42-21.54-6.03-26.46-17.88-76.24a1.85 1.85 0 0 0-1.64-1.43c-10.7-1.16-17.15-2.78-16.64-15.67.38-9.51-5.16-27.9 12.68-27.85q39.54.19 68.9-.24a.88.88 0 0 0 .72-1.36c-35.84-58.16-74.18-116.74-77.27-187.62a2.96 2.96 0 0 1 4.53-2.64A137 137 0 0 1 94.64 455q53.03 55.02 71.61 129.54a.37.37 0 0 0 .5.22.4.4 0 0 0 .24-.33zm6.33-287.95c10.02-7.6 19.3-12.14 28.54-1.4.6.69 1.6.83 2.37.33q11.46-7.48 20.32 2.8a1.54 1.54 0 0 0 2.36-.03q4.37-5.45 6.41-11.68c9.87-30.26-4.59-59.96-28.45-78.38a2.7 2.7 0 0 0-2.96-.2q-21.4 12.32-32.5 33.2-14.18 26.62 1.84 54.93a1.4 1.4 0 0 0 1.91.54zm-22.51 23.32q.2-15.82 15.89-20.28a1.1 1.1 0 0 0 .76-1.36 1 1 0 0 0-.17-.35q-3.77-5.3-7.7-15.66c-2.3-6.07-5.02-7.79-10.56-9.92-24.45-9.45-46.24-4.5-71 4.65q-5.18 1.92-3.92 7.82c4.54 21.34 15.3 41.95 34.17 52.91a3.5 3.5 0 0 0 2.72.34 67 67 0 0 1 28-1.96 1.9 1.9 0 0 0 2.11-1.58q1.4-9.12 8.4-12.54a2.3 2.3 0 0 0 1.3-2.07zm94.2 38.76q38.6 9.77 62.63-18.82 10.55-12.6 15.95-25.57a3.2 3.2 0 0 0-.95-3.75 101 101 0 0 0-42.93-20.35q-23.9-4.98-46.94 10.48-4.22 2.84-4.96 8.71c-.12.84.39 1.63 1.18 1.9l8.88 3.04q.64.24 1.11.71 9 9.76 2.03 21.47a3.3 3.3 0 0 0 .51 4q6.67 6.56 2.9 17.02c-.16.47.08.99.53 1.14zm-67.77 14.63q-1.52 13.12 13.48 12.81 4.97-.1 7.1-6.24a3.6 3.6 0 0 1 4.42-2.26q.23.06 4.53 2.61 12.18 7.2 18.09-6.66.35-.89.2-1.77l-1.12-6.05a2.4 2.4 0 0 1 2.46-2.81q12.78.33 14.67-12.43.1-1 0-2.02-.5-3.82-7.2-8.17a2.9 2.9 0 0 1-.96-3.9c.74-1.28 4.07-2.8 4.89-5.19 3.18-9.08-4.11-15.86-13.08-14.78a2.44 2.44 0 0 1-2.69-2.9l1.28-6.55a5.9 5.9 0 0 0-2.7-6.1q-10.55-6.27-17.28 2.54c-.62.79-1.77.95-2.55.33l-.04-.03c-2.7-2.15-2.44-6.36-6.69-8.19q-8.14-3.5-14.96 3.68-.74.79-.97 1.87l-1.02 5.14a1.57 1.57 0 0 1-1.81 1.24c-2.27-.43-3.89-1.54-5.94-1.72q-10.58-1.11-12.67 9.91-.74 3.99 3.4 9.71a.9.9 0 0 1-.21 1.25 1 1 0 0 1-.44.16c-6.17.52-10.53.67-13.44 6.65-.45.89-.41 1.92.08 2.78l6.81 11.75c.4.7 1.21 1.09 2 .95l2.04-.4a1.54 1.54 0 0 1 1.77 1.83l-.24 1.24a1.6 1.6 0 0 1-1.9 1.28h-.02l-2.49-.5a1.26 1.26 0 0 0-1.5 1.38q1.16 11.42 2.53 13.57 6.19 9.8 20.53 4.69a1.23 1.23 0 0 1 1.56.74q.11.26.08.56zm-10.1 5.93q-12.18-.92-15.61-10.07c-1.45-3.79-.39-8.56-.78-11.67a2.1 2.1 0 0 0-1.93-1.8q-5.05-.34-2.97-6.99c.25-.76.17-1.6-.18-2.3q-2.26-4.63-5.3-5.16-31.27-5.76-49.3 19.69a81.4 81.4 0 0 0-14.2 34.35 3 3 0 0 0 1.42 3.02q27.4 16.05 58.13 10.63 8.7-1.54 14.94-6.45a10 10 0 0 0 2.88-3.52 72 72 0 0 1 13.39-18.4.8.8 0 0 0 0-1.11.7.7 0 0 0-.5-.22zm64.03-9.01q.05 6.48-5.78 12.85a2.5 2.5 0 0 0-.41 2.66q5.92 13.32 6.67 26.25a8.3 8.3 0 0 0 3.37 6.22c22.43 16.5 50 14.99 74.44 5.7a1.9 1.9 0 0 0 1.24-1.75q1.1-35.07-21.65-58.2c-.94-.95-2.32-1.3-3.6-.95a82 82 0 0 1-43.21.67 3.5 3.5 0 0 0-2.62.37l-7.32 4.23c-.7.4-1.13 1.14-1.13 1.95zm-59.9 11.52c-9.16 12.56-14.9 19.4-15.54 34.68-1.05 24.65 12 42.82 29.41 58.3.63.56 1.56.66 2.29.23 11.27-6.66 22.76-15.3 29.67-26.49q17.05-27.6 4.2-57.9a4.9 4.9 0 0 0-5.26-2.93q-5.19.79-11.92-2.84a2.2 2.2 0 0 0-2.74.47q-10.82 11.9-23.66 2.23c-1.73-1.28-3.78-4.49-4.83-5.77a1.04 1.04 0 0 0-1.61.02zm-2.67 241.2c-8.43-68.56-42.32-137.69-97.45-181.47a1.16 1.16 0 0 0-1.88 1q4.08 40.54 18.14 73.71c16.07 37.97 34.21 65.9 59.59 107.6a3.1 3.1 0 0 0 2.61 1.45h17a2.02 2.02 0 0 0 1.99-2.29zm20.17 2.26h18.9c1.11 0 2.16-.52 2.83-1.4q23.1-31.17 49-77.36 25.72-45.87 34.06-93.61.55-3.09.08-4.68a1.07 1.07 0 0 0-1.7-.52c-50.93 41.09-91.84 97.4-104.18 161.94q-.04.2-.62 13.97c-.02.9.68 1.64 1.57 1.66zm-7.56-145.93-3.85-4.37a1.55 1.55 0 0 0-2.17-.15q-.47.42-.52 1.05a1035 1035 0 0 0-.86 148.14c.06.8.74 1.4 1.53 1.36l5.7-.3a1.5 1.5 0 0 0 1.41-1.54v-.05q-4.9-68.84.3-139.55a6.2 6.2 0 0 0-1.54-4.6zM299.63 636.8a6.4 6.4 0 0 0-6.4-6.39H70.35a6.4 6.4 0 0 0-6.4 6.4v19.86a6.4 6.4 0 0 0 6.4 6.4h222.9a6.4 6.4 0 0 0 6.39-6.4zm-117.92 31.52q-93.2.08-98.21.16a1.14 1.14 0 0 0-1.09 1.41q11.23 46.45 18.28 77.35 2.6 11.33 10.74 16.17 4.24 2.55 19.53 2.53l50.83-.04q29.83 0 50.85-.05 15.3 0 19.53-2.57 8.1-4.85 10.7-16.16 7.03-30.94 18.17-77.38a1.1 1.1 0 0 0-1.11-1.42q-5-.07-98.22 0zm0 0"></path><path fill="#1a1a1a" d="M222.01 337.72c1.25 14.52-9.93 27.33-24.97 28.62s-28.24-9.44-29.48-23.96 9.93-27.33 24.97-28.63c15.04-1.28 28.24 9.45 29.48 23.97zm-5.88-1.59c-1.91-11.3-13.22-18.82-25.24-16.79h0c-12.04 2.03-20.24 12.85-18.32 24.16s13.22 18.83 25.25 16.8c12.02-2.04 20.22-12.85 18.3-24.17zm0 0" stroke="#1a1a1a" stroke-width="4" stroke-linecap="round" stroke-linejoin="round" data-locked="true"></path><path fill="#1a1a1a" d="M187.62 341.85q-1.98-1.16-2.4-1.88c-1.64-2.97-.2-6.8 3.22-8.55q.88-.45 1.82-.66 2.6-.6 4.42 4.93a1.44 1.44 0 0 0 2.09.76q1.74-1.02 1.61-3.18c-.09-1.28.94-2.35 2.31-2.38q.81-.02 1.5.4 5.06 3.24 2.97 6.55c-.9 1.41-2.65 2.16-3.26 2.96-.45.58-.41 1.39.08 1.92q.46.5.84.61c1.88.54 2.7 2.61 1.82 4.62a4.8 4.8 0 0 1-2.2 2.34q-4.32 2.2-6.06-3.13a1.16 1.16 0 0 0-1.95-.44q-3 3.16-3.57 4.57c-.69 1.66-2.63 2.34-4.35 1.53-.77-.37-1.4-1-1.77-1.78q-2.06-4.47 2.83-6.99a1.25 1.25 0 0 0 .05-2.2zm0 0" stroke="#1a1a1a" stroke-width="4" stroke-linecap="round" stroke-linejoin="round" data-locked="true"></path><path fill="#000000" d="M515.64 254.72c8.97 5.95 12.76 17.89 13.7 28.08.12 1.32-.35 6.53.59 6.95q1.69-3.06 4-5.7c9.99-11.44 26.01-17.31 40.34-10.34 16.37 7.97 17.12 27.45 10.38 42.49-.76 1.7-2.44 3.9-3.3 5.66-.21.42-.52.65-.36 1.25 4.8-1.37 10.17-2.62 15.16-2.72 19.89-.47 36.54 16.94 28.94 36.72-4.36 11.35-12.97 16.53-24.04 20.62-1.69.62-4.12.47-5.38 1.88 2.63.62 5.34 1.23 7.87 2.16 6.61 2.43 13.03 6.87 16.29 13.47 7.6 15.42-.27 31.23-16.29 36.02-7.84 2.35-15.4 1.83-23.28.18l3.5 5.28c9.16 16.55 4.03 39-14.98 44.76-16.72 5.05-32.18-9.81-39.84-23.26l-1.73-2.4c.96 11.52-.89 23.9-6.66 34.06a31 31 0 0 1-10.93 10.94c-1.06.63-2.73.67-3.5 1.89.71 14.83.42 29.77 1.39 44.6l2.46-3.83c12.8-21.6 34.72-41.1 60.14-45.99 21.2-4.08 43.93-.62 63.18 8.75 2.97 1.44 12.09 6.51 13.99 8.7 2.14 2.51 1.1 7.7-.05 10.56-1.33 3.33-6.15 9.89-8.59 13.01-5.2 6.7-11.39 12.75-18.62 17.24l7.43 2.83.53.68c5.25 2.67 10.57 7.34 11.69 13.33 1.35 7.27.04 26.98-1.04 34.79a30.6 30.6 0 0 1-10 18.33c-1.2 1.09-7.62 5.46-7.82 6.17.03 6.28-1.38 12.42-2.2 18.61-3.45 26.5-7.02 53.02-12.8 79.09-3.34 15.08-6.2 23.07-19.73 31.46-17.24 10.72-36.77 13.9-56.57 16.9-23.54 3.57-47.27 2.96-70.68-.95-18.96-3.15-35.93-6.05-52.34-16.83-14.37-9.41-15.3-18.22-18.75-33.94-6.9-31.31-11.39-62.94-14.78-94.81-2.71-1.97-5.48-3.78-7.94-6.05-7.16-6.55-9.26-13.11-10.12-22.65-.72-7.55-1.84-22.65-.74-29.72 1.4-9.16 11.82-14.46 19.68-17.24-1.74-1.44-3.73-2.46-5.5-3.84-7.62-5.96-18.98-19.25-22.26-28.28-2.67-7.28 1.05-9.46 6.5-12.83 20.42-12.66 47.05-17.91 70.89-13.37 26.35 5.02 47.57 24.62 61.2 46.76.63 1.02.6 2.59 2.05 3.12.04-.53-.22-1.04-.2-1.57.03-7.25.42-14.8.6-21.96s.54-14.06.61-21.07c-3.4-2.16-7.05-3.85-9.85-6.82-7.36-7.86-10.72-20.3-11.48-30.85-.2-3.06.35-6.14.25-9.2l-3.36 5.6c-10.54 15.46-28.9 29.08-46.82 15.42-.14-.1-.59.13-.65.06-.23-.2-.17-.93-.53-1.25-8.65-7.99-11.18-17.5-8.73-29.26a35 35 0 0 1 3.38-8.75c1.23-2.35 2.18-4.3 4.03-6.21-11.41 2.26-22.93 2.42-32.72-4.74-1.75-1.27-5.35-4.39-6.45-6.13-.09-.15-.84-1.73-.93-1.96-4.66-10.3-2.71-22.38 5.38-30.29 4.16-4.07 12.82-7.75 18.8-8.55.47-.06 1.1-.17.52-.7a65 65 0 0 1-15.05-5.55c-21.18-10.82-22.55-40.14 0-50.23 9.23-4.12 19.99-3.14 29.39-.18.4-1.42-.47-1.26-.82-1.88-6.99-12.48-9.52-26.77-2.29-39.65 2.3-2.07 4.4-4.61 7.1-6.32 15.05-9.52 33.74-3.1 44.38 10.12 1.16 1.44 1.66 3.16 3.05 4.36.7-.45.4-.58.37-1.08-.78-18.38 7.2-36.85 27.61-38.38 7.56-.58 16.88.16 23.32 4.44zm-1.07 7.17c-8.12-7.42-24.6-8.32-33.26-1.56-15.57 12.12-10.65 39.46-4.86 55.32.45 1.24 3.76 9.5 4.2 9.79 1.11.68 4.02-.82 5.37-1.11a48 48 0 0 1 6.96-.93l.54-.5c-.88-6.91-.37-13.97-1.02-20.8l.34-15.35c.74-.98 1.88-.03 2.5.7-.62 11.98 1.28 23.96 1.46 36 5.52-.65 11.13.73 16.31 2.47 1.88-3.46 3.13-7.4 4.5-11.15 5.35-14.66 10.4-40.6-3.03-52.87zm-63.07 21.87c-15.92-13.22-41.87-6.75-39.91 16.55 1.3 15.36 10.98 26.11 23.3 34.02 5.97 3.86 12.61 5.68 19.36 7.7l5.84-5.67c-.72-1.63-2.2-2.36-3.27-3.58a201 201 0 0 1-14.47-18.14c-.3-.44-3.2-6.07-.39-5 .25.1.42.31.58.52q.72 1.02 1.4 2.05a79 79 0 0 0 9.11 11.27c3.38 3.45 6.47 7.45 10.05 10.94a69 69 0 0 1 10.73-6.33c-2.75-9.35-5.69-18.96-10.12-27.66-2.71-5.34-7.63-12.86-12.21-16.66zm123.6-2.12c-10.75-7.97-23.8-5.18-33.24 2.74-9.43 7.9-18.1 28.78-20.88 40.33-.28 1.2-.24 2.54-.54 3.75 3.33.74 6 3.12 8.94 4.66 1.58-3.13 4.05-5.65 6.11-8.42 1.4-1.9 2.4-4.01 3.76-5.93.95-1.35 2.08-2.4 3.31-3.47 2.22-1.9 2.5 1.88 1.5 3.18l-12.38 16.26c-.12.94 2.49 2.1 3.18 2.69a28 28 0 0 1 4.27 4.61c4.28-1.35 8.76-2.27 12.93-3.98 4.74-1.96 15.03-8.64 18.55-12.39 9.18-9.75 16.26-27.17 8.52-39.65-.16-.28.07-.78-.02-.89a31 31 0 0 0-4-3.49zm-149.06 54.52c-12.9-9.07-34.92-14.88-47.48-2.06-6.34 6.46-6.45 17.48-1.97 24.82 8.2 13.5 35.16 17.27 49.77 17.63 1.85.04 13.17.17 13.73-1.67.08-.3-.2-1.32-.1-1.9.09-.49.43-.85.5-1.3.42-2.53.67-5.14 1.07-7.65-3.9-.99-7.96-1.4-11.87-2.3a337 337 0 0 1-18.26-4.66c-.67-.2-4.3-1.27-4.5-1.42-.47-.32-1.08-1.85-.23-2.42 1.06-.69 7.68 1.68 9.37 2.05s3.82.47 5.57.84c6.89 1.45 13.77 3.12 20.68 4.48 1.81-2.68 2.92-5.68 4.27-8.61-2.84-2.72-5.48-5.91-8.6-8.27-3.4-2.54-7.96-4.77-11.95-7.56zm186.01-5.06c-12.1-8.54-32.18-3.4-43.15 4.56-5.73 4.16-11.63 6.68-16.75 11.45-.65.62-4.7 4.57-4.77 4.91 1.4 3.54 3.64 6.7 4.24 10.53 3.77-.9 7.52-2.09 11.18-3.33 1.86-.62 3.83-1.6 5.66-2.22 1.3-.46 6.2-2.56 7.06-1.53.55.62.49 2.36-.51 2.7l-22.19 7.58 1.31 9.69c5.4 1.16 11.41 1.34 16.95 1.04 13.24-.74 40.28-5.19 46.77-18.18 4.85-9.67 3.03-20.97-5.8-27.2zm-87.1 7.22c-29.43-19.8-72.14-2.27-78.13 32.81-3.55 20.84 4.6 40.35 23.2 50.14s35.37 9.43 53.24.25c19.23-9.88 27.65-29.12 23.86-50.36-2.51-14.19-10.37-24.92-22.18-32.84zm-84.5 54.3-.82-8.2c-6.25-2.18-12.95-.7-19.4-1.73-11.76 1.24-32.48 2.47-39.34 13.62-4.9 8-4.54 18.7 3.21 24.7 12.67 9.85 34.55 4.25 46.83-3.6 3.52-2.25 9.38-5.92 12.32-8.36.86-.73 1.32-2.05 2.65-2.04l-4.84-11.47c-.58 1.1-1.4.74-2.13 1.06-5.6 2.34-15.41 6.84-21.26 7.47-1.76.2-2.96-.32-2.26-2.2 5.43-1.76 11.02-3.3 16.33-5.37.18-.08.18-.43.48-.56 2.71-1.08 5.7-1.72 8.24-3.34zm170.1 27.86c6.64-6.02 7.51-15.38 3.2-23.07-7.97-14.2-39.05-15.44-53.55-14.28-.9.07-5.62.77-5.9 1.28a17 17 0 0 1-.22 4.1c-.17 1.08-1.03 4.05-1 4.73.06 1.2 4.73 2.94 5.91 3.36 6.76 2.46 15.15 4.03 22.21 5.02 2.64.37 9.4-.73 4.96 3.88-11.46-1.44-23.64-3.23-33.82-8.88l-3.96 9.86c0 .42.29.64.52.94.3.35 3.58 3.2 4.06 3.55 1.3.89 3.38 1.5 4.69 2.4 9.53 6.36 14.88 10.18 26.51 12.2 8.39 1.46 19.83.87 26.4-5.1zm-157.7-3.9c-.57-.63-2.28-3.1-2.66-3.3-2.02-1.06-8.19 4.82-10.07 6.1-6.76 4.56-13.84 7.65-19.49 13.82-9.9 10.77-12.7 29.24.21 38.91 16.93 12.69 33.84-7.54 41.5-21.2 3.8-6.8 6.5-14.4 9.37-21.62-3.88-1.33-6.96-4.32-10.88-5.43-6.42 8.49-12.74 17.22-20.34 24.59a94 94 0 0 1-7.04 6.3c-1.58 1.1-4.35 1.87-3.7-.92q7.3-5.57 13.47-12.35c4.37-4.81 7.8-9.71 11.64-14.9 1.1-1.5 2.68-3.21 3.94-4.67a49 49 0 0 1-5.92-5.34zm105.44 5.3c-2.38-1.57-4.96-2.99-7.35-4.64-1.73-1.2-4.22-4.04-6.36-4.1-1.42-.05-3.65 3.85-4.65 4.97-.61.7-1.8 1.11-2.24 2.08 6 9.87 11.85 20.17 21.02 27.46l-.11 1.73c-.5 1-2.16.88-2.94.24a109 109 0 0 1-14.65-18.13c-1-1.53-5.06-9.32-6.05-9.75-.28.05-.12.5-.43.72a112 112 0 0 1-12.29 7c1.67 3.66 2.96 7.52 4.59 11.2 5.82 13 15.35 29.94 29.88 34.65 11.13 3.59 23.26-5.84 24.92-16.88 2.81-18.38-10.14-27.78-23.32-36.54zm-63.7 13.54-16.42-3.27c-4.88 15.6-8.41 32.56-2.24 48.3 2.77 7.08 8.76 15.9 17.07 16.62 13.63 1.2 20.4-4.59 25.1-16.88 5.63-14.75 3.23-29.09-1-43.82-.19-.68-1.1-4.2-1.56-4.25l-17.89 3.57c-.03 4.74-.01 9.5.19 14.22.08 1.72 1.1 8.53.4 9.62-.83 1.3-3.67.33-3.6-1.42zm-38.43 84.02c-28.56-22.85-69.79-22.88-100.17-3.85-.78.5-3.96 2.42-4.36 2.81-1.17 1.24 1.33 5.92 2.06 7.27 4.71 8.7 13 17.6 21.1 23.18 23.34 16.06 52.42 21.79 80.6 21.71l7.11-.1 11.35-.92c-2.93-.4-5.76-1.21-8.58-1.98-20.38-5.53-39.15-13.81-56.75-26.08-1.36-.93-2.37-1.49-2.4-3.34-.07-4.49 6.5-.22 8.16.79 12.43 7.67 21.6 13.36 35.74 18.42 11.56 4.12 23.7 7.77 36.02 8.24-.37-1.43.7-5.14.11-6.37-7.02-14.55-17.27-29.63-29.97-39.78zm186.42-1.15c-3.36-1.33-6.16-3.81-9.38-5.5-18.76-9.81-42.92-13.7-63.65-9.06-26.92 6.01-50.33 29.67-60.84 54.6-.19.44-.7.39-.88.96-.16.5-.16 6.08.06 6.3 5.87-.5 11.48-.84 17.23-2.32 10.42-2.69 23.72-7.22 33.61-11.9 7.42-3.5 14.17-8 20.6-12.02 1.39-.88 4.74-3.45 6.15-3.48 1.88 0 3.2 1.94 2.34 3.62-.04.08-1.44 1.49-1.56 1.6-1.27 1.01-3.33 1.89-4.81 2.87-8.27 5.48-16.54 10.49-26 14.52-10.98 4.7-22.7 8.2-34.28 10.89.42.61.97.49 1.59.56 29.63 2.73 60.24-1.64 85.73-14.74 13.37-6.87 24.66-16.23 31.94-29.66 1.16-2.16 2.5-4.71 2.16-7.23zm-141.14 57.33c.7-3.53.3-7.06.33-10.57.13-16.32-.86-32.82-.91-48.86-.02-4.02.35-8.1.22-12.14l-.58-.81-7.66-.09.32 5.89c.1 15.86-.86 31.85-1.06 47.74-.02 2.17-.2 18.26.6 18.89 3.07.79 5.67.58 8.73-.06zm124.21-11.31c-3.81-2.16-8.02-3.54-12.2-4.81-7.69 4.54-16.25 7.77-24.91 10.24-21.79 6.19-42.14 7.57-64.7 6.26l-9.13-1.08c-.24.37 1.83 2-.12 4.17-1.08 1.2-4.85 2.27-6.54 2.6-7.18 1.46-18.2 1.37-25.23-.86-3.1-.99-5.42-2.36-3.59-5.92-8.41.98-16.8 1.5-25.25 1.28-22.4.6-46.94-3.99-67.44-13.41-2.56-1.17-4.41-3.27-7.39-2.84-2.59.37-8.64 3.08-10.98 4.44a45 45 0 0 0-4.72 3.16c-2.23 2.04-1.89 3.69.14 5.85 3.9 4.17 17.03 8.33 23.1 9.7 13.94 3.13 29.83 4.33 44.08 5.36 23.94 1.73 48.1 2.01 71.97 1.9 21.45-.08 42.93-.53 64.35-2.23 19.08-1.53 40.1-2.47 57.61-10.92.57-.27 2.68-1.25 2.81-1.33.83-.5 3.11-2.5 3.68-3.28 2.18-3.09.04-4.57-2.54-6.43a42 42 0 0 0-2.99-1.85zm-139.29 9.57c-.51-.43-3.27.36-3.9.85l4.3 1.26zm25.12.68c-1.38-.15-2.46-1.06-3.92-.7l-.37 2.13c.18.17 2.55-.54 3.05-.71.4-.15 1.3-.2 1.23-.72zm-150.39 4.18c-.37-.24-.44-.95-1.2-1.15l-.72.37c.75 5.57.37 11.2.71 16.9 1.05 17.69 2.92 25.3 19.42 33.55 19.6 9.78 48.82 14.02 71.06 15.39 24.56 1.49 51.36 1.33 75.96.69 26.86-.7 68-4.04 91.42-17.55 17.13-9.87 15.95-21.96 16.64-39.65.13-3.24.05-6.46.37-9.67-1.25-.3-2.35 1.5-3.25 2.1-12.12 8.23-34.36 11.27-48.88 12.77-23.91 2.46-48.83 3.43-72.74 3.57-32.76.21-66.5-.16-99.23-3.61-15.56-1.64-36.71-4.81-49.54-13.72zm229.35 172.1c11.92-11.58 10.8-34.74 15.48-50l3.65-22.17 6.12-43.39-.49-.81c-8.73 3.32-17.5 6.38-26.59 8.51-25 5.89-50.37 6.77-75.83 6.96-38.93.28-78.32 1.15-116.44-9.17l-18.17-6.3a519 519 0 0 1 2.82 18.5c3.3 24.62 7.01 48.48 12.3 72.76 3.01 13.78 3.4 21.39 15.87 29.63 13.13 8.66 25.33 11.7 40.6 14.6 24.28 4.58 50.05 6.31 74.47 3 21.46-2.92 50.26-6.63 66.22-22.13zm0 0"></path><path fill="#1a1a1a" d="M595.97 718.32c-2.15 1.04-3.32.14-3.14-2.21.06-.67.53-1.29.62-1.92 1.76-12.42 3.1-25.19 5.56-37.48.43-2.18.85-4.44 1.66-6.51 1.74-.76 2.25.52 2.2 2.1-.14 4.4-1.84 10.23-2.48 14.77-1.45 10.45-2.04 20.96-4.42 31.25zm0 0" stroke="#1a1a1a" stroke-width="4" stroke-linecap="round" stroke-linejoin="round" data-locked="true"></path><path fill="#1a1a1a" d="M592.74 694.64c-.59.57-2.06.4-2.31-.37-1.04-3.23 1.52-10.9 1.49-14.61l.52-.87c.96-.1 2.4-.35 2.43.98-.83 1.98-1.3 14.06-2.14 14.88zm0 0" stroke="#1a1a1a" stroke-width="4" stroke-linecap="round" stroke-linejoin="round" data-locked="true"></path><path fill="#1a1a1a" d="M374.45 611.65c4.86 4.93 11.36 8.1 17.7 10.8 1.79.75 6.57 1.7 7.02 3.4 1.08 3.99-7.19.39-8.51-.1-10.3-3.96-23.66-11.63-23.97-24.04l1.8-.44c1.5 4.5 2.68 7.05 5.96 10.39zm0 0" stroke="#1a1a1a" stroke-width="4" stroke-linecap="round" stroke-linejoin="round" data-locked="true"></path><path fill="#1a1a1a" d="M407.1 629.7c-1.08 1.27-4.71-.97-4.2-2.75 1.86-1.19 6.1.54 4.2 2.75zm0 0" stroke="#1a1a1a" stroke-width="4" stroke-linecap="round" stroke-linejoin="round" data-locked="true"></path><path fill="#1a1a1a" d="M549.61 309.97c-.4.31-.7 1.28-1.69.6-2.46-1.65 3.08-7.12 3.7-3.78.31 1.72-.85 2.3-2 3.2zm0 0" stroke="#1a1a1a" stroke-width="4" stroke-linecap="round" stroke-linejoin="round" data-locked="true"></path><path fill="#1a1a1a" d="M498.52 469.4c-3.98 2.48-3.4-4.28-1.87-4.56 2.02-.37 2.23 3.2 1.87 4.55zm0 0" stroke="#1a1a1a" stroke-width="4" stroke-linecap="round" stroke-linejoin="round" data-locked="true"></path><path fill="#1a1a1a" d="M405.68 404.94c1.63-.21 3.15.9 1.5 2.26-.7.57-5.4 2.16-6.35 2.28-1.8.23-2.2-1.8-1.37-2.45.39-.3 5.7-2.02 6.22-2.1zm0 0" stroke="#1a1a1a" stroke-width="4" stroke-linecap="round" stroke-linejoin="round" data-locked="true"></path><path fill="#000000" d="M950.73 602.82a32.5 32.5 0 0 0 24.69-31.53h0a32.5 32.5 0 0 0-32.52-32.48h-46.35c24.8-12.1 40.53-30.97 44.8-45.16 1.93-6.39 1.57-11.94-.86-15.86-2.53-4.05-7.3-6.61-14.72-6.4-12.46.38-25.63 6.47-37.64 14.9a163 163 0 0 0-28.25 25.76l15.08-60.97c19.54 2.47 39.3-3.84 46.24-20.98 7.2-17.77 13.77-38.7 14.18-54.62.31-11.6-2.75-20.66-10.27-24.8-5.18-2.86-12.13-2.27-19.74 1.05-3.02-4.94-6.84-8.2-11.29-9.3-4.44-1.12-9.34.02-14.31 2.98-5.2-6.49-11.05-10.24-16.99-10.12-8.57.18-15.65 6.76-20.92 17.18-5.46 10.76-9.1 25.6-11.14 40.4a114 114 0 0 0-13.96 14.73 177 177 0 0 0-19.74 31.28q-1.71-.13-3.23.12l-2.71-65.47c21.69-3.36 40.93-16.2 43-36.68 2.15-21.26 2.66-45.69-1.87-62.86-3.27-12.4-9.29-21.07-18.54-23.14-6.46-1.45-13.67 1.4-20.78 7.39-4.77-4.4-9.87-6.76-14.98-6.54-5.1.2-9.99 2.97-14.38 7.76-7.58-5.38-15-7.63-21.3-5.65-9.05 2.82-14.5 12.03-16.86 24.7-3.28 17.6-.89 42 3.64 62.78 4.53 20.75 24.2 31.46 45.44 32.94l2.96 71.57c-6.34-11.4-15.26-24.43-25.74-35.5-11.21-11.85-24.21-21.41-37.7-24.58-7.92-1.85-13.62-.16-17.22 3.64-3.5 3.68-5.08 9.62-4.4 16.93 1.82 19.83 20.34 50.78 55.5 69.96 10.98 6 23.48 7.43 31.08 5.83l2.35 56.73h-84.3a32.5 32.5 0 0 0-32.5 32.48h0a32.5 32.5 0 0 0 24.67 31.53l16.04 122.82a62.4 62.4 0 0 0 61.9 54.3h105.7a62.4 62.4 0 0 0 61.92-54.3zm-253.76-58.8h245.92a27.3 27.3 0 0 1 27.3 27.26v.01a27.26 27.26 0 0 1-27.3 27.27h-245.9a27 27 0 0 1-8.57-1.36 27.3 27.3 0 0 1-18.74-25.9h0a27.3 27.3 0 0 1 27.3-27.27zm159.93-20 1.2-1.6c8.35-10.93 22.08-25.04 37.31-34.74 9.9-6.31 20.45-10.78 30.51-11.08q7.55-.2 10.12 3.95c1.79 2.86 1.73 6.93.3 11.61-4.6 15.3-23.6 36.07-53.22 46.63h-29.88zm12.89-73.8-21.91 88.57h-5.18l22.2-89.76a75 75 0 0 0 4.89 1.18zm-33.1-62.1c2.03-12.32 5.25-24.3 9.8-33.3 4.25-8.36 9.5-14.18 16.38-14.32 5.1-.1 9.8 3.91 14.15 9.93a2.6 2.6 0 0 0 3.6.62c4.27-2.96 8.4-4.5 12.2-3.57s6.74 4.22 9.13 8.82a2.6 2.6 0 0 0 3.48 1.14c6.66-3.3 12.68-4.65 17.15-2.2 6.02 3.32 7.82 10.81 7.57 20.1-.4 15.4-6.83 35.62-13.8 52.82-6 14.84-23.16 19.86-40.15 17.84a61 61 0 0 1-10.04-2.04 63 63 0 0 1-7.12-2.52 57 57 0 0 1-4.71-2.28c-12.14-6.56-20.91-17.35-19.94-31.32a217 217 0 0 1 2.3-19.72zm-34.48 52c5.7-11.25 13.32-23.44 22.33-33.69a109 109 0 0 1 5.21-5.56q-.34 3.34-.56 6.6c-1.1 15.79 8.46 28.26 21.96 35.85a121 121 0 0 1-23.2 22.04c-6.1-10.08-13.6-18.65-22.46-23.65a27 27 0 0 0-3.28-1.59zm-8.2 4.15.46-.1a10.4 10.4 0 0 1 5.43.65q1.44.55 3.03 1.43c8.22 4.63 15.1 12.7 20.73 22.09a94 94 0 0 1 2.57 4.55c8.1 15.11 13.2 32.67 15.36 45.46l.32 1.98-3.95 15.87q-.82-.03-1.77-.16c-6.02-.85-14.38-4.73-20.92-11.24a109 109 0 0 1-18.97-25.24 98 98 0 0 1-5.75-12.66 85 85 0 0 1-3.27-11.14 68 68 0 0 1-1.2-7.36 56 56 0 0 1-.3-4.82q-.08-4.6.67-8.42a21 21 0 0 1 2.5-6.9 9 9 0 0 1 3.19-3.24q.87-.5 1.85-.75zm-8.15-70.11 2.79 66.91c-2.48 1.74-4.5 4.48-5.89 8.06l-3.1-74.71a67 67 0 0 0 6.21-.26zM774.2 369c-18.74-1.43-36.13-10.55-40.12-28.83-4.38-20.1-6.78-43.7-3.6-60.72 1.95-10.42 5.84-18.36 13.29-20.68 5.5-1.73 11.9 1.11 18.54 6.27 1.12.86 2.74.68 3.63-.42 3.7-4.58 7.74-7.55 12.19-7.74s8.7 2.44 12.78 6.7a2.6 2.6 0 0 0 3.64.12c6.19-5.7 12.33-9.04 17.96-7.78 7.59 1.69 11.97 9.23 14.64 19.38 4.4 16.67 3.83 40.38 1.73 61.02-1.81 18.01-18.92 28.9-38.03 31.98a72 72 0 0 1-16.63.7zm4.48 107.78q-1.02.26-2.22.44c-6.76.99-17.02-.58-26.14-5.55-33.24-18.13-51.08-47.13-52.8-65.88-.52-5.53.37-10.08 3-12.87 2.53-2.67 6.64-3.45 12.23-2.13 11 2.56 21.58 9.82 31.05 18.97 14.53 14.03 26.43 32.55 33.13 46.4l.99 2.06zm7.8 62.02-2.26-54.5a100 100 0 0 0 6.91 16.56l1.57 37.94zm158.86 64.87-15.84 121.3a57.2 57.2 0 0 1-56.72 49.75h-105.7a57.2 57.2 0 0 1-56.72-49.76l-15.84-121.3q1.22.1 2.47.1h245.9q1.26 0 2.47-.1zm-118.2-64.87h-29.22l-1.18-28.43a115 115 0 0 0 14.84 18.11 49 49 0 0 0 15.56 10.32zm32.8-91.42-15.07 60.96a163 163 0 0 0-13-35.94q-.65-1.26-1.33-2.5a125 125 0 0 0 25.32-24.2q2 .9 4.07 1.68zm0 0" fill-rule="evenodd"></path><path d="M115.99 763.32c-8.07-1.96-11.82-7.95-15.83-25.3-1.45-6.3-5.58-23.78-9.17-38.86-3.6-15.08-6.54-27.94-6.54-28.58 0-.73 35.71-1.16 97.47-1.16 53.6 0 97.46.14 97.46.3 0 .17-4.33 18.65-9.62 41.07-5.92 25.06-10.6 42.34-12.15 44.85-5.24 8.49-2.92 8.22-73.89 8.45-35.07.1-65.55-.24-67.73-.77z" data-region="path40" fill="#ffffff"></path><path d="M66.64 659.56c-1.8-1.8-1.96-21.81-.2-25.11 1.22-2.28 3.78-2.33 115.48-2.33 131.7 0 116.72-1.85 116.72 14.44 0 16.3 14.96 14.44-116.52 14.44-87.09 0-114.37-.34-115.48-1.44z" data-region="path41" fill="#ffffff"></path><path d="M130.15 592.81c-22.5-37.3-39.9-71.67-46.82-92.47-7.04-21.19-13.96-55.93-11.13-55.93 2.16 0 28.38 26.78 36.52 37.3 31.19 40.3 48.87 82.48 58.15 138.68l.55 3.31h-18.64z" data-region="path42" fill="#ffffff"></path><path d="M189.14 616.56c0-3.98 1.56-13.2 3.53-20.84 12.41-48.13 42.47-95.28 85.44-134.02 7.57-6.83 13.97-12.22 14.2-11.98.25.24-.98 6.76-2.71 14.49-6.89 30.7-19.92 61.8-40.87 97.52-11.23 19.16-31.04 49.94-36.98 57.46l-3.56 4.51h-19.05z" data-region="path44" fill="#ffffff"></path><path d="M175.05 622.68c-1.57-7.4-2.63-75.24-1.61-102.46.67-17.94 2.26-44.23 2.7-44.67.12-.11 1.37 1.22 2.77 2.98l2.56 3.18-.37 7.22c-.2 3.97-.68 12.64-1.08 19.25-1.06 17.49-1.02 76.96.07 95.97 1.24 21.81 1.46 19.51-1.91 19.73-2.55.17-2.87.04-3.13-1.2z" data-region="path45" fill="#ffffff"></path><path d="M179.41 467.12c-6.72-6.85-10.62-11.8-14.31-18.2a59 59 0 0 1-7.82-35.17c.9-9.5 3.48-15.46 11.39-26.3l3.36-4.61 2.84 3.21c3.99 4.53 8.43 6.62 13.97 6.6 4.76-.02 7.73-1.25 11.73-4.87l2.36-2.13 3.89 1.55a20 20 0 0 0 7.42 1.56c1.95 0 4 .34 4.54.75 2.24 1.7 5.47 12.18 6.47 21.04 1.46 12.88-2.83 28.21-11.15 39.88-2.64 3.69-9.52 10.75-13.83 14.19-3.64 2.9-12.97 8.97-13.79 8.97-.4 0-3.58-2.91-7.07-6.47z" data-region="path46" fill="#ffffff"></path><path d="M113.63 408.6a83 83 0 0 1-28.45-8.24c-7.56-3.66-7.4-3.44-6.36-8.42 2.95-14.26 10.67-28.92 20.07-38.08 7.23-7.05 14.17-10.53 24.08-12.08 4.78-.75 13.13-.41 17.01.68 3.38.95 4.76 3.5 4.27 7.9-.35 3.12-.25 3.54 1.17 4.96.85.85 2.07 1.55 2.7 1.55 1.06 0 1.2.56 1.43 5.87.19 4.44.56 6.46 1.53 8.31 2.34 4.5 6.92 7.67 12.92 8.95l1.64.35-3.88 4.8a99 99 0 0 0-7 10.13c-3.5 6.01-6.2 8.28-12.64 10.61-6.7 2.43-19.6 3.66-28.49 2.71z" data-region="path47" fill="#ffffff"></path><path d="M106.11 334.73c-13.96-9.42-24.62-26-29.78-46.33-1.62-6.37-1.3-8.61 1.42-9.98 2.3-1.17 15.8-5.52 21.61-6.97 18.13-4.54 33.64-3.93 49.07 1.95 6.3 2.4 7.93 4.16 11.17 12.08a91 91 0 0 0 4.6 9.72l1.95 3.24-2.62.9c-7.85 2.67-12.69 8.96-13.8 17.95-.33 2.58-.71 3.53-1.54 3.8-2.3.72-6.37 6.1-7.4 9.75l-.98 3.52h-9.78c-8.04.01-10.73.25-15.1 1.33a165 165 0 0 1-5.4 1.3c-.06-.01-1.6-1.03-3.42-2.25z" data-region="path48" fill="#ffffff"></path><path d="M223.99 295.74c-.8-.86-2.8-2.24-4.42-3.07-3.8-1.93-9.4-1.78-13.68.38l-2.8 1.4-2.24-2.16c-6.6-6.4-14.67-6.18-24.78.7l-3.75 2.54-1.74-3.48c-4.71-9.37-7.1-19.93-6.45-28.6 1.26-17.1 12.49-35.64 29.16-48.14a94 94 0 0 1 7.99-5.5l2.2-1.17 2.9 2.36c19.48 15.84 31.03 40.85 28.51 61.71-1.15 9.49-3.27 16.26-6.8 21.65-1.06 1.62-2.1 2.95-2.29 2.95-.2 0-1.01-.7-1.81-1.57z" data-region="path49" fill="#ffffff"></path><path d="M253.74 359.04c-7.56-1.24-8.22-1.46-7.75-2.65.7-1.77 1.08-7.13.66-9.36-.22-1.18-1.34-3.53-2.48-5.23-2.45-3.64-2.5-4.04-.79-7.37.84-1.63 1.4-4.08 1.58-6.9.26-3.97.12-4.7-1.57-8.14-2.44-4.96-3.67-5.98-9.58-7.92-4.8-1.58-4.95-1.68-4.58-3.23 1.15-4.8 3.76-7.05 13.75-11.88 9.79-4.73 14.96-5.94 25.27-5.93 9.19 0 14.76 1.1 25.57 5.04 9.27 3.38 27.56 14.14 28.6 16.82.86 2.26-8.13 17.34-15.88 26.62-7.92 9.48-18.59 16.48-29.26 19.2-6.2 1.57-17.02 2-23.54.93z" data-region="path50" fill="#ffffff"></path><path d="M266.75 429a71 71 0 0 1-18.3-4.77c-5.42-2.25-13.13-7.13-14.4-9.11-.5-.77-1.22-4.09-1.6-7.38a80 80 0 0 0-5.1-19.68l-1.49-3.67 1.53-1.81c2.29-2.72 4.44-7.33 4.86-10.4.36-2.62.54-2.82 4.55-5.16l4.18-2.44 5.21 1.1c4.03.86 7.82 1.12 16.65 1.11 9.86 0 12.34-.2 18.02-1.45l6.58-1.46 3.22 3.57A74 74 0 0 1 306.12 395c2.24 7.73 2.94 12.5 3 20.46l.05 7.16-5.04 1.7a103 103 0 0 1-22.67 4.71c-7.33.7-8.27.7-14.71-.05z" data-region="path51" fill="#ffffff"></path><path d="M183.16 383.5c-3.19-1.63-4.4-3.76-4.8-8.4L178 371l-2.1.09a52 52 0 0 0-6.02.83c-5.27 1.01-8.43.15-11.8-3.23-2.25-2.25-2.56-2.93-3.19-7l-.98-6.35c-.28-1.8-.23-1.83 1.83-1.6 2.67.32 3.9-.69 3.9-3.19 0-2.43-1.24-3.53-3.6-3.18-1.72.25-1.95 0-5.41-5.93-2-3.4-3.62-6.57-3.62-7.03 0-1.26 2.29-3.92 4.22-4.92.93-.48 3.28-1.05 5.2-1.27 5.44-.6 6.1-1.64 3.53-5.52-3.4-5.13-2.28-11.28 2.68-14.73 1.84-1.28 6.6-1.35 9.94-.15 1.33.48 2.73.88 3.12.9 1.35.04 2.52-1.8 3.2-5.07.51-2.48 1.16-3.7 2.7-5.05 2.65-2.33 5.82-3.33 8.94-2.83 3.34.53 4.94 1.67 6.43 4.58 2.75 5.4 4.86 5.98 8.72 2.42 4.04-3.73 7.8-4.2 12.76-1.64 3.28 1.7 4.04 3.45 3.25 7.42-1.5 7.47-.62 9.03 5.14 9.1 5.29.07 9.65 3.4 10.24 7.83.48 3.59-.13 5.17-3.14 8.14-3.18 3.13-3.46 5-1.1 7.1 6.23 5.48 6.83 6.27 6.81 9-.03 6.9-5.38 11.95-12.68 11.96-1.4 0-2.55.43-3.26 1.22-1 1.1-1.04 1.63-.43 5.56.64 4.12.6 4.48-.74 6.76-2.66 4.53-6.14 6.7-9.6 5.98-1.02-.2-3.84-1.44-6.26-2.73s-5-2.35-5.73-2.35c-2 0-3.83 1.56-4.6 3.9-1.08 3.28-3.13 4.53-7.45 4.52-2.32 0-4.45-.39-5.75-1.05zm21.17-17.54c12.71-4.42 20.7-17.3 18.6-30-2.87-17.35-20.69-27.66-37.7-21.81-16.36 5.63-23.71 24.18-15.53 39.21 3.33 6.12 11.7 12.2 18.9 13.73 3.86.82 11.75.25 15.73-1.13z" data-region="path52" fill="#ffffff"></path><path d="M187.53 358.45a21 21 0 0 1-12.34-10.9c-2.06-4.53-1.95-10.9.27-15.43 6.51-13.26 24.74-15.86 34.71-4.95 3.7 4.06 5.05 7.86 4.74 13.36-.42 7.11-4.76 13.3-11.73 16.71-4.05 1.99-11.5 2.56-15.65 1.2zm2.47-4.68c.84-.38 1.67-1.15 1.84-1.7.18-.57.99-1.65 1.8-2.4l1.46-1.38 1.58 1.88c1.22 1.45 2.08 1.89 3.69 1.89 5.36 0 7.85-7.95 3.07-9.82q-.78-.3.83-1.7c3.53-3.12 3.55-5.92.09-8.97-3.54-3.1-6.16-2.18-7.72 2.74-.34 1.1-.46 1.04-1.3-.6-1.5-2.91-2.67-3.91-4.52-3.91-4.16 0-7.3 3.33-7.3 7.74 0 2.13.32 2.95 1.56 4.01l1.56 1.35-1.76 1.68c-3.4 3.25-1.54 9.6 2.88 9.84.4.03 1.4-.27 2.24-.65z" data-region="path53" fill="#ffffff"></path><path d="M445.44 570.05c-38.57-2.06-69.8-15.41-86.33-36.88-2.96-3.86-7.53-12.06-7.53-13.53 0-1.9 14.27-9.53 23.68-12.66 26.5-8.8 53.57-5.51 75.9 9.22 5.68 3.75 17.79 15.98 22.57 22.8 2.14 3.05 5.72 8.74 7.96 12.63 3.63 6.35 4.06 7.43 4.06 10.34v3.25l-4.47-.38c-6.85-.58-15.3-2.58-26.19-6.2-11.99-3.98-21.34-8.38-33.72-15.86-10.28-6.21-12.96-7.41-14.58-6.54-1.65.88-1.29 3.23.76 4.95 5.03 4.24 21.93 13.6 32.64 18.1 6.72 2.8 23.3 8.36 27.11 9.08 1.22.23 2.34.62 2.5.86.56.93-13.55 1.4-24.36.82z" data-region="path54" fill="#ffffff"></path><path d="M455.37 643.8c-36.92-1.97-67.11-9.2-82.78-19.83-6.27-4.26-9.4-9.16-11.13-17.44-.78-3.76-2.18-27.53-1.65-28.2.1-.14.67.18 1.25.71s3.23 2.04 5.87 3.35c13.78 6.85 33.62 10.25 74.9 12.83 16.95 1.07 93.47 1.08 109.8.02 34.38-2.23 52.54-4.68 66.15-8.95 5.54-1.74 12.63-5.12 14.62-6.96.74-.7 1.52-1.09 1.73-.88.2.2.08 6.28-.28 13.49-.73 14.66-1.63 19.13-4.88 24.2-9.98 15.55-42.5 25.1-94.43 27.7-14.02.7-65.69.68-79.17-.04zm-47.6-14.71c.48-1.26-1.29-2.68-3.33-2.68-1.52 0-1.77.2-1.61 1.34.34 2.38 4.14 3.41 4.93 1.34zm-8.72-1.7c1.25-1.51.03-2.65-4.94-4.62-6.87-2.71-10.35-4.51-14.65-7.56-4.68-3.31-7.6-6.72-9.31-10.84-.98-2.35-1.66-3.23-2.52-3.23-1.05 0-1.14.3-.82 2.96.5 4.24 2.43 7.62 6.81 11.92 3.05 2.99 5.32 4.48 11.2 7.36 6.37 3.12 10.18 4.53 12.86 4.77.38.03 1-.31 1.37-.76z" data-region="path55" fill="#ffffff"></path><path d="M483.94 774.05c-41.92-3.72-66.12-10.72-79.47-22.98-6.13-5.63-7.42-8.83-11.64-29.07-3.57-17.08-6.84-36.36-10.56-62.2a2073 2073 0 0 0-3.38-22.96l-.35-1.9 8.55 2.96c28.97 10.02 59.54 13.16 120.32 12.34 15.72-.21 32.64-.65 37.6-.98 25.7-1.7 43.23-4.93 61.65-11.37 8.26-2.89 8.44-2.92 8.44-1.61 0 1.68-6.13 44.57-7.81 54.61a277 277 0 0 1-2.4 12.53 417 417 0 0 0-3.05 16.24c-3.14 18.44-6.13 25.66-13.37 32.26-11.24 10.25-29.25 16.06-64.22 20.7-8.94 1.18-33.34 2.05-40.3 1.43zm112.93-58.6c.4-1.82 1.45-9.13 2.32-16.24a324 324 0 0 1 2.73-18.57c1.43-6.98 1.49-10.22.2-10.71-.51-.2-1.2-.1-1.54.24-.96.96-3.32 13.68-5.57 30.08-1.15 8.35-2.25 15.45-2.46 15.78-.67 1.1.9 3.11 2.28 2.92 1.04-.15 1.45-.85 2.04-3.5zm-3.82-20.9c.15-.25.58-3.17.96-6.47.37-3.31.82-6.73 1-7.6.2-1.08 0-1.69-.63-1.94-1.93-.73-2.5.3-3.52 6.4-1.1 6.57-1.27 9.01-.63 9.65.55.55 2.47.51 2.82-.05z" data-region="path56" fill="#ffffff"></path><path d="M471.91 589.94c-31.45-.58-64.76-3.2-80.62-6.33-15.67-3.09-28.88-9.16-28.88-13.27 0-1.76 2.72-3.9 8.7-6.86 7.7-3.81 8.68-3.88 14.49-.97 13.44 6.73 31.92 11.58 51.11 13.43 7.15.68 35.62.37 39.86-.44 1.87-.35 1.96-.28 1.96 1.49 0 1.33.44 2.15 1.53 2.86 3.7 2.43 16.06 3.81 24.04 2.7 8.87-1.25 12.34-3.1 11.54-6.14-.28-1.06-.05-1.1 3.1-.69 1.88.25 11.4.44 21.16.42 13.62-.02 19.42-.28 24.97-1.08 15.88-2.32 33-7.22 43.39-12.43l5.6-2.82 5.06 1.9c7.12 2.68 13.03 6.69 13.03 8.83 0 1.18-3.56 4.39-6.55 5.9-14.4 7.25-35.68 10.61-80.09 12.63-14.17.64-57.67 1.16-73.4.87z" data-region="path57" fill="#ffffff"></path><path d="m526.06 569.9-4.51-.35 4.81-1.11c8.37-1.94 26.1-8.12 33.65-11.74 4-1.92 10.24-5.33 13.88-7.58s8.17-5.02 10.07-6.14c4.25-2.53 5.13-3.92 3.8-5.96-.53-.8-1.43-1.46-2-1.46s-5.6 2.82-11.15 6.27a227 227 0 0 1-15.64 8.95c-15.54 7.52-38.5 14.24-48.7 14.26H508v-2.59c0-2 .8-4.1 3.56-9.3 10.52-19.83 24.95-34.56 42.47-43.36 10.76-5.4 20.49-7.52 34.29-7.47 17.64.06 32.43 4.03 48.27 12.96 4.52 2.55 5.55 3.4 5.56 4.55.02 1.9-3.53 8.52-7.18 13.37-18.92 25.17-63.4 40.15-108.92 36.7z" data-region="path58" fill="#ffffff"></path><path d="M493.29 574.9c-1.05-1.05-1.08-2.26-.56-25.79.3-13.57.54-29.35.54-35.06v-10.38h7.36l.45 35.53c.24 19.55.28 35.7.08 35.9s-1.81.49-3.57.63c-2.54.21-3.43.04-4.3-.83z" data-region="path59" fill="#ffffff"></path><path d="M491.46 496.53c-4.82-1.28-10.36-6.43-13.4-12.47-4.4-8.7-6-20.37-4.37-31.61.83-5.68 4.03-18.6 4.8-19.37.41-.42 10.75 1.27 14.63 2.38.95.28 1.05 1.37 1.05 11.88 0 8.2.21 11.78.72 12.3 1 1 3.3.9 3.7-.16.18-.48.08-3.93-.23-7.67-.3-3.74-.56-8.84-.57-11.34v-4.54l8.74-1.7c4.8-.94 8.85-1.6 8.97-1.48.5.5 3.35 11.37 4.33 16.47 1.49 7.76 1.35 19-.31 25.27-2.83 10.65-8.6 18.82-14.82 20.99-3.43 1.2-10.56 1.76-13.24 1.05zm7.52-28.58c0-2.23-1.27-3.72-2.7-3.17-.56.22-.9 1.12-.9 2.37 0 2.4.33 2.83 2.2 2.83 1.2 0 1.4-.3 1.4-2.03z" data-region="path60" fill="#ffffff"></path><path d="M558.4 475.37c-4.78-1.18-9.73-4.3-14.64-9.23-5.32-5.35-8.27-9.42-12.47-17.22-2.64-4.91-8.24-17.94-8.24-19.17 0-.33.51-.76 1.14-.96a57 57 0 0 0 6.02-3.3l4.87-2.93 1.11 1.6c.61.88 2.1 3.3 3.31 5.39 3.02 5.2 7.97 11.8 12.47 16.61 3.02 3.23 4.07 3.99 5.32 3.85.85-.1 1.63-.6 1.72-1.12.1-.5-2-3.15-4.64-5.88-4.12-4.23-10.1-12.48-14.92-20.56l-1.25-2.1 3.17-3.57 3.18-3.56 1.79 1.15c24 15.47 30.93 21.81 33.9 31.05 1.78 5.53 1.48 13.76-.66 18.24-3.85 8.05-13.76 13.53-21.18 11.7z" data-region="path61" fill="#ffffff"></path><path d="M584.02 425.17c-8.16-1.48-12.4-3.24-20.53-8.51a132 132 0 0 0-7.82-4.73 31 31 0 0 1-4.89-3.28l-2.04-1.79 1.1-2.88c.6-1.59 1.44-3.73 1.87-4.77l.77-1.88 5 2c6.19 2.47 12.77 4.17 20.77 5.36 7.92 1.17 8.4 1.16 9.2-.33 1.04-1.95-.25-2.97-3.78-2.97-6.43 0-25.91-4.8-28.7-7.08-1.17-.95-1.24-1.41-.87-5.37.29-3.13.67-4.45 1.37-4.76 1.86-.81 21.68-1 27.64-.25q33.07 4.17 32.8 23.83c-.2 13.1-14.03 20.65-31.89 17.4z" data-region="path62" fill="#ffffff"></path><path d="M556.78 375.63c-2.26-.45-2.58-1.1-3.21-6.5l-.36-3.1 11.24-3.88c10.58-3.65 11.26-3.97 11.44-5.48.16-1.42-.02-1.6-1.6-1.6-.98 0-4.18.92-7.1 2.04a186 186 0 0 1-10.27 3.55l-4.93 1.51-.72-2.2a46 46 0 0 0-2.14-5.06l-1.43-2.86 3.47-3.32c3.57-3.42 5.08-4.52 15.66-11.33 7.64-4.92 9.72-6 15.29-7.85 15.93-5.32 29.8-1.91 35.73 8.79 1.62 2.93 1.76 3.67 1.76 9.2 0 5.02-.24 6.54-1.41 9.15-3.78 8.37-15.66 14.64-34.08 17.98-5.71 1.03-23.75 1.67-27.34.96z" data-region="path63" fill="#ffffff"></path><path d="m535.84 338.22-3.73-3.43 6.3-8.28c4.63-6.09 6.3-8.75 6.3-10.02 0-3.62-3.81-1.16-7.55 4.88-2.06 3.34-7.47 10.46-8.12 10.72-.27.1-1.6-.52-2.97-1.38a29 29 0 0 0-3.88-2.1c-1.3-.5-1.37-.74-.9-3.26 1.7-9.03 9.9-27.31 15.71-34.96 3.72-4.9 9.17-9.22 14.13-11.22 2.9-1.17 4.6-1.42 9.82-1.42 5.76 0 6.61.15 9.63 1.7 7.77 4.01 10.74 8.56 11.27 17.26.7 11.36-6.18 25.32-16 32.48-8.27 6.04-12.64 8.27-21.46 10.98l-4.83 1.48zm14.7-28.38a4.5 4.5 0 0 0 1.39-2.75c0-1.21-.26-1.41-1.64-1.25-1.85.22-3.6 2.73-3 4.3.53 1.36 1.58 1.26 3.25-.3z" data-region="path64" fill="#ffffff"></path><path d="M508.61 324.3a38 38 0 0 0-7.67-1.08c-3.16-.04-3.76-.21-3.77-1.1 0-.57-.4-6.73-.89-13.68a386 386 0 0 1-.9-17.24c0-3.64-.2-4.67-.96-4.96-2.15-.82-2.24.07-1.9 18.58l.33 18.16-4.3.76c-8.96 1.56-7.54 2.33-10.7-5.78-4.62-11.84-6.55-21.03-6.53-31.11.01-7.45 1.1-12.88 3.57-17.76 2.57-5.09 5.5-8.14 9.87-10.28 11.87-5.79 27.77-1.72 33.74 8.63 5.07 8.8 5.63 22.15 1.57 37.88-1.7 6.6-6.33 19.46-7.14 19.83-.22.1-2.17-.28-4.32-.85z" data-region="path65" fill="#ffffff"></path><path d="M447.86 339.66c-10.04-3.31-17-7.65-24.25-15.09-5.91-6.08-9.38-12.34-10.96-19.8-1.2-5.7-1.12-9.03.36-13.82 1.04-3.37 1.85-4.67 4.66-7.48 4.23-4.23 8.85-6.02 15.57-6.02 12.8 0 23.12 8.45 31.22 25.56 2.68 5.66 8.9 23.38 8.55 24.38-.11.3-2.42 1.88-5.13 3.5l-4.94 2.97-7.18-7.94a205 205 0 0 1-10.33-12.26c-1.73-2.38-3.52-4.32-3.98-4.32-1.1 0-1.05 2.06.11 4.5 1.13 2.37 12.45 16.62 15.53 19.53 1.2 1.14 2.19 2.37 2.19 2.74 0 .36-1.15 1.77-2.56 3.14l-2.56 2.48z" data-region="path66" fill="#ffffff"></path><path d="M413.55 375.22c-16.47-2.25-29.73-7.62-34.88-14.12-3.45-4.36-4.52-7.56-4.52-13.56 0-4.26.27-6 1.29-8.2 2.76-6 9.56-10.59 17.72-11.96 6.94-1.17 17.2.78 25.22 4.8 6.66 3.35 19.72 12.01 23.66 15.7l4.3 4.03-2.03 4.2-2.02 4.19-6.4-1.4a845 845 0 0 0-12.71-2.65 282 282 0 0 1-11.33-2.53c-4.18-1.06-5.1-1.13-5.53-.45-1.03 1.68.57 2.82 6.15 4.38a273 273 0 0 0 23.22 5.56l5.6 1.01-.39 2.8c-.2 1.53-.64 3.66-.97 4.73s-.43 2.2-.23 2.52c1.14 1.86-15.2 2.44-26.15.95z" data-region="path67" fill="#ffffff"></path><path d="M394.53 425.2c-6.85-1.56-12.15-5.22-14.86-10.27-1.83-3.4-1.85-11.45-.04-15.37 4.1-8.91 12.92-13.25 31.82-15.64 6.52-.82 20.94-.78 24.94.07 2.84.61 2.88.65 3.26 3.38.66 4.82.6 4.97-2.48 6.26a96 96 0 0 0-4.67 2.08c-.99.49-5.32 2.04-9.62 3.45-6.52 2.14-7.82 2.76-7.82 3.75 0 2.63 5.98 1.44 18.52-3.68a84 84 0 0 1 7-2.65c.28 0 1.46 2.23 2.64 4.96 2.01 4.68 2.08 5.03 1.12 6.1-2 2.23-16.99 11.7-21.48 13.57-9.87 4.11-20.97 5.68-28.33 4zm11.17-17.05c2.36-1.15 3.06-2.78 1.47-3.4-1.19-.45-6.75 1.21-8 2.4-.72.67-.73.95-.04 1.78.94 1.14 3.2.87 6.57-.78z" data-region="path68" fill="#ffffff"></path><path d="M491.77 427.83c-14.44-1.72-28.59-9.14-35.84-18.8-6.43-8.54-9.33-17.42-9.36-28.62-.04-14.36 5.12-26.45 15.34-35.98 15.48-14.43 38.73-18.07 57.25-8.96 12.9 6.35 23.23 18.68 26.86 32.06 1.72 6.34 1.88 19.12.33 24.84a52 52 0 0 1-7.85 16.05c-9.32 12.58-30.46 21.35-46.73 19.41z" data-region="path69" fill="#ffffff"></path><path d="M427.82 475.17c-3.67-1.02-8.9-4.62-10.87-7.48-3.17-4.59-4.22-7.9-4.24-13.35a29 29 0 0 1 5.14-16.83c3.15-4.73 7.05-8.14 14.84-13.02 3.54-2.2 8.55-5.6 11.13-7.54s4.95-3.53 5.26-3.53 2.42 1.95 4.69 4.33l4.12 4.33-5.72 7.55c-7.55 9.98-12.35 15.32-18.18 20.24-4.81 4.07-5.64 5.38-3.81 6.08 1.76.68 4.95-1.71 12.11-9.09 5.83-6 9.16-10.05 18.56-22.52.1-.12 2.46 1.03 5.26 2.56l5.1 2.78-2.7 6.71a182 182 0 0 1-4.84 10.98c-9.9 19.72-24.43 30.99-35.85 27.8z" data-region="path70" fill="#ffffff"></path><path d="M764.31 476.29c-7.29-1.5-14.22-4.67-23.08-10.6-24.87-16.64-43.14-42.85-43.35-62.2-.15-13.55 8.74-16.5 25.22-8.4 17.1 8.43 35.96 29.13 50.47 55.42l4.03 7.3.36 9.3.37 9.3-1.45.39c-2.27.6-8.3.36-12.57-.51z" data-region="path71" fill="#ffffff"></path><path d="M770.21 368.25c-13.74-2.01-25.43-8.59-31.24-17.57-2.71-4.21-4.28-8.82-5.88-17.27-2.66-14.09-3.3-20.97-3.32-35.5 0-12.43.15-14.82 1.3-19.72 4.55-19.41 14.57-24.28 29.22-14.2 1.62 1.12 3.32 2.03 3.76 2.03s2.3-1.45 4.11-3.22c7.32-7.15 12.87-7.26 21.03-.43 1.61 1.35 3.26 2.45 3.66 2.45s2.33-1.25 4.3-2.77c7.1-5.53 11.57-6.99 16.42-5.38 7.17 2.38 12.02 10.88 14.86 26.04 2.14 11.45 1.67 48.61-.73 57.83-3.03 11.63-13.96 21.22-29.16 25.58-9.17 2.64-19.57 3.42-28.33 2.13z" data-region="path72" fill="#ffffff"></path><path d="M874.41 445.5c-12.51-2.08-23.69-7.59-30.9-15.22-6.96-7.39-9.18-13.49-8.6-23.61.8-14.1 4.19-31.5 8.44-43.4 4.45-12.46 10.9-20.61 17.47-22.08 3.12-.7 3.47-.66 6.64.9a23 23 0 0 1 6.73 5.46c1.86 2.11 3.78 3.99 4.27 4.18.5.19 2.3-.46 4-1.44 7.85-4.49 13.77-3.02 18.19 4.53.83 1.43 2.04 2.76 2.68 2.97.67.2 2.9-.35 5.23-1.3a27 27 0 0 1 7.97-1.88c3.43-.2 4.2-.04 6.32 1.35 4.77 3.14 6.91 8.76 6.91 18.12 0 11.91-4.83 31.52-12.59 51.08-4.48 11.3-11.26 17.04-23.32 19.77-4.04.92-15.36 1.25-19.44.57z" data-region="path73" fill="#ffffff"></path><path d="M782.96 446.5c0-.49-.67-16.71-1.49-36.05-.81-19.35-1.42-35.22-1.35-35.28.08-.06 1.27-.3 2.65-.53 2.5-.41 2.53-.4 2.83 1.59.17 1.1.85 16.07 1.53 33.27l1.22 31.27-1.7 1.82c-.94 1-2.15 2.49-2.7 3.3-.6.91-.99 1.15-1 .6z" data-region="path74" fill="#ffffff"></path><path d="M831.28 534.4c-10.32-3.75-20.16-12.64-29.42-26.55-10-15.03-15.38-30.44-15.51-44.49-.1-10.61 2.48-16.91 7.65-18.62 6.1-2.02 18.34 7.08 26.9 20 8.46 12.76 16.36 32.8 19.6 49.7l1.04 5.42-1.77 7.7c-1.77 7.67-1.78 7.7-3.57 7.84-.99.08-3.2-.37-4.92-1z" data-region="path75" fill="#ffffff"></path><path d="M825.98 461.7c-5.18-8.19-13.04-16.08-20.03-20.1l-3.18-1.82 2.52-4.6c5.87-10.73 14.12-22.52 21.31-30.48l2.72-3-.37 5.1c-.75 10.25 2.71 19.66 10.07 27.4a53 53 0 0 0 7.75 6.7c1.96 1.27 3.57 2.5 3.57 2.75.02 1.5-20.62 20.92-22.23 20.91-.18 0-1.14-1.28-2.13-2.85z" data-region="path76" fill="#ffffff"></path><path d="M843.27 537.81c.15-.4 5.1-20.38 11-44.37s10.77-43.69 10.83-43.77c.3-.47 3.9.71 3.92 1.28.01.37-4.8 20.24-10.68 44.15l-10.7 43.46h-2.32c-1.6 0-2.24-.23-2.05-.75z" data-region="path77" fill="#ffffff"></path><path d="M853.94 538.12c0-.25.74-3.53 1.65-7.29 1.65-6.82 1.66-6.84 6.24-12.33 13.55-16.24 32.24-31.27 46.13-37.11 9.46-3.98 19.59-5.39 24.35-3.4 6.04 2.53 6.2 10.55.41 21.36-7.73 14.48-23.78 28.04-42.96 36.34l-6.62 2.87h-14.6c-8.02 0-14.59-.2-14.6-.44z" data-region="path78" fill="#ffffff"></path><path d="M689.7 597.17c-12.57-3.37-21.44-16.96-19.34-29.64a28.4 28.4 0 0 1 15.74-20.79l3.9-1.86h259.92l3.9 1.86c11.04 5.23 17.58 17.1 15.67 28.44-1.86 11.02-10.02 19.89-20.54 22.31-1.74.4-45.94.6-129.29.59-109.53-.03-127.1-.15-129.95-.91z" data-region="path79" fill="#ffffff"></path><path d="M786.56 534.8c0-2.06-.4-12.55-.9-23.3-.48-10.76-.86-20.5-.84-21.67.03-2.03.05-2.05.67-.6.35.83 1.68 3.76 2.96 6.51l2.32 5.01.6 14.25c.32 7.83.72 16.34.89 18.9l.29 4.67h-5.98z" data-region="path80" fill="#ffffff"></path><path d="M757.3 773.53a57.7 57.7 0 0 1-44.7-39.73c-.87-2.83-3.95-24.53-9.38-66.03-4.46-34-8.1-62.22-8.1-62.72 0-.8 14.1-.9 124.84-.9 91.17 0 124.84.18 124.84.66 0 3.2-15.94 122.38-16.89 126.28a57.4 57.4 0 0 1-19.66 30.77c-5.27 4.2-14.87 9.05-21.5 10.9-4.82 1.33-4.83 1.33-64.98 1.45-47.54.09-61.07-.05-64.47-.68z" data-region="path81" fill="#ffffff"></path></svg>