<?xml version="1.0"?>
<svg xmlns:xlink="http://www.w3.org/1999/xlink" xmlns="http://www.w3.org/2000/svg" xmlns:svg="http://www.w3.org/2000/svg" viewBox="0 0 1024 1024" preserveAspectRatio="xMidYMid" version="1.0"><path fill="#232320" d="M694.59 885.43c-121.81-16.79-266.77-17.41-386.71-.16-23.34 3.34-13.01-26.68-25.15-59.63l-13.76-37.28c-10.76 22.53-18.06 43.24-34.7 59.22-22.3 21.43-15.28 31.14-31.32 58.1-4.71 4.27-14.3-.5-20.19-2l-67.7-17.47c-.1-32.4 12.57-43.22 2.46-73.76-19.19-57.98 72.26-371.61 95.1-446.59 12.67-41.6 27.55-79.84 48.99-117.13 13.32-23.12 32.54-39.31 58.5-50.14-5.65-13.57-4.65-26.02 3.12-37.88 17.6-26.93 8.08-60.9 50.61-73.01C438.71 69.3 545.6 71.76 613 84.17c61.03 11.24 43.3 47.56 65.93 78.63 7.49 10.33 6.64 21.72 3.02 33.54 1.19 3.53 6.74 6.4 10.11 8.12a112.3 112.3 0 0 1 48.61 46.67c17.7 32.42 32.45 64.78 43.56 100.9 33.08 107.56 61.16 214.2 86.21 323.94 8.02 35.04 12.39 67.86 15.6 102.84 1.66 17.94-2.62 33.26-6.55 50.45-3.37 14.6 12.07 55.35 2 57.98l-74.86 19.72c-6.08 1.62-10.73-1.38-12.66-6.62l-13.86-37.9c-2.68-7.34-9.6-10.93-14.72-16.2-15.51-16-23.4-35.45-32.95-57.73l-14.01 36.6c-11.2 29.24-1.87 63.34-23.8 60.35zm-101-776.6c14.95 1.96 23.09 15.6 34.17 21.83 5.49-3.43 13.26-14.29 9.73-21.93-12.73-27.61-252.26-31.05-273.17-.22-5.08 7.49 2.44 18.53 7.8 22.5 17.16-10.61 21.6-22.9 45.93-24.3 58.35-3.32 115.95-5.56 175.54 2.11zm-32.14 61.77c8.74-18.4 16.95-32.92 22.87-51.42-57.6-4.65-112.6-5.18-168.7.25a265 265 0 0 0 23.8 51.7c41.66 3.53 80.7 4.68 122.06-.53zm-134.88 7.27L404.32 123c-10.2 5.55-15.9 10.73-23.93 18.72 14.35 14.35 27.62 28.46 46.18 36.16zm192.01-36.1a42 42 0 0 0-22.34-17.81c-7.11 19.96-16.88 36.35-25.61 56.78 6.67.94 49.51-33.82 47.95-39zm-161.62 87.15c8.49-.03 5.83 8.36 8.86 12.57 4.06 5.62 15.38 4.96 22.97 4.78-6.56-12.86-19.16-20.29-31.2-28.8-37.8-26.77-81.97-53.45-105.78-91.99-12.85 23.9-5.08 22.97-21.53 47.74-2.68 3.97-3.59 15.14 1.97 17.57l61.3 26.7c19.07 8.34 36.83 17.7 56.51 22.22 3.12-4.18 3.5-9.86 6.93-10.8zm94.54 10.95c19.35-4.74 34.82-13.04 51.51-20.4l64.56-28.4c7.64-3.37 5.4-15.73 1.25-20.78-12.67-15.6-9.43-30.02-20.19-45.24-23.37 38.78-64.9 65.3-101.75 89.7-13.1 8.68-26.33 16.5-34.32 29.96 8.24 3.12 15.48.74 22.56-1.38 1.34-4.24 1.47-7.74 3.43-12.04 1.31-2.87 6.55-3.75 7.8-1s.81 10.3 5.15 9.58zm-1.93-55.2c-40.25 2.69-61.4 2.87-99.7-.15 4.13 21.59 33.8 31.89 50.62 53.23 15.6-20.07 47.55-33.08 49.08-53.04zM715.2 291.82c2.19 31.42 2.4 60.94 6.84 94.32 14.5-15.38 28.48-28.08 47.11-39.66-11.98-33.66-36.25-98.87-63.93-118.56-11.45-8.14-25.27-18.9-39.06-21.6-41.63 12.43-74.1 36.36-119.07 48.43l-.78 183.75c0 4.05-5 6.99-7.11 6.05-1.5-.62-4.59-2.65-4.59-6.02l-.31-181.47c-23.25 3.62-44.12 4.9-67.86.03l-.75 159.35c0 3.84-4.68 5.74-6.68 5.4-2.25-.38-5.12-3.69-5.12-7.65l-.4-159.03c-43.75-13.6-76.7-35.42-119-48.93-23.66 7.12-47.28 24.34-60.35 46.09a440 440 0 0 0-42 94.16 237 237 0 0 1 46.65 40.22l7.74-100.18c.15-1.94 7.99-1.35 8.2.4.16 1.19 2.94 2 2.72 5.09l-14.48 211.01-9.2 120.13c-3.53 45.93-2.81 148.83 17.66 191.57 136.35-21.53 282.12-20.65 417.85 0 27.36-61.87 19.03-191.98 13.54-259.44L708 372.6l-4.37-80.97c-.25-4.68 4.3-6.92 6.61-5.96 2.03.85 4.78 2.84 5 6.15zm-494.13 551.7c21.43-19.1 35.22-57.35 43.62-82.28-6.43-59.96-5.28-117.87-.47-178.16l13.88-175.22a133 133 0 0 0-50.39-48.18c-25.96 82.56-111.76 381.88-100 448.65 1.56 8.64 6.65 12.07 15.04 13.07 27.49 3.12 53.01 10.11 78.32 22.12zm567.3-3.46c25.43-11.7 51.8-16.88 79.94-20.9 14.66-20.41-5.3-123.56-11.48-147.5L796.15 435.6a761 761 0 0 0-23.65-76.51c-21.31 13.04-36.82 29.67-49.64 49.4l15.63 197.28c3.56 44.83 2.84 88.77-.69 133.6-1.18 14.98-1 26.55 4.84 40.28 5.93 13.95 25.27 69.77 45.71 60.4zm-92.2 32.67c3.12-20.31 6.65-31.4 7.4-46.5-65.21-10.6-128.43-13.53-193.58-14.03l-31.1-.2a992 992 0 0 0-181.94 14.7l7.96 46.12c133.1-17.78 258.03-15.97 391.26-.1zM196 894l15.13-40.47c-24.52-12.17-49.95-17.85-76.31-20.56l-7.34 44.3zm614.45-.63 61.31-15.91-6.4-45c-26.86 3.81-51.6 9.15-75.85 21.13 6.93 11.36 10.33 42.56 20.91 39.78zm0 0"></path><path d="M160.39 884.55c-35.71-8.77-32.55-5.15-27.9-32l2.96-17.01 9.8.34c17.14.6 64.06 14.64 64.06 19.18 0 .73-1.04 3.92-2.32 7.07s-4.4 11.3-6.95 18.08-5.53 12.25-6.62 12.15-15.95-3.62-33.03-7.81z" data-region="path1" fill="#ffffff"></path><path d="M201.38 834.58c-9.5-3.66-25.97-8.25-36.59-10.2-30.74-5.66-31.98-6.12-34.74-12.72-8.62-20.63 5.64-107.82 39.24-239.89 17.85-70.17 54.7-201.07 58.55-208.04 2.72-4.9 32.06 19.3 43.32 35.72l6.14 8.96-7.64 95.3c-4.2 52.4-8.3 112.15-9.12 132.75-1.37 34.72-.09 95.41 2.45 115.7.93 7.43.17 11.12-5.24 25.61-3.48 9.31-9.2 22.67-12.73 29.7-7.53 14.98-21.17 34.08-24.22 33.89-1.17-.08-9.91-3.13-19.42-6.78z" data-region="path7" fill="#ffffff"></path><path d="M305.54 870.04c-.37-1.2-1.9-9.44-3.4-18.33-1.5-8.9-3.1-17.84-3.54-19.88-1-4.63-.94-4.65 28.98-8.96 95.98-13.84 248.89-13.4 353.95 1 11.24 1.54 20.7 3.04 21.05 3.33.52.43-6.5 43.39-7.26 44.4-.13.16-5.58-.36-12.12-1.17-103.57-12.87-238.82-13.89-344.56-2.6-13.57 1.45-26.41 3.03-28.54 3.5-2.3.53-4.15 0-4.56-1.29z" data-region="path8" fill="#ffffff"></path><path d="M289.8 807.77c-8.22-19.69-13.76-56.48-15.72-104.48-1.63-40.05-.43-69.42 6.57-160.44 9.1-118.4 17.6-249 16.47-253.46-.85-3.4-2.15-4.35-5.94-4.35-5.86 0-5.53-1.95-9.8 57.27l-2.96 41.1-12-11.02a339 339 0 0 0-22.53-18.8l-10.52-7.77 6.03-17.2c7.67-21.91 27.07-62.49 37.03-77.47 12.03-18.09 30.44-33.18 49.78-40.78l8.18-3.22 11.9 4.29c6.56 2.36 25.32 10.42 41.7 17.91s37.44 16.53 46.8 20.08l17.01 6.45.85 81.86c.9 85.37.86 85 7.75 85.1 5.45.09 5.87-4.06 5.87-58.74 0-30.09.5-66.12 1.1-80.07l1.1-25.37 14.92 1.56c9.44.99 21.09.94 31.66-.13 9.2-.94 17.12-1.38 17.59-1 .46.39 1.23 42.18 1.7 92.88l.85 92.18 4.16.58c8.63 1.22 8.6 1.54 8.6-97.9 0-82.18.3-92.42 2.63-92.42 4.8 0 34.2-11.8 63.2-25.35 15.74-7.36 33.99-15.3 40.55-17.66 11.74-4.2 12.07-4.23 19.66-1.35 9.15 3.47 26.75 15.15 36.82 24.43 14.43 13.3 32.43 46.23 48.76 89.21 4.35 11.44 7.9 21.17 7.9 21.62s-3.64 3.32-8.08 6.37c-4.45 3.06-14.45 11.21-22.23 18.13s-14.41 12.3-14.73 11.97c-.66-.68-3.6-39.88-5.29-70.37-.62-11.23-1.83-21.76-2.69-23.4-1.85-3.55-9.67-3.97-10.96-.6-1.56 4.08 4.05 91.1 12.9 199.95 4.68 57.46 9.24 123.7 10.13 147.2 2.93 76.92-3.06 142.9-15.7 173.17l-2.49 5.95-21.06-2.91c-60.6-8.39-115.72-11.82-189.78-11.82-72.57 0-126.22 3.43-184.14 11.78l-21.04 3.03z" data-region="path9" fill="#ffffff"></path><path d="M471.66 244.1c-2.3-.93-5.07-4.44-6.64-8.4-3.38-8.63-9.22-9.43-13.17-1.81l-2.58 5-11.5-3.97c-6.32-2.19-32.55-13.2-58.29-24.48-35.4-15.5-47.4-21.52-49.26-24.68-2.3-3.9-1.99-5.12 4.44-17.55 3.8-7.34 8.57-18.33 10.58-24.42 5.62-16.98 5.55-16.95 14.25-5.69 15.46 20.02 36.24 37.6 82.1 69.44 28.33 19.67 40.33 29.4 43.6 35.38 1.4 2.57.85 2.96-3.97 2.87-3.08-.06-7.38-.82-9.56-1.7z" data-region="path10" fill="#ffffff"></path><path d="m450.95 171.26-11.06-1.09-7.31-14.05c-4.02-7.73-9.16-18.96-11.42-24.96l-4.1-10.91 13.11-1.42c16.91-1.82 125.25-1.79 140.47.04 11.47 1.38 11.62 1.47 10.52 5.86-.62 2.45-5.36 13.42-10.54 24.37-6.64 14.04-10.5 20.26-13.07 21.08-4.89 1.56-92.63 2.44-106.6 1.08z" data-region="path12" fill="#ffffff"></path><path d="M498.6 234.19c0-.83-8.61-8.55-19.14-17.17-16.17-13.22-28.5-26.43-28.5-30.52 0-.56 8.6-.46 19.14.22 10.53.68 32.35.77 48.5.19 16.87-.61 29.35-.41 29.34.46-.01 3.77-7.3 12.81-17.15 21.25a835 835 0 0 0-20.33 18.13c-9.54 8.87-11.86 10.32-11.86 7.44z" data-region="path13" fill="#ffffff"></path><path d="M573.48 177.23c0-.33 4.13-9.33 9.18-20a880 880 0 0 0 11.86-25.85c2.63-6.36 2.73-6.42 7.4-3.97 2.6 1.36 7.42 5.28 10.7 8.7l5.95 6.24-12.14 11.6c-14.45 13.82-32.95 26.89-32.95 23.28z" data-region="path14" fill="#ffffff"></path><path d="M516.07 244.51c-3.56-2.26 13.75-17.33 39.54-34.42 13.1-8.68 31.26-21.47 40.34-28.4 16.81-12.85 42.89-38.75 48.4-48.09 1.68-2.83 3.84-4.9 4.8-4.6.97.3 4.09 7.4 6.94 15.76s6.68 17.79 8.51 20.95c7.75 13.4 8.06 14.3 6.49 18.78-1.32 3.75-8.47 7.49-48.3 25.25-55.65 24.81-71.27 30.64-73.36 27.36a11 11 0 0 1-1.45-5.06c-.03-3.24-4-5.2-7.67-3.78-1.4.53-3.33 3.92-4.3 7.53-1.5 5.58-2.73 6.84-8.1 8.33-7.55 2.1-9.08 2.15-11.84.4z" data-region="path15" fill="#ffffff"></path><path d="M413.03 169.2c-4.33-2.86-13.08-10.06-19.44-16l-11.56-10.78 5.1-5.39c5.09-5.36 15.92-12.9 16.84-11.72.4.53 16.43 39.49 19.16 46.61 1.46 3.8-1.43 3.03-10.1-2.71z" data-region="path16" fill="#ffffff"></path><path d="M367.75 124.51c-4.65-7.5-4.54-13.26.33-17.83 13.52-12.7 72.34-20.17 145.84-18.52 72.42 1.64 115.96 9.34 122.56 21.69 1.45 2.7 1.18 4.85-1.21 9.66-5.2 10.42-7.53 10.67-17.83 1.89-12.86-10.96-17.12-12.71-36.3-14.92-41.36-4.77-157.22-3.66-176.56 1.68-5.31 1.46-12.8 6.4-31.3 20.64q-1.95 1.5-5.53-4.29z" data-region="path17" fill="#ffffff"></path><path d="M772.61 833.67c-7.5-6.78-21.9-34.37-29.97-57.46l-4.68-13.38 2.23-48.18c2.7-58.43 2.17-71.23-8.4-202.88l-8.17-101.66 5.68-8.51c8.82-13.23 36.63-39.99 41.55-39.99 1.57 0 8.21 17.82 14.6 39.14 8.77 29.3 70.8 272.22 75.6 296.1 7.68 38.18 10.76 63.37 10.93 89.41.2 31.04-.16 31.66-19.62 34.64-18.18 2.78-42.01 9.03-55.5 14.55-5.83 2.39-12.15 4.34-14.03 4.34-1.9 0-6.49-2.75-10.22-6.12z" data-region="path18" fill="#ffffff"></path><path d="M805.01 890.12c-1.5-1.8-13.72-33.83-13.72-35.95 0-.19 3.64-1.9 8.09-3.8 13.93-5.98 30.23-10.7 47.94-13.88l17.08-3.06.91 5.3c1.58 9.19 5.6 37.64 5.35 37.9-.48.5-60.6 15.92-62.08 15.92-.86 0-2.46-1.1-3.57-2.43z" data-region="path19" fill="#ffffff"></path></svg>