<?xml version="1.0"?>
<svg xmlns:xlink="http://www.w3.org/1999/xlink" xmlns="http://www.w3.org/2000/svg" xmlns:svg="http://www.w3.org/2000/svg" viewBox="0 0 1024 1024" preserveAspectRatio="xMidYMid" version="1.0"><path fill="#000000" d="M439 225.79c-3.94.46-5.24.67-7.2 1.09-12.24 2.51-21.92 8.54-31.22 19.52-5.1 6.03-3.94 5.36-9.46 5.24a40.6 40.6 0 0 0-25.43 6.7A92 92 0 0 0 355 267.8c-3.77 4.19-7.33 9.25-13.49 19.1-1.75 2.76-3.35 5.2-3.6 5.32s-2.26 1.05-4.48 1.88a38 38 0 0 0-12.15 7 29.3 29.3 0 0 0-10.47 21.37c-.09.54-3.52 4.77-8.38 10.18l-5.03 5.7c-2.51 2.88-2.39 2.8-4.82 3-11.98 1.01-20.82 5.29-27.35 13.29a27.7 27.7 0 0 0-5.87 14.45c0 .92-.16 1.26-.67 1.85-1.34 1.42-10 8.92-13.02 11.26l-3.44 2.85a43 43 0 0 1-4.06 3.23c-1.93 1.38-1.93 1.38-3.44 1.26-4.44-.42-13.82 1.96-18.85 4.81a30.6 30.6 0 0 0-15.8 19.9c-.41 1.84-.41 1.93-1.84 2.98-2.13 1.67-6.7 4.94-9.38 6.7l-7.83 5.44c-6.29 4.4-29.33 19.7-34.36 22.84l-7.66 4.65c-20.11 12.06-30.63 19.06-39.88 26.6a105 105 0 0 0-11.65 10.34c-18.35 18.81-27.77 37.54-32.21 63.68-.84 5.2-.97 5.61-2.73 7.96-6.62 9.1-9.67 18.73-10.55 33.35-1.01 16.54 1.46 39.92 5.32 50.14q11.1 29.58 55.75 49.02a247 247 0 0 0 31.5 11.06c8.6 2.63 31.22 7.24 42.53 8.62l4.44.63c5.57.76 8.71 1.18 10.43 1.26l3.48.42a427 427 0 0 0 71.5.8l.22 4.48c.54 24.55 3.9 39.12 11.52 49.97 6.95 9.93 19.69 21.03 32.88 28.74l4.95 2.9A268 268 0 0 0 351.53 823c26.18 9.56 47.08 14.7 81.1 19.99l4.52.7c3.9.72 24.51 2.73 34.48 3.36 25.93 1.6 60.24.25 83.12-3.27a457 457 0 0 0 79.47-18.43c15.7-5.2 27.1-9.38 35.56-13.03l4.9-2.1c12.49-5.19 32.05-14.45 51.07-24.2l26.9-13.83a695 695 0 0 1 34.1-16.8l7.54-3.52A558 558 0 0 1 820 741.2l10.22-3.98 8.5-3.35c40.93-15.34 65.4-27.15 82.95-40.05s25.68-27.48 28.49-51.32c1.34-11.23 1.42-13.15 1.46-27.73 0-19.7-.67-23.55-5.9-34.06-2.18-4.32-2.18-4.32-1.8-9.72l.58-7.41c.76-6.29.84-21.08.25-29.25-.08-1.67-.42-5.57-.58-8.67-.63-9.21-2.35-23.67-4.61-37.83a1173 1173 0 0 0-5.95-32.67c-4.4-22.41-4.82-26.4-4.6-38.84.33-16.17-.72-24.54-4.53-35.73-8.93-26.22-32.68-46.04-63.26-52.74-9.13-2.05-14.41-2.52-25.14-2.35q-31.08.5-60.15 11.31c-15.67 5.87-43.2 14.25-46.59 14.25-1.34 0-2.26-2.1-4.19-9.8-3.68-15.05-5.36-25.14-5.86-35.61a96 96 0 0 0-4.23-25.18c-5.62-16.76-16.55-30.67-32.3-40.97-8.55-5.57-22.75-10.6-35.57-12.61-11.73-1.85-26.68-1.51-41.51.92-16 2.64-24.97 5.28-54.88 16.13a318 318 0 0 1-22.08 7.12c-5.24 1.47-6.16 1.68-8.92 2.3-5.07 1.1-4.95 1.13-10.73-3.26-16.46-12.45-37.11-21.37-55.3-23.84-2.76-.42-12.86-.71-14.82-.42zm12.82 18.56q13.36 2.76 27.4 9.3a114 114 0 0 1 23.75 15.25c12.02 10.05 20.6 22.62 24.04 35.19 1.18 4.18 2.22 12.69 1.6 12.69l-2.52-.67c-19.1-5.87-34.77-5.32-49.64 1.8a80 80 0 0 0-18.73 13.28 93 93 0 0 0-9.84-7.67l-3.35-2.38a130 130 0 0 0-9.47-6.08 344 344 0 0 0-22.87-11.23c-6.83-2.93-21.79-7.66-24.05-7.66-1.47 0-1.47-.3 0-2.47.71-1.05 2.1-3.31 3.18-4.9a348 348 0 0 1 14.42-20.95c13.07-16.97 20.86-22.54 33.38-23.96 3.1-.38 9.93-.13 12.7.46zm187.26.12a83 83 0 0 1 24.17 6.12c18.35 7.62 32.34 24.13 36.02 42.6 1.3 6.37 1.68 10.9 1.18 14.62-.84 6.54-4.02 14.75-8.93 22.88-3.35 5.61-3.22 5.44-5.65 4.86-20.44-5.03-39.76-1.3-53.92 10.34-3.52 2.94-6.62 6.29-11.4 12.32a18 18 0 0 1-1.83 2.1c-.17.04-2.27 0-4.7-.13a39.8 39.8 0 0 0-31.92 11.64c-3.1 2.9-2.3 2.64-6.37 2.18-7.54-.83-18.6-3.56-27.94-6.87a441 441 0 0 1-16.08-6.36c-.05-.05 1.5-2.52 3.47-5.45 5.07-7.63 10.18-15.5 10.18-15.75 0-.42.5-.5.97-.25 1.55.83 11.93 3.56 18 4.77 14.67 2.85 30.93 3.19 44.58.84 19.6-3.35 41.73-15.54 51.53-28.36q17.6-23.17 5.82-41.47c-6.11-9.56-15.7-14.96-31.29-17.6-5.15-.84-15.92-.8-21.95.13a184 184 0 0 0-20.53 4.44l-5.45 1.59c-4.02 1.13-12.98 4.06-29.07 9.55-11.73 3.98-22.2 6.95-22.96 6.54l-2.5-3.77c-1.3-2.02-2.73-4.2-3.15-4.74-.42-.58-.71-1.13-.63-1.21s2.1-.67 4.4-1.34a331 331 0 0 0 26.64-8.63 310 310 0 0 1 36.53-11.6c19.02-4.2 30-5.2 42.73-3.99zM386.13 268.4c0 .5-1.42 2.73-9.05 14.16-6.87 10.22-6.87 10.3-7.62 10.14-.63-.13-3.1-.3-10.14-.75-1.76-.13-2.22-.21-2.22-.46 0-.88 5.74-8.8 9.55-13.12a25.1 25.1 0 0 1 17-9.88c2.52-.42 2.52-.42 2.52-.09zm242.85.92c17.26 1.93 26.68 8.8 27.73 20.2.42 4.65-3.64 13.23-9.13 19.27a67 67 0 0 1-22.62 15.25 92 92 0 0 1-47.17 6.03 138 138 0 0 1-25.73-5.45c-7-2.22-6.82-2.1-6.7-5.78.13-5.44-.63-13.4-1.67-17.93a75 75 0 0 0-3.35-10.35c0-.29 1.17-.67 6.53-2.17 6.12-1.68 11.31-3.31 27.65-8.63 20.07-6.54 30.58-9.22 40.38-10.31 6.29-.75 8.6-.75 14.08-.13zm-263.17 36.2a169 169 0 0 1 28.95 6.37 172 172 0 0 1 49.35 25.89c8.46 6.28 20.65 18.51 23.96 24.17a21 21 0 0 1 2.64 7.12 12.57 12.57 0 0 1-12.57 14.41c-4.02 0-6.83-1.97-13.2-9.22-22.11-25.38-53.82-42.9-89.35-49.3-6.7-1.22-16.3-1.89-25.97-1.93-4.2 0-3.98.08-4.44-1.97-.63-2.68 1.17-6.11 5.02-9.42 4.2-3.7 8.93-5.62 15.5-6.37 2.52-.25 18.6-.09 20.11.25zm143.44 22.62c2.26.38 7.83 1.64 10.56 2.51 4.6 1.35 15.5 5.2 15.5 5.45a155 155 0 0 1-7.8 12.15 422 422 0 0 1-19.6 25.68 360 360 0 0 1-16.76 19.27c-10.76 11.77-28.6 29.66-38.66 38.7l-6.16 5.5-6.08 5.48c-1.67 1.51-4.9 4.28-7.24 6.12l-6.37 5.2a503 503 0 0 1-16.42 12.98L401 474a352 352 0 0 1-15.75 11.19l-7.88 5.36c-5.02 3.47-28.02 17.47-33.68 20.48a334 334 0 0 0-8.3 4.44c-8.12 4.4-28.14 13.83-29.53 13.83a25 25 0 0 1-2.93-3.52c-1.38-1.93-4.19-5.45-6.16-7.96-4.19-5.2-4.44-5.61-4.81-8.84-.8-6.66.62-14.24 3.68-19.98a57 57 0 0 1 10.22-12.9c1.68-1.51 1.68-1.51 5.03 1.8 1.84 1.8 4.74 5.02 6.45 7.12s4.02 4.77 5.16 5.95a26 26 0 0 0 31.62 5.02 26.8 26.8 0 0 0 11.15-33.55c-2.47-6.08-5.24-10.27-11.86-17.72-2.22-2.56-2.43-2.94-1.5-3.48a126 126 0 0 0 7.12-5.53c1-.84 2.89-2.39 4.18-3.35l4.57-3.56a16 16 0 0 1 2.39-1.68c.5-.04 6.07 6 9.17 9.8 6.92 8.72 11.19 11.74 18.85 13.45 9.14 2.06 19.7-2.1 25.35-9.84a31.4 31.4 0 0 0 5.36-16.34c0-8.3-5.36-18.77-14.5-28.44a14 14 0 0 1-1.8-2.18c.09-.25 3.86-3.65 7.04-6.45 1.34-1.14 3.31-2.94 4.44-4.03a34 34 0 0 1 5.83-4.69c.33 0 3.06 2.72 5.61 5.62 7.2 8.25 11.1 11.01 17.97 12.65 12.15 2.93 25.26-4.53 29.33-16.6 3.85-11.6.63-22.74-10.1-34.68-1.67-1.84-3.02-3.48-3.02-3.69 0-.46 2.02-2.38 4.82-4.52a46 46 0 0 1 34.77-9zm194.97 2.72c.42 2.35 1.42 7.38 1.88 9.26.3 1.18.42 2.14.38 2.22s-1.38-.46-2.97-1.17a67 67 0 0 0-4.86-1.97l1.55-2.8c.96-1.47 2.09-3.52 2.6-4.57 1.04-2.1 1.25-2.22 1.42-.97zm-381.14 5.24c1.47.34 3.6.67 4.78.71 1.21.04 2.18.17 2.26.21.13.17-4.99 5.45-6.37 6.54-1.04.88-1.04.88-3.01.46a50 50 0 0 0-4.1-.71q-2.1-.3-2.19-.55c0-.3 5.74-7.29 6-7.29zm34.6 3.23c11.86 2.3 27.49 7.96 38.55 14.11 9.34 5.16 21.61 13.41 21.61 14.46 0 .25-1.05 1.25-3.6 3.35-1 .84-3.56 3.14-5.78 5.15-7.63 7.04-7.5 6.96-9 5.36a159 159 0 0 0-49.86-29.32c-4.1-1.64-9.38-3.52-9.89-3.52-1.13 0-.67-.67 2.94-4.4 7.5-7.7 6.24-6.87 9.5-6.28 1.6.37 4.07.84 5.54 1.09zm489.22 5.02c18.94 2.22 34.35 9.51 47.34 22.46 11.52 11.48 17.76 29.2 16.46 47-.5 7.12-3.68 14.96-9.8 24.21a101 101 0 0 1-29.66 27.65c-26.4 16.09-57.22 20.32-89.19 12.15a184 184 0 0 1-19.27-6.45c-.16-.17.71-1.8 3.52-6.37 1.26-2.05 3.65-6.07 5.32-9 4.15-7.13 4.1-7.13 4.65-6.92a117 117 0 0 0 50.27 2.48c12.32-2.52 25.56-8.8 35.65-16.89 13.37-10.64 21.74-26.56 21.28-40.17a36.9 36.9 0 0 0-19.52-30.42c-12.86-7.12-28.27-8.8-49.43-5.57l-4.15.72-3.77.88c-2.64.54-6.16 1.42-12.4 3.14-1.25.29-6.45 2-11.56 3.68a373 373 0 0 1-29.24 8.88c-.34 0-9.43-8.7-9.6-9.17q-.04-.17.3-.2c1.05 0 20.1-6.13 31.33-10.06 20.66-7.3 32.85-10.4 46.5-11.9 8.38-.92 17.68-.96 24.97-.13zm-173.98 7.46a113 113 0 0 1 42.57 15.75 109 109 0 0 1 30.95 27.53c7.3 10.26 11.9 22.32 11.94 31.41 0 1.14 0 1.14-.62 1.01l-2.85-.63c-14.08-3.22-22.83-3.6-32.43-1.42-10.47 2.38-21.78 8.54-30.08 16.42-2.47 2.3-2.47 2.3-4.31.67-2.9-2.6-9.3-7.12-14.24-10.14l-4.9-3.02A197 197 0 0 0 617 407.4l-6.2-1.67a46 46 0 0 1 4.19-7.8q10.26-16.59 12.4-19.6l2.18-3.14c11.01-15.92 20.06-22.12 34.56-23.59 3.14-.33 4.65-.3 8.8.21zm-363.96 3.94c5.12.67 8.09 1.13 11.27 1.84a167.6 167.6 0 0 1 80.86 44.11q20.94 20.4 10.6 31.34c-2.69 2.89-5.7 4.06-9.8 3.85-3.86-.16-7.3-2.51-11.78-8.08a142 142 0 0 0-25.68-24.6 172 172 0 0 0-30.62-18.17 151 151 0 0 0-54.42-14.04c-5.28-.42-6.29-.96-6.03-3.56.54-5.74 9.21-12.31 17.42-13.28 3.35-.38 13.12-.08 18.18.59zm527.6 13.57c22.5 1.5 36.44 15.46 31.7 31.71-5.02 17.35-24.92 32.14-47.88 35.74-4.27.63-18 .75-23.29.2-9.8-1.04-21.36-3.8-22-5.27a80 80 0 0 1-.41-5.53c-.38-11.14-2.26-18.85-6.79-28.2a122 122 0 0 0-7.12-12.14c0-.09 1.6-.63 3.48-1.26l8.8-2.76c23.62-7.55 32.8-9.9 45.66-11.9q8.13-1.26 17.84-.59zm-308.8.96a180 180 0 0 0 27.45 10.18c3.05.84 13.99 3.19 15.58 3.36 1.43.2 1.47.25.63 1.34a247 247 0 0 0-7.29 12.19c-2.22 4.35-4.1 7.04-5.24 7.33-2.1.54-8.04 3.77-10.64 5.86-8.12 6.41-12.27 13.7-12.31 21.54-.05 2.68-.05 2.68-1.68 4.77l-2.8 3.98a58 58 0 0 1-3.57 4.7l-4.44 5.44c-2.51 3.14-2.89 3.4-4.94 3.6a37.7 37.7 0 0 0-25.64 13.66 32 32 0 0 0-5.99 14.16c-.17 1-.42 1.38-2.1 3.22a183 183 0 0 1-11.1 10.6c-1.67 1.55-4.18 3.69-5.4 4.9-2.6 2.35-3.27 2.77-5.15 2.77-4.1 0-11.6 1.88-16.09 4.06a34.8 34.8 0 0 0-16.46 18.69l-.97 2.17c-.62 1.26-16.17 12.36-23.25 16.68-1.09.63-4.35 2.76-7.33 4.6-5.7 3.73-6.83 4.45-11.48 7.25-10.97 6.7-11.6 7.13-17.5 10.4a427 427 0 0 0-32.26 19.18 44 44 0 0 1-4.7 2.93q-.33.09-.8-1.8a163 163 0 0 0-11-31.17c-2.52-5.57-7.55-15-9.43-17.72-.63-.92-.68-1-.26-1.17 2.6-.88 14.62-6.16 19.4-8.5 6.53-3.15 12.86-6.54 26.1-14.08a264 264 0 0 0 16.55-10.05l4.94-3.15a865 865 0 0 0 18.73-12.44l6.7-4.86a530 530 0 0 0 22.66-17.17 415 415 0 0 0 16.76-13.87 494 494 0 0 0 35.52-33.1c14.96-14.95 20.11-20.48 29.12-31a599 599 0 0 0 13.4-15.96c1.55-2.1 3.77-4.48 3.98-4.48.09 0 1.13.42 2.3.96zm81.2 6.67c-.97 2.26-5.03 9.63-6.41 11.68-.38.5-1.43 2.22-2.35 3.82-6.33 10.89-5.57 10.22-10.93 10.05a92 92 0 0 1-9.3-.42c0-.84 3.14-6.16 5.86-9.84 6.54-9.01 10.8-12.7 16.84-14.5 2.35-.71 6.5-1.26 6.28-.84zm-339.67 7.33c.71.33 1.8.67 2.35.75 2.3.34 2.43.13-2.43 4.19-4.7 3.9-5.03 4.06-7.16 3.52l-2.77-.55c-1.5-.2-1.47-.5.25-1.8.71-.58 2.35-1.88 3.52-2.97 2.93-2.6 3.94-3.35 4.86-3.69zm26.1 3.52a154 154 0 0 1 19.44 5.15c12.32 4.19 28.28 12.73 39.38 21.15 1.88 1.34 3.43 2.48 3.6 2.48.63 0 .13.75-1 1.5a147 147 0 0 0-11.73 9.3c-4.03 3.48-5.5 4.44-5.87 3.77-.17-.25-3.98-3.3-6.87-5.48a197 197 0 0 0-51.1-26.65c-1.56-.5-1.47-.7.41-2.1.96-.7 2.68-2.09 3.81-3.1l4.53-3.85a34 34 0 0 0 2.72-2.3l.34-.38zm-53.2 15.66a154 154 0 0 1 43.65 11.82l3.81 1.67a178 178 0 0 1 30.37 17.01c15.71 11.02 28.91 24.76 32.6 34.02 4.23 10.6-6.33 21.32-16.34 16.46-1.97-.96-3.86-2.72-7.96-7.54-18.73-21.78-41.52-37.2-71.8-48.34a163 163 0 0 0-36.03-8.63c-6.08-.84-6.41-1.05-6.41-3.48 0-4.19 5.49-9.5 12.27-11.77a38 38 0 0 1 15.8-1.22zm346.78 12.74c12.57.96 27.53 4.44 41.43 9.6a197 197 0 0 1 37.45 19.26l3.27 2.35a138 138 0 0 1 22.96 18.56q15.12 15.08 8.59 25.17a12.6 12.6 0 0 1-10.9 5.62c-4.18-.42-7-2.52-14.15-10.48a176 176 0 0 0-20.53-18.05 176 176 0 0 0-61.8-29.33 155 155 0 0 0-37.7-4.73c-6.66-.17-6.82-.2-7.54-2.14-.96-2.51 1.72-7.12 6.12-10.43 7.04-5.23 15.88-6.7 32.8-5.4zM207.6 430.73c.16.12.83.41 1.46.67s1.13.54 1.13.62c-.16.63-21.24 11.73-21.61 11.31 0-.04.46-.5 1.17-.96l5.36-3.73c11.73-8.25 11.98-8.46 12.49-7.96zm24.38 5.15 4.06.96c16.72 3.77 38.54 13.37 52.37 22.96 7.83 5.44 7.54 4.98 4.85 7.54-3.3 3.3-4.18 4.44-7.33 9.05a50 50 0 0 0-8.63 20.23c-.29 1.55-.29 1.55-1.96 0a201 201 0 0 0-35.61-24.13 176 176 0 0 0-38.5-14.33 84 84 0 0 0-7.33-1.46c-.97-.13-.97-.13-.42-.55a68 68 0 0 1 3.6-1.67 151 151 0 0 0 28.61-16.3c4.2-2.85 4.28-2.89 6.29-2.3zm508.78 4.4c4.56.42 10.55 1.8 19.44 4.4 5.02 1.42 4.85 1.3 3.98 3.14a54 54 0 0 1-2.18 3.77l-2.77 4.65a394 394 0 0 1-18.18 27.65l-5.32 7.24a452 452 0 0 1-26.48 32.8 660 660 0 0 1-62.62 62.55 540 540 0 0 1-52.54 39.88c-9.93 6.7-38.87 23.21-40.05 22.8-.12-.1-1.3-1.52-2.64-3.23l-4.77-6.04c-4.86-6.16-5.9-9.3-5.9-17.47 0-5.82 1.25-10.6 4.01-15.7 1.68-3.06 6.58-9.56 7.25-9.56.34 0 4.82 4.61 7.2 7.33 6.58 7.54 9.98 10.06 16.47 11.9q4.44 1.34 8.67.84a25.85 25.85 0 0 0 23.55-26.1c0-8.92-3.65-16.63-12.2-25.97a35 35 0 0 1-2.76-3.27c0-.63 16.09-16.09 16.76-16.09.42 0 4.27 3.86 7.58 7.54 5.61 6.29 8.08 8.42 12.15 10.48a25.8 25.8 0 0 0 31.67-7.42 37 37 0 0 0 4.69-9.63c.84-3.19.75-9.72-.13-12.95-2.09-7.41-5.36-12.65-12.81-20.7a57 57 0 0 1-2.9-3.34c-.33-.6-.62-.26 5.87-7.25 7.92-8.5 8.96-9.51 9.38-9.34.55.12 2.18 1.84 5.78 5.9 8.17 9.3 17.35 12.95 26.94 10.73a25.55 25.55 0 0 0 19.82-20.49c2.1-10.05-2.35-21.36-12.4-31.63a43 43 0 0 1-3.06-3.26c-.17-.55 4.6-4.57 8.38-7.04a42 42 0 0 1 20.4-7.17c1.93-.2 7.29-.16 9.72.05zM913 445.8c.67 3.52 1.5 8.08 1.5 8.37 0 .09-.41.68-.87 1.26a333 333 0 0 0-13.66 16.72 285 285 0 0 0-46.54 88.8 301 301 0 0 0-12.65 67.87 75 75 0 0 0-.42 6.79c-.17 5.74.46 4.86-5.45 7.12A2233 2233 0 0 0 793.36 659l-4.6 1.92c-2.22.92-10.31 4.49-14.88 6.5l-5.53 2.47a1152 1152 0 0 0-21.49 9.76c-3.26 1.42-10.64 4.82-23.87 11.06-3.44 1.59-8.05 3.68-10.23 4.6l-8.17 3.65a578 578 0 0 1-13.74 5.9 398 398 0 0 1-25.05 9.98l-8.5 3.14a524 524 0 0 1-57.4 17.18l-11.18 2.72-.59-4.27c-2.1-17.1-5.15-28.5-11.98-45.54a218 218 0 0 0-15.58-28.95c-.8-1.09-.8-1.09 1.67-2.26a365 365 0 0 0 39.6-22.83 584 584 0 0 0 53.66-41.1l6.7-5.95c4.02-3.52 5.4-4.81 16.13-15.08a561 561 0 0 0 31.88-33.18c7.66-8.2 19.6-22.45 28.36-33.93l4.36-5.57q2.38-3.1 5.53-7.63l3.93-5.57 3.35-4.65c.97-1.38.5-1.38 4.82.3a176 176 0 0 0 21.16 6.78c33.26 8.76 69.83 3.06 97.27-15.12a113 113 0 0 0 32.05-31.5c1.17-1.68 1.17-1.68 1.38-.09.04.84.34 2.68.59 4.07zm-364.05 1.67c1.64.38 3.15.55 5.24.55 1.64 0 2.93.04 2.93.08 0 .17-7.12 8.46-7.41 8.59-.08.08-1.63-.13-3.4-.42s-4.02-.67-4.94-.75c-2-.21-2-.3-1.09-1.39.38-.42 1.1-1.38 1.55-2.1.84-1.25 3.19-4.14 3.94-4.73.5-.37.46-.41 3.18.21zm31.84 2.39a176 176 0 0 1 34.69 10.26 168 168 0 0 1 36.24 21.28c1.55 1.18 1.55 1.18-.25 3.15a331 331 0 0 1-12.49 13.23c-1.26 1.14-.2 1.76-11.31-6.57a205 205 0 0 0-38.83-22.08c-8.09-3.35-21.08-7.96-22.46-7.96-.84 0-.42-.71 2.52-4.27 7.2-8.67 6.7-8.21 8.67-7.71zm337.65 24.09 3.02 18.01 1.09 6.96 1.09 7.66.84 6.87c1.38 10.68 2.43 30 2.17 39.6a360 360 0 0 1-1.67 23.83c-.67 6.45-1.8 9.21-6.2 15.5-5.03 7-12.15 13.4-23.46 21.11a256 256 0 0 1-39.17 20.57 92 92 0 0 0-5.45 2.39c-.41 0 .76-15.13 1.72-22.62a277 277 0 0 1 26.98-89.74 289 289 0 0 1 37.7-56.97c.13 0 .72 3.1 1.3 6.83zM530 468.09c22.54 1.1 50.35 10.06 73.27 23.59a147 147 0 0 1 8.75 5.53c6.04 3.98 12.24 8.63 21.16 16a75 75 0 0 1 9.09 8.59c6.91 7.54 9.38 11.52 10.35 16.63 1.42 7.04-4.74 14.33-12.07 14.33-3.06 0-4.77-.63-7.7-2.81-1.68-1.26-2.44-2.05-6.88-7.25a193 193 0 0 0-32.67-27.86 159 159 0 0 0-18.73-10.97 201 201 0 0 0-28.49-11.31 151 151 0 0 0-39.12-6.96c-4.74-.29-4.9-.33-5.53-1.34-1.47-2.34 1.5-8 5.99-11.3s8.84-4.62 17.05-5.03zm-355.8 1.1c9.52.83 19.11 2.5 26.73 4.68a170 170 0 0 1 92.42 65.48 159 159 0 0 1 23.25 50.94c1.5 5.9 2.3 10.27 2.01 10.77-.13.3-1.63 1.93-3.31 3.64a109 109 0 0 0-14.41 18.52c-1.97 3.18-2.43 3.77-3.02 3.94-3.26.75-19.23 2.51-29.53 3.22-29.7 2.06-57.64 1.13-83.07-2.68-23.09-3.43-46.3-9.17-59.9-14.79-20.12-8.29-32.81-15.83-41.94-24.96-7.67-7.67-10.94-13.83-10.56-19.94 1.09-18.06 9.05-38.59 20.4-52.66a122 122 0 0 1 21.87-20.95c2.1-1.59 4.4-3.35 5.15-3.85a251 251 0 0 1 20.4-13.16l3.6-2.3q7.13-4.73 10.9-5.53c3.64-.75 12.57-.92 19.02-.38zm324.17 29.15c1.3.25 3.14.59 4.1.67 1.68.17 1.68.17.26 1.26-.76.54-2.94 2.55-4.74 4.35-3.3 3.35-3.3 3.35-5.74 2.85l-3.77-.84a8 8 0 0 0-2-.25q-.64 0-.68-.2c0-.13 1.8-2.02 4.06-4.2 2.23-2.1 4.11-3.93 4.24-4.1.29-.3 1.13-.25 4.27.46zm25.89 2.97 4.77 1a172 172 0 0 1 60.92 26.82c2.09 1.5 7.37 5.74 7.54 6.07 0 .13-3.6 3.77-8.05 8.05-7.79 7.66-8.04 7.87-8.54 7.54l-2.85-2.3a210 210 0 0 0-19.98-14.25A239 239 0 0 0 524 517.07c-3.48-1.43-11.23-4.11-11.73-4.11a1.3 1.3 0 0 1-.76-.42c-.29-.3.42-1.09 5.32-5.95 3.06-3.1 5.66-5.61 5.74-5.61zM472.93 518a92 92 0 0 1 8.88 1.09c9.26 1.25 24.97 5.74 36.03 10.18a214 214 0 0 1 44.4 24.71c11.32 8.55 15.5 12.28 22.8 20.28 7.95 8.63 10.43 14.83 8.46 21.15a12.36 12.36 0 0 1-13.24 8.05c-3.9-.67-6.2-2.4-12.07-9.14a88 88 0 0 0-10.85-10.97 189 189 0 0 0-51.6-33.68 205 205 0 0 0-52.04-14.75c-7.79-1-9.72-1.63-9.72-3.02 0-2.84 2.9-7.2 6.37-9.67 5.45-3.9 11.48-5.03 22.58-4.2zm-35.6 27.44c.83.46 1.96.96 2.5 1.09 1.3.37 1.43.25-2.47 2.68a138 138 0 0 1-20.77 10.1c-2.3.91-4.53 1.8-4.9 2-1.47.72-.5-.33 1.54-1.67a458 458 0 0 0 13.16-9.05c4.19-3.14 4.82-3.56 6.78-4.73 2.4-1.47 2.27-1.43 4.2-.42zm30.07 5.86c18.98 4.94 32.38 9.97 45.03 16.97a163 163 0 0 1 22.84 14.66c4.86 3.73 5.23 4.15 4.31 4.6-1.42.76-6.79 8.8-9.13 13.83a44 44 0 0 0-4.44 14.12l-.46 2.72s-.67-.46-1.39-1.09l-1.8-1.5-4.27-3.6a201 201 0 0 0-26.56-18.19 230 230 0 0 0-47.09-21.03 109 109 0 0 0-14.87-3.68 227 227 0 0 0 29.75-17.73c1.59-1.13 2.22-1.46 2.68-1.42zm-62.08 29.2c9 .8 16.13 2.01 26.39 4.7 11.4 2.92 24.3 7.7 35.06 13.02 20.95 10.39 35.99 20.4 49.98 33.39 28.78 26.68 47.04 58.1 53.92 93 1.34 6.58 2.5 15.83 2.13 16.17a410 410 0 0 1-38.66 5.45l-4.99.5c-16.92 1.76-50.86 1.93-68.5.3l-8.04-.72c-16.75-1.5-41.85-5.53-56.43-9-35.52-8.47-66.06-22.46-83.45-38.13-7.12-6.33-10.55-10.98-11.68-15.46-1.43-5.86 1.92-23.08 6.7-34.22a113 113 0 0 1 17-27.4c10.9-11.69 22.84-20.74 40.69-30.7l8.29-4.62c7.54-4.23 11.52-5.86 16.04-6.4 2.52-.34 11.36-.26 15.55.12zm-342.47 7.25a84 84 0 0 0 20.27 20.52c14.12 10.81 37.12 21.2 60.33 27.36a367 367 0 0 0 51.4 9.47 444 444 0 0 0 84.5 0c3.3-.25 6.9-.67 8-.84 1.13-.21 2.1-.3 2.18-.17.16.09-.13 1.1-.59 2.14a109 109 0 0 0-5.74 21.2c-.63 4.73-.84 5.44-2.26 7.12a56 56 0 0 0-5.45 7.25 55 55 0 0 0-6.07 17.5c-.17 1.56-.17 1.56-2.56 1.77-1.34.04-5.23.33-8.67.58-8.71.59-33.97.59-44.07 0a390 390 0 0 1-54.88-7c-13.24-2.76-13.9-2.93-21.82-5.44l-7.71-2.39a151 151 0 0 1-48.35-23.58c-9.25-6.7-14.87-14.08-17.42-23.04-3.9-13.4-5.2-42.94-2.27-52.62.34-1.26.42-1.26 1.18.17zm870.9 20.19c.29 4.9 0 18.68-.42 22.91l-.63 5.53c-1.26 11.94-3.56 20.53-7.12 26.56-8.8 14.88-36.2 31.17-80.19 47.76l-9.63 3.6a5297 5297 0 0 0-36.24 14.46 1190 1190 0 0 0-70.38 33.89 1156 1156 0 0 1-46.5 22.62l-4.9 2.18a222 222 0 0 1-13.95 5.7 436 436 0 0 1-19.19 7.45 226 226 0 0 1-13.82 4.61c-4.78 1.68-21.16 6.45-28.82 8.46a419 419 0 0 1-120.48 13.37c-46-1.97-91.66-10.65-126.77-24.13a214 214 0 0 1-32.26-15.3c-14.07-7.91-26.39-18.64-30.28-26.39-1.55-3.06-3.7-9.55-4.44-13.7-1.85-9.46-2.48-29.32-1.26-38.96.84-6.15 2-11.9 2.51-11.9.09 0 1.17 1.26 2.43 2.86 11.69 14.53 26.98 25.55 50.36 36.2 14.74 6.74 28.02 11.18 51.1 17.12a309 309 0 0 0 17.18 3.65l4.73.88 4.07.71 5.28.84a452 452 0 0 0 122.32 2.01c42.77-5.32 76.87-13.7 122.28-30.16a606 606 0 0 0 32.18-12.86c2.64-1.18 5.9-2.52 7.2-3.15 10.06-4.31 10.64-4.6 21.28-9.63 3.77-1.8 9.47-4.44 12.74-5.9l20.15-9.4c4.15-1.92 10.77-4.9 20.53-9.12l17.89-7.71c2.93-1.26 9-3.73 16.96-6.79l9.34-3.64 7-2.73c50.27-19.43 73.31-32.17 90.2-49.97a63 63 0 0 0 7.87-9.51c1.26-1.93 1.13-2.47 1.67 7.54zm-851.63 1.26q.08.2.75.67l.71.42a4 4 0 0 0-.7-.68q-.72-.41-.76-.41zm0 0"></path><path d="M567.52 371.64c-11.55-2.62-33.18-10.53-33.18-12.14 0-1.16 7.53-13.28 11.21-18.05.25-.32 6.06.7 12.92 2.28 16.64 3.82 45.5 3.84 58.57.04 28.59-8.31 48.4-25.3 53.61-45.97 2.53-10.05.13-18.86-7.49-27.54-7.24-8.25-17.48-12.53-32.73-13.68-15.92-1.2-26.82.96-62.69 12.45-15.78 5.06-29.58 9.2-30.64 9.2-1.84 0-7.02-6.67-5.86-7.55 1.1-.83 58.62-19.56 65.47-21.31 23.64-6.06 45.23-5.47 64.4 1.75 13.99 5.26 29.48 20.66 34.61 34.4 5.15 13.79 4.77 23.27-1.5 36.85l-5.17 11.23-18.22-.03c-22.38-.04-31.06 3.27-44.69 17.07-8.66 8.77-9.62 9.27-17.72 9.3-9.47.05-20.43 4.33-25.42 9.94-3.5 3.94-5.09 4.12-15.48 1.76z" data-region="path16" fill="#ffffff"></path><path d="M570.92 328.2c-1.87-.39-8.19-1.91-14.04-3.4l-10.63-2.7-.14-7.9a80 80 0 0 0-2.13-15.55l-1.99-7.66 25.53-8.04c46.52-14.65 62.55-16.28 77.5-7.87 21.65 12.16 5.61 40.15-29.21 51-9.65 3-34.7 4.18-44.89 2.11z" data-region="path17" fill="#ffffff"></path><path d="M447.55 322.24c-11.7-8.6-27.57-16.7-44.67-22.76-7.25-2.57-13.19-5.05-13.19-5.5 0-2.83 17.75-26.82 26.33-35.59 14.57-14.88 23.6-17.04 44.54-10.62 34.6 10.59 62.31 36.04 66.28 60.87l1.1 6.87-6.59-1.88c-9.48-2.7-30.82-2.14-39.57 1.04-4.1 1.49-11.19 5.39-15.75 8.66-4.55 3.27-8.47 5.92-8.7 5.88s-4.63-3.18-9.78-6.97z" data-region="path18" fill="#ffffff"></path><path d="M442 369.58c-27.49-27.8-62.77-44.32-99.53-46.62-13.6-.85-15.74-1.4-15.74-4.02 0-8.17 16.86-14.39 34.93-12.88 33.22 2.76 71.35 20.83 95.21 45.1 13.7 13.94 16.05 20.82 9.4 27.47-6.2 6.2-10.95 4.42-24.27-9.05z" data-region="path19" fill="#ffffff"></path><path d="M389.7 373.05c-11.04-8.3-34.1-20.42-42.98-22.58-5.76-1.4-5.82-2.5-.44-7.55 4.06-3.82 4.63-3.9 14.03-1.83 13.7 3 32.3 10.96 45.52 19.47l11.22 7.22-8.15 6.8-8.15 6.8z" data-region="path20" fill="#ffffff"></path><path d="M299.55 519.53c-5.2-6.52-6.85-10.1-6.82-14.77.04-6.98 4.5-17.41 10.57-24.7l4.1-4.92 8.39 9.76c10.13 11.78 15.03 14.55 25.74 14.55 26.41-.03 34.74-28.95 15.07-52.33l-4.32-5.14 9.12-6.88 9.12-6.89 8.16 9.44c12.5 14.48 24.17 17.7 37.39 10.28 16.23-9.1 17.43-29.4 2.88-48.54l-4.26-5.6 6.56-6.73c7.46-7.64 9.29-8.13 12.3-3.32 1.16 1.87 5.29 5.7 9.16 8.5 13.42 9.72 32.17 5.65 39.3-8.54 5.46-10.87 3.18-23.86-6.38-36.4l-4.43-5.8 5.62-4.17c11.93-8.87 27.43-10.4 46.3-4.57l11.27 3.48-5.4 8c-25.06 37.13-75.6 88.71-119.73 122.21-28.58 21.7-65.93 44.83-90.57 56.08l-12.28 5.61z" data-region="path21" fill="#ffffff"></path><path d="M359.06 290.85c0-.66 2.74-4.55 6.1-8.64 6.01-7.35 15.4-13.69 17.35-11.73.55.56-2.09 5.4-5.87 10.76-5.55 7.87-7.91 9.86-12.23 10.29-2.94.29-5.35-.02-5.35-.68z" data-region="path22" fill="#ffffff"></path><path d="M333.44 425.32c-10.46-7.78-25.78-16.57-38.57-22.12l-12.51-5.44 5.3-4.46c6.39-5.38 6.75-5.4 21.45-.86 13.1 4.04 24.27 9.37 37.96 18.1l9.29 5.93-7.58 6.56c-4.18 3.6-8.01 6.57-8.53 6.6s-3.59-1.91-6.81-4.3z" data-region="path23" fill="#ffffff"></path><path d="M386.47 423.13c-21.64-22.34-41.6-35.14-69.1-44.31-8.42-2.81-21.31-5.85-28.64-6.76-7.33-.9-13.7-2.03-14.18-2.5-1.75-1.75 3.11-8 8.31-10.7 8.34-4.3 32.02-2.4 52.38 4.2 37.1 12.07 78.28 44.53 78.28 61.73 0 4.88-6.73 11.7-11.54 11.7-1.41 0-8.4-6.01-15.51-13.36z" data-region="path24" fill="#ffffff"></path><path d="M323.02 469.96c-26.47-26.49-58.41-43.39-93.57-49.49-7.45-1.29-14-2.8-14.56-3.36-1.48-1.48 4.65-7.77 10.5-10.8 14.5-7.49 60.8 6.21 91.61 27.11 19.8 13.43 35.25 30.34 35.25 38.58 0 6.83-4.45 12.14-10.18 12.14-3.86 0-7.87-2.99-19.05-14.18z" data-region="path25" fill="#ffffff"></path><path d="M263.79 486.36a179 179 0 0 0-54.2-26.54l-14.2-4.08 5.69-2.3c3.12-1.28 11.19-5.7 17.93-9.83l12.25-7.5 12.03 3.65c12.65 3.84 44.55 19.31 47.73 23.14 1.41 1.7.35 4.35-4.38 10.94-3.43 4.78-7.12 11.65-8.19 15.27l-1.94 6.57z" data-region="path26" fill="#ffffff"></path><path d="M207.6 629.53a708 708 0 0 0-19.56-2.65c-53.82-6.7-103.12-29.46-112.52-51.93-4.22-10.1 2.37-34.18 14.45-52.77 9.62-14.8 21.81-25.4 48.55-42.16l15.15-9.5h14.79c53.33 0 112.83 40.1 136.94 92.28 3.2 6.93 7.39 18.23 9.3 25.1l3.45 12.5-6.39 6.96a107 107 0 0 0-10.2 13.16c-3.17 5.16-5.04 6.37-11.02 7.17-9.53 1.27-77.5 2.78-82.93 1.84z" data-region="path27" fill="#ffffff"></path><path d="M215.27 700.81c-56.37-3.52-102.2-16.5-131.15-37.16-17.75-12.67-22.86-25.7-22.86-58.37v-16.07l12.42 11.8c33.77 32.07 95.8 48.1 178.55 46.1 32.23-.77 35.44-.6 34.46 1.9-.6 1.5-2.07 7.34-3.26 12.95-1.2 5.62-4.25 13.27-6.78 17s-5.45 9.95-6.49 13.81l-1.87 7.02-13.75 1.07c-13.4 1.05-21.88 1.04-39.27-.05z" data-region="path28" fill="#ffffff"></path><path d="m332.83 586-3.66-11.67c-1.6-5.15-5.83-15.19-9.39-22.31l-6.46-12.95 22.88-11.5c60.77-30.57 126.47-83.27 176-141.17l13.63-15.94 11.48 4.8c6.32 2.64 16.28 5.78 22.14 6.98 5.87 1.2 10.46 2.61 10.21 3.13-5.39 11.28-11.15 18.47-17.12 21.37-8.22 4-15.68 13.7-17.31 22.5-.66 3.52-4.16 10.27-7.8 15-5.56 7.23-8 8.95-15.36 10.84-10.52 2.7-23.1 13.76-24.7 21.73-.66 3.33-4.81 8.88-11.5 15.37-9 8.75-11.83 10.46-20.32 12.26-10.57 2.25-19 8.94-25.88 20.52-4.01 6.77-19.8 17.72-59.56 41.3a2898 2898 0 0 0-32.74 19.6c-3.17 2.04-3.93 2.06-4.55.14z" data-region="path29" fill="#ffffff"></path><path d="M679.83 435.4c-13.38-9.63-37.64-21.5-53.6-26.24-7.02-2.08-13.05-4.02-13.4-4.31-1.02-.87 17.8-29.91 24.35-37.56 12.77-14.9 29.12-17.95 53.05-9.93 18.1 6.07 29.6 12.93 43.2 25.76 11.97 11.28 20.97 25.68 23.04 36.83l1.19 6.43-7.43-1.33c-20.92-3.73-40.7.86-54.3 12.6l-5.89 5.08z" data-region="path30" fill="#ffffff"></path><path d="m786.25 434.3-9.3-2.07-1.97-12.8c-1.16-7.6-4.09-17-7.2-23.17l-5.23-10.37 20.75-6.18c27.09-8.07 38.76-10.12 52.24-9.17 27.24 1.91 39.7 19.64 27.4 39.02-5.9 9.3-13.02 14.99-26.62 21.25-8.28 3.8-12.95 4.75-25.46 5.1-8.42.24-19.5-.49-24.61-1.62z" data-region="path31" fill="#ffffff"></path><path d="M794.7 479.56c-5.2-.87-20.73-5.19-26.4-7.34l-4.15-1.58 6.16-10.36c4.66-7.82 6.84-10.06 8.9-9.18 1.5.65 11.6 1.54 22.45 2 15.41.63 21.9.17 29.7-2.1 31.36-9.11 52.84-31.76 52.5-55.34-.36-24.08-20.1-39.15-51.25-39.15-15.44 0-30.95 3.17-57.48 11.76l-20.42 6.62-3.82-3.53c-2.1-1.94-3.46-3.89-3.01-4.34 2.9-2.9 60.27-19.64 72.75-21.22 44.47-5.64 80.66 15.82 88.09 52.24 2.6 12.74 1.22 21.2-5.49 33.8-10.62 19.92-36.84 38.69-63.62 45.54-12.25 3.13-33.14 4.14-44.91 2.18z" data-region="path32" fill="#ffffff"></path><path d="M674.88 482.58c-30.76-29.46-66.74-45.7-108.18-48.82-8.44-.64-15.35-1.76-15.35-2.48 0-3.66 2.63-7 8.26-10.5 5.43-3.38 8.23-3.83 22.37-3.57 28.43.5 56.14 10.04 85.46 29.4 17.83 11.8 32.4 25.49 35.35 33.23 2.92 7.68-2.9 16.2-11.06 16.2-1.53 0-9.12-6.05-16.85-13.46z" data-region="path33" fill="#ffffff"></path><path d="M630.9 492.37c-11.95-9.67-39.27-23.84-59.67-30.96-2.93-1.02-2.89-1.38.64-6.34 3.38-4.74 4.37-5.15 9.91-4.11 14.77 2.75 38.14 11.68 51.38 19.63 20.26 12.15 19.92 11.55 11.37 19.88l-7.24 7.06z" data-region="path34" fill="#ffffff"></path><path d="M547.81 639.42c-7.74-10.77-8.05-21.3-.95-33.38l4.86-8.27 7.16 7.8c7.3 7.96 16.5 13.03 23.48 12.96 6.81-.06 18.14-6.36 21.56-11.97 7.35-12.08 6-24.66-4.05-37.82l-5.95-7.79 8.07-6.89 8.06-6.9 8.36 8.5c13.04 13.24 27 15.28 38.46 5.63 13.9-11.7 13.56-29.08-.91-46.27l-4.47-5.31 6.36-7.76 6.36-7.76 6.1 5.84c9 8.62 16.44 11.86 24.96 10.9 23.92-2.7 31.26-31.5 13-51.01-4.18-4.48-4.23-4.78-1.34-7.98 5.56-6.14 17.22-10.35 28.62-10.32 11.35.03 25.4 3.4 26.38 6.32.85 2.57-23.99 39.01-41.48 60.87C689 548.1 636.37 596.77 597.3 622.7c-14.6 9.69-40.7 24.81-42.82 24.81-.47 0-3.47-3.64-6.67-8.08z" data-region="path35" fill="#ffffff"></path><path d="M587.26 722.92c-2.73-16.32-9.8-36.07-18.68-52.27l-6.7-12.2 12.18-6.6c59.34-32.2 132.33-98.73 175.12-159.63 3.78-5.38 7.72-9.78 8.75-9.76 1.04 0 8 2.03 15.5 4.5 18.29 6.01 48.89 7.45 68 3.2 23.72-5.28 48.54-20.47 63.32-38.76l6.52-8.07 1.34 5.16c1.18 4.55.45 6.22-6.13 14.02-38.94 46.18-60.43 99.81-66.7 166.48l-1.06 11.27-19.03 7.25c-18.5 7.04-48.94 20.27-106.67 46.38-41.22 18.63-91.94 36.42-117.54 41.22l-5.98 1.13z" data-region="path36" fill="#ffffff"></path><path d="M851.94 626.5c5.9-58.25 27.2-111.52 61.13-152.9l3.76-4.57 3.97 24.14c4.77 28.99 5.74 79 1.75 90.3-4.77 13.5-30.06 33.15-60.11 46.69l-11.39 5.13z" data-region="path37" fill="#ffffff"></path><path d="M462.86 825.04c-55.52-5.57-97.2-16.43-131.78-34.32-24.7-12.78-36.96-24.27-41.01-38.42-2.97-10.37-4.23-46.14-1.76-50.14.81-1.31 5.3 1.77 13.18 9.07 41.1 38.06 140.22 60.3 231.15 51.86 69.16-6.42 127.76-24.22 215.26-65.4 26.4-12.42 51.84-23.34 83.39-35.78 53.75-21.21 71.91-31.03 90.56-48.93l10.69-10.26v15.27c0 50.14-11.19 60.99-99.21 96.2-28.44 11.38-68.5 29.41-104.86 47.2-86.7 42.4-124.28 54.93-186.84 62.25-19.32 2.26-62.54 3.03-78.77 1.4z" data-region="path38" fill="#ffffff"></path><path d="M459.46 746.09c-65.1-5.71-119.32-23.6-145.96-48.15-11.38-10.49-13.06-14.79-10.61-27.21 6.54-33.25 25.08-56.54 61.67-77.47 21.3-12.18 23.28-12.75 40.12-11.63 63.02 4.23 132.08 54.64 156.04 113.91 6.66 16.49 12.4 41.48 10.07 43.82-4.99 4.98-79.7 9.5-111.33 6.73z" data-region="path39" fill="#ffffff"></path><path d="M522.47 614.37c-3.3-3.98-31.25-22.4-43.32-28.55-5.68-2.9-18.2-8.05-27.81-11.46l-17.48-6.2 14.71-8.77 14.72-8.77 19.01 6.36c18.88 6.31 40.34 17.27 50.59 25.83l5.34 4.46-4.78 7.23c-2.64 3.98-5.67 10.7-6.74 14.93-1.72 6.76-2.23 7.36-4.24 4.94z" data-region="path40" fill="#ffffff"></path><path d="M578.21 601.45c-1.6-.94-8.66-7.37-15.67-14.3-27.71-27.34-69.94-48.22-106.92-52.84-11.1-1.38-12.34-3.71-5.41-10.13 5.83-5.41 15.22-6.74 30.11-4.26 35.83 5.95 74.5 25.62 99.46 50.57 14.93 14.93 17.39 26.91 6.38 31.1-5.17 1.96-4.32 1.97-7.95-.14z" data-region="path41" fill="#ffffff"></path><path d="M570.92 541.83c-8.36-6.68-50.43-28.76-54.78-28.76-3.32 0-2.7-2.37 1.71-6.51 2.17-2.04 5.8-3.7 8.09-3.69 11.56.04 52.9 18.23 66.1 29.09l4.11 3.37-6.58 6.74c-3.61 3.7-7.38 6.7-8.36 6.64-.98-.05-5.6-3.14-10.29-6.88z" data-region="path42" fill="#ffffff"></path><path d="M627.03 541.86c-12.25-12.47-32.63-28.14-47.15-36.26-15.19-8.5-43.83-17.64-61.54-19.65-8.3-.94-15.48-2.1-15.95-2.56-1.83-1.83 5.3-9.88 10.75-12.16 11.52-4.81 35.56-1.52 62.45 8.55 34.33 12.86 76.16 45.81 76.16 60 0 4.8-7.02 12.42-11.46 12.42-1.7 0-7.68-4.65-13.26-10.34z" data-region="path43" fill="#ffffff"></path><path d="M416.3 558.2a649 649 0 0 1 16.88-11.89c2.04-1.28 2.18-1.3 4.39-.31 1.73.77 2.09 1.16 1.5 1.63-2.9 2.32-18.93 10.23-22.73 11.24l-1.5.4z" data-region="path44" fill="#ffffff"></path><path d="M489.89 506.72c-1.74-.33-3.16-.8-3.16-1.03 0-.24 1.83-2.06 4.06-4.04l4.06-3.6 4.13.68 4.12.67-4.29 4.05c-2.35 2.22-4.61 4-5.02 3.96s-2.16-.35-3.9-.69z" data-region="path45" fill="#ffffff"></path><path d="M546.6 456.05a35 35 0 0 0-3.47-.6c-3.35-.45-3.29-.82.88-5.34l2.58-2.8 4.75.76 4.75.76-3.24 3.76c-3.02 3.5-4.21 4.16-6.26 3.46z" data-region="path46" fill="#ffffff"></path><path d="M581.34 401.7c-.92-.58 1.87-5.44 6.89-12 3.9-5.11 7.18-8.1 11.11-10.1 2.8-1.43 8.24-2.95 8.75-2.44.37.37-1.05 3.04-6.91 13-7.24 12.3-6.94 12.04-13.64 12.03-3 0-5.79-.22-6.2-.49z" data-region="path47" fill="#ffffff"></path><path d="m319.17 343.45-2.57-.55c-1.6-.34-1.33-1.01 1.84-4.65l1.98-2.28 4.38.72 4.37.72-3.17 3.22c-3.07 3.1-3.88 3.44-6.83 2.82z" data-region="path48" fill="#ffffff"></path><path d="M260 392.06c-1.34-.38-1.25-.54 1.78-3.1 6.2-5.25 5.61-4.97 8.42-4.02l2.51.85-4.1 3.4c-4.13 3.4-5.32 3.8-8.6 2.87z" data-region="path49" fill="#ffffff"></path><path d="M192.72 440.77c0-.16 12.65-9.03 13.9-9.75.54-.31 2.69.51 2.69 1.03 0 .41-2.23 1.7-9.82 5.66-5.91 3.1-6.77 3.48-6.77 3.06z" data-region="path50" fill="#ffffff"></path></svg>