<?xml version="1.0"?>

<svg width="100%" height="100%" viewBox="0 0 69 69" version="1.1" xmlns="http://www.w3.org/2000/svg" xmlns:xlink="http://www.w3.org/1999/xlink" xml:space="preserve" xmlns:serif="http://www.serif.com/" style="fill-rule:evenodd;clip-rule:evenodd;stroke-linejoin:round;stroke-miterlimit:2;">
    <g transform="matrix(1,0,0,1,-5496,-1152)">
        <g transform="matrix(1,0,0,1.59013,-0.279951,1736.77)">
            <g transform="matrix(0.665425,0,0,0.418475,1887.83,-442.091)">
                <rect x="5422.83" y="178.882" width="102.19" height="102.19" style="fill:none;"></rect>
            </g>
            <g transform="matrix(0.170488,0,0,0.107216,5374.6,-422.019)">
                <g transform="matrix(4.16667,0,0,4.16667,-322.523,377.059)">
                    <path d="M263.976,75.563C264.249,75.936 264.361,76.046 264.361,76.046C262.72,74.632 262.245,72.033 263.481,69.856C264.252,68.499 266.252,66.621 269.17,67.067C269.448,63.354 273.249,61.199 276.622,61.979C278.087,62.318 279.203,63.111 279.938,64.068C280.685,63.693 281.84,63.325 283.281,63.54C284.276,63.688 285.299,64.292 285.114,64.253C283.169,63.843 281.298,64.58 280.399,65.811C280.187,66.101 280.217,66.148 279.878,66.267C279.08,66.547 278.657,65.684 278.586,65.597C278.381,65.348 277.754,64.245 276.159,63.772C273.494,62.982 270.349,64.746 270.329,67.753C270.325,68.264 269.868,68.437 269.557,68.331C269.301,68.244 268.632,67.926 267.438,68.054C263.916,68.431 261.848,72.646 263.976,75.563Z" style="fill:rgb(6,160,238);fill-rule:nonzero;"></path>
                </g>
                <g transform="matrix(4.16667,0,0,4.16667,-322.523,526.579)">
                    <path d="M285.662,62.875C285.47,63.163 285.395,63.262 285.083,63.575C282.262,66.417 276.918,66.546 275.067,64.096C274.502,64.635 273.386,65.427 271.542,65.668C267.202,66.235 263.398,63.269 263.66,60.011C262.734,59.943 261.539,59.641 260.385,58.731C257.143,56.172 257.461,51.385 260.605,49.327C260.138,48.752 259.708,47.924 259.65,46.79C259.438,42.712 264.165,39.299 267.797,40.109C267.865,39.368 268.207,38.242 269.471,37.146C271.378,35.492 274.741,35.059 277.116,35.792C277.031,35.767 276.944,35.743 276.855,35.721C273.22,34.814 268.383,38.036 268.973,40.645C268.974,40.65 269.137,41.059 268.859,41.346C268.361,41.86 268.047,41.043 266.153,41.356C262.718,41.923 260.195,46.003 262.096,48.121C262.623,48.708 263.358,48.688 263.429,49.48C263.494,50.22 262.837,50.475 262.744,50.511C262.732,50.516 261.28,50.913 260.611,52.461C259.425,55.205 261.941,58.176 264.884,57.678C266.293,57.439 266.474,58.676 266.273,59.178C266.165,59.447 265.299,60.412 266.326,61.956C267.878,64.288 272.592,65.167 274.713,62.779C275.062,62.387 275.547,62.586 275.68,62.927C275.685,62.939 275.969,64.304 278.089,64.946C279.596,65.402 281.722,65.196 283.355,64.464C284.789,63.821 285.667,62.869 285.662,62.875Z" style="fill:rgb(6,160,238);fill-rule:nonzero;"></path>
                </g>
                <g transform="matrix(4.16667,0,0,4.16667,-322.523,473.579)">
                    <path d="M281.243,53.695C280.114,53.928 277.046,55.43 278.004,54.821C279.121,54.111 279.332,53.92 280.658,53.428C279.988,52.989 278.312,51.639 278.369,49.124C278.468,44.747 283.994,40.379 290.043,40.634C290.383,39.449 291.177,37.92 292.987,36.495C297.575,32.882 305.205,32.873 308.316,36.719C309.26,35.973 311.14,34.796 313.977,34.409C320.464,33.524 325.206,37.635 323.502,41.846C323.415,42.061 323.263,42.186 323.261,42.188C323.281,42.181 323.383,42.022 324.501,41.878C324.707,41.852 326.099,41.714 327.061,41.753C333.445,42.013 336.157,47.52 332.151,51.773C331.762,52.185 331.363,52.521 331.025,52.776C332.129,53.192 333.878,54.134 334.704,56.1C336.598,60.605 331.823,65.486 326.303,66.325C327.772,71.451 321.154,77.05 313.947,76.332C312.562,76.194 311.537,75.851 310.821,75.52C310.105,76.527 308.759,77.903 306.35,78.904C300.803,81.207 293.675,79.26 292.924,74.564C291.924,74.997 289.781,75.723 287.052,75.466C284.669,75.242 282.731,74.298 281.521,73.012C281.544,73.036 281.568,73.059 281.592,73.082C284.119,75.512 289.345,75.642 292.843,73.413C292.88,73.39 293.217,73.175 293.313,73.157C293.476,73.125 293.926,73.169 293.974,73.691C294.383,78.145 302.077,79.244 306.808,75.691C308.702,74.269 308.862,72.987 309.181,72.606C309.598,72.11 310.336,71.956 310.916,72.245C310.985,72.279 313.497,74.366 318.176,73.164C322.615,72.025 325.162,68.48 323.746,66.051C323.736,66.033 323.403,65.599 323.539,65.066C323.64,64.666 324.023,64.231 324.63,64.224C324.637,64.224 327.605,64.481 330.492,62.62C334.916,59.767 334.445,55.047 329.917,53.595C329.895,53.588 329.072,53.469 329.206,52.858C329.316,52.359 330.163,52.362 331.489,51.114C335.402,47.43 332.923,42.328 326.877,41.823C323.911,41.575 322.895,42.835 323.201,42.04C324.938,37.53 319.203,33.948 312.991,36.004C310.023,36.987 308.885,38.664 308.702,38.807C308.509,38.958 307.827,39.256 307.356,38.532C305.771,36.096 301.861,35.763 298.83,36.662C295.68,37.596 292.946,39.99 293.262,42.369C293.235,42.556 293.254,42.747 293.227,42.933C293.136,43.555 292.189,44.643 290.913,44.145C286.395,42.383 279.376,45.426 279.455,49.938C279.493,52.161 281.329,53.261 281.388,53.372C281.453,53.496 281.385,53.665 281.243,53.695Z" style="fill:rgb(6,160,238);fill-rule:nonzero;"></path>
                </g>
                <g transform="matrix(4.16667,0,0,4.16667,-322.523,528.936)">
                    <path d="M269.33,59.279C269.376,59.485 269.475,59.672 269.628,59.84C269.799,60.003 270,60.129 270.231,60.217C270.465,60.32 270.712,60.389 270.97,60.425C271.247,60.457 271.514,60.445 271.771,60.388C272.23,60.287 272.6,60.089 272.882,59.795C273.164,59.5 273.261,59.154 273.173,58.756C273.157,58.682 273.133,58.618 273.101,58.563C273.085,58.489 273.06,58.417 273.025,58.347C273.091,57.513 273.193,56.84 273.331,56.33C274.397,55.925 275.376,55.562 276.269,55.241C277.157,54.906 277.978,54.609 278.73,54.35C279.904,55.746 280.589,56.492 280.784,56.589C280.822,56.673 280.85,56.76 280.87,56.848C280.889,56.937 280.907,57.018 280.924,57.092C280.997,57.338 281.124,57.519 281.303,57.634C281.787,57.992 282.552,58.055 283.599,57.824C284.701,57.581 285.17,57.091 285.007,56.353C284.91,55.91 284.59,55.594 284.047,55.405C283.021,54.594 282.361,53.874 282.067,53.242C282.432,53.146 282.715,53.076 282.917,53.032C283.115,52.972 283.224,52.941 283.242,52.936C283.673,52.795 283.932,52.614 284.018,52.394C284.155,52.054 284.191,51.737 284.126,51.442C283.999,50.867 283.57,50.451 282.839,50.194C282.673,50.138 282.47,50.136 282.232,50.189C282.029,50.234 281.745,50.343 281.379,50.516C281.083,50.659 280.838,50.767 280.642,50.841C280.465,50.911 280.35,50.96 280.299,50.987C279.346,49.464 278.529,48.028 277.846,46.678C277.159,45.313 276.586,44.024 276.125,42.811C276.375,42.369 276.444,41.897 276.333,41.395C276.216,40.864 275.797,40.539 275.078,40.419C274.54,40.337 273.876,40.383 273.086,40.557C272.663,40.65 272.343,40.768 272.123,40.909C271.551,41.283 271.346,41.838 271.509,42.576C271.529,42.665 271.548,42.753 271.568,42.842C271.606,42.926 271.644,43.011 271.681,43.095C270.534,47.232 269.888,52.248 269.744,58.143C269.387,58.531 269.249,58.91 269.33,59.279ZM274.366,47.144C275.653,49.66 276.543,51.336 277.035,52.171L273.351,53.541C273.244,51.832 273.582,49.7 274.366,47.144Z" style="fill:rgb(204,48,0);fill-rule:nonzero;"></path>
                </g>
                <g transform="matrix(4.16667,0,0,4.16667,-322.523,503.248)">
                    <path d="M286.476,61.451C286.792,61.923 287.265,62.275 287.894,62.508C288.461,62.723 288.956,62.784 289.379,62.691C289.416,62.683 289.451,62.667 289.484,62.644C289.539,62.632 289.585,62.622 289.622,62.614C290.477,62.301 291.036,61.954 291.298,61.571C291.651,61.075 291.959,60.768 292.221,60.648C292.536,60.501 293.033,60.353 293.712,60.203C294.447,60.041 294.968,59.872 295.276,59.695C295.635,59.492 295.915,59.191 296.116,58.79C296.335,58.386 296.404,58 296.322,57.631C296.273,57.41 296.174,57.223 296.025,57.07C295.211,56.259 294.473,55.927 293.812,56.073C293.573,56.126 293.285,56.259 292.947,56.473C292.624,56.668 292.303,56.87 291.983,57.08L290.447,57.976L286.76,45.979L286.755,45.957C286.729,45.839 286.776,45.705 286.897,45.554C287.033,45.385 287.087,45.234 287.057,45.101C287.034,44.998 286.958,44.868 286.827,44.711C286.724,44.595 286.559,44.5 286.331,44.426C286.118,44.334 285.873,44.272 285.596,44.24C285.316,44.194 285.014,44.175 284.688,44.185C284.382,44.191 284.081,44.226 283.787,44.291C283.053,44.453 282.533,44.715 282.227,45.077C281.997,45.344 281.904,45.573 281.946,45.765C281.962,45.839 282.009,45.921 282.087,46.013C282.18,46.085 282.266,46.167 282.343,46.258C282.436,46.33 282.519,46.397 282.59,46.459C282.68,46.516 282.728,46.56 282.734,46.589L286.851,59.744L286.861,59.789C286.893,59.936 286.807,60.156 286.602,60.449C286.4,60.757 286.319,60.999 286.358,61.176C286.368,61.22 286.377,61.264 286.387,61.309C286.415,61.349 286.445,61.396 286.476,61.451Z" style="fill:rgb(235,168,0);fill-rule:nonzero;"></path>
                </g>
                <g transform="matrix(4.16667,0,0,4.16667,-322.523,478.716)">
                    <path d="M297.104,65.226C297.315,65.659 297.73,65.97 298.349,66.158C298.889,66.333 299.461,66.353 300.067,66.22C300.398,66.147 300.671,66.032 300.887,65.876C301.465,65.439 301.703,64.992 301.602,64.535C301.57,64.387 301.483,64.213 301.342,64.012C301.208,63.577 301.088,63.163 300.981,62.769C300.875,62.375 300.785,62.008 300.71,61.668C300.635,61.329 300.574,61.01 300.527,60.711C300.477,60.397 300.443,60.11 300.424,59.852C300.587,59.63 300.759,59.406 300.941,59.181C301.137,58.936 301.356,58.749 301.597,58.618C301.878,58.324 302.468,58.07 303.364,57.857C304.184,57.645 304.65,57.356 304.762,56.991C304.84,56.819 304.856,56.63 304.81,56.424C304.703,55.937 304.288,55.541 303.566,55.236C302.859,54.913 302.199,54.803 301.587,54.907L301.532,54.919C301.238,54.984 300.933,55.26 300.617,55.748C300.389,55.937 300.194,56.104 300.034,56.248C299.888,56.373 299.759,56.486 299.646,56.589C299.502,56.11 299.372,55.651 299.256,55.213C299.14,54.774 299.038,54.356 298.95,53.957C298.729,52.954 298.592,52.072 298.539,51.31C298.78,51.179 299.086,50.996 299.458,50.759C299.844,50.503 300.3,50.209 300.823,49.877C300.838,49.858 300.91,49.835 301.039,49.807C302.366,49.452 303.045,49.255 303.076,49.218C303.759,48.912 304.033,48.45 303.896,47.83L303.881,47.764C303.75,47.344 303.341,47.016 302.653,46.781C301.948,46.55 301.328,46.494 300.796,46.611C300.337,46.712 300.01,46.846 299.816,47.013C299.636,47.161 299.465,47.299 299.301,47.428C298.923,47.636 298.595,47.808 298.317,47.947C298.04,48.086 297.816,48.205 297.645,48.304C297.512,48.225 297.404,48.172 297.321,48.144C297.256,48.112 297.213,48.09 297.191,48.08C297.009,48.042 296.721,48.044 296.325,48.085C296.194,48.099 296.073,48.118 295.962,48.142C295.849,48.152 295.746,48.166 295.655,48.187C294.498,48.442 294.004,48.953 294.173,49.72C294.186,49.779 294.201,49.846 294.217,49.919C294.23,49.978 294.254,50.043 294.288,50.113C294.575,51.674 294.979,53.635 295.5,55.995C296.027,58.385 296.672,61.175 297.433,64.364C297.339,64.462 297.247,64.568 297.157,64.68C297.066,64.793 297.038,64.931 297.074,65.093L297.104,65.226Z" style="fill:rgb(63,189,0);fill-rule:nonzero;"></path>
                </g>
                <g transform="matrix(4.16667,0,0,4.16667,-322.523,435.618)">
                    <path d="M304.699,59.121C304.67,59.009 304.664,58.985 304.664,58.985C304.639,58.889 304.614,58.792 304.589,58.694L304.579,58.65C304.537,58.458 304.416,58.261 304.217,58.057C304.033,57.835 303.928,57.664 303.902,57.546C303.843,57.281 303.993,56.954 304.35,56.566C304.617,56.29 305.007,56.096 305.521,55.982C306.091,55.857 306.761,55.84 307.533,55.933C308.409,56.064 308.896,56.351 308.994,56.794C309.02,56.912 308.915,57.353 308.679,58.117L311.914,71.466C311.933,71.554 311.983,71.652 312.065,71.757C312.146,71.863 312.229,71.977 312.313,72.097L312.556,72.415C312.634,72.506 312.683,72.596 312.702,72.684C312.715,72.743 312.718,72.797 312.709,72.845C312.719,72.889 312.721,72.943 312.716,73.006C312.635,73.426 312.2,73.723 311.41,73.898C311.3,73.922 311.179,73.941 311.047,73.955C310.937,73.979 310.816,73.998 310.684,74.011C309.114,74.141 308.152,73.967 307.796,73.489C307.718,73.397 307.667,73.3 307.645,73.197C307.576,72.887 307.719,72.531 308.073,72.128C307.505,69.982 306.38,65.646 304.699,59.121ZM308.106,49.353C308.171,49.296 308.134,49.329 308.193,49.282C308.271,49.219 308.373,49.173 308.487,49.132L308.597,49.107C308.854,49.051 309.21,49.049 309.665,49.104C310.237,49.163 310.608,49.275 310.779,49.438C310.972,49.612 311.083,49.766 311.112,49.898C311.144,50.046 311.085,50.214 310.934,50.402C310.736,50.724 310.621,50.904 310.591,50.942C310.454,51.281 310.31,51.63 310.158,51.989C310.024,52.343 309.889,52.69 309.752,53.03C309.482,53.553 309.143,53.891 308.733,54.043C308.556,54.113 308.403,54.163 308.275,54.191C307.687,54.321 307.127,54.228 306.595,53.912C306.398,53.801 306.282,53.672 306.25,53.524C306.208,53.332 306.28,53.092 306.466,52.803C306.535,52.68 306.606,52.564 306.678,52.455C306.769,52.342 306.849,52.224 306.918,52.1L307.72,50.368L307.914,49.676C307.945,49.552 308.005,49.44 308.106,49.353Z" style="fill:rgb(204,0,136);"></path>
                </g>
                <g transform="matrix(4.16667,0,0,4.16667,-322.523,443.253)">
                    <path d="M313.7,69.611C313.794,70.038 314.233,70.367 315.015,70.597C315.718,70.813 316.363,70.856 316.95,70.727C317.465,70.613 317.867,70.385 318.157,70.042C318.463,69.681 318.581,69.346 318.513,69.036C318.474,68.859 318.333,68.611 318.089,68.294C317.867,67.987 317.712,67.719 317.623,67.492L316.707,64.909L322.349,66.913C322.725,67.046 323.128,67.476 323.558,68.201C323.925,68.816 324.461,69.154 325.168,69.215C325.346,69.237 325.564,69.22 325.821,69.163C326.519,69.009 327.112,68.6 327.601,67.935C328.087,67.256 328.261,66.606 328.125,65.986C328.086,65.809 328.021,65.646 327.93,65.496C327.758,65.24 327.438,65.055 326.97,64.942C326.52,64.824 326.081,64.712 325.653,64.606L318.403,62.121L322.248,53.104C322.314,52.965 322.496,52.786 322.794,52.565C323.028,52.405 323.154,52.146 323.171,51.786C323.164,51.756 323.159,51.734 323.156,51.72C323.168,51.686 323.171,51.654 323.164,51.625C323.08,51.241 322.697,50.947 322.016,50.741C321.317,50.54 320.682,50.502 320.113,50.627C319.507,50.761 319.128,51.054 318.978,51.505C318.928,51.717 318.879,51.929 318.829,52.141C318.798,52.349 318.758,52.559 318.708,52.771L315.535,60.387L314.344,54.987C314.324,54.899 314.329,54.789 314.358,54.659C314.387,54.529 314.416,54.399 314.445,54.268C314.474,54.138 314.505,54.015 314.537,53.9C314.57,53.785 314.578,53.69 314.561,53.616C314.529,53.469 314.439,53.326 314.293,53.188C313.738,52.676 312.642,52.601 311.008,52.962C310.549,53.063 310.263,53.165 310.151,53.267C309.748,53.711 309.578,54.074 309.64,54.354C309.656,54.428 309.703,54.51 309.781,54.602C309.859,54.693 309.938,54.791 310.019,54.897C310.119,54.999 310.211,55.11 310.295,55.231C310.395,55.333 310.454,55.428 310.474,55.516L314.071,68.415C314.107,68.577 314.045,68.776 313.886,69.013C313.726,69.249 313.664,69.448 313.7,69.611Z" style="fill:rgb(152,12,223);fill-rule:nonzero;"></path>
                </g>
            </g>
        </g>
    </g>
</svg>